M48
; DRILL file {KiCad 7.0.7} date Sun Nov 19 22:39:33 2023
; FORMAT={-:-/ absolute / inch / decimal}
; #@! TF.CreationDate,2023-11-19T22:39:33+01:00
; #@! TF.GenerationSoftware,Kicad,Pcbnew,7.0.7
; #@! TF.FileFunction,Plated,1,2,PTH
FMAT,2
INCH
; #@! TA.AperFunction,Plated,PTH,ViaDrill
T1C0.0157
; #@! TA.AperFunction,Plated,PTH,ComponentDrill
T2C0.0394
; #@! TA.AperFunction,Plated,PTH,ComponentDrill
T3C0.0433
; #@! TA.AperFunction,Plated,PTH,ComponentDrill
T4C0.1063
%
G90
G05
T1
X-0.5416Y5.3777
X0.2004Y0.7637
X0.3444Y0.7617
X0.4604Y0.9517
X0.4684Y1.0517
X0.6584Y1.2057
X0.6844Y1.0337
X0.7444Y1.8557
X0.8564Y1.6217
X0.9664Y1.7017
X1.0044Y1.8817
X1.0324Y1.6197
X1.0924Y0.5457
X1.1084Y1.8457
X1.2084Y0.8797
X1.3044Y1.9837
X1.3384Y1.9217
X1.363Y2.3037
X1.4024Y2.3037
X1.4084Y1.7057
X1.4124Y2.7457
X1.4417Y2.3037
X1.5064Y2.4317
X1.5764Y2.3057
X1.6644Y2.5917
X1.9624Y0.5257
X2.0324Y3.1557
X2.0584Y2.5477
X2.1164Y2.5497
X2.1224Y0.4557
X2.1504Y2.3537
X2.1684Y2.2837
X2.2524Y1.5857
X2.2624Y2.0257
X2.2724Y1.8857
X2.3164Y2.3917
X2.3304Y2.6277
X2.3902Y2.6956
X2.4964Y1.0837
X2.4977Y2.4901
X2.5084Y2.3437
X2.5144Y2.5417
X2.5144Y2.4497
X2.5804Y0.9337
X2.6164Y1.1277
X2.6164Y1.0757
X2.6224Y0.7957
X2.6404Y0.9337
X2.6544Y0.8577
X2.6884Y1.0797
X2.8224Y0.9597
X2.8364Y1.1937
X2.9424Y2.6157
X2.9864Y1.2117
X3.0464Y1.0797
X3.0553Y1.1808
X3.0604Y2.8257
X3.0654Y1.1427
X3.0764Y0.9977
X3.0864Y1.2857
X3.0924Y2.3562
X3.0924Y2.1802
X3.1024Y3.1557
X3.1884Y1.5437
X3.2164Y1.3557
X3.3544Y1.1051
X3.3544Y1.0657
X3.3544Y1.0257
X3.3544Y0.9857
X3.3544Y0.9457
X3.3544Y0.9057
X3.3824Y1.2597
X3.4684Y2.7357
X3.5024Y2.5857
X3.5024Y2.4857
X3.5384Y0.9797
X3.5464Y2.6572
X3.5924Y1.0557
X3.5924Y0.8862
X3.6125Y2.6856
X3.6209Y0.9137
X3.6527Y1.8492
X3.6527Y1.8099
X3.6527Y1.7705
X3.6527Y1.6872
X3.6527Y1.6479
X3.6527Y1.6085
X3.6527Y1.5252
X3.6527Y1.4859
X3.6527Y1.4465
X3.6534Y1.7298
X3.6534Y1.5678
X3.6534Y1.4058
X3.7124Y1.2797
X3.8308Y1.3177
X3.8508Y2.0617
X3.8528Y2.1637
X3.8548Y1.9617
X3.9424Y1.1017
X4.0068Y2.7297
X4.0068Y2.4597
X4.0415Y2.8537
X4.0808Y2.8537
X4.1228Y2.8537
X4.1622Y2.8537
X4.1824Y3.1557
X4.1924Y2.7157
X4.1924Y2.6357
X4.1962Y1.8492
X4.1962Y1.8099
X4.1962Y1.7705
X4.1962Y1.6872
X4.1962Y1.6479
X4.1962Y1.6085
X4.1962Y1.5252
X4.1962Y1.4859
X4.1962Y1.4465
X4.1969Y1.7298
X4.1969Y1.5678
X4.1969Y1.4058
X4.2324Y2.3457
X4.2624Y0.7897
X4.292Y0.8183
X4.3744Y1.3177
X4.3944Y2.0617
X4.3964Y2.1637
X4.3984Y1.9617
X4.4404Y2.3137
X4.4404Y2.2117
X4.5024Y1.1017
X4.5504Y2.7297
X4.5504Y2.4597
X4.5504Y1.5697
X4.585Y2.8537
X4.6164Y1.2117
X4.6164Y1.1177
X4.6244Y2.8537
X4.6664Y2.8537
X4.7057Y2.8537
X4.7397Y1.8492
X4.7397Y1.8099
X4.7397Y1.7705
X4.7397Y1.6872
X4.7397Y1.6479
X4.7397Y1.6085
X4.7397Y1.5252
X4.7397Y1.4859
X4.7397Y1.4465
X4.7404Y2.7137
X4.7404Y2.6357
X4.7404Y1.7298
X4.7404Y1.5678
X4.7404Y1.4058
X4.7784Y2.3497
X4.8124Y0.6557
X4.9444Y2.1657
X4.9444Y2.0677
X4.9444Y1.9637
X4.9844Y2.2157
X5.153Y2.8917
X5.1924Y2.8917
X5.2344Y2.8917
X5.2424Y3.1457
X5.2504Y2.1577
X5.2584Y2.2477
X5.2737Y2.8917
X5.2774Y1.8257
X5.2774Y1.5207
X5.2824Y1.1457
X5.2824Y0.8907
X5.2884Y2.3137
X5.5224Y0.9957
X5.5624Y0.9957
T2
X1.1224Y1.4477
X1.1224Y1.3477
X1.2224Y1.4477
X1.2224Y1.3477
X1.3224Y1.4477
X1.3224Y1.3477
X1.4156Y3.0442
X1.4156Y0.5558
X1.4224Y1.4477
X1.4224Y1.3477
X1.4578Y2.9535
X1.4578Y0.6465
X1.5062Y3.0864
X1.5062Y0.5136
X1.5142Y1.1024
X1.5224Y1.4477
X1.5224Y1.3477
X1.5485Y2.9958
X1.5485Y0.6042
X1.5968Y3.1287
X1.5968Y0.4713
X1.6142Y1.1024
X1.6224Y1.4477
X1.6224Y1.3477
X1.6391Y3.0381
X1.6391Y0.5619
X1.6875Y3.171
X1.6875Y0.429
X1.7224Y1.4477
X1.7224Y1.3477
X1.7297Y3.0803
X1.7297Y0.5197
X1.7781Y3.2132
X1.7781Y0.3868
X1.8204Y3.1226
X1.8204Y0.4774
X1.8224Y1.4477
X1.8224Y1.3477
X1.8687Y3.2555
X1.8687Y0.3445
X1.911Y3.1648
X1.911Y0.4352
X1.9224Y1.4477
X1.9224Y1.3477
X1.9594Y3.2977
X1.9594Y0.3023
X2.0Y1.175
X2.0016Y3.2071
X2.0016Y0.3929
X2.0224Y1.4477
X2.0224Y1.3477
X2.05Y3.34
X2.05Y0.26
X2.0923Y3.2494
X2.0923Y0.3506
X2.1Y1.175
X2.1224Y1.4477
X2.1224Y1.3477
X2.2224Y1.4477
X2.2224Y1.3477
X2.3224Y1.4477
X2.3224Y1.3477
X2.4224Y1.4477
X2.4224Y1.3477
X2.4906Y3.0442
X2.4906Y0.5558
X2.5224Y1.4477
X2.5224Y1.3477
X2.5328Y2.9535
X2.5328Y0.6465
X2.54Y1.93
X2.54Y1.83
X2.54Y1.73
X2.54Y1.63
X2.5812Y3.0864
X2.5812Y0.5136
X2.6224Y1.4477
X2.6224Y1.3477
X2.6235Y2.9958
X2.6235Y0.6042
X2.6718Y3.1287
X2.6718Y0.4713
X2.7141Y3.0381
X2.7141Y0.5619
X2.7224Y1.4477
X2.7224Y1.3477
X2.7625Y3.171
X2.7625Y0.429
X2.8Y1.975
X2.8Y1.875
X2.8Y1.775
X2.8Y1.675
X2.8047Y3.0803
X2.8047Y0.5197
X2.8224Y1.4477
X2.8224Y1.3477
X2.8531Y3.2132
X2.8531Y0.3868
X2.8954Y3.1226
X2.8954Y0.4774
X2.9224Y1.4477
X2.9224Y1.3477
X2.9437Y3.2555
X2.9437Y0.3445
X2.986Y3.1648
X2.986Y0.4352
X3.0224Y1.4477
X3.0224Y1.3477
X3.0344Y3.2977
X3.0344Y0.3023
X3.0766Y3.2071
X3.0766Y0.3929
X3.125Y3.34
X3.125Y0.26
X3.1673Y3.2494
X3.1673Y0.3506
X3.5164Y2.3182
X3.5164Y2.2197
X3.5184Y1.5022
X3.5184Y1.4037
X3.5656Y3.0442
X3.5656Y0.5558
X3.6078Y2.9535
X3.6078Y0.6465
X3.6562Y3.0864
X3.6562Y0.5136
X3.6985Y2.9958
X3.6985Y0.6042
X3.7468Y3.1287
X3.7468Y0.4713
X3.7891Y3.0381
X3.7891Y0.5619
X3.8375Y3.171
X3.8375Y0.429
X3.8797Y3.0803
X3.8797Y0.5197
X3.8924Y1.0197
X3.8924Y0.8757
X3.9281Y3.2132
X3.9281Y0.3868
X3.9553Y2.5157
X3.9553Y2.4157
X3.9553Y2.3157
X3.9553Y2.2157
X3.9553Y2.1157
X3.9553Y2.0157
X3.9553Y1.9157
X3.9553Y1.8157
X3.9553Y1.7157
X3.9553Y1.6157
X3.9553Y1.5157
X3.9553Y1.4157
X3.9553Y1.3157
X3.9704Y3.1226
X3.9704Y0.4774
X3.9924Y1.0197
X3.9924Y0.8757
X4.0187Y3.2555
X4.0187Y0.3445
X4.0553Y2.5157
X4.0553Y2.4157
X4.0553Y2.3157
X4.0553Y2.2157
X4.0553Y2.1157
X4.0553Y2.0157
X4.0553Y1.9157
X4.0553Y1.8157
X4.0553Y1.7157
X4.0553Y1.6157
X4.0553Y1.5157
X4.0553Y1.4157
X4.0553Y1.3157
X4.061Y3.1648
X4.061Y0.4352
X4.0924Y1.0197
X4.0924Y0.8757
X4.1094Y3.2977
X4.1094Y0.3023
X4.1516Y3.2071
X4.1516Y0.3929
X4.2Y3.34
X4.2Y0.26
X4.2423Y3.2494
X4.2423Y0.3506
X4.4524Y0.8757
X4.453Y1.0197
X4.4988Y2.5157
X4.4988Y2.4157
X4.4988Y2.3157
X4.4988Y2.2157
X4.4988Y2.1157
X4.4988Y2.0157
X4.4988Y1.9157
X4.4988Y1.8157
X4.4988Y1.7157
X4.4988Y1.6157
X4.4988Y1.5157
X4.4988Y1.4157
X4.4988Y1.3157
X4.5524Y0.8757
X4.553Y1.0197
X4.5988Y2.5157
X4.5988Y2.4157
X4.5988Y2.3157
X4.5988Y2.2157
X4.5988Y2.1157
X4.5988Y2.0157
X4.5988Y1.9157
X4.5988Y1.8157
X4.5988Y1.7157
X4.5988Y1.6157
X4.5988Y1.5157
X4.5988Y1.4157
X4.5988Y1.3157
X4.6406Y3.0442
X4.6406Y0.5558
X4.6524Y0.8757
X4.653Y1.0197
X4.6828Y2.9535
X4.6828Y0.6465
X4.7312Y3.0864
X4.7312Y0.5136
X4.7735Y2.9958
X4.7735Y0.6042
X4.8218Y3.1287
X4.8218Y0.4713
X4.8641Y3.0381
X4.8641Y0.5619
X4.9125Y3.171
X4.9125Y0.429
X4.9547Y3.0803
X4.9547Y0.5197
X4.9874Y0.8757
X4.9888Y1.0207
X5.0031Y3.2132
X5.0031Y0.3868
X5.0424Y2.5157
X5.0424Y2.4157
X5.0424Y2.3157
X5.0424Y2.2157
X5.0424Y2.1157
X5.0424Y2.0157
X5.0424Y1.9157
X5.0424Y1.8157
X5.0424Y1.7157
X5.0424Y1.6157
X5.0424Y1.5157
X5.0424Y1.4157
X5.0424Y1.3157
X5.0454Y3.1226
X5.0454Y0.4774
X5.0874Y0.8757
X5.0888Y1.0207
X5.0937Y3.2555
X5.0937Y0.3445
X5.136Y3.1648
X5.136Y0.4352
X5.1424Y2.5157
X5.1424Y2.4157
X5.1424Y2.3157
X5.1424Y2.2157
X5.1424Y2.1157
X5.1424Y2.0157
X5.1424Y1.9157
X5.1424Y1.8157
X5.1424Y1.7157
X5.1424Y1.6157
X5.1424Y1.5157
X5.1424Y1.4157
X5.1424Y1.3157
X5.1844Y3.2977
X5.1844Y0.3023
X5.1874Y0.8757
X5.1888Y1.0207
X5.2266Y3.2071
X5.2266Y0.3929
X5.275Y3.34
X5.275Y0.26
X5.3173Y3.2494
X5.3173Y0.3506
T3
X1.0818Y2.4828
X1.2629Y2.4828
T4
X0.9276Y2.7603
X0.9276Y0.8312
X3.211Y2.7603
X3.211Y0.8312
T0
M30
