%TF.GenerationSoftware,KiCad,Pcbnew,7.0.7*%
%TF.CreationDate,2023-10-27T11:47:26+02:00*%
%TF.ProjectId,BOB4AXIS,424f4234-4158-4495-932e-6b696361645f,rev?*%
%TF.SameCoordinates,Original*%
%TF.FileFunction,Legend,Bot*%
%TF.FilePolarity,Positive*%
%FSLAX46Y46*%
G04 Gerber Fmt 4.6, Leading zero omitted, Abs format (unit mm)*
G04 Created by KiCad (PCBNEW 7.0.7) date 2023-10-27 11:47:26*
%MOMM*%
%LPD*%
G01*
G04 APERTURE LIST*
G04 Aperture macros list*
%AMRoundRect*
0 Rectangle with rounded corners*
0 $1 Rounding radius*
0 $2 $3 $4 $5 $6 $7 $8 $9 X,Y pos of 4 corners*
0 Add a 4 corners polygon primitive as box body*
4,1,4,$2,$3,$4,$5,$6,$7,$8,$9,$2,$3,0*
0 Add four circle primitives for the rounded corners*
1,1,$1+$1,$2,$3*
1,1,$1+$1,$4,$5*
1,1,$1+$1,$6,$7*
1,1,$1+$1,$8,$9*
0 Add four rect primitives between the rounded corners*
20,1,$1+$1,$2,$3,$4,$5,0*
20,1,$1+$1,$4,$5,$6,$7,0*
20,1,$1+$1,$6,$7,$8,$9,0*
20,1,$1+$1,$8,$9,$2,$3,0*%
G04 Aperture macros list end*
%ADD10C,0.150000*%
%ADD11C,0.120000*%
%ADD12C,2.200000*%
%ADD13R,2.200000X2.200000*%
%ADD14C,0.800000*%
%ADD15C,6.400000*%
%ADD16R,1.700000X1.700000*%
%ADD17O,1.700000X1.700000*%
%ADD18R,1.600000X1.600000*%
%ADD19O,1.600000X1.600000*%
%ADD20RoundRect,0.250000X0.600000X-0.600000X0.600000X0.600000X-0.600000X0.600000X-0.600000X-0.600000X0*%
%ADD21C,1.700000*%
%ADD22RoundRect,0.250000X0.400000X0.625000X-0.400000X0.625000X-0.400000X-0.625000X0.400000X-0.625000X0*%
%ADD23RoundRect,0.250000X0.650000X-0.412500X0.650000X0.412500X-0.650000X0.412500X-0.650000X-0.412500X0*%
%ADD24RoundRect,0.250000X-0.625000X0.400000X-0.625000X-0.400000X0.625000X-0.400000X0.625000X0.400000X0*%
%ADD25RoundRect,0.250000X-1.450000X0.400000X-1.450000X-0.400000X1.450000X-0.400000X1.450000X0.400000X0*%
%ADD26RoundRect,0.150000X-0.825000X-0.150000X0.825000X-0.150000X0.825000X0.150000X-0.825000X0.150000X0*%
%ADD27RoundRect,0.250000X-0.650000X0.412500X-0.650000X-0.412500X0.650000X-0.412500X0.650000X0.412500X0*%
G04 APERTURE END LIST*
D10*
X47225857Y-22764819D02*
X47559190Y-22288628D01*
X47797285Y-22764819D02*
X47797285Y-21764819D01*
X47797285Y-21764819D02*
X47416333Y-21764819D01*
X47416333Y-21764819D02*
X47321095Y-21812438D01*
X47321095Y-21812438D02*
X47273476Y-21860057D01*
X47273476Y-21860057D02*
X47225857Y-21955295D01*
X47225857Y-21955295D02*
X47225857Y-22098152D01*
X47225857Y-22098152D02*
X47273476Y-22193390D01*
X47273476Y-22193390D02*
X47321095Y-22241009D01*
X47321095Y-22241009D02*
X47416333Y-22288628D01*
X47416333Y-22288628D02*
X47797285Y-22288628D01*
X46273476Y-22764819D02*
X46844904Y-22764819D01*
X46559190Y-22764819D02*
X46559190Y-21764819D01*
X46559190Y-21764819D02*
X46654428Y-21907676D01*
X46654428Y-21907676D02*
X46749666Y-22002914D01*
X46749666Y-22002914D02*
X46844904Y-22050533D01*
X45654428Y-21764819D02*
X45559190Y-21764819D01*
X45559190Y-21764819D02*
X45463952Y-21812438D01*
X45463952Y-21812438D02*
X45416333Y-21860057D01*
X45416333Y-21860057D02*
X45368714Y-21955295D01*
X45368714Y-21955295D02*
X45321095Y-22145771D01*
X45321095Y-22145771D02*
X45321095Y-22383866D01*
X45321095Y-22383866D02*
X45368714Y-22574342D01*
X45368714Y-22574342D02*
X45416333Y-22669580D01*
X45416333Y-22669580D02*
X45463952Y-22717200D01*
X45463952Y-22717200D02*
X45559190Y-22764819D01*
X45559190Y-22764819D02*
X45654428Y-22764819D01*
X45654428Y-22764819D02*
X45749666Y-22717200D01*
X45749666Y-22717200D02*
X45797285Y-22669580D01*
X45797285Y-22669580D02*
X45844904Y-22574342D01*
X45844904Y-22574342D02*
X45892523Y-22383866D01*
X45892523Y-22383866D02*
X45892523Y-22145771D01*
X45892523Y-22145771D02*
X45844904Y-21955295D01*
X45844904Y-21955295D02*
X45797285Y-21860057D01*
X45797285Y-21860057D02*
X45749666Y-21812438D01*
X45749666Y-21812438D02*
X45654428Y-21764819D01*
X38658580Y-89495333D02*
X38706200Y-89447714D01*
X38706200Y-89447714D02*
X38753819Y-89304857D01*
X38753819Y-89304857D02*
X38753819Y-89209619D01*
X38753819Y-89209619D02*
X38706200Y-89066762D01*
X38706200Y-89066762D02*
X38610961Y-88971524D01*
X38610961Y-88971524D02*
X38515723Y-88923905D01*
X38515723Y-88923905D02*
X38325247Y-88876286D01*
X38325247Y-88876286D02*
X38182390Y-88876286D01*
X38182390Y-88876286D02*
X37991914Y-88923905D01*
X37991914Y-88923905D02*
X37896676Y-88971524D01*
X37896676Y-88971524D02*
X37801438Y-89066762D01*
X37801438Y-89066762D02*
X37753819Y-89209619D01*
X37753819Y-89209619D02*
X37753819Y-89304857D01*
X37753819Y-89304857D02*
X37801438Y-89447714D01*
X37801438Y-89447714D02*
X37849057Y-89495333D01*
X38087152Y-90352476D02*
X38753819Y-90352476D01*
X37706200Y-90114381D02*
X38420485Y-89876286D01*
X38420485Y-89876286D02*
X38420485Y-90495333D01*
X79533819Y-23963333D02*
X79057628Y-23630000D01*
X79533819Y-23391905D02*
X78533819Y-23391905D01*
X78533819Y-23391905D02*
X78533819Y-23772857D01*
X78533819Y-23772857D02*
X78581438Y-23868095D01*
X78581438Y-23868095D02*
X78629057Y-23915714D01*
X78629057Y-23915714D02*
X78724295Y-23963333D01*
X78724295Y-23963333D02*
X78867152Y-23963333D01*
X78867152Y-23963333D02*
X78962390Y-23915714D01*
X78962390Y-23915714D02*
X79010009Y-23868095D01*
X79010009Y-23868095D02*
X79057628Y-23772857D01*
X79057628Y-23772857D02*
X79057628Y-23391905D01*
X79533819Y-24915714D02*
X79533819Y-24344286D01*
X79533819Y-24630000D02*
X78533819Y-24630000D01*
X78533819Y-24630000D02*
X78676676Y-24534762D01*
X78676676Y-24534762D02*
X78771914Y-24439524D01*
X78771914Y-24439524D02*
X78819533Y-24344286D01*
X79533819Y-70191333D02*
X79057628Y-69858000D01*
X79533819Y-69619905D02*
X78533819Y-69619905D01*
X78533819Y-69619905D02*
X78533819Y-70000857D01*
X78533819Y-70000857D02*
X78581438Y-70096095D01*
X78581438Y-70096095D02*
X78629057Y-70143714D01*
X78629057Y-70143714D02*
X78724295Y-70191333D01*
X78724295Y-70191333D02*
X78867152Y-70191333D01*
X78867152Y-70191333D02*
X78962390Y-70143714D01*
X78962390Y-70143714D02*
X79010009Y-70096095D01*
X79010009Y-70096095D02*
X79057628Y-70000857D01*
X79057628Y-70000857D02*
X79057628Y-69619905D01*
X78533819Y-70524667D02*
X78533819Y-71191333D01*
X78533819Y-71191333D02*
X79533819Y-70762762D01*
X54304009Y-17385666D02*
X54304009Y-17052333D01*
X54827819Y-17052333D02*
X53827819Y-17052333D01*
X53827819Y-17052333D02*
X53827819Y-17528523D01*
X54827819Y-18433285D02*
X54827819Y-17861857D01*
X54827819Y-18147571D02*
X53827819Y-18147571D01*
X53827819Y-18147571D02*
X53970676Y-18052333D01*
X53970676Y-18052333D02*
X54065914Y-17957095D01*
X54065914Y-17957095D02*
X54113533Y-17861857D01*
X79533819Y-54951333D02*
X79057628Y-54618000D01*
X79533819Y-54379905D02*
X78533819Y-54379905D01*
X78533819Y-54379905D02*
X78533819Y-54760857D01*
X78533819Y-54760857D02*
X78581438Y-54856095D01*
X78581438Y-54856095D02*
X78629057Y-54903714D01*
X78629057Y-54903714D02*
X78724295Y-54951333D01*
X78724295Y-54951333D02*
X78867152Y-54951333D01*
X78867152Y-54951333D02*
X78962390Y-54903714D01*
X78962390Y-54903714D02*
X79010009Y-54856095D01*
X79010009Y-54856095D02*
X79057628Y-54760857D01*
X79057628Y-54760857D02*
X79057628Y-54379905D01*
X78533819Y-55856095D02*
X78533819Y-55379905D01*
X78533819Y-55379905D02*
X79010009Y-55332286D01*
X79010009Y-55332286D02*
X78962390Y-55379905D01*
X78962390Y-55379905D02*
X78914771Y-55475143D01*
X78914771Y-55475143D02*
X78914771Y-55713238D01*
X78914771Y-55713238D02*
X78962390Y-55808476D01*
X78962390Y-55808476D02*
X79010009Y-55856095D01*
X79010009Y-55856095D02*
X79105247Y-55903714D01*
X79105247Y-55903714D02*
X79343342Y-55903714D01*
X79343342Y-55903714D02*
X79438580Y-55856095D01*
X79438580Y-55856095D02*
X79486200Y-55808476D01*
X79486200Y-55808476D02*
X79533819Y-55713238D01*
X79533819Y-55713238D02*
X79533819Y-55475143D01*
X79533819Y-55475143D02*
X79486200Y-55379905D01*
X79486200Y-55379905D02*
X79438580Y-55332286D01*
X47225857Y-68865819D02*
X47559190Y-68389628D01*
X47797285Y-68865819D02*
X47797285Y-67865819D01*
X47797285Y-67865819D02*
X47416333Y-67865819D01*
X47416333Y-67865819D02*
X47321095Y-67913438D01*
X47321095Y-67913438D02*
X47273476Y-67961057D01*
X47273476Y-67961057D02*
X47225857Y-68056295D01*
X47225857Y-68056295D02*
X47225857Y-68199152D01*
X47225857Y-68199152D02*
X47273476Y-68294390D01*
X47273476Y-68294390D02*
X47321095Y-68342009D01*
X47321095Y-68342009D02*
X47416333Y-68389628D01*
X47416333Y-68389628D02*
X47797285Y-68389628D01*
X46273476Y-68865819D02*
X46844904Y-68865819D01*
X46559190Y-68865819D02*
X46559190Y-67865819D01*
X46559190Y-67865819D02*
X46654428Y-68008676D01*
X46654428Y-68008676D02*
X46749666Y-68103914D01*
X46749666Y-68103914D02*
X46844904Y-68151533D01*
X45892523Y-67961057D02*
X45844904Y-67913438D01*
X45844904Y-67913438D02*
X45749666Y-67865819D01*
X45749666Y-67865819D02*
X45511571Y-67865819D01*
X45511571Y-67865819D02*
X45416333Y-67913438D01*
X45416333Y-67913438D02*
X45368714Y-67961057D01*
X45368714Y-67961057D02*
X45321095Y-68056295D01*
X45321095Y-68056295D02*
X45321095Y-68151533D01*
X45321095Y-68151533D02*
X45368714Y-68294390D01*
X45368714Y-68294390D02*
X45940142Y-68865819D01*
X45940142Y-68865819D02*
X45321095Y-68865819D01*
X90963819Y-58761333D02*
X90487628Y-58428000D01*
X90963819Y-58189905D02*
X89963819Y-58189905D01*
X89963819Y-58189905D02*
X89963819Y-58570857D01*
X89963819Y-58570857D02*
X90011438Y-58666095D01*
X90011438Y-58666095D02*
X90059057Y-58713714D01*
X90059057Y-58713714D02*
X90154295Y-58761333D01*
X90154295Y-58761333D02*
X90297152Y-58761333D01*
X90297152Y-58761333D02*
X90392390Y-58713714D01*
X90392390Y-58713714D02*
X90440009Y-58666095D01*
X90440009Y-58666095D02*
X90487628Y-58570857D01*
X90487628Y-58570857D02*
X90487628Y-58189905D01*
X90392390Y-59332762D02*
X90344771Y-59237524D01*
X90344771Y-59237524D02*
X90297152Y-59189905D01*
X90297152Y-59189905D02*
X90201914Y-59142286D01*
X90201914Y-59142286D02*
X90154295Y-59142286D01*
X90154295Y-59142286D02*
X90059057Y-59189905D01*
X90059057Y-59189905D02*
X90011438Y-59237524D01*
X90011438Y-59237524D02*
X89963819Y-59332762D01*
X89963819Y-59332762D02*
X89963819Y-59523238D01*
X89963819Y-59523238D02*
X90011438Y-59618476D01*
X90011438Y-59618476D02*
X90059057Y-59666095D01*
X90059057Y-59666095D02*
X90154295Y-59713714D01*
X90154295Y-59713714D02*
X90201914Y-59713714D01*
X90201914Y-59713714D02*
X90297152Y-59666095D01*
X90297152Y-59666095D02*
X90344771Y-59618476D01*
X90344771Y-59618476D02*
X90392390Y-59523238D01*
X90392390Y-59523238D02*
X90392390Y-59332762D01*
X90392390Y-59332762D02*
X90440009Y-59237524D01*
X90440009Y-59237524D02*
X90487628Y-59189905D01*
X90487628Y-59189905D02*
X90582866Y-59142286D01*
X90582866Y-59142286D02*
X90773342Y-59142286D01*
X90773342Y-59142286D02*
X90868580Y-59189905D01*
X90868580Y-59189905D02*
X90916200Y-59237524D01*
X90916200Y-59237524D02*
X90963819Y-59332762D01*
X90963819Y-59332762D02*
X90963819Y-59523238D01*
X90963819Y-59523238D02*
X90916200Y-59618476D01*
X90916200Y-59618476D02*
X90868580Y-59666095D01*
X90868580Y-59666095D02*
X90773342Y-59713714D01*
X90773342Y-59713714D02*
X90582866Y-59713714D01*
X90582866Y-59713714D02*
X90487628Y-59666095D01*
X90487628Y-59666095D02*
X90440009Y-59618476D01*
X90440009Y-59618476D02*
X90392390Y-59523238D01*
X31684904Y-90825819D02*
X31684904Y-91635342D01*
X31684904Y-91635342D02*
X31637285Y-91730580D01*
X31637285Y-91730580D02*
X31589666Y-91778200D01*
X31589666Y-91778200D02*
X31494428Y-91825819D01*
X31494428Y-91825819D02*
X31303952Y-91825819D01*
X31303952Y-91825819D02*
X31208714Y-91778200D01*
X31208714Y-91778200D02*
X31161095Y-91730580D01*
X31161095Y-91730580D02*
X31113476Y-91635342D01*
X31113476Y-91635342D02*
X31113476Y-90825819D01*
X30208714Y-90825819D02*
X30399190Y-90825819D01*
X30399190Y-90825819D02*
X30494428Y-90873438D01*
X30494428Y-90873438D02*
X30542047Y-90921057D01*
X30542047Y-90921057D02*
X30637285Y-91063914D01*
X30637285Y-91063914D02*
X30684904Y-91254390D01*
X30684904Y-91254390D02*
X30684904Y-91635342D01*
X30684904Y-91635342D02*
X30637285Y-91730580D01*
X30637285Y-91730580D02*
X30589666Y-91778200D01*
X30589666Y-91778200D02*
X30494428Y-91825819D01*
X30494428Y-91825819D02*
X30303952Y-91825819D01*
X30303952Y-91825819D02*
X30208714Y-91778200D01*
X30208714Y-91778200D02*
X30161095Y-91730580D01*
X30161095Y-91730580D02*
X30113476Y-91635342D01*
X30113476Y-91635342D02*
X30113476Y-91397247D01*
X30113476Y-91397247D02*
X30161095Y-91302009D01*
X30161095Y-91302009D02*
X30208714Y-91254390D01*
X30208714Y-91254390D02*
X30303952Y-91206771D01*
X30303952Y-91206771D02*
X30494428Y-91206771D01*
X30494428Y-91206771D02*
X30589666Y-91254390D01*
X30589666Y-91254390D02*
X30637285Y-91302009D01*
X30637285Y-91302009D02*
X30684904Y-91397247D01*
X47225857Y-53625819D02*
X47559190Y-53149628D01*
X47797285Y-53625819D02*
X47797285Y-52625819D01*
X47797285Y-52625819D02*
X47416333Y-52625819D01*
X47416333Y-52625819D02*
X47321095Y-52673438D01*
X47321095Y-52673438D02*
X47273476Y-52721057D01*
X47273476Y-52721057D02*
X47225857Y-52816295D01*
X47225857Y-52816295D02*
X47225857Y-52959152D01*
X47225857Y-52959152D02*
X47273476Y-53054390D01*
X47273476Y-53054390D02*
X47321095Y-53102009D01*
X47321095Y-53102009D02*
X47416333Y-53149628D01*
X47416333Y-53149628D02*
X47797285Y-53149628D01*
X46273476Y-53625819D02*
X46844904Y-53625819D01*
X46559190Y-53625819D02*
X46559190Y-52625819D01*
X46559190Y-52625819D02*
X46654428Y-52768676D01*
X46654428Y-52768676D02*
X46749666Y-52863914D01*
X46749666Y-52863914D02*
X46844904Y-52911533D01*
X45321095Y-53625819D02*
X45892523Y-53625819D01*
X45606809Y-53625819D02*
X45606809Y-52625819D01*
X45606809Y-52625819D02*
X45702047Y-52768676D01*
X45702047Y-52768676D02*
X45797285Y-52863914D01*
X45797285Y-52863914D02*
X45892523Y-52911533D01*
X90963819Y-28053333D02*
X90487628Y-27720000D01*
X90963819Y-27481905D02*
X89963819Y-27481905D01*
X89963819Y-27481905D02*
X89963819Y-27862857D01*
X89963819Y-27862857D02*
X90011438Y-27958095D01*
X90011438Y-27958095D02*
X90059057Y-28005714D01*
X90059057Y-28005714D02*
X90154295Y-28053333D01*
X90154295Y-28053333D02*
X90297152Y-28053333D01*
X90297152Y-28053333D02*
X90392390Y-28005714D01*
X90392390Y-28005714D02*
X90440009Y-27958095D01*
X90440009Y-27958095D02*
X90487628Y-27862857D01*
X90487628Y-27862857D02*
X90487628Y-27481905D01*
X90297152Y-28910476D02*
X90963819Y-28910476D01*
X89916200Y-28672381D02*
X90630485Y-28434286D01*
X90630485Y-28434286D02*
X90630485Y-29053333D01*
X7907580Y-77557333D02*
X7955200Y-77509714D01*
X7955200Y-77509714D02*
X8002819Y-77366857D01*
X8002819Y-77366857D02*
X8002819Y-77271619D01*
X8002819Y-77271619D02*
X7955200Y-77128762D01*
X7955200Y-77128762D02*
X7859961Y-77033524D01*
X7859961Y-77033524D02*
X7764723Y-76985905D01*
X7764723Y-76985905D02*
X7574247Y-76938286D01*
X7574247Y-76938286D02*
X7431390Y-76938286D01*
X7431390Y-76938286D02*
X7240914Y-76985905D01*
X7240914Y-76985905D02*
X7145676Y-77033524D01*
X7145676Y-77033524D02*
X7050438Y-77128762D01*
X7050438Y-77128762D02*
X7002819Y-77271619D01*
X7002819Y-77271619D02*
X7002819Y-77366857D01*
X7002819Y-77366857D02*
X7050438Y-77509714D01*
X7050438Y-77509714D02*
X7098057Y-77557333D01*
X7098057Y-77938286D02*
X7050438Y-77985905D01*
X7050438Y-77985905D02*
X7002819Y-78081143D01*
X7002819Y-78081143D02*
X7002819Y-78319238D01*
X7002819Y-78319238D02*
X7050438Y-78414476D01*
X7050438Y-78414476D02*
X7098057Y-78462095D01*
X7098057Y-78462095D02*
X7193295Y-78509714D01*
X7193295Y-78509714D02*
X7288533Y-78509714D01*
X7288533Y-78509714D02*
X7431390Y-78462095D01*
X7431390Y-78462095D02*
X8002819Y-77890667D01*
X8002819Y-77890667D02*
X8002819Y-78509714D01*
X90963819Y-12533333D02*
X90487628Y-12200000D01*
X90963819Y-11961905D02*
X89963819Y-11961905D01*
X89963819Y-11961905D02*
X89963819Y-12342857D01*
X89963819Y-12342857D02*
X90011438Y-12438095D01*
X90011438Y-12438095D02*
X90059057Y-12485714D01*
X90059057Y-12485714D02*
X90154295Y-12533333D01*
X90154295Y-12533333D02*
X90297152Y-12533333D01*
X90297152Y-12533333D02*
X90392390Y-12485714D01*
X90392390Y-12485714D02*
X90440009Y-12438095D01*
X90440009Y-12438095D02*
X90487628Y-12342857D01*
X90487628Y-12342857D02*
X90487628Y-11961905D01*
X90059057Y-12914286D02*
X90011438Y-12961905D01*
X90011438Y-12961905D02*
X89963819Y-13057143D01*
X89963819Y-13057143D02*
X89963819Y-13295238D01*
X89963819Y-13295238D02*
X90011438Y-13390476D01*
X90011438Y-13390476D02*
X90059057Y-13438095D01*
X90059057Y-13438095D02*
X90154295Y-13485714D01*
X90154295Y-13485714D02*
X90249533Y-13485714D01*
X90249533Y-13485714D02*
X90392390Y-13438095D01*
X90392390Y-13438095D02*
X90963819Y-12866667D01*
X90963819Y-12866667D02*
X90963819Y-13485714D01*
X90963819Y-43521333D02*
X90487628Y-43188000D01*
X90963819Y-42949905D02*
X89963819Y-42949905D01*
X89963819Y-42949905D02*
X89963819Y-43330857D01*
X89963819Y-43330857D02*
X90011438Y-43426095D01*
X90011438Y-43426095D02*
X90059057Y-43473714D01*
X90059057Y-43473714D02*
X90154295Y-43521333D01*
X90154295Y-43521333D02*
X90297152Y-43521333D01*
X90297152Y-43521333D02*
X90392390Y-43473714D01*
X90392390Y-43473714D02*
X90440009Y-43426095D01*
X90440009Y-43426095D02*
X90487628Y-43330857D01*
X90487628Y-43330857D02*
X90487628Y-42949905D01*
X89963819Y-44378476D02*
X89963819Y-44188000D01*
X89963819Y-44188000D02*
X90011438Y-44092762D01*
X90011438Y-44092762D02*
X90059057Y-44045143D01*
X90059057Y-44045143D02*
X90201914Y-43949905D01*
X90201914Y-43949905D02*
X90392390Y-43902286D01*
X90392390Y-43902286D02*
X90773342Y-43902286D01*
X90773342Y-43902286D02*
X90868580Y-43949905D01*
X90868580Y-43949905D02*
X90916200Y-43997524D01*
X90916200Y-43997524D02*
X90963819Y-44092762D01*
X90963819Y-44092762D02*
X90963819Y-44283238D01*
X90963819Y-44283238D02*
X90916200Y-44378476D01*
X90916200Y-44378476D02*
X90868580Y-44426095D01*
X90868580Y-44426095D02*
X90773342Y-44473714D01*
X90773342Y-44473714D02*
X90535247Y-44473714D01*
X90535247Y-44473714D02*
X90440009Y-44426095D01*
X90440009Y-44426095D02*
X90392390Y-44378476D01*
X90392390Y-44378476D02*
X90344771Y-44283238D01*
X90344771Y-44283238D02*
X90344771Y-44092762D01*
X90344771Y-44092762D02*
X90392390Y-43997524D01*
X90392390Y-43997524D02*
X90440009Y-43949905D01*
X90440009Y-43949905D02*
X90535247Y-43902286D01*
X50723580Y-89329833D02*
X50771200Y-89282214D01*
X50771200Y-89282214D02*
X50818819Y-89139357D01*
X50818819Y-89139357D02*
X50818819Y-89044119D01*
X50818819Y-89044119D02*
X50771200Y-88901262D01*
X50771200Y-88901262D02*
X50675961Y-88806024D01*
X50675961Y-88806024D02*
X50580723Y-88758405D01*
X50580723Y-88758405D02*
X50390247Y-88710786D01*
X50390247Y-88710786D02*
X50247390Y-88710786D01*
X50247390Y-88710786D02*
X50056914Y-88758405D01*
X50056914Y-88758405D02*
X49961676Y-88806024D01*
X49961676Y-88806024D02*
X49866438Y-88901262D01*
X49866438Y-88901262D02*
X49818819Y-89044119D01*
X49818819Y-89044119D02*
X49818819Y-89139357D01*
X49818819Y-89139357D02*
X49866438Y-89282214D01*
X49866438Y-89282214D02*
X49914057Y-89329833D01*
X50818819Y-90282214D02*
X50818819Y-89710786D01*
X50818819Y-89996500D02*
X49818819Y-89996500D01*
X49818819Y-89996500D02*
X49961676Y-89901262D01*
X49961676Y-89901262D02*
X50056914Y-89806024D01*
X50056914Y-89806024D02*
X50104533Y-89710786D01*
X46749666Y-38258819D02*
X47082999Y-37782628D01*
X47321094Y-38258819D02*
X47321094Y-37258819D01*
X47321094Y-37258819D02*
X46940142Y-37258819D01*
X46940142Y-37258819D02*
X46844904Y-37306438D01*
X46844904Y-37306438D02*
X46797285Y-37354057D01*
X46797285Y-37354057D02*
X46749666Y-37449295D01*
X46749666Y-37449295D02*
X46749666Y-37592152D01*
X46749666Y-37592152D02*
X46797285Y-37687390D01*
X46797285Y-37687390D02*
X46844904Y-37735009D01*
X46844904Y-37735009D02*
X46940142Y-37782628D01*
X46940142Y-37782628D02*
X47321094Y-37782628D01*
X46273475Y-38258819D02*
X46082999Y-38258819D01*
X46082999Y-38258819D02*
X45987761Y-38211200D01*
X45987761Y-38211200D02*
X45940142Y-38163580D01*
X45940142Y-38163580D02*
X45844904Y-38020723D01*
X45844904Y-38020723D02*
X45797285Y-37830247D01*
X45797285Y-37830247D02*
X45797285Y-37449295D01*
X45797285Y-37449295D02*
X45844904Y-37354057D01*
X45844904Y-37354057D02*
X45892523Y-37306438D01*
X45892523Y-37306438D02*
X45987761Y-37258819D01*
X45987761Y-37258819D02*
X46178237Y-37258819D01*
X46178237Y-37258819D02*
X46273475Y-37306438D01*
X46273475Y-37306438D02*
X46321094Y-37354057D01*
X46321094Y-37354057D02*
X46368713Y-37449295D01*
X46368713Y-37449295D02*
X46368713Y-37687390D01*
X46368713Y-37687390D02*
X46321094Y-37782628D01*
X46321094Y-37782628D02*
X46273475Y-37830247D01*
X46273475Y-37830247D02*
X46178237Y-37877866D01*
X46178237Y-37877866D02*
X45987761Y-37877866D01*
X45987761Y-37877866D02*
X45892523Y-37830247D01*
X45892523Y-37830247D02*
X45844904Y-37782628D01*
X45844904Y-37782628D02*
X45797285Y-37687390D01*
X26212580Y-89495333D02*
X26260200Y-89447714D01*
X26260200Y-89447714D02*
X26307819Y-89304857D01*
X26307819Y-89304857D02*
X26307819Y-89209619D01*
X26307819Y-89209619D02*
X26260200Y-89066762D01*
X26260200Y-89066762D02*
X26164961Y-88971524D01*
X26164961Y-88971524D02*
X26069723Y-88923905D01*
X26069723Y-88923905D02*
X25879247Y-88876286D01*
X25879247Y-88876286D02*
X25736390Y-88876286D01*
X25736390Y-88876286D02*
X25545914Y-88923905D01*
X25545914Y-88923905D02*
X25450676Y-88971524D01*
X25450676Y-88971524D02*
X25355438Y-89066762D01*
X25355438Y-89066762D02*
X25307819Y-89209619D01*
X25307819Y-89209619D02*
X25307819Y-89304857D01*
X25307819Y-89304857D02*
X25355438Y-89447714D01*
X25355438Y-89447714D02*
X25403057Y-89495333D01*
X25307819Y-89828667D02*
X25307819Y-90447714D01*
X25307819Y-90447714D02*
X25688771Y-90114381D01*
X25688771Y-90114381D02*
X25688771Y-90257238D01*
X25688771Y-90257238D02*
X25736390Y-90352476D01*
X25736390Y-90352476D02*
X25784009Y-90400095D01*
X25784009Y-90400095D02*
X25879247Y-90447714D01*
X25879247Y-90447714D02*
X26117342Y-90447714D01*
X26117342Y-90447714D02*
X26212580Y-90400095D01*
X26212580Y-90400095D02*
X26260200Y-90352476D01*
X26260200Y-90352476D02*
X26307819Y-90257238D01*
X26307819Y-90257238D02*
X26307819Y-89971524D01*
X26307819Y-89971524D02*
X26260200Y-89876286D01*
X26260200Y-89876286D02*
X26212580Y-89828667D01*
X79533819Y-39457333D02*
X79057628Y-39124000D01*
X79533819Y-38885905D02*
X78533819Y-38885905D01*
X78533819Y-38885905D02*
X78533819Y-39266857D01*
X78533819Y-39266857D02*
X78581438Y-39362095D01*
X78581438Y-39362095D02*
X78629057Y-39409714D01*
X78629057Y-39409714D02*
X78724295Y-39457333D01*
X78724295Y-39457333D02*
X78867152Y-39457333D01*
X78867152Y-39457333D02*
X78962390Y-39409714D01*
X78962390Y-39409714D02*
X79010009Y-39362095D01*
X79010009Y-39362095D02*
X79057628Y-39266857D01*
X79057628Y-39266857D02*
X79057628Y-38885905D01*
X78533819Y-39790667D02*
X78533819Y-40409714D01*
X78533819Y-40409714D02*
X78914771Y-40076381D01*
X78914771Y-40076381D02*
X78914771Y-40219238D01*
X78914771Y-40219238D02*
X78962390Y-40314476D01*
X78962390Y-40314476D02*
X79010009Y-40362095D01*
X79010009Y-40362095D02*
X79105247Y-40409714D01*
X79105247Y-40409714D02*
X79343342Y-40409714D01*
X79343342Y-40409714D02*
X79438580Y-40362095D01*
X79438580Y-40362095D02*
X79486200Y-40314476D01*
X79486200Y-40314476D02*
X79533819Y-40219238D01*
X79533819Y-40219238D02*
X79533819Y-39933524D01*
X79533819Y-39933524D02*
X79486200Y-39838286D01*
X79486200Y-39838286D02*
X79438580Y-39790667D01*
X7746904Y-75219819D02*
X7746904Y-76029342D01*
X7746904Y-76029342D02*
X7699285Y-76124580D01*
X7699285Y-76124580D02*
X7651666Y-76172200D01*
X7651666Y-76172200D02*
X7556428Y-76219819D01*
X7556428Y-76219819D02*
X7365952Y-76219819D01*
X7365952Y-76219819D02*
X7270714Y-76172200D01*
X7270714Y-76172200D02*
X7223095Y-76124580D01*
X7223095Y-76124580D02*
X7175476Y-76029342D01*
X7175476Y-76029342D02*
X7175476Y-75219819D01*
X6556428Y-75648390D02*
X6651666Y-75600771D01*
X6651666Y-75600771D02*
X6699285Y-75553152D01*
X6699285Y-75553152D02*
X6746904Y-75457914D01*
X6746904Y-75457914D02*
X6746904Y-75410295D01*
X6746904Y-75410295D02*
X6699285Y-75315057D01*
X6699285Y-75315057D02*
X6651666Y-75267438D01*
X6651666Y-75267438D02*
X6556428Y-75219819D01*
X6556428Y-75219819D02*
X6365952Y-75219819D01*
X6365952Y-75219819D02*
X6270714Y-75267438D01*
X6270714Y-75267438D02*
X6223095Y-75315057D01*
X6223095Y-75315057D02*
X6175476Y-75410295D01*
X6175476Y-75410295D02*
X6175476Y-75457914D01*
X6175476Y-75457914D02*
X6223095Y-75553152D01*
X6223095Y-75553152D02*
X6270714Y-75600771D01*
X6270714Y-75600771D02*
X6365952Y-75648390D01*
X6365952Y-75648390D02*
X6556428Y-75648390D01*
X6556428Y-75648390D02*
X6651666Y-75696009D01*
X6651666Y-75696009D02*
X6699285Y-75743628D01*
X6699285Y-75743628D02*
X6746904Y-75838866D01*
X6746904Y-75838866D02*
X6746904Y-76029342D01*
X6746904Y-76029342D02*
X6699285Y-76124580D01*
X6699285Y-76124580D02*
X6651666Y-76172200D01*
X6651666Y-76172200D02*
X6556428Y-76219819D01*
X6556428Y-76219819D02*
X6365952Y-76219819D01*
X6365952Y-76219819D02*
X6270714Y-76172200D01*
X6270714Y-76172200D02*
X6223095Y-76124580D01*
X6223095Y-76124580D02*
X6175476Y-76029342D01*
X6175476Y-76029342D02*
X6175476Y-75838866D01*
X6175476Y-75838866D02*
X6223095Y-75743628D01*
X6223095Y-75743628D02*
X6270714Y-75696009D01*
X6270714Y-75696009D02*
X6365952Y-75648390D01*
X44068904Y-90825819D02*
X44068904Y-91635342D01*
X44068904Y-91635342D02*
X44021285Y-91730580D01*
X44021285Y-91730580D02*
X43973666Y-91778200D01*
X43973666Y-91778200D02*
X43878428Y-91825819D01*
X43878428Y-91825819D02*
X43687952Y-91825819D01*
X43687952Y-91825819D02*
X43592714Y-91778200D01*
X43592714Y-91778200D02*
X43545095Y-91730580D01*
X43545095Y-91730580D02*
X43497476Y-91635342D01*
X43497476Y-91635342D02*
X43497476Y-90825819D01*
X42973666Y-91825819D02*
X42783190Y-91825819D01*
X42783190Y-91825819D02*
X42687952Y-91778200D01*
X42687952Y-91778200D02*
X42640333Y-91730580D01*
X42640333Y-91730580D02*
X42545095Y-91587723D01*
X42545095Y-91587723D02*
X42497476Y-91397247D01*
X42497476Y-91397247D02*
X42497476Y-91016295D01*
X42497476Y-91016295D02*
X42545095Y-90921057D01*
X42545095Y-90921057D02*
X42592714Y-90873438D01*
X42592714Y-90873438D02*
X42687952Y-90825819D01*
X42687952Y-90825819D02*
X42878428Y-90825819D01*
X42878428Y-90825819D02*
X42973666Y-90873438D01*
X42973666Y-90873438D02*
X43021285Y-90921057D01*
X43021285Y-90921057D02*
X43068904Y-91016295D01*
X43068904Y-91016295D02*
X43068904Y-91254390D01*
X43068904Y-91254390D02*
X43021285Y-91349628D01*
X43021285Y-91349628D02*
X42973666Y-91397247D01*
X42973666Y-91397247D02*
X42878428Y-91444866D01*
X42878428Y-91444866D02*
X42687952Y-91444866D01*
X42687952Y-91444866D02*
X42592714Y-91397247D01*
X42592714Y-91397247D02*
X42545095Y-91349628D01*
X42545095Y-91349628D02*
X42497476Y-91254390D01*
D11*
%TO.C,R10*%
X47310064Y-25040000D02*
X45855936Y-25040000D01*
X47310064Y-23220000D02*
X45855936Y-23220000D01*
%TO.C,C4*%
X35539000Y-90373252D02*
X35539000Y-88950748D01*
X37359000Y-90373252D02*
X37359000Y-88950748D01*
%TO.C,R1*%
X81809000Y-23402936D02*
X81809000Y-24857064D01*
X79989000Y-23402936D02*
X79989000Y-24857064D01*
%TO.C,R7*%
X81809000Y-69630936D02*
X81809000Y-71085064D01*
X79989000Y-69630936D02*
X79989000Y-71085064D01*
%TO.C,F1*%
X58733000Y-16332748D02*
X58733000Y-19105252D01*
X55313000Y-16332748D02*
X55313000Y-19105252D01*
%TO.C,R5*%
X81809000Y-54390936D02*
X81809000Y-55845064D01*
X79989000Y-54390936D02*
X79989000Y-55845064D01*
%TO.C,R12*%
X47310064Y-71141000D02*
X45855936Y-71141000D01*
X47310064Y-69321000D02*
X45855936Y-69321000D01*
%TO.C,R8*%
X93239000Y-58200936D02*
X93239000Y-59655064D01*
X91419000Y-58200936D02*
X91419000Y-59655064D01*
%TO.C,U6*%
X30923000Y-80411000D02*
X28973000Y-80411000D01*
X30923000Y-80411000D02*
X32873000Y-80411000D01*
X30923000Y-90531000D02*
X27473000Y-90531000D01*
X30923000Y-90531000D02*
X32873000Y-90531000D01*
%TO.C,R11*%
X47310064Y-55901000D02*
X45855936Y-55901000D01*
X47310064Y-54081000D02*
X45855936Y-54081000D01*
%TO.C,R4*%
X93239000Y-27492936D02*
X93239000Y-28947064D01*
X91419000Y-27492936D02*
X91419000Y-28947064D01*
%TO.C,C2*%
X10308000Y-77012748D02*
X10308000Y-78435252D01*
X8488000Y-77012748D02*
X8488000Y-78435252D01*
%TO.C,R2*%
X93239000Y-11972936D02*
X93239000Y-13427064D01*
X91419000Y-11972936D02*
X91419000Y-13427064D01*
%TO.C,R6*%
X93239000Y-42960936D02*
X93239000Y-44415064D01*
X91419000Y-42960936D02*
X91419000Y-44415064D01*
%TO.C,C1*%
X47604000Y-90207752D02*
X47604000Y-88785248D01*
X49424000Y-90207752D02*
X49424000Y-88785248D01*
%TO.C,U5*%
X18542000Y-80381300D02*
X16592000Y-80381300D01*
X18542000Y-80381300D02*
X20492000Y-80381300D01*
X18542000Y-90501300D02*
X15092000Y-90501300D01*
X18542000Y-90501300D02*
X20492000Y-90501300D01*
%TO.C,R9*%
X47310064Y-40534000D02*
X45855936Y-40534000D01*
X47310064Y-38714000D02*
X45855936Y-38714000D01*
%TO.C,C3*%
X23093000Y-90373252D02*
X23093000Y-88950748D01*
X24913000Y-90373252D02*
X24913000Y-88950748D01*
%TO.C,R3*%
X81809000Y-38896936D02*
X81809000Y-40351064D01*
X79989000Y-38896936D02*
X79989000Y-40351064D01*
%TO.C,U8*%
X6985000Y-66050000D02*
X5035000Y-66050000D01*
X6985000Y-66050000D02*
X8935000Y-66050000D01*
X6985000Y-74920000D02*
X3535000Y-74920000D01*
X6985000Y-74920000D02*
X8935000Y-74920000D01*
%TO.C,U9*%
X43307000Y-80411000D02*
X41357000Y-80411000D01*
X43307000Y-80411000D02*
X45257000Y-80411000D01*
X43307000Y-90531000D02*
X39857000Y-90531000D01*
X43307000Y-90531000D02*
X45257000Y-90531000D01*
%TD*%
%LPC*%
D12*
%TO.C,J5*%
X17652959Y-27715433D03*
D13*
X17652959Y-20095417D03*
D12*
X22732970Y-27715433D03*
X22732970Y-20095417D03*
X27812980Y-27715433D03*
X27812980Y-20095417D03*
X32892990Y-27701209D03*
X32892990Y-20095417D03*
X37973000Y-27715433D03*
X37973000Y-20095417D03*
X43053010Y-27715433D03*
X43053010Y-20095417D03*
X48133020Y-27725339D03*
X48133020Y-20105323D03*
X53213031Y-27720259D03*
X53213031Y-20100243D03*
%TD*%
D14*
%TO.C,H3*%
X92600000Y-5000000D03*
X93302944Y-3302944D03*
X93302944Y-6697056D03*
X95000000Y-2600000D03*
D15*
X95000000Y-5000000D03*
D14*
X95000000Y-7400000D03*
X96697056Y-3302944D03*
X96697056Y-6697056D03*
X97400000Y-5000000D03*
%TD*%
D16*
%TO.C,JP6*%
X12319000Y-38100000D03*
D17*
X12319000Y-40640000D03*
X12319000Y-43180000D03*
%TD*%
D12*
%TO.C,J8*%
X17652949Y-73914016D03*
D13*
X17652949Y-66294000D03*
D12*
X22732960Y-73914016D03*
X22732960Y-66294000D03*
X27812970Y-73914016D03*
X27812970Y-66294000D03*
X32892980Y-73899792D03*
X32892980Y-66294000D03*
X37972990Y-73914016D03*
X37972990Y-66294000D03*
X43053000Y-73914016D03*
X43053000Y-66294000D03*
X48133010Y-73923922D03*
X48133010Y-66303906D03*
X53213021Y-73918842D03*
X53213021Y-66298826D03*
%TD*%
D16*
%TO.C,JP3*%
X84734000Y-54117000D03*
D17*
X84734000Y-56657000D03*
X84734000Y-59197000D03*
%TD*%
D16*
%TO.C,JP8*%
X12319000Y-68834000D03*
D17*
X12319000Y-71374000D03*
X12319000Y-73914000D03*
%TD*%
D12*
%TO.C,J1*%
X67380985Y-27703013D03*
D13*
X67380985Y-20082997D03*
D12*
X72460995Y-27703013D03*
X72460995Y-20082997D03*
X77541005Y-27703013D03*
X77541005Y-20082997D03*
%TD*%
D18*
%TO.C,U3*%
X84709000Y-48006000D03*
D19*
X84709000Y-50546000D03*
X92329000Y-50546000D03*
X92329000Y-48006000D03*
%TD*%
D14*
%TO.C,H1*%
X2600000Y-5000000D03*
X3302944Y-3302944D03*
X3302944Y-6697056D03*
X5000000Y-2600000D03*
D15*
X5000000Y-5000000D03*
D14*
X5000000Y-7400000D03*
X6697056Y-3302944D03*
X6697056Y-6697056D03*
X7400000Y-5000000D03*
%TD*%
D18*
%TO.C,U1*%
X84709000Y-17018000D03*
D19*
X84709000Y-19558000D03*
X92329000Y-19558000D03*
X92329000Y-17018000D03*
%TD*%
D12*
%TO.C,J6*%
X17652928Y-43175190D03*
D13*
X17652928Y-35555174D03*
D12*
X22732939Y-43175190D03*
X22732939Y-35555174D03*
X27812949Y-43175190D03*
X27812949Y-35555174D03*
X32892959Y-43160966D03*
X32892959Y-35555174D03*
X37972969Y-43175190D03*
X37972969Y-35555174D03*
X43052979Y-43175190D03*
X43052979Y-35555174D03*
X48132989Y-43185096D03*
X48132989Y-35565080D03*
X53213000Y-43180016D03*
X53213000Y-35560000D03*
%TD*%
D20*
%TO.C,J9*%
X42291000Y-7366000D03*
D21*
X42291000Y-4826000D03*
X44831000Y-7366000D03*
X44831000Y-4826000D03*
X47371000Y-7366000D03*
X47371000Y-4826000D03*
X49911000Y-7366000D03*
X49911000Y-4826000D03*
X52451000Y-7366000D03*
X52451000Y-4826000D03*
X54991000Y-7366000D03*
X54991000Y-4826000D03*
X57531000Y-7366000D03*
X57531000Y-4826000D03*
X60071000Y-7366000D03*
X60071000Y-4826000D03*
X62611000Y-7366000D03*
X62611000Y-4826000D03*
X65151000Y-7366000D03*
X65151000Y-4826000D03*
X67691000Y-7366000D03*
X67691000Y-4826000D03*
X70231000Y-7366000D03*
X70231000Y-4826000D03*
X72771000Y-7366000D03*
X72771000Y-4826000D03*
%TD*%
D16*
%TO.C,JP2*%
X84709000Y-38608000D03*
D17*
X84709000Y-41148000D03*
X84709000Y-43688000D03*
%TD*%
D16*
%TO.C,JP7*%
X12319000Y-53594000D03*
D17*
X12319000Y-56134000D03*
X12319000Y-58674000D03*
%TD*%
D16*
%TO.C,JP4*%
X84709000Y-69342000D03*
D17*
X84709000Y-71882000D03*
X84709000Y-74422000D03*
%TD*%
D12*
%TO.C,J4*%
X67380985Y-73914016D03*
D13*
X67380985Y-66294000D03*
D12*
X72460995Y-73914016D03*
X72460995Y-66294000D03*
X77541005Y-73914016D03*
X77541005Y-66294000D03*
%TD*%
%TO.C,U7*%
X72517000Y-88646000D03*
X72517000Y-81025984D03*
X67436990Y-88646000D03*
D13*
X67436990Y-81025984D03*
%TD*%
D12*
%TO.C,J2*%
X67380985Y-43180016D03*
D13*
X67380985Y-35560000D03*
D12*
X72460995Y-43180016D03*
X72460995Y-35560000D03*
X77541005Y-43180016D03*
X77541005Y-35560000D03*
%TD*%
D18*
%TO.C,U4*%
X84709000Y-63246000D03*
D19*
X84709000Y-65786000D03*
X92329000Y-65786000D03*
X92329000Y-63246000D03*
%TD*%
D14*
%TO.C,H2*%
X2600000Y-88000000D03*
X3302944Y-86302944D03*
X3302944Y-89697056D03*
X5000000Y-85600000D03*
D15*
X5000000Y-88000000D03*
D14*
X5000000Y-90400000D03*
X6697056Y-86302944D03*
X6697056Y-89697056D03*
X7400000Y-88000000D03*
%TD*%
D16*
%TO.C,JP1*%
X84709000Y-23114000D03*
D17*
X84709000Y-25654000D03*
X84709000Y-28194000D03*
%TD*%
D14*
%TO.C,H4*%
X92600000Y-88000000D03*
X93302944Y-86302944D03*
X93302944Y-89697056D03*
X95000000Y-85600000D03*
D15*
X95000000Y-88000000D03*
D14*
X95000000Y-90400000D03*
X96697056Y-86302944D03*
X96697056Y-89697056D03*
X97400000Y-88000000D03*
%TD*%
D12*
%TO.C,J7*%
X17652939Y-58664110D03*
D13*
X17652939Y-51044094D03*
D12*
X22732950Y-58664110D03*
X22732950Y-51044094D03*
X27812960Y-58664110D03*
X27812960Y-51044094D03*
X32892970Y-58649886D03*
X32892970Y-51044094D03*
X37972980Y-58664110D03*
X37972980Y-51044094D03*
X43052990Y-58664110D03*
X43052990Y-51044094D03*
X48133000Y-58674016D03*
X48133000Y-51054000D03*
X53213011Y-58668936D03*
X53213011Y-51048920D03*
%TD*%
%TO.C,J3*%
X67436980Y-58674016D03*
D13*
X67436980Y-51054000D03*
D12*
X72516990Y-58674016D03*
X72516990Y-51054000D03*
X77597000Y-58674016D03*
X77597000Y-51054000D03*
%TD*%
D16*
%TO.C,JP5*%
X12319000Y-22606000D03*
D17*
X12319000Y-25146000D03*
X12319000Y-27686000D03*
%TD*%
D18*
%TO.C,U2*%
X84709000Y-32512000D03*
D19*
X84709000Y-35052000D03*
X92329000Y-35052000D03*
X92329000Y-32512000D03*
%TD*%
D22*
%TO.C,R10*%
X48133000Y-24130000D03*
X45033000Y-24130000D03*
%TD*%
D23*
%TO.C,C4*%
X36449000Y-91224500D03*
X36449000Y-88099500D03*
%TD*%
D24*
%TO.C,R1*%
X80899000Y-22580000D03*
X80899000Y-25680000D03*
%TD*%
%TO.C,R7*%
X80899000Y-68808000D03*
X80899000Y-71908000D03*
%TD*%
D25*
%TO.C,F1*%
X57023000Y-15494000D03*
X57023000Y-19944000D03*
%TD*%
D24*
%TO.C,R5*%
X80899000Y-53568000D03*
X80899000Y-56668000D03*
%TD*%
D22*
%TO.C,R12*%
X48133000Y-70231000D03*
X45033000Y-70231000D03*
%TD*%
D24*
%TO.C,R8*%
X92329000Y-57378000D03*
X92329000Y-60478000D03*
%TD*%
D26*
%TO.C,U6*%
X28448000Y-89916000D03*
X28448000Y-88646000D03*
X28448000Y-87376000D03*
X28448000Y-86106000D03*
X28448000Y-84836000D03*
X28448000Y-83566000D03*
X28448000Y-82296000D03*
X28448000Y-81026000D03*
X33398000Y-81026000D03*
X33398000Y-82296000D03*
X33398000Y-83566000D03*
X33398000Y-84836000D03*
X33398000Y-86106000D03*
X33398000Y-87376000D03*
X33398000Y-88646000D03*
X33398000Y-89916000D03*
%TD*%
D22*
%TO.C,R11*%
X48133000Y-54991000D03*
X45033000Y-54991000D03*
%TD*%
D24*
%TO.C,R4*%
X92329000Y-26670000D03*
X92329000Y-29770000D03*
%TD*%
D27*
%TO.C,C2*%
X9398000Y-76161500D03*
X9398000Y-79286500D03*
%TD*%
D24*
%TO.C,R2*%
X92329000Y-11150000D03*
X92329000Y-14250000D03*
%TD*%
%TO.C,R6*%
X92329000Y-42138000D03*
X92329000Y-45238000D03*
%TD*%
D23*
%TO.C,C1*%
X48514000Y-91059000D03*
X48514000Y-87934000D03*
%TD*%
D26*
%TO.C,U5*%
X16067000Y-89886300D03*
X16067000Y-88616300D03*
X16067000Y-87346300D03*
X16067000Y-86076300D03*
X16067000Y-84806300D03*
X16067000Y-83536300D03*
X16067000Y-82266300D03*
X16067000Y-80996300D03*
X21017000Y-80996300D03*
X21017000Y-82266300D03*
X21017000Y-83536300D03*
X21017000Y-84806300D03*
X21017000Y-86076300D03*
X21017000Y-87346300D03*
X21017000Y-88616300D03*
X21017000Y-89886300D03*
%TD*%
D22*
%TO.C,R9*%
X48133000Y-39624000D03*
X45033000Y-39624000D03*
%TD*%
D23*
%TO.C,C3*%
X24003000Y-91224500D03*
X24003000Y-88099500D03*
%TD*%
D24*
%TO.C,R3*%
X80899000Y-38074000D03*
X80899000Y-41174000D03*
%TD*%
D26*
%TO.C,U8*%
X4510000Y-74295000D03*
X4510000Y-73025000D03*
X4510000Y-71755000D03*
X4510000Y-70485000D03*
X4510000Y-69215000D03*
X4510000Y-67945000D03*
X4510000Y-66675000D03*
X9460000Y-66675000D03*
X9460000Y-67945000D03*
X9460000Y-69215000D03*
X9460000Y-70485000D03*
X9460000Y-71755000D03*
X9460000Y-73025000D03*
X9460000Y-74295000D03*
%TD*%
%TO.C,U9*%
X40832000Y-89916000D03*
X40832000Y-88646000D03*
X40832000Y-87376000D03*
X40832000Y-86106000D03*
X40832000Y-84836000D03*
X40832000Y-83566000D03*
X40832000Y-82296000D03*
X40832000Y-81026000D03*
X45782000Y-81026000D03*
X45782000Y-82296000D03*
X45782000Y-83566000D03*
X45782000Y-84836000D03*
X45782000Y-86106000D03*
X45782000Y-87376000D03*
X45782000Y-88646000D03*
X45782000Y-89916000D03*
%TD*%
%LPD*%
M02*
