M48
; DRILL file {KiCad 7.0.7} date Mon Nov 20 22:24:31 2023
; FORMAT={-:-/ absolute / metric / decimal}
; #@! TF.CreationDate,2023-11-20T22:24:31+01:00
; #@! TF.GenerationSoftware,Kicad,Pcbnew,7.0.7
; #@! TF.FileFunction,Plated,1,2,PTH
FMAT,2
METRIC
; #@! TA.AperFunction,Plated,PTH,ComponentDrill
T1C0.254
; #@! TA.AperFunction,Plated,PTH,ViaDrill
T2C0.350
%
G90
G05
T1
X18.78Y-25.2
X18.78Y-32.2
X18.78Y-39.2
X18.78Y-46.2
X18.78Y-53.2
X18.78Y-60.2
X18.78Y-67.2
X18.78Y-74.2
X18.78Y-81.2
X18.78Y-88.2
X18.78Y-95.2
X18.78Y-102.2
X18.78Y-109.2
X19.43Y-20.8
X19.43Y-25.2
X19.43Y-27.8
X19.43Y-32.2
X19.43Y-34.8
X19.43Y-39.2
X19.43Y-41.8
X19.43Y-46.2
X19.43Y-48.8
X19.43Y-53.2
X19.43Y-55.8
X19.43Y-60.2
X19.43Y-62.8
X19.43Y-67.2
X19.43Y-69.8
X19.43Y-74.2
X19.43Y-76.8
X19.43Y-81.2
X19.43Y-83.8
X19.43Y-88.2
X19.43Y-90.8
X19.43Y-95.2
X19.43Y-97.8
X19.43Y-102.2
X19.43Y-104.8
X19.43Y-109.2
X20.08Y-20.8
X20.08Y-25.2
X20.08Y-27.8
X20.08Y-32.2
X20.08Y-34.8
X20.08Y-39.2
X20.08Y-41.8
X20.08Y-46.2
X20.08Y-48.8
X20.08Y-53.2
X20.08Y-55.8
X20.08Y-60.2
X20.08Y-62.8
X20.08Y-67.2
X20.08Y-69.8
X20.08Y-74.2
X20.08Y-76.8
X20.08Y-81.2
X20.08Y-83.8
X20.08Y-88.2
X20.08Y-90.8
X20.08Y-95.2
X20.08Y-97.8
X20.08Y-102.2
X20.08Y-104.8
X20.08Y-109.2
X20.73Y-20.8
X20.73Y-25.2
X20.73Y-27.8
X20.73Y-32.2
X20.73Y-34.8
X20.73Y-39.2
X20.73Y-41.8
X20.73Y-46.2
X20.73Y-48.8
X20.73Y-53.2
X20.73Y-55.8
X20.73Y-60.2
X20.73Y-62.8
X20.73Y-67.2
X20.73Y-69.8
X20.73Y-74.2
X20.73Y-76.8
X20.73Y-81.2
X20.73Y-83.8
X20.73Y-88.2
X20.73Y-90.8
X20.73Y-95.2
X20.73Y-97.8
X20.73Y-102.2
X20.73Y-104.8
X20.73Y-109.2
X21.38Y-20.8
X21.38Y-25.2
X21.38Y-27.8
X21.38Y-32.2
X21.38Y-34.8
X21.38Y-39.2
X21.38Y-41.8
X21.38Y-46.2
X21.38Y-48.8
X21.38Y-53.2
X21.38Y-55.8
X21.38Y-60.2
X21.38Y-62.8
X21.38Y-67.2
X21.38Y-69.8
X21.38Y-74.2
X21.38Y-76.8
X21.38Y-81.2
X21.38Y-83.8
X21.38Y-88.2
X21.38Y-90.8
X21.38Y-95.2
X21.38Y-97.8
X21.38Y-102.2
X21.38Y-104.8
X21.38Y-109.2
X22.03Y-20.8
X22.03Y-25.2
X22.03Y-27.8
X22.03Y-32.2
X22.03Y-34.8
X22.03Y-39.2
X22.03Y-41.8
X22.03Y-46.2
X22.03Y-48.8
X22.03Y-53.2
X22.03Y-55.8
X22.03Y-60.2
X22.03Y-62.8
X22.03Y-67.2
X22.03Y-69.8
X22.03Y-74.2
X22.03Y-76.8
X22.03Y-81.2
X22.03Y-83.8
X22.03Y-88.2
X22.03Y-90.8
X22.03Y-95.2
X22.03Y-97.8
X22.03Y-102.2
X22.03Y-104.8
X22.03Y-109.2
X22.68Y-20.8
X22.68Y-25.2
X22.68Y-27.8
X22.68Y-32.2
X22.68Y-34.8
X22.68Y-39.2
X22.68Y-41.8
X22.68Y-46.2
X22.68Y-48.8
X22.68Y-53.2
X22.68Y-55.8
X22.68Y-60.2
X22.68Y-62.8
X22.68Y-67.2
X22.68Y-69.8
X22.68Y-74.2
X22.68Y-76.8
X22.68Y-81.2
X22.68Y-83.8
X22.68Y-88.2
X22.68Y-90.8
X22.68Y-95.2
X22.68Y-97.8
X22.68Y-102.2
X22.68Y-104.8
X22.68Y-109.2
X23.33Y-20.8
X23.33Y-25.2
X23.33Y-27.8
X23.33Y-32.2
X23.33Y-34.8
X23.33Y-39.2
X23.33Y-41.8
X23.33Y-46.2
X23.33Y-48.8
X23.33Y-53.2
X23.33Y-55.8
X23.33Y-60.2
X23.33Y-62.8
X23.33Y-67.2
X23.33Y-69.8
X23.33Y-74.2
X23.33Y-76.8
X23.33Y-81.2
X23.33Y-83.8
X23.33Y-88.2
X23.33Y-90.8
X23.33Y-95.2
X23.33Y-97.8
X23.33Y-102.2
X23.33Y-104.8
X23.33Y-109.2
X23.98Y-20.8
X23.98Y-27.8
X23.98Y-34.8
X23.98Y-41.8
X23.98Y-48.8
X23.98Y-55.8
X23.98Y-62.8
X23.98Y-69.8
X23.98Y-76.8
X23.98Y-83.8
X23.98Y-90.8
X23.98Y-97.8
X23.98Y-104.8
X27.02Y-25.2
X27.02Y-32.2
X27.02Y-39.2
X27.02Y-46.2
X27.02Y-53.2
X27.02Y-60.2
X27.02Y-67.2
X27.02Y-74.2
X27.02Y-81.2
X27.02Y-88.2
X27.02Y-95.2
X27.02Y-102.2
X27.02Y-109.2
X27.67Y-20.8
X27.67Y-25.2
X27.67Y-27.8
X27.67Y-32.2
X27.67Y-34.8
X27.67Y-39.2
X27.67Y-41.8
X27.67Y-46.2
X27.67Y-48.8
X27.67Y-53.2
X27.67Y-55.8
X27.67Y-60.2
X27.67Y-62.8
X27.67Y-67.2
X27.67Y-69.8
X27.67Y-74.2
X27.67Y-76.8
X27.67Y-81.2
X27.67Y-83.8
X27.67Y-88.2
X27.67Y-90.8
X27.67Y-95.2
X27.67Y-97.8
X27.67Y-102.2
X27.67Y-104.8
X27.67Y-109.2
X28.32Y-20.8
X28.32Y-25.2
X28.32Y-27.8
X28.32Y-32.2
X28.32Y-34.8
X28.32Y-39.2
X28.32Y-41.8
X28.32Y-46.2
X28.32Y-48.8
X28.32Y-53.2
X28.32Y-55.8
X28.32Y-60.2
X28.32Y-62.8
X28.32Y-67.2
X28.32Y-69.8
X28.32Y-74.2
X28.32Y-76.8
X28.32Y-81.2
X28.32Y-83.8
X28.32Y-88.2
X28.32Y-90.8
X28.32Y-95.2
X28.32Y-97.8
X28.32Y-102.2
X28.32Y-104.8
X28.32Y-109.2
X28.97Y-20.8
X28.97Y-25.2
X28.97Y-27.8
X28.97Y-32.2
X28.97Y-34.8
X28.97Y-39.2
X28.97Y-41.8
X28.97Y-46.2
X28.97Y-48.8
X28.97Y-53.2
X28.97Y-55.8
X28.97Y-60.2
X28.97Y-62.8
X28.97Y-67.2
X28.97Y-69.8
X28.97Y-74.2
X28.97Y-76.8
X28.97Y-81.2
X28.97Y-83.8
X28.97Y-88.2
X28.97Y-90.8
X28.97Y-95.2
X28.97Y-97.8
X28.97Y-102.2
X28.97Y-104.8
X28.97Y-109.2
X29.62Y-20.8
X29.62Y-25.2
X29.62Y-27.8
X29.62Y-32.2
X29.62Y-34.8
X29.62Y-39.2
X29.62Y-41.8
X29.62Y-46.2
X29.62Y-48.8
X29.62Y-53.2
X29.62Y-55.8
X29.62Y-60.2
X29.62Y-62.8
X29.62Y-67.2
X29.62Y-69.8
X29.62Y-74.2
X29.62Y-76.8
X29.62Y-81.2
X29.62Y-83.8
X29.62Y-88.2
X29.62Y-90.8
X29.62Y-95.2
X29.62Y-97.8
X29.62Y-102.2
X29.62Y-104.8
X29.62Y-109.2
X30.27Y-20.8
X30.27Y-25.2
X30.27Y-27.8
X30.27Y-32.2
X30.27Y-34.8
X30.27Y-39.2
X30.27Y-41.8
X30.27Y-46.2
X30.27Y-48.8
X30.27Y-53.2
X30.27Y-55.8
X30.27Y-60.2
X30.27Y-62.8
X30.27Y-67.2
X30.27Y-69.8
X30.27Y-74.2
X30.27Y-76.8
X30.27Y-81.2
X30.27Y-83.8
X30.27Y-88.2
X30.27Y-90.8
X30.27Y-95.2
X30.27Y-97.8
X30.27Y-102.2
X30.27Y-104.8
X30.27Y-109.2
X30.92Y-20.8
X30.92Y-25.2
X30.92Y-27.8
X30.92Y-32.2
X30.92Y-34.8
X30.92Y-39.2
X30.92Y-41.8
X30.92Y-46.2
X30.92Y-48.8
X30.92Y-53.2
X30.92Y-55.8
X30.92Y-60.2
X30.92Y-62.8
X30.92Y-67.2
X30.92Y-69.8
X30.92Y-74.2
X30.92Y-76.8
X30.92Y-81.2
X30.92Y-83.8
X30.92Y-88.2
X30.92Y-90.8
X30.92Y-95.2
X30.92Y-97.8
X30.92Y-102.2
X30.92Y-104.8
X30.92Y-109.2
X31.57Y-20.8
X31.57Y-25.2
X31.57Y-27.8
X31.57Y-32.2
X31.57Y-34.8
X31.57Y-39.2
X31.57Y-41.8
X31.57Y-46.2
X31.57Y-48.8
X31.57Y-53.2
X31.57Y-55.8
X31.57Y-60.2
X31.57Y-62.8
X31.57Y-67.2
X31.57Y-69.8
X31.57Y-74.2
X31.57Y-76.8
X31.57Y-81.2
X31.57Y-83.8
X31.57Y-88.2
X31.57Y-90.8
X31.57Y-95.2
X31.57Y-97.8
X31.57Y-102.2
X31.57Y-104.8
X31.57Y-109.2
X32.22Y-20.8
X32.22Y-27.8
X32.22Y-34.8
X32.22Y-41.8
X32.22Y-48.8
X32.22Y-55.8
X32.22Y-62.8
X32.22Y-69.8
X32.22Y-76.8
X32.22Y-83.8
X32.22Y-90.8
X32.22Y-97.8
X32.22Y-104.8
X33.98Y-25.2
X33.98Y-32.2
X33.98Y-39.2
X33.98Y-46.2
X33.98Y-53.2
X33.98Y-60.2
X33.98Y-67.2
X33.98Y-74.2
X33.98Y-81.2
X33.98Y-88.2
X33.98Y-95.2
X33.98Y-102.2
X33.98Y-109.2
X34.63Y-20.8
X34.63Y-25.2
X34.63Y-27.8
X34.63Y-32.2
X34.63Y-34.8
X34.63Y-39.2
X34.63Y-41.8
X34.63Y-46.2
X34.63Y-48.8
X34.63Y-53.2
X34.63Y-55.8
X34.63Y-60.2
X34.63Y-62.8
X34.63Y-67.2
X34.63Y-69.8
X34.63Y-74.2
X34.63Y-76.8
X34.63Y-81.2
X34.63Y-83.8
X34.63Y-88.2
X34.63Y-90.8
X34.63Y-95.2
X34.63Y-97.8
X34.63Y-102.2
X34.63Y-104.8
X34.63Y-109.2
X35.28Y-20.8
X35.28Y-25.2
X35.28Y-27.8
X35.28Y-32.2
X35.28Y-34.8
X35.28Y-39.2
X35.28Y-41.8
X35.28Y-46.2
X35.28Y-48.8
X35.28Y-53.2
X35.28Y-55.8
X35.28Y-60.2
X35.28Y-62.8
X35.28Y-67.2
X35.28Y-69.8
X35.28Y-74.2
X35.28Y-76.8
X35.28Y-81.2
X35.28Y-83.8
X35.28Y-88.2
X35.28Y-90.8
X35.28Y-95.2
X35.28Y-97.8
X35.28Y-102.2
X35.28Y-104.8
X35.28Y-109.2
X35.93Y-20.8
X35.93Y-25.2
X35.93Y-27.8
X35.93Y-32.2
X35.93Y-34.8
X35.93Y-39.2
X35.93Y-41.8
X35.93Y-46.2
X35.93Y-48.8
X35.93Y-53.2
X35.93Y-55.8
X35.93Y-60.2
X35.93Y-62.8
X35.93Y-67.2
X35.93Y-69.8
X35.93Y-74.2
X35.93Y-76.8
X35.93Y-81.2
X35.93Y-83.8
X35.93Y-88.2
X35.93Y-90.8
X35.93Y-95.2
X35.93Y-97.8
X35.93Y-102.2
X35.93Y-104.8
X35.93Y-109.2
X36.58Y-20.8
X36.58Y-25.2
X36.58Y-27.8
X36.58Y-32.2
X36.58Y-34.8
X36.58Y-39.2
X36.58Y-41.8
X36.58Y-46.2
X36.58Y-48.8
X36.58Y-53.2
X36.58Y-55.8
X36.58Y-60.2
X36.58Y-62.8
X36.58Y-67.2
X36.58Y-69.8
X36.58Y-74.2
X36.58Y-76.8
X36.58Y-81.2
X36.58Y-83.8
X36.58Y-88.2
X36.58Y-90.8
X36.58Y-95.2
X36.58Y-97.8
X36.58Y-102.2
X36.58Y-104.8
X36.58Y-109.2
X37.23Y-20.8
X37.23Y-25.2
X37.23Y-27.8
X37.23Y-32.2
X37.23Y-34.8
X37.23Y-39.2
X37.23Y-41.8
X37.23Y-46.2
X37.23Y-48.8
X37.23Y-53.2
X37.23Y-55.8
X37.23Y-60.2
X37.23Y-62.8
X37.23Y-67.2
X37.23Y-69.8
X37.23Y-74.2
X37.23Y-76.8
X37.23Y-81.2
X37.23Y-83.8
X37.23Y-88.2
X37.23Y-90.8
X37.23Y-95.2
X37.23Y-97.8
X37.23Y-102.2
X37.23Y-104.8
X37.23Y-109.2
X37.88Y-20.8
X37.88Y-25.2
X37.88Y-27.8
X37.88Y-32.2
X37.88Y-34.8
X37.88Y-39.2
X37.88Y-41.8
X37.88Y-46.2
X37.88Y-48.8
X37.88Y-53.2
X37.88Y-55.8
X37.88Y-60.2
X37.88Y-62.8
X37.88Y-67.2
X37.88Y-69.8
X37.88Y-74.2
X37.88Y-76.8
X37.88Y-81.2
X37.88Y-83.8
X37.88Y-88.2
X37.88Y-90.8
X37.88Y-95.2
X37.88Y-97.8
X37.88Y-102.2
X37.88Y-104.8
X37.88Y-109.2
X38.53Y-20.8
X38.53Y-25.2
X38.53Y-27.8
X38.53Y-32.2
X38.53Y-34.8
X38.53Y-39.2
X38.53Y-41.8
X38.53Y-46.2
X38.53Y-48.8
X38.53Y-53.2
X38.53Y-55.8
X38.53Y-60.2
X38.53Y-62.8
X38.53Y-67.2
X38.53Y-69.8
X38.53Y-74.2
X38.53Y-76.8
X38.53Y-81.2
X38.53Y-83.8
X38.53Y-88.2
X38.53Y-90.8
X38.53Y-95.2
X38.53Y-97.8
X38.53Y-102.2
X38.53Y-104.8
X38.53Y-109.2
X39.18Y-20.8
X39.18Y-27.8
X39.18Y-34.8
X39.18Y-41.8
X39.18Y-48.8
X39.18Y-55.8
X39.18Y-62.8
X39.18Y-69.8
X39.18Y-76.8
X39.18Y-83.8
X39.18Y-90.8
X39.18Y-97.8
X39.18Y-104.8
X42.22Y-25.2
X42.22Y-32.2
X42.22Y-39.2
X42.22Y-46.2
X42.22Y-53.2
X42.22Y-60.2
X42.22Y-67.2
X42.22Y-74.2
X42.22Y-81.2
X42.22Y-88.2
X42.22Y-95.2
X42.22Y-102.2
X42.22Y-109.2
X42.87Y-20.8
X42.87Y-25.2
X42.87Y-27.8
X42.87Y-32.2
X42.87Y-34.8
X42.87Y-39.2
X42.87Y-41.8
X42.87Y-46.2
X42.87Y-48.8
X42.87Y-53.2
X42.87Y-55.8
X42.87Y-60.2
X42.87Y-62.8
X42.87Y-67.2
X42.87Y-69.8
X42.87Y-74.2
X42.87Y-76.8
X42.87Y-81.2
X42.87Y-83.8
X42.87Y-88.2
X42.87Y-90.8
X42.87Y-95.2
X42.87Y-97.8
X42.87Y-102.2
X42.87Y-104.8
X42.87Y-109.2
X43.52Y-20.8
X43.52Y-25.2
X43.52Y-27.8
X43.52Y-32.2
X43.52Y-34.8
X43.52Y-39.2
X43.52Y-41.8
X43.52Y-46.2
X43.52Y-48.8
X43.52Y-53.2
X43.52Y-55.8
X43.52Y-60.2
X43.52Y-62.8
X43.52Y-67.2
X43.52Y-69.8
X43.52Y-74.2
X43.52Y-76.8
X43.52Y-81.2
X43.52Y-83.8
X43.52Y-88.2
X43.52Y-90.8
X43.52Y-95.2
X43.52Y-97.8
X43.52Y-102.2
X43.52Y-104.8
X43.52Y-109.2
X44.17Y-20.8
X44.17Y-25.2
X44.17Y-27.8
X44.17Y-32.2
X44.17Y-34.8
X44.17Y-39.2
X44.17Y-41.8
X44.17Y-46.2
X44.17Y-48.8
X44.17Y-53.2
X44.17Y-55.8
X44.17Y-60.2
X44.17Y-62.8
X44.17Y-67.2
X44.17Y-69.8
X44.17Y-74.2
X44.17Y-76.8
X44.17Y-81.2
X44.17Y-83.8
X44.17Y-88.2
X44.17Y-90.8
X44.17Y-95.2
X44.17Y-97.8
X44.17Y-102.2
X44.17Y-104.8
X44.17Y-109.2
X44.82Y-20.8
X44.82Y-25.2
X44.82Y-27.8
X44.82Y-32.2
X44.82Y-34.8
X44.82Y-39.2
X44.82Y-41.8
X44.82Y-46.2
X44.82Y-48.8
X44.82Y-53.2
X44.82Y-55.8
X44.82Y-60.2
X44.82Y-62.8
X44.82Y-67.2
X44.82Y-69.8
X44.82Y-74.2
X44.82Y-76.8
X44.82Y-81.2
X44.82Y-83.8
X44.82Y-88.2
X44.82Y-90.8
X44.82Y-95.2
X44.82Y-97.8
X44.82Y-102.2
X44.82Y-104.8
X44.82Y-109.2
X45.47Y-20.8
X45.47Y-25.2
X45.47Y-27.8
X45.47Y-32.2
X45.47Y-34.8
X45.47Y-39.2
X45.47Y-41.8
X45.47Y-46.2
X45.47Y-48.8
X45.47Y-53.2
X45.47Y-55.8
X45.47Y-60.2
X45.47Y-62.8
X45.47Y-67.2
X45.47Y-69.8
X45.47Y-74.2
X45.47Y-76.8
X45.47Y-81.2
X45.47Y-83.8
X45.47Y-88.2
X45.47Y-90.8
X45.47Y-95.2
X45.47Y-97.8
X45.47Y-102.2
X45.47Y-104.8
X45.47Y-109.2
X46.12Y-20.8
X46.12Y-25.2
X46.12Y-27.8
X46.12Y-32.2
X46.12Y-34.8
X46.12Y-39.2
X46.12Y-41.8
X46.12Y-46.2
X46.12Y-48.8
X46.12Y-53.2
X46.12Y-55.8
X46.12Y-60.2
X46.12Y-62.8
X46.12Y-67.2
X46.12Y-69.8
X46.12Y-74.2
X46.12Y-76.8
X46.12Y-81.2
X46.12Y-83.8
X46.12Y-88.2
X46.12Y-90.8
X46.12Y-95.2
X46.12Y-97.8
X46.12Y-102.2
X46.12Y-104.8
X46.12Y-109.2
X46.77Y-20.8
X46.77Y-25.2
X46.77Y-27.8
X46.77Y-32.2
X46.77Y-34.8
X46.77Y-39.2
X46.77Y-41.8
X46.77Y-46.2
X46.77Y-48.8
X46.77Y-53.2
X46.77Y-55.8
X46.77Y-60.2
X46.77Y-62.8
X46.77Y-67.2
X46.77Y-69.8
X46.77Y-74.2
X46.77Y-76.8
X46.77Y-81.2
X46.77Y-83.8
X46.77Y-88.2
X46.77Y-90.8
X46.77Y-95.2
X46.77Y-97.8
X46.77Y-102.2
X46.77Y-104.8
X46.77Y-109.2
X47.42Y-20.8
X47.42Y-27.8
X47.42Y-34.8
X47.42Y-41.8
X47.42Y-48.8
X47.42Y-55.8
X47.42Y-62.8
X47.42Y-69.8
X47.42Y-76.8
X47.42Y-83.8
X47.42Y-90.8
X47.42Y-97.8
X47.42Y-104.8
X49.18Y-25.2
X49.18Y-32.2
X49.18Y-39.2
X49.18Y-46.2
X49.18Y-53.2
X49.18Y-60.2
X49.18Y-67.2
X49.18Y-74.2
X49.18Y-81.2
X49.18Y-88.2
X49.18Y-95.2
X49.18Y-102.2
X49.18Y-109.2
X49.83Y-20.8
X49.83Y-25.2
X49.83Y-27.8
X49.83Y-32.2
X49.83Y-34.8
X49.83Y-39.2
X49.83Y-41.8
X49.83Y-46.2
X49.83Y-48.8
X49.83Y-53.2
X49.83Y-55.8
X49.83Y-60.2
X49.83Y-62.8
X49.83Y-67.2
X49.83Y-69.8
X49.83Y-74.2
X49.83Y-76.8
X49.83Y-81.2
X49.83Y-83.8
X49.83Y-88.2
X49.83Y-90.8
X49.83Y-95.2
X49.83Y-97.8
X49.83Y-102.2
X49.83Y-104.8
X49.83Y-109.2
X50.48Y-20.8
X50.48Y-25.2
X50.48Y-27.8
X50.48Y-32.2
X50.48Y-34.8
X50.48Y-39.2
X50.48Y-41.8
X50.48Y-46.2
X50.48Y-48.8
X50.48Y-53.2
X50.48Y-55.8
X50.48Y-60.2
X50.48Y-62.8
X50.48Y-67.2
X50.48Y-69.8
X50.48Y-74.2
X50.48Y-76.8
X50.48Y-81.2
X50.48Y-83.8
X50.48Y-88.2
X50.48Y-90.8
X50.48Y-95.2
X50.48Y-97.8
X50.48Y-102.2
X50.48Y-104.8
X50.48Y-109.2
X51.13Y-20.8
X51.13Y-25.2
X51.13Y-27.8
X51.13Y-32.2
X51.13Y-34.8
X51.13Y-39.2
X51.13Y-41.8
X51.13Y-46.2
X51.13Y-48.8
X51.13Y-53.2
X51.13Y-55.8
X51.13Y-60.2
X51.13Y-62.8
X51.13Y-67.2
X51.13Y-69.8
X51.13Y-74.2
X51.13Y-76.8
X51.13Y-81.2
X51.13Y-83.8
X51.13Y-88.2
X51.13Y-90.8
X51.13Y-95.2
X51.13Y-97.8
X51.13Y-102.2
X51.13Y-104.8
X51.13Y-109.2
X51.78Y-20.8
X51.78Y-25.2
X51.78Y-27.8
X51.78Y-32.2
X51.78Y-34.8
X51.78Y-39.2
X51.78Y-41.8
X51.78Y-46.2
X51.78Y-48.8
X51.78Y-53.2
X51.78Y-55.8
X51.78Y-60.2
X51.78Y-62.8
X51.78Y-67.2
X51.78Y-69.8
X51.78Y-74.2
X51.78Y-76.8
X51.78Y-81.2
X51.78Y-83.8
X51.78Y-88.2
X51.78Y-90.8
X51.78Y-95.2
X51.78Y-97.8
X51.78Y-102.2
X51.78Y-104.8
X51.78Y-109.2
X52.43Y-20.8
X52.43Y-25.2
X52.43Y-27.8
X52.43Y-32.2
X52.43Y-34.8
X52.43Y-39.2
X52.43Y-41.8
X52.43Y-46.2
X52.43Y-48.8
X52.43Y-53.2
X52.43Y-55.8
X52.43Y-60.2
X52.43Y-62.8
X52.43Y-67.2
X52.43Y-69.8
X52.43Y-74.2
X52.43Y-76.8
X52.43Y-81.2
X52.43Y-83.8
X52.43Y-88.2
X52.43Y-90.8
X52.43Y-95.2
X52.43Y-97.8
X52.43Y-102.2
X52.43Y-104.8
X52.43Y-109.2
X53.08Y-20.8
X53.08Y-25.2
X53.08Y-27.8
X53.08Y-32.2
X53.08Y-34.8
X53.08Y-39.2
X53.08Y-41.8
X53.08Y-46.2
X53.08Y-48.8
X53.08Y-53.2
X53.08Y-55.8
X53.08Y-60.2
X53.08Y-62.8
X53.08Y-67.2
X53.08Y-69.8
X53.08Y-74.2
X53.08Y-76.8
X53.08Y-81.2
X53.08Y-83.8
X53.08Y-88.2
X53.08Y-90.8
X53.08Y-95.2
X53.08Y-97.8
X53.08Y-102.2
X53.08Y-104.8
X53.08Y-109.2
X53.73Y-20.8
X53.73Y-25.2
X53.73Y-27.8
X53.73Y-32.2
X53.73Y-34.8
X53.73Y-39.2
X53.73Y-41.8
X53.73Y-46.2
X53.73Y-48.8
X53.73Y-53.2
X53.73Y-55.8
X53.73Y-60.2
X53.73Y-62.8
X53.73Y-67.2
X53.73Y-69.8
X53.73Y-74.2
X53.73Y-76.8
X53.73Y-81.2
X53.73Y-83.8
X53.73Y-88.2
X53.73Y-90.8
X53.73Y-95.2
X53.73Y-97.8
X53.73Y-102.2
X53.73Y-104.8
X53.73Y-109.2
X54.38Y-20.8
X54.38Y-27.8
X54.38Y-34.8
X54.38Y-41.8
X54.38Y-48.8
X54.38Y-55.8
X54.38Y-62.8
X54.38Y-69.8
X54.38Y-76.8
X54.38Y-83.8
X54.38Y-90.8
X54.38Y-97.8
X54.38Y-104.8
X57.42Y-25.2
X57.42Y-32.2
X57.42Y-39.2
X57.42Y-46.2
X57.42Y-53.2
X57.42Y-60.2
X57.42Y-67.2
X57.42Y-74.2
X57.42Y-81.2
X57.42Y-88.2
X57.42Y-95.2
X57.42Y-102.2
X57.42Y-109.2
X58.07Y-20.8
X58.07Y-25.2
X58.07Y-27.8
X58.07Y-32.2
X58.07Y-34.8
X58.07Y-39.2
X58.07Y-41.8
X58.07Y-46.2
X58.07Y-48.8
X58.07Y-53.2
X58.07Y-55.8
X58.07Y-60.2
X58.07Y-62.8
X58.07Y-67.2
X58.07Y-69.8
X58.07Y-74.2
X58.07Y-76.8
X58.07Y-81.2
X58.07Y-83.8
X58.07Y-88.2
X58.07Y-90.8
X58.07Y-95.2
X58.07Y-97.8
X58.07Y-102.2
X58.07Y-104.8
X58.07Y-109.2
X58.72Y-20.8
X58.72Y-25.2
X58.72Y-27.8
X58.72Y-32.2
X58.72Y-34.8
X58.72Y-39.2
X58.72Y-41.8
X58.72Y-46.2
X58.72Y-48.8
X58.72Y-53.2
X58.72Y-55.8
X58.72Y-60.2
X58.72Y-62.8
X58.72Y-67.2
X58.72Y-69.8
X58.72Y-74.2
X58.72Y-76.8
X58.72Y-81.2
X58.72Y-83.8
X58.72Y-88.2
X58.72Y-90.8
X58.72Y-95.2
X58.72Y-97.8
X58.72Y-102.2
X58.72Y-104.8
X58.72Y-109.2
X59.37Y-20.8
X59.37Y-25.2
X59.37Y-27.8
X59.37Y-32.2
X59.37Y-34.8
X59.37Y-39.2
X59.37Y-41.8
X59.37Y-46.2
X59.37Y-48.8
X59.37Y-53.2
X59.37Y-55.8
X59.37Y-60.2
X59.37Y-62.8
X59.37Y-67.2
X59.37Y-69.8
X59.37Y-74.2
X59.37Y-76.8
X59.37Y-81.2
X59.37Y-83.8
X59.37Y-88.2
X59.37Y-90.8
X59.37Y-95.2
X59.37Y-97.8
X59.37Y-102.2
X59.37Y-104.8
X59.37Y-109.2
X60.02Y-20.8
X60.02Y-25.2
X60.02Y-27.8
X60.02Y-32.2
X60.02Y-34.8
X60.02Y-39.2
X60.02Y-41.8
X60.02Y-46.2
X60.02Y-48.8
X60.02Y-53.2
X60.02Y-55.8
X60.02Y-60.2
X60.02Y-62.8
X60.02Y-67.2
X60.02Y-69.8
X60.02Y-74.2
X60.02Y-76.8
X60.02Y-81.2
X60.02Y-83.8
X60.02Y-88.2
X60.02Y-90.8
X60.02Y-95.2
X60.02Y-97.8
X60.02Y-102.2
X60.02Y-104.8
X60.02Y-109.2
X60.67Y-20.8
X60.67Y-25.2
X60.67Y-27.8
X60.67Y-32.2
X60.67Y-34.8
X60.67Y-39.2
X60.67Y-41.8
X60.67Y-46.2
X60.67Y-48.8
X60.67Y-53.2
X60.67Y-55.8
X60.67Y-60.2
X60.67Y-62.8
X60.67Y-67.2
X60.67Y-69.8
X60.67Y-74.2
X60.67Y-76.8
X60.67Y-81.2
X60.67Y-83.8
X60.67Y-88.2
X60.67Y-90.8
X60.67Y-95.2
X60.67Y-97.8
X60.67Y-102.2
X60.67Y-104.8
X60.67Y-109.2
X61.32Y-20.8
X61.32Y-25.2
X61.32Y-27.8
X61.32Y-32.2
X61.32Y-34.8
X61.32Y-39.2
X61.32Y-41.8
X61.32Y-46.2
X61.32Y-48.8
X61.32Y-53.2
X61.32Y-55.8
X61.32Y-60.2
X61.32Y-62.8
X61.32Y-67.2
X61.32Y-69.8
X61.32Y-74.2
X61.32Y-76.8
X61.32Y-81.2
X61.32Y-83.8
X61.32Y-88.2
X61.32Y-90.8
X61.32Y-95.2
X61.32Y-97.8
X61.32Y-102.2
X61.32Y-104.8
X61.32Y-109.2
X61.97Y-20.8
X61.97Y-25.2
X61.97Y-27.8
X61.97Y-32.2
X61.97Y-34.8
X61.97Y-39.2
X61.97Y-41.8
X61.97Y-46.2
X61.97Y-48.8
X61.97Y-53.2
X61.97Y-55.8
X61.97Y-60.2
X61.97Y-62.8
X61.97Y-67.2
X61.97Y-69.8
X61.97Y-74.2
X61.97Y-76.8
X61.97Y-81.2
X61.97Y-83.8
X61.97Y-88.2
X61.97Y-90.8
X61.97Y-95.2
X61.97Y-97.8
X61.97Y-102.2
X61.97Y-104.8
X61.97Y-109.2
X62.62Y-20.8
X62.62Y-27.8
X62.62Y-34.8
X62.62Y-41.8
X62.62Y-48.8
X62.62Y-55.8
X62.62Y-62.8
X62.62Y-69.8
X62.62Y-76.8
X62.62Y-83.8
X62.62Y-90.8
X62.62Y-97.8
X62.62Y-104.8
X64.38Y-25.2
X64.38Y-32.2
X64.38Y-39.2
X64.38Y-46.2
X64.38Y-53.2
X64.38Y-60.2
X64.38Y-67.2
X64.38Y-74.2
X64.38Y-81.2
X64.38Y-88.2
X64.38Y-95.2
X64.38Y-102.2
X64.38Y-109.2
X65.03Y-20.8
X65.03Y-25.2
X65.03Y-27.8
X65.03Y-32.2
X65.03Y-34.8
X65.03Y-39.2
X65.03Y-41.8
X65.03Y-46.2
X65.03Y-48.8
X65.03Y-53.2
X65.03Y-55.8
X65.03Y-60.2
X65.03Y-62.8
X65.03Y-67.2
X65.03Y-69.8
X65.03Y-74.2
X65.03Y-76.8
X65.03Y-81.2
X65.03Y-83.8
X65.03Y-88.2
X65.03Y-90.8
X65.03Y-95.2
X65.03Y-97.8
X65.03Y-102.2
X65.03Y-104.8
X65.03Y-109.2
X65.68Y-20.8
X65.68Y-25.2
X65.68Y-27.8
X65.68Y-32.2
X65.68Y-34.8
X65.68Y-39.2
X65.68Y-41.8
X65.68Y-46.2
X65.68Y-48.8
X65.68Y-53.2
X65.68Y-55.8
X65.68Y-60.2
X65.68Y-62.8
X65.68Y-67.2
X65.68Y-69.8
X65.68Y-74.2
X65.68Y-76.8
X65.68Y-81.2
X65.68Y-83.8
X65.68Y-88.2
X65.68Y-90.8
X65.68Y-95.2
X65.68Y-97.8
X65.68Y-102.2
X65.68Y-104.8
X65.68Y-109.2
X66.33Y-20.8
X66.33Y-25.2
X66.33Y-27.8
X66.33Y-32.2
X66.33Y-34.8
X66.33Y-39.2
X66.33Y-41.8
X66.33Y-46.2
X66.33Y-48.8
X66.33Y-53.2
X66.33Y-55.8
X66.33Y-60.2
X66.33Y-62.8
X66.33Y-67.2
X66.33Y-69.8
X66.33Y-74.2
X66.33Y-76.8
X66.33Y-81.2
X66.33Y-83.8
X66.33Y-88.2
X66.33Y-90.8
X66.33Y-95.2
X66.33Y-97.8
X66.33Y-102.2
X66.33Y-104.8
X66.33Y-109.2
X66.98Y-20.8
X66.98Y-25.2
X66.98Y-27.8
X66.98Y-32.2
X66.98Y-34.8
X66.98Y-39.2
X66.98Y-41.8
X66.98Y-46.2
X66.98Y-48.8
X66.98Y-53.2
X66.98Y-55.8
X66.98Y-60.2
X66.98Y-62.8
X66.98Y-67.2
X66.98Y-69.8
X66.98Y-74.2
X66.98Y-76.8
X66.98Y-81.2
X66.98Y-83.8
X66.98Y-88.2
X66.98Y-90.8
X66.98Y-95.2
X66.98Y-97.8
X66.98Y-102.2
X66.98Y-104.8
X66.98Y-109.2
X67.63Y-20.8
X67.63Y-25.2
X67.63Y-27.8
X67.63Y-32.2
X67.63Y-34.8
X67.63Y-39.2
X67.63Y-41.8
X67.63Y-46.2
X67.63Y-48.8
X67.63Y-53.2
X67.63Y-55.8
X67.63Y-60.2
X67.63Y-62.8
X67.63Y-67.2
X67.63Y-69.8
X67.63Y-74.2
X67.63Y-76.8
X67.63Y-81.2
X67.63Y-83.8
X67.63Y-88.2
X67.63Y-90.8
X67.63Y-95.2
X67.63Y-97.8
X67.63Y-102.2
X67.63Y-104.8
X67.63Y-109.2
X68.28Y-20.8
X68.28Y-25.2
X68.28Y-27.8
X68.28Y-32.2
X68.28Y-34.8
X68.28Y-39.2
X68.28Y-41.8
X68.28Y-46.2
X68.28Y-48.8
X68.28Y-53.2
X68.28Y-55.8
X68.28Y-60.2
X68.28Y-62.8
X68.28Y-67.2
X68.28Y-69.8
X68.28Y-74.2
X68.28Y-76.8
X68.28Y-81.2
X68.28Y-83.8
X68.28Y-88.2
X68.28Y-90.8
X68.28Y-95.2
X68.28Y-97.8
X68.28Y-102.2
X68.28Y-104.8
X68.28Y-109.2
X68.93Y-20.8
X68.93Y-25.2
X68.93Y-27.8
X68.93Y-32.2
X68.93Y-34.8
X68.93Y-39.2
X68.93Y-41.8
X68.93Y-46.2
X68.93Y-48.8
X68.93Y-53.2
X68.93Y-55.8
X68.93Y-60.2
X68.93Y-62.8
X68.93Y-67.2
X68.93Y-69.8
X68.93Y-74.2
X68.93Y-76.8
X68.93Y-81.2
X68.93Y-83.8
X68.93Y-88.2
X68.93Y-90.8
X68.93Y-95.2
X68.93Y-97.8
X68.93Y-102.2
X68.93Y-104.8
X68.93Y-109.2
X69.58Y-20.8
X69.58Y-27.8
X69.58Y-34.8
X69.58Y-41.8
X69.58Y-48.8
X69.58Y-55.8
X69.58Y-62.8
X69.58Y-69.8
X69.58Y-76.8
X69.58Y-83.8
X69.58Y-90.8
X69.58Y-97.8
X69.58Y-104.8
X72.62Y-25.2
X72.62Y-32.2
X72.62Y-39.2
X72.62Y-46.2
X72.62Y-53.2
X72.62Y-60.2
X72.62Y-67.2
X72.62Y-74.2
X72.62Y-81.2
X72.62Y-88.2
X72.62Y-95.2
X72.62Y-102.2
X72.62Y-109.2
X73.27Y-20.8
X73.27Y-25.2
X73.27Y-27.8
X73.27Y-32.2
X73.27Y-34.8
X73.27Y-39.2
X73.27Y-41.8
X73.27Y-46.2
X73.27Y-48.8
X73.27Y-53.2
X73.27Y-55.8
X73.27Y-60.2
X73.27Y-62.8
X73.27Y-67.2
X73.27Y-69.8
X73.27Y-74.2
X73.27Y-76.8
X73.27Y-81.2
X73.27Y-83.8
X73.27Y-88.2
X73.27Y-90.8
X73.27Y-95.2
X73.27Y-97.8
X73.27Y-102.2
X73.27Y-104.8
X73.27Y-109.2
X73.92Y-20.8
X73.92Y-25.2
X73.92Y-27.8
X73.92Y-32.2
X73.92Y-34.8
X73.92Y-39.2
X73.92Y-41.8
X73.92Y-46.2
X73.92Y-48.8
X73.92Y-53.2
X73.92Y-55.8
X73.92Y-60.2
X73.92Y-62.8
X73.92Y-67.2
X73.92Y-69.8
X73.92Y-74.2
X73.92Y-76.8
X73.92Y-81.2
X73.92Y-83.8
X73.92Y-88.2
X73.92Y-90.8
X73.92Y-95.2
X73.92Y-97.8
X73.92Y-102.2
X73.92Y-104.8
X73.92Y-109.2
X74.57Y-20.8
X74.57Y-25.2
X74.57Y-27.8
X74.57Y-32.2
X74.57Y-34.8
X74.57Y-39.2
X74.57Y-41.8
X74.57Y-46.2
X74.57Y-48.8
X74.57Y-53.2
X74.57Y-55.8
X74.57Y-60.2
X74.57Y-62.8
X74.57Y-67.2
X74.57Y-69.8
X74.57Y-74.2
X74.57Y-76.8
X74.57Y-81.2
X74.57Y-83.8
X74.57Y-88.2
X74.57Y-90.8
X74.57Y-95.2
X74.57Y-97.8
X74.57Y-102.2
X74.57Y-104.8
X74.57Y-109.2
X75.22Y-20.8
X75.22Y-25.2
X75.22Y-27.8
X75.22Y-32.2
X75.22Y-34.8
X75.22Y-39.2
X75.22Y-41.8
X75.22Y-46.2
X75.22Y-48.8
X75.22Y-53.2
X75.22Y-55.8
X75.22Y-60.2
X75.22Y-62.8
X75.22Y-67.2
X75.22Y-69.8
X75.22Y-74.2
X75.22Y-76.8
X75.22Y-81.2
X75.22Y-83.8
X75.22Y-88.2
X75.22Y-90.8
X75.22Y-95.2
X75.22Y-97.8
X75.22Y-102.2
X75.22Y-104.8
X75.22Y-109.2
X75.87Y-20.8
X75.87Y-25.2
X75.87Y-27.8
X75.87Y-32.2
X75.87Y-34.8
X75.87Y-39.2
X75.87Y-41.8
X75.87Y-46.2
X75.87Y-48.8
X75.87Y-53.2
X75.87Y-55.8
X75.87Y-60.2
X75.87Y-62.8
X75.87Y-67.2
X75.87Y-69.8
X75.87Y-74.2
X75.87Y-76.8
X75.87Y-81.2
X75.87Y-83.8
X75.87Y-88.2
X75.87Y-90.8
X75.87Y-95.2
X75.87Y-97.8
X75.87Y-102.2
X75.87Y-104.8
X75.87Y-109.2
X76.52Y-20.8
X76.52Y-25.2
X76.52Y-27.8
X76.52Y-32.2
X76.52Y-34.8
X76.52Y-39.2
X76.52Y-41.8
X76.52Y-46.2
X76.52Y-48.8
X76.52Y-53.2
X76.52Y-55.8
X76.52Y-60.2
X76.52Y-62.8
X76.52Y-67.2
X76.52Y-69.8
X76.52Y-74.2
X76.52Y-76.8
X76.52Y-81.2
X76.52Y-83.8
X76.52Y-88.2
X76.52Y-90.8
X76.52Y-95.2
X76.52Y-97.8
X76.52Y-102.2
X76.52Y-104.8
X76.52Y-109.2
X77.17Y-20.8
X77.17Y-25.2
X77.17Y-27.8
X77.17Y-32.2
X77.17Y-34.8
X77.17Y-39.2
X77.17Y-41.8
X77.17Y-46.2
X77.17Y-48.8
X77.17Y-53.2
X77.17Y-55.8
X77.17Y-60.2
X77.17Y-62.8
X77.17Y-67.2
X77.17Y-69.8
X77.17Y-74.2
X77.17Y-76.8
X77.17Y-81.2
X77.17Y-83.8
X77.17Y-88.2
X77.17Y-90.8
X77.17Y-95.2
X77.17Y-97.8
X77.17Y-102.2
X77.17Y-104.8
X77.17Y-109.2
X77.82Y-20.8
X77.82Y-27.8
X77.82Y-34.8
X77.82Y-41.8
X77.82Y-48.8
X77.82Y-55.8
X77.82Y-62.8
X77.82Y-69.8
X77.82Y-76.8
X77.82Y-83.8
X77.82Y-90.8
X77.82Y-97.8
X77.82Y-104.8
X79.58Y-25.2
X79.58Y-32.2
X79.58Y-39.2
X79.58Y-46.2
X79.58Y-53.2
X79.58Y-60.2
X79.58Y-67.2
X79.58Y-74.2
X79.58Y-81.2
X79.58Y-88.2
X79.58Y-95.2
X79.58Y-102.2
X79.58Y-109.2
X80.23Y-20.8
X80.23Y-25.2
X80.23Y-27.8
X80.23Y-32.2
X80.23Y-34.8
X80.23Y-39.2
X80.23Y-41.8
X80.23Y-46.2
X80.23Y-48.8
X80.23Y-53.2
X80.23Y-55.8
X80.23Y-60.2
X80.23Y-62.8
X80.23Y-67.2
X80.23Y-69.8
X80.23Y-74.2
X80.23Y-76.8
X80.23Y-81.2
X80.23Y-83.8
X80.23Y-88.2
X80.23Y-90.8
X80.23Y-95.2
X80.23Y-97.8
X80.23Y-102.2
X80.23Y-104.8
X80.23Y-109.2
X80.88Y-20.8
X80.88Y-25.2
X80.88Y-27.8
X80.88Y-32.2
X80.88Y-34.8
X80.88Y-39.2
X80.88Y-41.8
X80.88Y-46.2
X80.88Y-48.8
X80.88Y-53.2
X80.88Y-55.8
X80.88Y-60.2
X80.88Y-62.8
X80.88Y-67.2
X80.88Y-69.8
X80.88Y-74.2
X80.88Y-76.8
X80.88Y-81.2
X80.88Y-83.8
X80.88Y-88.2
X80.88Y-90.8
X80.88Y-95.2
X80.88Y-97.8
X80.88Y-102.2
X80.88Y-104.8
X80.88Y-109.2
X81.53Y-20.8
X81.53Y-25.2
X81.53Y-27.8
X81.53Y-32.2
X81.53Y-34.8
X81.53Y-39.2
X81.53Y-41.8
X81.53Y-46.2
X81.53Y-48.8
X81.53Y-53.2
X81.53Y-55.8
X81.53Y-60.2
X81.53Y-62.8
X81.53Y-67.2
X81.53Y-69.8
X81.53Y-74.2
X81.53Y-76.8
X81.53Y-81.2
X81.53Y-83.8
X81.53Y-88.2
X81.53Y-90.8
X81.53Y-95.2
X81.53Y-97.8
X81.53Y-102.2
X81.53Y-104.8
X81.53Y-109.2
X82.18Y-20.8
X82.18Y-25.2
X82.18Y-27.8
X82.18Y-32.2
X82.18Y-34.8
X82.18Y-39.2
X82.18Y-41.8
X82.18Y-46.2
X82.18Y-48.8
X82.18Y-53.2
X82.18Y-55.8
X82.18Y-60.2
X82.18Y-62.8
X82.18Y-67.2
X82.18Y-69.8
X82.18Y-74.2
X82.18Y-76.8
X82.18Y-81.2
X82.18Y-83.8
X82.18Y-88.2
X82.18Y-90.8
X82.18Y-95.2
X82.18Y-97.8
X82.18Y-102.2
X82.18Y-104.8
X82.18Y-109.2
X82.83Y-20.8
X82.83Y-25.2
X82.83Y-27.8
X82.83Y-32.2
X82.83Y-34.8
X82.83Y-39.2
X82.83Y-41.8
X82.83Y-46.2
X82.83Y-48.8
X82.83Y-53.2
X82.83Y-55.8
X82.83Y-60.2
X82.83Y-62.8
X82.83Y-67.2
X82.83Y-69.8
X82.83Y-74.2
X82.83Y-76.8
X82.83Y-81.2
X82.83Y-83.8
X82.83Y-88.2
X82.83Y-90.8
X82.83Y-95.2
X82.83Y-97.8
X82.83Y-102.2
X82.83Y-104.8
X82.83Y-109.2
X83.48Y-20.8
X83.48Y-25.2
X83.48Y-27.8
X83.48Y-32.2
X83.48Y-34.8
X83.48Y-39.2
X83.48Y-41.8
X83.48Y-46.2
X83.48Y-48.8
X83.48Y-53.2
X83.48Y-55.8
X83.48Y-60.2
X83.48Y-62.8
X83.48Y-67.2
X83.48Y-69.8
X83.48Y-74.2
X83.48Y-76.8
X83.48Y-81.2
X83.48Y-83.8
X83.48Y-88.2
X83.48Y-90.8
X83.48Y-95.2
X83.48Y-97.8
X83.48Y-102.2
X83.48Y-104.8
X83.48Y-109.2
X84.13Y-20.8
X84.13Y-25.2
X84.13Y-27.8
X84.13Y-32.2
X84.13Y-34.8
X84.13Y-39.2
X84.13Y-41.8
X84.13Y-46.2
X84.13Y-48.8
X84.13Y-53.2
X84.13Y-55.8
X84.13Y-60.2
X84.13Y-62.8
X84.13Y-67.2
X84.13Y-69.8
X84.13Y-74.2
X84.13Y-76.8
X84.13Y-81.2
X84.13Y-83.8
X84.13Y-88.2
X84.13Y-90.8
X84.13Y-95.2
X84.13Y-97.8
X84.13Y-102.2
X84.13Y-104.8
X84.13Y-109.2
X84.78Y-20.8
X84.78Y-27.8
X84.78Y-34.8
X84.78Y-41.8
X84.78Y-48.8
X84.78Y-55.8
X84.78Y-62.8
X84.78Y-69.8
X84.78Y-76.8
X84.78Y-83.8
X84.78Y-90.8
X84.78Y-97.8
X84.78Y-104.8
X87.82Y-25.2
X87.82Y-32.2
X87.82Y-39.2
X87.82Y-46.2
X87.82Y-53.2
X87.82Y-60.2
X87.82Y-67.2
X87.82Y-74.2
X87.82Y-81.2
X87.82Y-88.2
X87.82Y-95.2
X87.82Y-102.2
X87.82Y-109.2
X88.47Y-20.8
X88.47Y-25.2
X88.47Y-27.8
X88.47Y-32.2
X88.47Y-34.8
X88.47Y-39.2
X88.47Y-41.8
X88.47Y-46.2
X88.47Y-48.8
X88.47Y-53.2
X88.47Y-55.8
X88.47Y-60.2
X88.47Y-62.8
X88.47Y-67.2
X88.47Y-69.8
X88.47Y-74.2
X88.47Y-76.8
X88.47Y-81.2
X88.47Y-83.8
X88.47Y-88.2
X88.47Y-90.8
X88.47Y-95.2
X88.47Y-97.8
X88.47Y-102.2
X88.47Y-104.8
X88.47Y-109.2
X89.12Y-20.8
X89.12Y-25.2
X89.12Y-27.8
X89.12Y-32.2
X89.12Y-34.8
X89.12Y-39.2
X89.12Y-41.8
X89.12Y-46.2
X89.12Y-48.8
X89.12Y-53.2
X89.12Y-55.8
X89.12Y-60.2
X89.12Y-62.8
X89.12Y-67.2
X89.12Y-69.8
X89.12Y-74.2
X89.12Y-76.8
X89.12Y-81.2
X89.12Y-83.8
X89.12Y-88.2
X89.12Y-90.8
X89.12Y-95.2
X89.12Y-97.8
X89.12Y-102.2
X89.12Y-104.8
X89.12Y-109.2
X89.77Y-20.8
X89.77Y-25.2
X89.77Y-27.8
X89.77Y-32.2
X89.77Y-34.8
X89.77Y-39.2
X89.77Y-41.8
X89.77Y-46.2
X89.77Y-48.8
X89.77Y-53.2
X89.77Y-55.8
X89.77Y-60.2
X89.77Y-62.8
X89.77Y-67.2
X89.77Y-69.8
X89.77Y-74.2
X89.77Y-76.8
X89.77Y-81.2
X89.77Y-83.8
X89.77Y-88.2
X89.77Y-90.8
X89.77Y-95.2
X89.77Y-97.8
X89.77Y-102.2
X89.77Y-104.8
X89.77Y-109.2
X90.42Y-20.8
X90.42Y-25.2
X90.42Y-27.8
X90.42Y-32.2
X90.42Y-34.8
X90.42Y-39.2
X90.42Y-41.8
X90.42Y-46.2
X90.42Y-48.8
X90.42Y-53.2
X90.42Y-55.8
X90.42Y-60.2
X90.42Y-62.8
X90.42Y-67.2
X90.42Y-69.8
X90.42Y-74.2
X90.42Y-76.8
X90.42Y-81.2
X90.42Y-83.8
X90.42Y-88.2
X90.42Y-90.8
X90.42Y-95.2
X90.42Y-97.8
X90.42Y-102.2
X90.42Y-104.8
X90.42Y-109.2
X91.07Y-20.8
X91.07Y-25.2
X91.07Y-27.8
X91.07Y-32.2
X91.07Y-34.8
X91.07Y-39.2
X91.07Y-41.8
X91.07Y-46.2
X91.07Y-48.8
X91.07Y-53.2
X91.07Y-55.8
X91.07Y-60.2
X91.07Y-62.8
X91.07Y-67.2
X91.07Y-69.8
X91.07Y-74.2
X91.07Y-76.8
X91.07Y-81.2
X91.07Y-83.8
X91.07Y-88.2
X91.07Y-90.8
X91.07Y-95.2
X91.07Y-97.8
X91.07Y-102.2
X91.07Y-104.8
X91.07Y-109.2
X91.72Y-20.8
X91.72Y-25.2
X91.72Y-27.8
X91.72Y-32.2
X91.72Y-34.8
X91.72Y-39.2
X91.72Y-41.8
X91.72Y-46.2
X91.72Y-48.8
X91.72Y-53.2
X91.72Y-55.8
X91.72Y-60.2
X91.72Y-62.8
X91.72Y-67.2
X91.72Y-69.8
X91.72Y-74.2
X91.72Y-76.8
X91.72Y-81.2
X91.72Y-83.8
X91.72Y-88.2
X91.72Y-90.8
X91.72Y-95.2
X91.72Y-97.8
X91.72Y-102.2
X91.72Y-104.8
X91.72Y-109.2
X92.37Y-20.8
X92.37Y-25.2
X92.37Y-27.8
X92.37Y-32.2
X92.37Y-34.8
X92.37Y-39.2
X92.37Y-41.8
X92.37Y-46.2
X92.37Y-48.8
X92.37Y-53.2
X92.37Y-55.8
X92.37Y-60.2
X92.37Y-62.8
X92.37Y-67.2
X92.37Y-69.8
X92.37Y-74.2
X92.37Y-76.8
X92.37Y-81.2
X92.37Y-83.8
X92.37Y-88.2
X92.37Y-90.8
X92.37Y-95.2
X92.37Y-97.8
X92.37Y-102.2
X92.37Y-104.8
X92.37Y-109.2
X93.02Y-20.8
X93.02Y-27.8
X93.02Y-34.8
X93.02Y-41.8
X93.02Y-48.8
X93.02Y-55.8
X93.02Y-62.8
X93.02Y-69.8
X93.02Y-76.8
X93.02Y-83.8
X93.02Y-90.8
X93.02Y-97.8
X93.02Y-104.8
X94.78Y-25.2
X94.78Y-32.2
X94.78Y-39.2
X94.78Y-46.2
X94.78Y-53.2
X94.78Y-60.2
X94.78Y-67.2
X94.78Y-74.2
X94.78Y-81.2
X94.78Y-88.2
X94.78Y-95.2
X94.78Y-102.2
X94.78Y-109.2
X95.43Y-20.8
X95.43Y-25.2
X95.43Y-27.8
X95.43Y-32.2
X95.43Y-34.8
X95.43Y-39.2
X95.43Y-41.8
X95.43Y-46.2
X95.43Y-48.8
X95.43Y-53.2
X95.43Y-55.8
X95.43Y-60.2
X95.43Y-62.8
X95.43Y-67.2
X95.43Y-69.8
X95.43Y-74.2
X95.43Y-76.8
X95.43Y-81.2
X95.43Y-83.8
X95.43Y-88.2
X95.43Y-90.8
X95.43Y-95.2
X95.43Y-97.8
X95.43Y-102.2
X95.43Y-104.8
X95.43Y-109.2
X96.08Y-20.8
X96.08Y-25.2
X96.08Y-27.8
X96.08Y-32.2
X96.08Y-34.8
X96.08Y-39.2
X96.08Y-41.8
X96.08Y-46.2
X96.08Y-48.8
X96.08Y-53.2
X96.08Y-55.8
X96.08Y-60.2
X96.08Y-62.8
X96.08Y-67.2
X96.08Y-69.8
X96.08Y-74.2
X96.08Y-76.8
X96.08Y-81.2
X96.08Y-83.8
X96.08Y-88.2
X96.08Y-90.8
X96.08Y-95.2
X96.08Y-97.8
X96.08Y-102.2
X96.08Y-104.8
X96.08Y-109.2
X96.73Y-20.8
X96.73Y-25.2
X96.73Y-27.8
X96.73Y-32.2
X96.73Y-34.8
X96.73Y-39.2
X96.73Y-41.8
X96.73Y-46.2
X96.73Y-48.8
X96.73Y-53.2
X96.73Y-55.8
X96.73Y-60.2
X96.73Y-62.8
X96.73Y-67.2
X96.73Y-69.8
X96.73Y-74.2
X96.73Y-76.8
X96.73Y-81.2
X96.73Y-83.8
X96.73Y-88.2
X96.73Y-90.8
X96.73Y-95.2
X96.73Y-97.8
X96.73Y-102.2
X96.73Y-104.8
X96.73Y-109.2
X97.38Y-20.8
X97.38Y-25.2
X97.38Y-27.8
X97.38Y-32.2
X97.38Y-34.8
X97.38Y-39.2
X97.38Y-41.8
X97.38Y-46.2
X97.38Y-48.8
X97.38Y-53.2
X97.38Y-55.8
X97.38Y-60.2
X97.38Y-62.8
X97.38Y-67.2
X97.38Y-69.8
X97.38Y-74.2
X97.38Y-76.8
X97.38Y-81.2
X97.38Y-83.8
X97.38Y-88.2
X97.38Y-90.8
X97.38Y-95.2
X97.38Y-97.8
X97.38Y-102.2
X97.38Y-104.8
X97.38Y-109.2
X98.03Y-20.8
X98.03Y-25.2
X98.03Y-27.8
X98.03Y-32.2
X98.03Y-34.8
X98.03Y-39.2
X98.03Y-41.8
X98.03Y-46.2
X98.03Y-48.8
X98.03Y-53.2
X98.03Y-55.8
X98.03Y-60.2
X98.03Y-62.8
X98.03Y-67.2
X98.03Y-69.8
X98.03Y-74.2
X98.03Y-76.8
X98.03Y-81.2
X98.03Y-83.8
X98.03Y-88.2
X98.03Y-90.8
X98.03Y-95.2
X98.03Y-97.8
X98.03Y-102.2
X98.03Y-104.8
X98.03Y-109.2
X98.68Y-20.8
X98.68Y-25.2
X98.68Y-27.8
X98.68Y-32.2
X98.68Y-34.8
X98.68Y-39.2
X98.68Y-41.8
X98.68Y-46.2
X98.68Y-48.8
X98.68Y-53.2
X98.68Y-55.8
X98.68Y-60.2
X98.68Y-62.8
X98.68Y-67.2
X98.68Y-69.8
X98.68Y-74.2
X98.68Y-76.8
X98.68Y-81.2
X98.68Y-83.8
X98.68Y-88.2
X98.68Y-90.8
X98.68Y-95.2
X98.68Y-97.8
X98.68Y-102.2
X98.68Y-104.8
X98.68Y-109.2
X99.33Y-20.8
X99.33Y-25.2
X99.33Y-27.8
X99.33Y-32.2
X99.33Y-34.8
X99.33Y-39.2
X99.33Y-41.8
X99.33Y-46.2
X99.33Y-48.8
X99.33Y-53.2
X99.33Y-55.8
X99.33Y-60.2
X99.33Y-62.8
X99.33Y-67.2
X99.33Y-69.8
X99.33Y-74.2
X99.33Y-76.8
X99.33Y-81.2
X99.33Y-83.8
X99.33Y-88.2
X99.33Y-90.8
X99.33Y-95.2
X99.33Y-97.8
X99.33Y-102.2
X99.33Y-104.8
X99.33Y-109.2
X99.98Y-20.8
X99.98Y-27.8
X99.98Y-34.8
X99.98Y-41.8
X99.98Y-48.8
X99.98Y-55.8
X99.98Y-62.8
X99.98Y-69.8
X99.98Y-76.8
X99.98Y-83.8
X99.98Y-90.8
X99.98Y-97.8
X99.98Y-104.8
X103.02Y-25.2
X103.02Y-32.2
X103.02Y-39.2
X103.02Y-46.2
X103.02Y-53.2
X103.02Y-60.2
X103.02Y-67.2
X103.02Y-74.2
X103.02Y-81.2
X103.02Y-88.2
X103.02Y-95.2
X103.02Y-102.2
X103.02Y-109.2
X103.67Y-20.8
X103.67Y-25.2
X103.67Y-27.8
X103.67Y-32.2
X103.67Y-34.8
X103.67Y-39.2
X103.67Y-41.8
X103.67Y-46.2
X103.67Y-48.8
X103.67Y-53.2
X103.67Y-55.8
X103.67Y-60.2
X103.67Y-62.8
X103.67Y-67.2
X103.67Y-69.8
X103.67Y-74.2
X103.67Y-76.8
X103.67Y-81.2
X103.67Y-83.8
X103.67Y-88.2
X103.67Y-90.8
X103.67Y-95.2
X103.67Y-97.8
X103.67Y-102.2
X103.67Y-104.8
X103.67Y-109.2
X104.32Y-20.8
X104.32Y-25.2
X104.32Y-27.8
X104.32Y-32.2
X104.32Y-34.8
X104.32Y-39.2
X104.32Y-41.8
X104.32Y-46.2
X104.32Y-48.8
X104.32Y-53.2
X104.32Y-55.8
X104.32Y-60.2
X104.32Y-62.8
X104.32Y-67.2
X104.32Y-69.8
X104.32Y-74.2
X104.32Y-76.8
X104.32Y-81.2
X104.32Y-83.8
X104.32Y-88.2
X104.32Y-90.8
X104.32Y-95.2
X104.32Y-97.8
X104.32Y-102.2
X104.32Y-104.8
X104.32Y-109.2
X104.97Y-20.8
X104.97Y-25.2
X104.97Y-27.8
X104.97Y-32.2
X104.97Y-34.8
X104.97Y-39.2
X104.97Y-41.8
X104.97Y-46.2
X104.97Y-48.8
X104.97Y-53.2
X104.97Y-55.8
X104.97Y-60.2
X104.97Y-62.8
X104.97Y-67.2
X104.97Y-69.8
X104.97Y-74.2
X104.97Y-76.8
X104.97Y-81.2
X104.97Y-83.8
X104.97Y-88.2
X104.97Y-90.8
X104.97Y-95.2
X104.97Y-97.8
X104.97Y-102.2
X104.97Y-104.8
X104.97Y-109.2
X105.62Y-20.8
X105.62Y-25.2
X105.62Y-27.8
X105.62Y-32.2
X105.62Y-34.8
X105.62Y-39.2
X105.62Y-41.8
X105.62Y-46.2
X105.62Y-48.8
X105.62Y-53.2
X105.62Y-55.8
X105.62Y-60.2
X105.62Y-62.8
X105.62Y-67.2
X105.62Y-69.8
X105.62Y-74.2
X105.62Y-76.8
X105.62Y-81.2
X105.62Y-83.8
X105.62Y-88.2
X105.62Y-90.8
X105.62Y-95.2
X105.62Y-97.8
X105.62Y-102.2
X105.62Y-104.8
X105.62Y-109.2
X106.27Y-20.8
X106.27Y-25.2
X106.27Y-27.8
X106.27Y-32.2
X106.27Y-34.8
X106.27Y-39.2
X106.27Y-41.8
X106.27Y-46.2
X106.27Y-48.8
X106.27Y-53.2
X106.27Y-55.8
X106.27Y-60.2
X106.27Y-62.8
X106.27Y-67.2
X106.27Y-69.8
X106.27Y-74.2
X106.27Y-76.8
X106.27Y-81.2
X106.27Y-83.8
X106.27Y-88.2
X106.27Y-90.8
X106.27Y-95.2
X106.27Y-97.8
X106.27Y-102.2
X106.27Y-104.8
X106.27Y-109.2
X106.92Y-20.8
X106.92Y-25.2
X106.92Y-27.8
X106.92Y-32.2
X106.92Y-34.8
X106.92Y-39.2
X106.92Y-41.8
X106.92Y-46.2
X106.92Y-48.8
X106.92Y-53.2
X106.92Y-55.8
X106.92Y-60.2
X106.92Y-62.8
X106.92Y-67.2
X106.92Y-69.8
X106.92Y-74.2
X106.92Y-76.8
X106.92Y-81.2
X106.92Y-83.8
X106.92Y-88.2
X106.92Y-90.8
X106.92Y-95.2
X106.92Y-97.8
X106.92Y-102.2
X106.92Y-104.8
X106.92Y-109.2
X107.57Y-20.8
X107.57Y-25.2
X107.57Y-27.8
X107.57Y-32.2
X107.57Y-34.8
X107.57Y-39.2
X107.57Y-41.8
X107.57Y-46.2
X107.57Y-48.8
X107.57Y-53.2
X107.57Y-55.8
X107.57Y-60.2
X107.57Y-62.8
X107.57Y-67.2
X107.57Y-69.8
X107.57Y-74.2
X107.57Y-76.8
X107.57Y-81.2
X107.57Y-83.8
X107.57Y-88.2
X107.57Y-90.8
X107.57Y-95.2
X107.57Y-97.8
X107.57Y-102.2
X107.57Y-104.8
X107.57Y-109.2
X108.22Y-20.8
X108.22Y-27.8
X108.22Y-34.8
X108.22Y-41.8
X108.22Y-48.8
X108.22Y-55.8
X108.22Y-62.8
X108.22Y-69.8
X108.22Y-76.8
X108.22Y-83.8
X108.22Y-90.8
X108.22Y-97.8
X108.22Y-104.8
T2
X25.0Y-20.0
X25.0Y-20.5
X25.0Y-21.0
X25.0Y-21.5
X25.0Y-22.0
X25.0Y-22.5
X25.0Y-23.0
X25.0Y-23.5
X25.0Y-24.0
X25.0Y-24.5
X25.0Y-25.0
X25.0Y-25.5
X25.0Y-26.0
X25.0Y-27.0
X25.0Y-27.5
X25.0Y-28.0
X25.0Y-28.5
X25.0Y-29.0
X25.0Y-29.5
X25.0Y-30.0
X25.0Y-30.5
X25.0Y-31.0
X25.0Y-31.5
X25.0Y-32.0
X25.0Y-32.5
X25.0Y-33.0
X25.0Y-34.0
X25.0Y-34.5
X25.0Y-35.0
X25.0Y-35.5
X25.0Y-36.0
X25.0Y-36.5
X25.0Y-37.0
X25.0Y-37.5
X25.0Y-38.0
X25.0Y-38.5
X25.0Y-39.0
X25.0Y-39.5
X25.0Y-40.0
X25.0Y-41.0
X25.0Y-41.5
X25.0Y-42.0
X25.0Y-42.5
X25.0Y-43.0
X25.0Y-43.5
X25.0Y-44.0
X25.0Y-44.5
X25.0Y-45.0
X25.0Y-45.5
X25.0Y-46.0
X25.0Y-46.5
X25.0Y-47.0
X25.0Y-48.0
X25.0Y-48.5
X25.0Y-49.0
X25.0Y-49.5
X25.0Y-50.0
X25.0Y-50.5
X25.0Y-51.0
X25.0Y-51.5
X25.0Y-52.0
X25.0Y-52.5
X25.0Y-53.0
X25.0Y-53.5
X25.0Y-54.0
X25.0Y-55.0
X25.0Y-55.5
X25.0Y-56.0
X25.0Y-56.5
X25.0Y-57.0
X25.0Y-57.5
X25.0Y-58.0
X25.0Y-58.5
X25.0Y-59.0
X25.0Y-59.5
X25.0Y-60.0
X25.0Y-60.5
X25.0Y-61.0
X25.0Y-62.0
X25.0Y-62.5
X25.0Y-63.0
X25.0Y-63.5
X25.0Y-64.0
X25.0Y-64.5
X25.0Y-65.0
X25.0Y-65.5
X25.0Y-66.0
X25.0Y-66.5
X25.0Y-67.0
X25.0Y-67.5
X25.0Y-68.0
X25.0Y-69.0
X25.0Y-69.5
X25.0Y-70.0
X25.0Y-70.5
X25.0Y-71.0
X25.0Y-71.5
X25.0Y-72.0
X25.0Y-72.5
X25.0Y-73.0
X25.0Y-73.5
X25.0Y-74.0
X25.0Y-74.5
X25.0Y-75.0
X25.0Y-76.0
X25.0Y-76.5
X25.0Y-77.0
X25.0Y-77.5
X25.0Y-78.0
X25.0Y-78.5
X25.0Y-79.0
X25.0Y-79.5
X25.0Y-80.0
X25.0Y-80.5
X25.0Y-81.0
X25.0Y-81.5
X25.0Y-82.0
X25.0Y-83.0
X25.0Y-83.5
X25.0Y-84.0
X25.0Y-84.5
X25.0Y-85.0
X25.0Y-85.5
X25.0Y-86.0
X25.0Y-86.5
X25.0Y-87.0
X25.0Y-87.5
X25.0Y-88.0
X25.0Y-88.5
X25.0Y-89.0
X25.0Y-90.0
X25.0Y-90.5
X25.0Y-91.0
X25.0Y-91.5
X25.0Y-92.0
X25.0Y-92.5
X25.0Y-93.0
X25.0Y-93.5
X25.0Y-94.0
X25.0Y-94.5
X25.0Y-95.0
X25.0Y-95.5
X25.0Y-96.0
X25.0Y-97.0
X25.0Y-97.5
X25.0Y-98.0
X25.0Y-98.5
X25.0Y-99.0
X25.0Y-99.5
X25.0Y-100.0
X25.0Y-100.5
X25.0Y-101.0
X25.0Y-101.5
X25.0Y-102.0
X25.0Y-102.5
X25.0Y-103.0
X25.0Y-104.0
X25.0Y-104.5
X25.0Y-105.0
X25.0Y-105.5
X25.0Y-106.0
X25.0Y-106.5
X25.0Y-107.0
X25.0Y-107.5
X25.0Y-108.0
X25.0Y-108.5
X25.0Y-109.0
X25.0Y-109.5
X25.0Y-110.0
X26.0Y-20.0
X26.0Y-20.5
X26.0Y-21.0
X26.0Y-21.5
X26.0Y-22.0
X26.0Y-22.5
X26.0Y-23.0
X26.0Y-23.5
X26.0Y-24.0
X26.0Y-24.5
X26.0Y-25.0
X26.0Y-25.5
X26.0Y-26.0
X26.0Y-27.0
X26.0Y-27.5
X26.0Y-28.0
X26.0Y-28.5
X26.0Y-29.0
X26.0Y-29.5
X26.0Y-30.0
X26.0Y-30.5
X26.0Y-31.0
X26.0Y-31.5
X26.0Y-32.0
X26.0Y-32.5
X26.0Y-33.0
X26.0Y-34.0
X26.0Y-34.5
X26.0Y-35.0
X26.0Y-35.5
X26.0Y-36.0
X26.0Y-36.5
X26.0Y-37.0
X26.0Y-37.5
X26.0Y-38.0
X26.0Y-38.5
X26.0Y-39.0
X26.0Y-39.5
X26.0Y-40.0
X26.0Y-41.0
X26.0Y-41.5
X26.0Y-42.0
X26.0Y-42.5
X26.0Y-43.0
X26.0Y-43.5
X26.0Y-44.0
X26.0Y-44.5
X26.0Y-45.0
X26.0Y-45.5
X26.0Y-46.0
X26.0Y-46.5
X26.0Y-47.0
X26.0Y-48.0
X26.0Y-48.5
X26.0Y-49.0
X26.0Y-49.5
X26.0Y-50.0
X26.0Y-50.5
X26.0Y-51.0
X26.0Y-51.5
X26.0Y-52.0
X26.0Y-52.5
X26.0Y-53.0
X26.0Y-53.5
X26.0Y-54.0
X26.0Y-55.0
X26.0Y-55.5
X26.0Y-56.0
X26.0Y-56.5
X26.0Y-57.0
X26.0Y-57.5
X26.0Y-58.0
X26.0Y-58.5
X26.0Y-59.0
X26.0Y-59.5
X26.0Y-60.0
X26.0Y-60.5
X26.0Y-61.0
X26.0Y-62.0
X26.0Y-62.5
X26.0Y-63.0
X26.0Y-63.5
X26.0Y-64.0
X26.0Y-64.5
X26.0Y-65.0
X26.0Y-65.5
X26.0Y-66.0
X26.0Y-66.5
X26.0Y-67.0
X26.0Y-67.5
X26.0Y-68.0
X26.0Y-69.0
X26.0Y-69.5
X26.0Y-70.0
X26.0Y-70.5
X26.0Y-71.0
X26.0Y-71.5
X26.0Y-72.0
X26.0Y-72.5
X26.0Y-73.0
X26.0Y-73.5
X26.0Y-74.0
X26.0Y-74.5
X26.0Y-75.0
X26.0Y-76.0
X26.0Y-76.5
X26.0Y-77.0
X26.0Y-77.5
X26.0Y-78.0
X26.0Y-78.5
X26.0Y-79.0
X26.0Y-79.5
X26.0Y-80.0
X26.0Y-80.5
X26.0Y-81.0
X26.0Y-81.5
X26.0Y-82.0
X26.0Y-83.0
X26.0Y-83.5
X26.0Y-84.0
X26.0Y-84.5
X26.0Y-85.0
X26.0Y-85.5
X26.0Y-86.0
X26.0Y-86.5
X26.0Y-87.0
X26.0Y-87.5
X26.0Y-88.0
X26.0Y-88.5
X26.0Y-89.0
X26.0Y-90.0
X26.0Y-90.5
X26.0Y-91.0
X26.0Y-91.5
X26.0Y-92.0
X26.0Y-92.5
X26.0Y-93.0
X26.0Y-93.5
X26.0Y-94.0
X26.0Y-94.5
X26.0Y-95.0
X26.0Y-95.5
X26.0Y-96.0
X26.0Y-97.0
X26.0Y-97.5
X26.0Y-98.0
X26.0Y-98.5
X26.0Y-99.0
X26.0Y-99.5
X26.0Y-100.0
X26.0Y-100.5
X26.0Y-101.0
X26.0Y-101.5
X26.0Y-102.0
X26.0Y-102.5
X26.0Y-103.0
X26.0Y-104.0
X26.0Y-104.5
X26.0Y-105.0
X26.0Y-105.5
X26.0Y-106.0
X26.0Y-106.5
X26.0Y-107.0
X26.0Y-107.5
X26.0Y-108.0
X26.0Y-108.5
X26.0Y-109.0
X26.0Y-109.5
X26.0Y-110.0
X40.2Y-20.0
X40.2Y-20.5
X40.2Y-21.0
X40.2Y-21.5
X40.2Y-22.0
X40.2Y-22.5
X40.2Y-23.0
X40.2Y-23.5
X40.2Y-24.0
X40.2Y-24.5
X40.2Y-25.0
X40.2Y-25.5
X40.2Y-26.0
X40.2Y-27.0
X40.2Y-27.5
X40.2Y-28.0
X40.2Y-28.5
X40.2Y-29.0
X40.2Y-29.5
X40.2Y-30.0
X40.2Y-30.5
X40.2Y-31.0
X40.2Y-31.5
X40.2Y-32.0
X40.2Y-32.5
X40.2Y-33.0
X40.2Y-34.0
X40.2Y-34.5
X40.2Y-35.0
X40.2Y-35.5
X40.2Y-36.0
X40.2Y-36.5
X40.2Y-37.0
X40.2Y-37.5
X40.2Y-38.0
X40.2Y-38.5
X40.2Y-39.0
X40.2Y-39.5
X40.2Y-40.0
X40.2Y-41.0
X40.2Y-41.5
X40.2Y-42.0
X40.2Y-42.5
X40.2Y-43.0
X40.2Y-43.5
X40.2Y-44.0
X40.2Y-44.5
X40.2Y-45.0
X40.2Y-45.5
X40.2Y-46.0
X40.2Y-46.5
X40.2Y-47.0
X40.2Y-48.0
X40.2Y-48.5
X40.2Y-49.0
X40.2Y-49.5
X40.2Y-50.0
X40.2Y-50.5
X40.2Y-51.0
X40.2Y-51.5
X40.2Y-52.0
X40.2Y-52.5
X40.2Y-53.0
X40.2Y-53.5
X40.2Y-54.0
X40.2Y-55.0
X40.2Y-55.5
X40.2Y-56.0
X40.2Y-56.5
X40.2Y-57.0
X40.2Y-57.5
X40.2Y-58.0
X40.2Y-58.5
X40.2Y-59.0
X40.2Y-59.5
X40.2Y-60.0
X40.2Y-60.5
X40.2Y-61.0
X40.2Y-62.0
X40.2Y-62.5
X40.2Y-63.0
X40.2Y-63.5
X40.2Y-64.0
X40.2Y-64.5
X40.2Y-65.0
X40.2Y-65.5
X40.2Y-66.0
X40.2Y-66.5
X40.2Y-67.0
X40.2Y-67.5
X40.2Y-68.0
X40.2Y-69.0
X40.2Y-69.5
X40.2Y-70.0
X40.2Y-70.5
X40.2Y-71.0
X40.2Y-71.5
X40.2Y-72.0
X40.2Y-72.5
X40.2Y-73.0
X40.2Y-73.5
X40.2Y-74.0
X40.2Y-74.5
X40.2Y-75.0
X40.2Y-76.0
X40.2Y-76.5
X40.2Y-77.0
X40.2Y-77.5
X40.2Y-78.0
X40.2Y-78.5
X40.2Y-79.0
X40.2Y-79.5
X40.2Y-80.0
X40.2Y-80.5
X40.2Y-81.0
X40.2Y-81.5
X40.2Y-82.0
X40.2Y-83.0
X40.2Y-83.5
X40.2Y-84.0
X40.2Y-84.5
X40.2Y-85.0
X40.2Y-85.5
X40.2Y-86.0
X40.2Y-86.5
X40.2Y-87.0
X40.2Y-87.5
X40.2Y-88.0
X40.2Y-88.5
X40.2Y-89.0
X40.2Y-90.0
X40.2Y-90.5
X40.2Y-91.0
X40.2Y-91.5
X40.2Y-92.0
X40.2Y-92.5
X40.2Y-93.0
X40.2Y-93.5
X40.2Y-94.0
X40.2Y-94.5
X40.2Y-95.0
X40.2Y-95.5
X40.2Y-96.0
X40.2Y-97.0
X40.2Y-97.5
X40.2Y-98.0
X40.2Y-98.5
X40.2Y-99.0
X40.2Y-99.5
X40.2Y-100.0
X40.2Y-100.5
X40.2Y-101.0
X40.2Y-101.5
X40.2Y-102.0
X40.2Y-102.5
X40.2Y-103.0
X40.2Y-104.0
X40.2Y-104.5
X40.2Y-105.0
X40.2Y-105.5
X40.2Y-106.0
X40.2Y-106.5
X40.2Y-107.0
X40.2Y-107.5
X40.2Y-108.0
X40.2Y-108.5
X40.2Y-109.0
X40.2Y-109.5
X40.2Y-110.0
X41.2Y-20.0
X41.2Y-20.5
X41.2Y-21.0
X41.2Y-21.5
X41.2Y-22.0
X41.2Y-22.5
X41.2Y-23.0
X41.2Y-23.5
X41.2Y-24.0
X41.2Y-24.5
X41.2Y-25.0
X41.2Y-25.5
X41.2Y-26.0
X41.2Y-27.0
X41.2Y-27.5
X41.2Y-28.0
X41.2Y-28.5
X41.2Y-29.0
X41.2Y-29.5
X41.2Y-30.0
X41.2Y-30.5
X41.2Y-31.0
X41.2Y-31.5
X41.2Y-32.0
X41.2Y-32.5
X41.2Y-33.0
X41.2Y-34.0
X41.2Y-34.5
X41.2Y-35.0
X41.2Y-35.5
X41.2Y-36.0
X41.2Y-36.5
X41.2Y-37.0
X41.2Y-37.5
X41.2Y-38.0
X41.2Y-38.5
X41.2Y-39.0
X41.2Y-39.5
X41.2Y-40.0
X41.2Y-41.0
X41.2Y-41.5
X41.2Y-42.0
X41.2Y-42.5
X41.2Y-43.0
X41.2Y-43.5
X41.2Y-44.0
X41.2Y-44.5
X41.2Y-45.0
X41.2Y-45.5
X41.2Y-46.0
X41.2Y-46.5
X41.2Y-47.0
X41.2Y-48.0
X41.2Y-48.5
X41.2Y-49.0
X41.2Y-49.5
X41.2Y-50.0
X41.2Y-50.5
X41.2Y-51.0
X41.2Y-51.5
X41.2Y-52.0
X41.2Y-52.5
X41.2Y-53.0
X41.2Y-53.5
X41.2Y-54.0
X41.2Y-55.0
X41.2Y-55.5
X41.2Y-56.0
X41.2Y-56.5
X41.2Y-57.0
X41.2Y-57.5
X41.2Y-58.0
X41.2Y-58.5
X41.2Y-59.0
X41.2Y-59.5
X41.2Y-60.0
X41.2Y-60.5
X41.2Y-61.0
X41.2Y-62.0
X41.2Y-62.5
X41.2Y-63.0
X41.2Y-63.5
X41.2Y-64.0
X41.2Y-64.5
X41.2Y-65.0
X41.2Y-65.5
X41.2Y-66.0
X41.2Y-66.5
X41.2Y-67.0
X41.2Y-67.5
X41.2Y-68.0
X41.2Y-69.0
X41.2Y-69.5
X41.2Y-70.0
X41.2Y-70.5
X41.2Y-71.0
X41.2Y-71.5
X41.2Y-72.0
X41.2Y-72.5
X41.2Y-73.0
X41.2Y-73.5
X41.2Y-74.0
X41.2Y-74.5
X41.2Y-75.0
X41.2Y-76.0
X41.2Y-76.5
X41.2Y-77.0
X41.2Y-77.5
X41.2Y-78.0
X41.2Y-78.5
X41.2Y-79.0
X41.2Y-79.5
X41.2Y-80.0
X41.2Y-80.5
X41.2Y-81.0
X41.2Y-81.5
X41.2Y-82.0
X41.2Y-83.0
X41.2Y-83.5
X41.2Y-84.0
X41.2Y-84.5
X41.2Y-85.0
X41.2Y-85.5
X41.2Y-86.0
X41.2Y-86.5
X41.2Y-87.0
X41.2Y-87.5
X41.2Y-88.0
X41.2Y-88.5
X41.2Y-89.0
X41.2Y-90.0
X41.2Y-90.5
X41.2Y-91.0
X41.2Y-91.5
X41.2Y-92.0
X41.2Y-92.5
X41.2Y-93.0
X41.2Y-93.5
X41.2Y-94.0
X41.2Y-94.5
X41.2Y-95.0
X41.2Y-95.5
X41.2Y-96.0
X41.2Y-97.0
X41.2Y-97.5
X41.2Y-98.0
X41.2Y-98.5
X41.2Y-99.0
X41.2Y-99.5
X41.2Y-100.0
X41.2Y-100.5
X41.2Y-101.0
X41.2Y-101.5
X41.2Y-102.0
X41.2Y-102.5
X41.2Y-103.0
X41.2Y-104.0
X41.2Y-104.5
X41.2Y-105.0
X41.2Y-105.5
X41.2Y-106.0
X41.2Y-106.5
X41.2Y-107.0
X41.2Y-107.5
X41.2Y-108.0
X41.2Y-108.5
X41.2Y-109.0
X41.2Y-109.5
X41.2Y-110.0
X55.4Y-20.0
X55.4Y-20.5
X55.4Y-21.0
X55.4Y-21.5
X55.4Y-22.0
X55.4Y-22.5
X55.4Y-23.0
X55.4Y-23.5
X55.4Y-24.0
X55.4Y-24.5
X55.4Y-25.0
X55.4Y-25.5
X55.4Y-26.0
X55.4Y-27.0
X55.4Y-27.5
X55.4Y-28.0
X55.4Y-28.5
X55.4Y-29.0
X55.4Y-29.5
X55.4Y-30.0
X55.4Y-30.5
X55.4Y-31.0
X55.4Y-31.5
X55.4Y-32.0
X55.4Y-32.5
X55.4Y-33.0
X55.4Y-34.0
X55.4Y-34.5
X55.4Y-35.0
X55.4Y-35.5
X55.4Y-36.0
X55.4Y-36.5
X55.4Y-37.0
X55.4Y-37.5
X55.4Y-38.0
X55.4Y-38.5
X55.4Y-39.0
X55.4Y-39.5
X55.4Y-40.0
X55.4Y-41.0
X55.4Y-41.5
X55.4Y-42.0
X55.4Y-42.5
X55.4Y-43.0
X55.4Y-43.5
X55.4Y-44.0
X55.4Y-44.5
X55.4Y-45.0
X55.4Y-45.5
X55.4Y-46.0
X55.4Y-46.5
X55.4Y-47.0
X55.4Y-48.0
X55.4Y-48.5
X55.4Y-49.0
X55.4Y-49.5
X55.4Y-50.0
X55.4Y-50.5
X55.4Y-51.0
X55.4Y-51.5
X55.4Y-52.0
X55.4Y-52.5
X55.4Y-53.0
X55.4Y-53.5
X55.4Y-54.0
X55.4Y-55.0
X55.4Y-55.5
X55.4Y-56.0
X55.4Y-56.5
X55.4Y-57.0
X55.4Y-57.5
X55.4Y-58.0
X55.4Y-58.5
X55.4Y-59.0
X55.4Y-59.5
X55.4Y-60.0
X55.4Y-60.5
X55.4Y-61.0
X55.4Y-62.0
X55.4Y-62.5
X55.4Y-63.0
X55.4Y-63.5
X55.4Y-64.0
X55.4Y-64.5
X55.4Y-65.0
X55.4Y-65.5
X55.4Y-66.0
X55.4Y-66.5
X55.4Y-67.0
X55.4Y-67.5
X55.4Y-68.0
X55.4Y-69.0
X55.4Y-69.5
X55.4Y-70.0
X55.4Y-70.5
X55.4Y-71.0
X55.4Y-71.5
X55.4Y-72.0
X55.4Y-72.5
X55.4Y-73.0
X55.4Y-73.5
X55.4Y-74.0
X55.4Y-74.5
X55.4Y-75.0
X55.4Y-76.0
X55.4Y-76.5
X55.4Y-77.0
X55.4Y-77.5
X55.4Y-78.0
X55.4Y-78.5
X55.4Y-79.0
X55.4Y-79.5
X55.4Y-80.0
X55.4Y-80.5
X55.4Y-81.0
X55.4Y-81.5
X55.4Y-82.0
X55.4Y-83.0
X55.4Y-83.5
X55.4Y-84.0
X55.4Y-84.5
X55.4Y-85.0
X55.4Y-85.5
X55.4Y-86.0
X55.4Y-86.5
X55.4Y-87.0
X55.4Y-87.5
X55.4Y-88.0
X55.4Y-88.5
X55.4Y-89.0
X55.4Y-90.0
X55.4Y-90.5
X55.4Y-91.0
X55.4Y-91.5
X55.4Y-92.0
X55.4Y-92.5
X55.4Y-93.0
X55.4Y-93.5
X55.4Y-94.0
X55.4Y-94.5
X55.4Y-95.0
X55.4Y-95.5
X55.4Y-96.0
X55.4Y-97.0
X55.4Y-97.5
X55.4Y-98.0
X55.4Y-98.5
X55.4Y-99.0
X55.4Y-99.5
X55.4Y-100.0
X55.4Y-100.5
X55.4Y-101.0
X55.4Y-101.5
X55.4Y-102.0
X55.4Y-102.5
X55.4Y-103.0
X55.4Y-104.0
X55.4Y-104.5
X55.4Y-105.0
X55.4Y-105.5
X55.4Y-106.0
X55.4Y-106.5
X55.4Y-107.0
X55.4Y-107.5
X55.4Y-108.0
X55.4Y-108.5
X55.4Y-109.0
X55.4Y-109.5
X55.4Y-110.0
X56.4Y-20.0
X56.4Y-20.5
X56.4Y-21.0
X56.4Y-21.5
X56.4Y-22.0
X56.4Y-22.5
X56.4Y-23.0
X56.4Y-23.5
X56.4Y-24.0
X56.4Y-24.5
X56.4Y-25.0
X56.4Y-25.5
X56.4Y-26.0
X56.4Y-27.0
X56.4Y-27.5
X56.4Y-28.0
X56.4Y-28.5
X56.4Y-29.0
X56.4Y-29.5
X56.4Y-30.0
X56.4Y-30.5
X56.4Y-31.0
X56.4Y-31.5
X56.4Y-32.0
X56.4Y-32.5
X56.4Y-33.0
X56.4Y-34.0
X56.4Y-34.5
X56.4Y-35.0
X56.4Y-35.5
X56.4Y-36.0
X56.4Y-36.5
X56.4Y-37.0
X56.4Y-37.5
X56.4Y-38.0
X56.4Y-38.5
X56.4Y-39.0
X56.4Y-39.5
X56.4Y-40.0
X56.4Y-41.0
X56.4Y-41.5
X56.4Y-42.0
X56.4Y-42.5
X56.4Y-43.0
X56.4Y-43.5
X56.4Y-44.0
X56.4Y-44.5
X56.4Y-45.0
X56.4Y-45.5
X56.4Y-46.0
X56.4Y-46.5
X56.4Y-47.0
X56.4Y-48.0
X56.4Y-48.5
X56.4Y-49.0
X56.4Y-49.5
X56.4Y-50.0
X56.4Y-50.5
X56.4Y-51.0
X56.4Y-51.5
X56.4Y-52.0
X56.4Y-52.5
X56.4Y-53.0
X56.4Y-53.5
X56.4Y-54.0
X56.4Y-55.0
X56.4Y-55.5
X56.4Y-56.0
X56.4Y-56.5
X56.4Y-57.0
X56.4Y-57.5
X56.4Y-58.0
X56.4Y-58.5
X56.4Y-59.0
X56.4Y-59.5
X56.4Y-60.0
X56.4Y-60.5
X56.4Y-61.0
X56.4Y-62.0
X56.4Y-62.5
X56.4Y-63.0
X56.4Y-63.5
X56.4Y-64.0
X56.4Y-64.5
X56.4Y-65.0
X56.4Y-65.5
X56.4Y-66.0
X56.4Y-66.5
X56.4Y-67.0
X56.4Y-67.5
X56.4Y-68.0
X56.4Y-69.0
X56.4Y-69.5
X56.4Y-70.0
X56.4Y-70.5
X56.4Y-71.0
X56.4Y-71.5
X56.4Y-72.0
X56.4Y-72.5
X56.4Y-73.0
X56.4Y-73.5
X56.4Y-74.0
X56.4Y-74.5
X56.4Y-75.0
X56.4Y-76.0
X56.4Y-76.5
X56.4Y-77.0
X56.4Y-77.5
X56.4Y-78.0
X56.4Y-78.5
X56.4Y-79.0
X56.4Y-79.5
X56.4Y-80.0
X56.4Y-80.5
X56.4Y-81.0
X56.4Y-81.5
X56.4Y-82.0
X56.4Y-83.0
X56.4Y-83.5
X56.4Y-84.0
X56.4Y-84.5
X56.4Y-85.0
X56.4Y-85.5
X56.4Y-86.0
X56.4Y-86.5
X56.4Y-87.0
X56.4Y-87.5
X56.4Y-88.0
X56.4Y-88.5
X56.4Y-89.0
X56.4Y-90.0
X56.4Y-90.5
X56.4Y-91.0
X56.4Y-91.5
X56.4Y-92.0
X56.4Y-92.5
X56.4Y-93.0
X56.4Y-93.5
X56.4Y-94.0
X56.4Y-94.5
X56.4Y-95.0
X56.4Y-95.5
X56.4Y-96.0
X56.4Y-97.0
X56.4Y-97.5
X56.4Y-98.0
X56.4Y-98.5
X56.4Y-99.0
X56.4Y-99.5
X56.4Y-100.0
X56.4Y-100.5
X56.4Y-101.0
X56.4Y-101.5
X56.4Y-102.0
X56.4Y-102.5
X56.4Y-103.0
X56.4Y-104.0
X56.4Y-104.5
X56.4Y-105.0
X56.4Y-105.5
X56.4Y-106.0
X56.4Y-106.5
X56.4Y-107.0
X56.4Y-107.5
X56.4Y-108.0
X56.4Y-108.5
X56.4Y-109.0
X56.4Y-109.5
X56.4Y-110.0
X70.6Y-20.0
X70.6Y-20.5
X70.6Y-21.0
X70.6Y-21.5
X70.6Y-22.0
X70.6Y-22.5
X70.6Y-23.0
X70.6Y-23.5
X70.6Y-24.0
X70.6Y-24.5
X70.6Y-25.0
X70.6Y-25.5
X70.6Y-26.0
X70.6Y-27.0
X70.6Y-27.5
X70.6Y-28.0
X70.6Y-28.5
X70.6Y-29.0
X70.6Y-29.5
X70.6Y-30.0
X70.6Y-30.5
X70.6Y-31.0
X70.6Y-31.5
X70.6Y-32.0
X70.6Y-32.5
X70.6Y-33.0
X70.6Y-34.0
X70.6Y-34.5
X70.6Y-35.0
X70.6Y-35.5
X70.6Y-36.0
X70.6Y-36.5
X70.6Y-37.0
X70.6Y-37.5
X70.6Y-38.0
X70.6Y-38.5
X70.6Y-39.0
X70.6Y-39.5
X70.6Y-40.0
X70.6Y-41.0
X70.6Y-41.5
X70.6Y-42.0
X70.6Y-42.5
X70.6Y-43.0
X70.6Y-43.5
X70.6Y-44.0
X70.6Y-44.5
X70.6Y-45.0
X70.6Y-45.5
X70.6Y-46.0
X70.6Y-46.5
X70.6Y-47.0
X70.6Y-48.0
X70.6Y-48.5
X70.6Y-49.0
X70.6Y-49.5
X70.6Y-50.0
X70.6Y-50.5
X70.6Y-51.0
X70.6Y-51.5
X70.6Y-52.0
X70.6Y-52.5
X70.6Y-53.0
X70.6Y-53.5
X70.6Y-54.0
X70.6Y-55.0
X70.6Y-55.5
X70.6Y-56.0
X70.6Y-56.5
X70.6Y-57.0
X70.6Y-57.5
X70.6Y-58.0
X70.6Y-58.5
X70.6Y-59.0
X70.6Y-59.5
X70.6Y-60.0
X70.6Y-60.5
X70.6Y-61.0
X70.6Y-62.0
X70.6Y-62.5
X70.6Y-63.0
X70.6Y-63.5
X70.6Y-64.0
X70.6Y-64.5
X70.6Y-65.0
X70.6Y-65.5
X70.6Y-66.0
X70.6Y-66.5
X70.6Y-67.0
X70.6Y-67.5
X70.6Y-68.0
X70.6Y-69.0
X70.6Y-69.5
X70.6Y-70.0
X70.6Y-70.5
X70.6Y-71.0
X70.6Y-71.5
X70.6Y-72.0
X70.6Y-72.5
X70.6Y-73.0
X70.6Y-73.5
X70.6Y-74.0
X70.6Y-74.5
X70.6Y-75.0
X70.6Y-76.0
X70.6Y-76.5
X70.6Y-77.0
X70.6Y-77.5
X70.6Y-78.0
X70.6Y-78.5
X70.6Y-79.0
X70.6Y-79.5
X70.6Y-80.0
X70.6Y-80.5
X70.6Y-81.0
X70.6Y-81.5
X70.6Y-82.0
X70.6Y-83.0
X70.6Y-83.5
X70.6Y-84.0
X70.6Y-84.5
X70.6Y-85.0
X70.6Y-85.5
X70.6Y-86.0
X70.6Y-86.5
X70.6Y-87.0
X70.6Y-87.5
X70.6Y-88.0
X70.6Y-88.5
X70.6Y-89.0
X70.6Y-90.0
X70.6Y-90.5
X70.6Y-91.0
X70.6Y-91.5
X70.6Y-92.0
X70.6Y-92.5
X70.6Y-93.0
X70.6Y-93.5
X70.6Y-94.0
X70.6Y-94.5
X70.6Y-95.0
X70.6Y-95.5
X70.6Y-96.0
X70.6Y-97.0
X70.6Y-97.5
X70.6Y-98.0
X70.6Y-98.5
X70.6Y-99.0
X70.6Y-99.5
X70.6Y-100.0
X70.6Y-100.5
X70.6Y-101.0
X70.6Y-101.5
X70.6Y-102.0
X70.6Y-102.5
X70.6Y-103.0
X70.6Y-104.0
X70.6Y-104.5
X70.6Y-105.0
X70.6Y-105.5
X70.6Y-106.0
X70.6Y-106.5
X70.6Y-107.0
X70.6Y-107.5
X70.6Y-108.0
X70.6Y-108.5
X70.6Y-109.0
X70.6Y-109.5
X70.6Y-110.0
X71.6Y-20.0
X71.6Y-20.5
X71.6Y-21.0
X71.6Y-21.5
X71.6Y-22.0
X71.6Y-22.5
X71.6Y-23.0
X71.6Y-23.5
X71.6Y-24.0
X71.6Y-24.5
X71.6Y-25.0
X71.6Y-25.5
X71.6Y-26.0
X71.6Y-27.0
X71.6Y-27.5
X71.6Y-28.0
X71.6Y-28.5
X71.6Y-29.0
X71.6Y-29.5
X71.6Y-30.0
X71.6Y-30.5
X71.6Y-31.0
X71.6Y-31.5
X71.6Y-32.0
X71.6Y-32.5
X71.6Y-33.0
X71.6Y-34.0
X71.6Y-34.5
X71.6Y-35.0
X71.6Y-35.5
X71.6Y-36.0
X71.6Y-36.5
X71.6Y-37.0
X71.6Y-37.5
X71.6Y-38.0
X71.6Y-38.5
X71.6Y-39.0
X71.6Y-39.5
X71.6Y-40.0
X71.6Y-41.0
X71.6Y-41.5
X71.6Y-42.0
X71.6Y-42.5
X71.6Y-43.0
X71.6Y-43.5
X71.6Y-44.0
X71.6Y-44.5
X71.6Y-45.0
X71.6Y-45.5
X71.6Y-46.0
X71.6Y-46.5
X71.6Y-47.0
X71.6Y-48.0
X71.6Y-48.5
X71.6Y-49.0
X71.6Y-49.5
X71.6Y-50.0
X71.6Y-50.5
X71.6Y-51.0
X71.6Y-51.5
X71.6Y-52.0
X71.6Y-52.5
X71.6Y-53.0
X71.6Y-53.5
X71.6Y-54.0
X71.6Y-55.0
X71.6Y-55.5
X71.6Y-56.0
X71.6Y-56.5
X71.6Y-57.0
X71.6Y-57.5
X71.6Y-58.0
X71.6Y-58.5
X71.6Y-59.0
X71.6Y-59.5
X71.6Y-60.0
X71.6Y-60.5
X71.6Y-61.0
X71.6Y-62.0
X71.6Y-62.5
X71.6Y-63.0
X71.6Y-63.5
X71.6Y-64.0
X71.6Y-64.5
X71.6Y-65.0
X71.6Y-65.5
X71.6Y-66.0
X71.6Y-66.5
X71.6Y-67.0
X71.6Y-67.5
X71.6Y-68.0
X71.6Y-69.0
X71.6Y-69.5
X71.6Y-70.0
X71.6Y-70.5
X71.6Y-71.0
X71.6Y-71.5
X71.6Y-72.0
X71.6Y-72.5
X71.6Y-73.0
X71.6Y-73.5
X71.6Y-74.0
X71.6Y-74.5
X71.6Y-75.0
X71.6Y-76.0
X71.6Y-76.5
X71.6Y-77.0
X71.6Y-77.5
X71.6Y-78.0
X71.6Y-78.5
X71.6Y-79.0
X71.6Y-79.5
X71.6Y-80.0
X71.6Y-80.5
X71.6Y-81.0
X71.6Y-81.5
X71.6Y-82.0
X71.6Y-83.0
X71.6Y-83.5
X71.6Y-84.0
X71.6Y-84.5
X71.6Y-85.0
X71.6Y-85.5
X71.6Y-86.0
X71.6Y-86.5
X71.6Y-87.0
X71.6Y-87.5
X71.6Y-88.0
X71.6Y-88.5
X71.6Y-89.0
X71.6Y-90.0
X71.6Y-90.5
X71.6Y-91.0
X71.6Y-91.5
X71.6Y-92.0
X71.6Y-92.5
X71.6Y-93.0
X71.6Y-93.5
X71.6Y-94.0
X71.6Y-94.5
X71.6Y-95.0
X71.6Y-95.5
X71.6Y-96.0
X71.6Y-97.0
X71.6Y-97.5
X71.6Y-98.0
X71.6Y-98.5
X71.6Y-99.0
X71.6Y-99.5
X71.6Y-100.0
X71.6Y-100.5
X71.6Y-101.0
X71.6Y-101.5
X71.6Y-102.0
X71.6Y-102.5
X71.6Y-103.0
X71.6Y-104.0
X71.6Y-104.5
X71.6Y-105.0
X71.6Y-105.5
X71.6Y-106.0
X71.6Y-106.5
X71.6Y-107.0
X71.6Y-107.5
X71.6Y-108.0
X71.6Y-108.5
X71.6Y-109.0
X71.6Y-109.5
X71.6Y-110.0
X85.8Y-20.0
X85.8Y-20.5
X85.8Y-21.0
X85.8Y-21.5
X85.8Y-22.0
X85.8Y-22.5
X85.8Y-23.0
X85.8Y-23.5
X85.8Y-24.0
X85.8Y-24.5
X85.8Y-25.0
X85.8Y-25.5
X85.8Y-26.0
X85.8Y-27.0
X85.8Y-27.5
X85.8Y-28.0
X85.8Y-28.5
X85.8Y-29.0
X85.8Y-29.5
X85.8Y-30.0
X85.8Y-30.5
X85.8Y-31.0
X85.8Y-31.5
X85.8Y-32.0
X85.8Y-32.5
X85.8Y-33.0
X85.8Y-34.0
X85.8Y-34.5
X85.8Y-35.0
X85.8Y-35.5
X85.8Y-36.0
X85.8Y-36.5
X85.8Y-37.0
X85.8Y-37.5
X85.8Y-38.0
X85.8Y-38.5
X85.8Y-39.0
X85.8Y-39.5
X85.8Y-40.0
X85.8Y-41.0
X85.8Y-41.5
X85.8Y-42.0
X85.8Y-42.5
X85.8Y-43.0
X85.8Y-43.5
X85.8Y-44.0
X85.8Y-44.5
X85.8Y-45.0
X85.8Y-45.5
X85.8Y-46.0
X85.8Y-46.5
X85.8Y-47.0
X85.8Y-48.0
X85.8Y-48.5
X85.8Y-49.0
X85.8Y-49.5
X85.8Y-50.0
X85.8Y-50.5
X85.8Y-51.0
X85.8Y-51.5
X85.8Y-52.0
X85.8Y-52.5
X85.8Y-53.0
X85.8Y-53.5
X85.8Y-54.0
X85.8Y-55.0
X85.8Y-55.5
X85.8Y-56.0
X85.8Y-56.5
X85.8Y-57.0
X85.8Y-57.5
X85.8Y-58.0
X85.8Y-58.5
X85.8Y-59.0
X85.8Y-59.5
X85.8Y-60.0
X85.8Y-60.5
X85.8Y-61.0
X85.8Y-62.0
X85.8Y-62.5
X85.8Y-63.0
X85.8Y-63.5
X85.8Y-64.0
X85.8Y-64.5
X85.8Y-65.0
X85.8Y-65.5
X85.8Y-66.0
X85.8Y-66.5
X85.8Y-67.0
X85.8Y-67.5
X85.8Y-68.0
X85.8Y-69.0
X85.8Y-69.5
X85.8Y-70.0
X85.8Y-70.5
X85.8Y-71.0
X85.8Y-71.5
X85.8Y-72.0
X85.8Y-72.5
X85.8Y-73.0
X85.8Y-73.5
X85.8Y-74.0
X85.8Y-74.5
X85.8Y-75.0
X85.8Y-76.0
X85.8Y-76.5
X85.8Y-77.0
X85.8Y-77.5
X85.8Y-78.0
X85.8Y-78.5
X85.8Y-79.0
X85.8Y-79.5
X85.8Y-80.0
X85.8Y-80.5
X85.8Y-81.0
X85.8Y-81.5
X85.8Y-82.0
X85.8Y-83.0
X85.8Y-83.5
X85.8Y-84.0
X85.8Y-84.5
X85.8Y-85.0
X85.8Y-85.5
X85.8Y-86.0
X85.8Y-86.5
X85.8Y-87.0
X85.8Y-87.5
X85.8Y-88.0
X85.8Y-88.5
X85.8Y-89.0
X85.8Y-90.0
X85.8Y-90.5
X85.8Y-91.0
X85.8Y-91.5
X85.8Y-92.0
X85.8Y-92.5
X85.8Y-93.0
X85.8Y-93.5
X85.8Y-94.0
X85.8Y-94.5
X85.8Y-95.0
X85.8Y-95.5
X85.8Y-96.0
X85.8Y-97.0
X85.8Y-97.5
X85.8Y-98.0
X85.8Y-98.5
X85.8Y-99.0
X85.8Y-99.5
X85.8Y-100.0
X85.8Y-100.5
X85.8Y-101.0
X85.8Y-101.5
X85.8Y-102.0
X85.8Y-102.5
X85.8Y-103.0
X85.8Y-104.0
X85.8Y-104.5
X85.8Y-105.0
X85.8Y-105.5
X85.8Y-106.0
X85.8Y-106.5
X85.8Y-107.0
X85.8Y-107.5
X85.8Y-108.0
X85.8Y-108.5
X85.8Y-109.0
X85.8Y-109.5
X85.8Y-110.0
X86.8Y-20.0
X86.8Y-20.5
X86.8Y-21.0
X86.8Y-21.5
X86.8Y-22.0
X86.8Y-22.5
X86.8Y-23.0
X86.8Y-23.5
X86.8Y-24.0
X86.8Y-24.5
X86.8Y-25.0
X86.8Y-25.5
X86.8Y-26.0
X86.8Y-27.0
X86.8Y-27.5
X86.8Y-28.0
X86.8Y-28.5
X86.8Y-29.0
X86.8Y-29.5
X86.8Y-30.0
X86.8Y-30.5
X86.8Y-31.0
X86.8Y-31.5
X86.8Y-32.0
X86.8Y-32.5
X86.8Y-33.0
X86.8Y-34.0
X86.8Y-34.5
X86.8Y-35.0
X86.8Y-35.5
X86.8Y-36.0
X86.8Y-36.5
X86.8Y-37.0
X86.8Y-37.5
X86.8Y-38.0
X86.8Y-38.5
X86.8Y-39.0
X86.8Y-39.5
X86.8Y-40.0
X86.8Y-41.0
X86.8Y-41.5
X86.8Y-42.0
X86.8Y-42.5
X86.8Y-43.0
X86.8Y-43.5
X86.8Y-44.0
X86.8Y-44.5
X86.8Y-45.0
X86.8Y-45.5
X86.8Y-46.0
X86.8Y-46.5
X86.8Y-47.0
X86.8Y-48.0
X86.8Y-48.5
X86.8Y-49.0
X86.8Y-49.5
X86.8Y-50.0
X86.8Y-50.5
X86.8Y-51.0
X86.8Y-51.5
X86.8Y-52.0
X86.8Y-52.5
X86.8Y-53.0
X86.8Y-53.5
X86.8Y-54.0
X86.8Y-55.0
X86.8Y-55.5
X86.8Y-56.0
X86.8Y-56.5
X86.8Y-57.0
X86.8Y-57.5
X86.8Y-58.0
X86.8Y-58.5
X86.8Y-59.0
X86.8Y-59.5
X86.8Y-60.0
X86.8Y-60.5
X86.8Y-61.0
X86.8Y-62.0
X86.8Y-62.5
X86.8Y-63.0
X86.8Y-63.5
X86.8Y-64.0
X86.8Y-64.5
X86.8Y-65.0
X86.8Y-65.5
X86.8Y-66.0
X86.8Y-66.5
X86.8Y-67.0
X86.8Y-67.5
X86.8Y-68.0
X86.8Y-69.0
X86.8Y-69.5
X86.8Y-70.0
X86.8Y-70.5
X86.8Y-71.0
X86.8Y-71.5
X86.8Y-72.0
X86.8Y-72.5
X86.8Y-73.0
X86.8Y-73.5
X86.8Y-74.0
X86.8Y-74.5
X86.8Y-75.0
X86.8Y-76.0
X86.8Y-76.5
X86.8Y-77.0
X86.8Y-77.5
X86.8Y-78.0
X86.8Y-78.5
X86.8Y-79.0
X86.8Y-79.5
X86.8Y-80.0
X86.8Y-80.5
X86.8Y-81.0
X86.8Y-81.5
X86.8Y-82.0
X86.8Y-83.0
X86.8Y-83.5
X86.8Y-84.0
X86.8Y-84.5
X86.8Y-85.0
X86.8Y-85.5
X86.8Y-86.0
X86.8Y-86.5
X86.8Y-87.0
X86.8Y-87.5
X86.8Y-88.0
X86.8Y-88.5
X86.8Y-89.0
X86.8Y-90.0
X86.8Y-90.5
X86.8Y-91.0
X86.8Y-91.5
X86.8Y-92.0
X86.8Y-92.5
X86.8Y-93.0
X86.8Y-93.5
X86.8Y-94.0
X86.8Y-94.5
X86.8Y-95.0
X86.8Y-95.5
X86.8Y-96.0
X86.8Y-97.0
X86.8Y-97.5
X86.8Y-98.0
X86.8Y-98.5
X86.8Y-99.0
X86.8Y-99.5
X86.8Y-100.0
X86.8Y-100.5
X86.8Y-101.0
X86.8Y-101.5
X86.8Y-102.0
X86.8Y-102.5
X86.8Y-103.0
X86.8Y-104.0
X86.8Y-104.5
X86.8Y-105.0
X86.8Y-105.5
X86.8Y-106.0
X86.8Y-106.5
X86.8Y-107.0
X86.8Y-107.5
X86.8Y-108.0
X86.8Y-108.5
X86.8Y-109.0
X86.8Y-109.5
X86.8Y-110.0
X101.0Y-20.0
X101.0Y-20.5
X101.0Y-21.0
X101.0Y-21.5
X101.0Y-22.0
X101.0Y-22.5
X101.0Y-23.0
X101.0Y-23.5
X101.0Y-24.0
X101.0Y-24.5
X101.0Y-25.0
X101.0Y-25.5
X101.0Y-26.0
X101.0Y-27.0
X101.0Y-27.5
X101.0Y-28.0
X101.0Y-28.5
X101.0Y-29.0
X101.0Y-29.5
X101.0Y-30.0
X101.0Y-30.5
X101.0Y-31.0
X101.0Y-31.5
X101.0Y-32.0
X101.0Y-32.5
X101.0Y-33.0
X101.0Y-34.0
X101.0Y-34.5
X101.0Y-35.0
X101.0Y-35.5
X101.0Y-36.0
X101.0Y-36.5
X101.0Y-37.0
X101.0Y-37.5
X101.0Y-38.0
X101.0Y-38.5
X101.0Y-39.0
X101.0Y-39.5
X101.0Y-40.0
X101.0Y-41.0
X101.0Y-41.5
X101.0Y-42.0
X101.0Y-42.5
X101.0Y-43.0
X101.0Y-43.5
X101.0Y-44.0
X101.0Y-44.5
X101.0Y-45.0
X101.0Y-45.5
X101.0Y-46.0
X101.0Y-46.5
X101.0Y-47.0
X101.0Y-48.0
X101.0Y-48.5
X101.0Y-49.0
X101.0Y-49.5
X101.0Y-50.0
X101.0Y-50.5
X101.0Y-51.0
X101.0Y-51.5
X101.0Y-52.0
X101.0Y-52.5
X101.0Y-53.0
X101.0Y-53.5
X101.0Y-54.0
X101.0Y-55.0
X101.0Y-55.5
X101.0Y-56.0
X101.0Y-56.5
X101.0Y-57.0
X101.0Y-57.5
X101.0Y-58.0
X101.0Y-58.5
X101.0Y-59.0
X101.0Y-59.5
X101.0Y-60.0
X101.0Y-60.5
X101.0Y-61.0
X101.0Y-62.0
X101.0Y-62.5
X101.0Y-63.0
X101.0Y-63.5
X101.0Y-64.0
X101.0Y-64.5
X101.0Y-65.0
X101.0Y-65.5
X101.0Y-66.0
X101.0Y-66.5
X101.0Y-67.0
X101.0Y-67.5
X101.0Y-68.0
X101.0Y-69.0
X101.0Y-69.5
X101.0Y-70.0
X101.0Y-70.5
X101.0Y-71.0
X101.0Y-71.5
X101.0Y-72.0
X101.0Y-72.5
X101.0Y-73.0
X101.0Y-73.5
X101.0Y-74.0
X101.0Y-74.5
X101.0Y-75.0
X101.0Y-76.0
X101.0Y-76.5
X101.0Y-77.0
X101.0Y-77.5
X101.0Y-78.0
X101.0Y-78.5
X101.0Y-79.0
X101.0Y-79.5
X101.0Y-80.0
X101.0Y-80.5
X101.0Y-81.0
X101.0Y-81.5
X101.0Y-82.0
X101.0Y-83.0
X101.0Y-83.5
X101.0Y-84.0
X101.0Y-84.5
X101.0Y-85.0
X101.0Y-85.5
X101.0Y-86.0
X101.0Y-86.5
X101.0Y-87.0
X101.0Y-87.5
X101.0Y-88.0
X101.0Y-88.5
X101.0Y-89.0
X101.0Y-90.0
X101.0Y-90.5
X101.0Y-91.0
X101.0Y-91.5
X101.0Y-92.0
X101.0Y-92.5
X101.0Y-93.0
X101.0Y-93.5
X101.0Y-94.0
X101.0Y-94.5
X101.0Y-95.0
X101.0Y-95.5
X101.0Y-96.0
X101.0Y-97.0
X101.0Y-97.5
X101.0Y-98.0
X101.0Y-98.5
X101.0Y-99.0
X101.0Y-99.5
X101.0Y-100.0
X101.0Y-100.5
X101.0Y-101.0
X101.0Y-101.5
X101.0Y-102.0
X101.0Y-102.5
X101.0Y-103.0
X101.0Y-104.0
X101.0Y-104.5
X101.0Y-105.0
X101.0Y-105.5
X101.0Y-106.0
X101.0Y-106.5
X101.0Y-107.0
X101.0Y-107.5
X101.0Y-108.0
X101.0Y-108.5
X101.0Y-109.0
X101.0Y-109.5
X101.0Y-110.0
X102.0Y-20.0
X102.0Y-20.5
X102.0Y-21.0
X102.0Y-21.5
X102.0Y-22.0
X102.0Y-22.5
X102.0Y-23.0
X102.0Y-23.5
X102.0Y-24.0
X102.0Y-24.5
X102.0Y-25.0
X102.0Y-25.5
X102.0Y-26.0
X102.0Y-27.0
X102.0Y-27.5
X102.0Y-28.0
X102.0Y-28.5
X102.0Y-29.0
X102.0Y-29.5
X102.0Y-30.0
X102.0Y-30.5
X102.0Y-31.0
X102.0Y-31.5
X102.0Y-32.0
X102.0Y-32.5
X102.0Y-33.0
X102.0Y-34.0
X102.0Y-34.5
X102.0Y-35.0
X102.0Y-35.5
X102.0Y-36.0
X102.0Y-36.5
X102.0Y-37.0
X102.0Y-37.5
X102.0Y-38.0
X102.0Y-38.5
X102.0Y-39.0
X102.0Y-39.5
X102.0Y-40.0
X102.0Y-41.0
X102.0Y-41.5
X102.0Y-42.0
X102.0Y-42.5
X102.0Y-43.0
X102.0Y-43.5
X102.0Y-44.0
X102.0Y-44.5
X102.0Y-45.0
X102.0Y-45.5
X102.0Y-46.0
X102.0Y-46.5
X102.0Y-47.0
X102.0Y-48.0
X102.0Y-48.5
X102.0Y-49.0
X102.0Y-49.5
X102.0Y-50.0
X102.0Y-50.5
X102.0Y-51.0
X102.0Y-51.5
X102.0Y-52.0
X102.0Y-52.5
X102.0Y-53.0
X102.0Y-53.5
X102.0Y-54.0
X102.0Y-55.0
X102.0Y-55.5
X102.0Y-56.0
X102.0Y-56.5
X102.0Y-57.0
X102.0Y-57.5
X102.0Y-58.0
X102.0Y-58.5
X102.0Y-59.0
X102.0Y-59.5
X102.0Y-60.0
X102.0Y-60.5
X102.0Y-61.0
X102.0Y-62.0
X102.0Y-62.5
X102.0Y-63.0
X102.0Y-63.5
X102.0Y-64.0
X102.0Y-64.5
X102.0Y-65.0
X102.0Y-65.5
X102.0Y-66.0
X102.0Y-66.5
X102.0Y-67.0
X102.0Y-67.5
X102.0Y-68.0
X102.0Y-69.0
X102.0Y-69.5
X102.0Y-70.0
X102.0Y-70.5
X102.0Y-71.0
X102.0Y-71.5
X102.0Y-72.0
X102.0Y-72.5
X102.0Y-73.0
X102.0Y-73.5
X102.0Y-74.0
X102.0Y-74.5
X102.0Y-75.0
X102.0Y-76.0
X102.0Y-76.5
X102.0Y-77.0
X102.0Y-77.5
X102.0Y-78.0
X102.0Y-78.5
X102.0Y-79.0
X102.0Y-79.5
X102.0Y-80.0
X102.0Y-80.5
X102.0Y-81.0
X102.0Y-81.5
X102.0Y-82.0
X102.0Y-83.0
X102.0Y-83.5
X102.0Y-84.0
X102.0Y-84.5
X102.0Y-85.0
X102.0Y-85.5
X102.0Y-86.0
X102.0Y-86.5
X102.0Y-87.0
X102.0Y-87.5
X102.0Y-88.0
X102.0Y-88.5
X102.0Y-89.0
X102.0Y-90.0
X102.0Y-90.5
X102.0Y-91.0
X102.0Y-91.5
X102.0Y-92.0
X102.0Y-92.5
X102.0Y-93.0
X102.0Y-93.5
X102.0Y-94.0
X102.0Y-94.5
X102.0Y-95.0
X102.0Y-95.5
X102.0Y-96.0
X102.0Y-97.0
X102.0Y-97.5
X102.0Y-98.0
X102.0Y-98.5
X102.0Y-99.0
X102.0Y-99.5
X102.0Y-100.0
X102.0Y-100.5
X102.0Y-101.0
X102.0Y-101.5
X102.0Y-102.0
X102.0Y-102.5
X102.0Y-103.0
X102.0Y-104.0
X102.0Y-104.5
X102.0Y-105.0
X102.0Y-105.5
X102.0Y-106.0
X102.0Y-106.5
X102.0Y-107.0
X102.0Y-107.5
X102.0Y-108.0
X102.0Y-108.5
X102.0Y-109.0
X102.0Y-109.5
X102.0Y-110.0
T0
M30
