%TF.GenerationSoftware,KiCad,Pcbnew,7.0.7*%
%TF.CreationDate,2023-11-20T22:24:31+01:00*%
%TF.ProjectId,hc245t-bypass-panel,68633234-3574-42d6-9279-706173732d70,rev?*%
%TF.SameCoordinates,Original*%
%TF.FileFunction,Profile,NP*%
%FSLAX46Y46*%
G04 Gerber Fmt 4.6, Leading zero omitted, Abs format (unit mm)*
G04 Created by KiCad (PCBNEW 7.0.7) date 2023-11-20 22:24:31*
%MOMM*%
%LPD*%
G01*
G04 APERTURE LIST*
%TA.AperFunction,Profile*%
%ADD10C,0.050000*%
%TD*%
G04 APERTURE END LIST*
D10*
X26000000Y-27000000D02*
X32600000Y-27000000D01*
X32600000Y-27000000D02*
X32600000Y-33000000D01*
X32600000Y-33000000D02*
X26000000Y-33000000D01*
X18400000Y-33000000D02*
X18400000Y-27000000D01*
X25000000Y-33000000D02*
X18400000Y-33000000D01*
X18400000Y-27000000D02*
X25000000Y-27000000D01*
X18400000Y-26000000D02*
X18400000Y-20000000D01*
X18400000Y-20000000D02*
X25000000Y-20000000D01*
X25000000Y-26000000D02*
X18400000Y-26000000D01*
X25000000Y-26000000D02*
X25000000Y-27000000D01*
X26000000Y-26000000D02*
X26000000Y-27000000D01*
X32600000Y-26000000D02*
X26000000Y-26000000D01*
X86800000Y-55000000D02*
X93400000Y-55000000D01*
X70600000Y-54000000D02*
X70600000Y-55000000D01*
X33600000Y-48000000D02*
X40200000Y-48000000D01*
X86800000Y-89000000D02*
X86800000Y-90000000D01*
X101000000Y-19000000D02*
X101000000Y-20000000D01*
X102000000Y-69000000D02*
X108600000Y-69000000D01*
X101000000Y-33000000D02*
X101000000Y-34000000D01*
X47800000Y-54000000D02*
X41200000Y-54000000D01*
X56400000Y-75000000D02*
X56400000Y-76000000D01*
X86800000Y-48000000D02*
X93400000Y-48000000D01*
X56400000Y-54000000D02*
X56400000Y-55000000D01*
X94400000Y-76000000D02*
X101000000Y-76000000D01*
X108600000Y-54000000D02*
X102000000Y-54000000D01*
X101000000Y-103000000D02*
X94400000Y-103000000D01*
X86800000Y-54000000D02*
X86800000Y-55000000D01*
X32600000Y-83000000D02*
X32600000Y-89000000D01*
X40200000Y-33000000D02*
X40200000Y-34000000D01*
X79200000Y-83000000D02*
X85800000Y-83000000D01*
X79200000Y-89000000D02*
X79200000Y-83000000D01*
X40200000Y-26000000D02*
X40200000Y-27000000D01*
X40200000Y-103000000D02*
X40200000Y-104000000D01*
X55400000Y-110000000D02*
X48800000Y-110000000D01*
X78200000Y-61000000D02*
X71600000Y-61000000D01*
X93400000Y-89000000D02*
X86800000Y-89000000D01*
X102000000Y-83000000D02*
X108600000Y-83000000D01*
X40200000Y-47000000D02*
X40200000Y-48000000D01*
X93400000Y-62000000D02*
X93400000Y-68000000D01*
X93400000Y-90000000D02*
X93400000Y-96000000D01*
X47800000Y-34000000D02*
X47800000Y-40000000D01*
X41200000Y-62000000D02*
X47800000Y-62000000D01*
X41200000Y-26000000D02*
X41200000Y-27000000D01*
X79200000Y-103000000D02*
X79200000Y-97000000D01*
X79200000Y-97000000D02*
X85800000Y-97000000D01*
X63000000Y-34000000D02*
X63000000Y-40000000D01*
X102000000Y-40000000D02*
X102000000Y-41000000D01*
X26000000Y-69000000D02*
X32600000Y-69000000D01*
X86800000Y-110000000D02*
X86800000Y-111000000D01*
X48800000Y-27000000D02*
X55400000Y-27000000D01*
X63000000Y-54000000D02*
X56400000Y-54000000D01*
X41200000Y-76000000D02*
X47800000Y-76000000D01*
X102000000Y-26000000D02*
X102000000Y-27000000D01*
X64000000Y-97000000D02*
X70600000Y-97000000D01*
X93400000Y-103000000D02*
X86800000Y-103000000D01*
X25000000Y-82000000D02*
X18400000Y-82000000D01*
X41200000Y-96000000D02*
X41200000Y-97000000D01*
X32600000Y-76000000D02*
X32600000Y-82000000D01*
X63000000Y-62000000D02*
X63000000Y-68000000D01*
X78200000Y-55000000D02*
X78200000Y-61000000D01*
X63000000Y-20000000D02*
X63000000Y-26000000D01*
X47800000Y-27000000D02*
X47800000Y-33000000D01*
X79200000Y-104000000D02*
X85800000Y-104000000D01*
X18400000Y-62000000D02*
X25000000Y-62000000D01*
X56400000Y-40000000D02*
X56400000Y-41000000D01*
X109600000Y-111000000D02*
X109600000Y-19000000D01*
X86800000Y-69000000D02*
X93400000Y-69000000D01*
X70600000Y-19000000D02*
X70600000Y-20000000D01*
X64000000Y-48000000D02*
X70600000Y-48000000D01*
X64000000Y-69000000D02*
X70600000Y-69000000D01*
X94400000Y-104000000D02*
X101000000Y-104000000D01*
X93400000Y-68000000D02*
X86800000Y-68000000D01*
X25000000Y-103000000D02*
X25000000Y-104000000D01*
X86800000Y-90000000D02*
X93400000Y-90000000D01*
X33600000Y-34000000D02*
X40200000Y-34000000D01*
X94400000Y-69000000D02*
X101000000Y-69000000D01*
X47800000Y-110000000D02*
X41200000Y-110000000D01*
X26000000Y-89000000D02*
X26000000Y-90000000D01*
X47800000Y-48000000D02*
X47800000Y-54000000D01*
X70600000Y-33000000D02*
X64000000Y-33000000D01*
X47800000Y-26000000D02*
X41200000Y-26000000D01*
X71600000Y-48000000D02*
X78200000Y-48000000D01*
X55400000Y-75000000D02*
X55400000Y-76000000D01*
X70600000Y-89000000D02*
X70600000Y-90000000D01*
X93400000Y-110000000D02*
X86800000Y-110000000D01*
X101000000Y-26000000D02*
X94400000Y-26000000D01*
X85800000Y-75000000D02*
X85800000Y-76000000D01*
X26000000Y-96000000D02*
X26000000Y-97000000D01*
X102000000Y-82000000D02*
X102000000Y-83000000D01*
X64000000Y-34000000D02*
X70600000Y-34000000D01*
X78200000Y-41000000D02*
X78200000Y-47000000D01*
X79200000Y-34000000D02*
X85800000Y-34000000D01*
X25000000Y-68000000D02*
X18400000Y-68000000D01*
X79200000Y-69000000D02*
X85800000Y-69000000D01*
X48800000Y-82000000D02*
X48800000Y-76000000D01*
X40200000Y-96000000D02*
X40200000Y-97000000D01*
X78200000Y-27000000D02*
X78200000Y-33000000D01*
X18400000Y-47000000D02*
X18400000Y-41000000D01*
X48800000Y-61000000D02*
X48800000Y-55000000D01*
X70600000Y-75000000D02*
X70600000Y-76000000D01*
X78200000Y-110000000D02*
X71600000Y-110000000D01*
X101000000Y-110000000D02*
X101000000Y-111000000D01*
X26000000Y-40000000D02*
X26000000Y-41000000D01*
X85800000Y-103000000D02*
X79200000Y-103000000D01*
X47800000Y-97000000D02*
X47800000Y-103000000D01*
X25000000Y-89000000D02*
X25000000Y-90000000D01*
X101000000Y-47000000D02*
X101000000Y-48000000D01*
X33600000Y-20000000D02*
X40200000Y-20000000D01*
X18400000Y-68000000D02*
X18400000Y-62000000D01*
X47800000Y-83000000D02*
X47800000Y-89000000D01*
X71600000Y-61000000D02*
X71600000Y-62000000D01*
X71600000Y-104000000D02*
X78200000Y-104000000D01*
X63000000Y-96000000D02*
X56400000Y-96000000D01*
X102000000Y-47000000D02*
X102000000Y-48000000D01*
X56400000Y-90000000D02*
X63000000Y-90000000D01*
X47800000Y-41000000D02*
X47800000Y-47000000D01*
X101000000Y-75000000D02*
X94400000Y-75000000D01*
X55400000Y-96000000D02*
X55400000Y-97000000D01*
X70600000Y-61000000D02*
X70600000Y-62000000D01*
X48800000Y-104000000D02*
X55400000Y-104000000D01*
X40200000Y-75000000D02*
X40200000Y-76000000D01*
X47800000Y-20000000D02*
X47800000Y-26000000D01*
X63000000Y-89000000D02*
X56400000Y-89000000D01*
X56400000Y-61000000D02*
X56400000Y-62000000D01*
X55400000Y-26000000D02*
X55400000Y-27000000D01*
X47800000Y-69000000D02*
X47800000Y-75000000D01*
X64000000Y-104000000D02*
X70600000Y-104000000D01*
X56400000Y-26000000D02*
X56400000Y-27000000D01*
X101000000Y-54000000D02*
X94400000Y-54000000D01*
X55400000Y-19000000D02*
X55400000Y-20000000D01*
X78200000Y-20000000D02*
X78200000Y-26000000D01*
X40200000Y-68000000D02*
X33600000Y-68000000D01*
X48800000Y-76000000D02*
X55400000Y-76000000D01*
X16400000Y-112000000D02*
X110600000Y-112000000D01*
X63000000Y-83000000D02*
X63000000Y-89000000D01*
X63000000Y-75000000D02*
X56400000Y-75000000D01*
X93400000Y-61000000D02*
X86800000Y-61000000D01*
X16400000Y-17000000D02*
X110600000Y-17000000D01*
X41200000Y-33000000D02*
X41200000Y-34000000D01*
X70600000Y-47000000D02*
X70600000Y-48000000D01*
X71600000Y-34000000D02*
X78200000Y-34000000D01*
X108600000Y-48000000D02*
X108600000Y-54000000D01*
X40200000Y-89000000D02*
X40200000Y-90000000D01*
X48800000Y-89000000D02*
X48800000Y-83000000D01*
X47800000Y-47000000D02*
X41200000Y-47000000D01*
X41200000Y-89000000D02*
X41200000Y-90000000D01*
X25000000Y-54000000D02*
X25000000Y-55000000D01*
X33600000Y-68000000D02*
X33600000Y-62000000D01*
X85800000Y-96000000D02*
X85800000Y-97000000D01*
X48800000Y-40000000D02*
X48800000Y-34000000D01*
X78200000Y-75000000D02*
X71600000Y-75000000D01*
X85800000Y-61000000D02*
X79200000Y-61000000D01*
X102000000Y-41000000D02*
X108600000Y-41000000D01*
X101000000Y-75000000D02*
X101000000Y-76000000D01*
X18400000Y-103000000D02*
X18400000Y-97000000D01*
X48800000Y-41000000D02*
X55400000Y-41000000D01*
X33600000Y-47000000D02*
X33600000Y-41000000D01*
X71600000Y-83000000D02*
X78200000Y-83000000D01*
X79200000Y-82000000D02*
X79200000Y-76000000D01*
X32600000Y-97000000D02*
X32600000Y-103000000D01*
X26000000Y-104000000D02*
X32600000Y-104000000D01*
X86800000Y-82000000D02*
X86800000Y-83000000D01*
X64000000Y-75000000D02*
X64000000Y-69000000D01*
X25000000Y-96000000D02*
X18400000Y-96000000D01*
X64000000Y-90000000D02*
X70600000Y-90000000D01*
X48800000Y-96000000D02*
X48800000Y-90000000D01*
X55400000Y-33000000D02*
X55400000Y-34000000D01*
X85800000Y-82000000D02*
X85800000Y-83000000D01*
X94400000Y-41000000D02*
X101000000Y-41000000D01*
X63000000Y-55000000D02*
X63000000Y-61000000D01*
X70600000Y-103000000D02*
X70600000Y-104000000D01*
X48800000Y-54000000D02*
X48800000Y-48000000D01*
X48800000Y-26000000D02*
X48800000Y-20000000D01*
X55400000Y-68000000D02*
X55400000Y-69000000D01*
X33600000Y-110000000D02*
X33600000Y-104000000D01*
X25000000Y-54000000D02*
X18400000Y-54000000D01*
X93400000Y-40000000D02*
X86800000Y-40000000D01*
X33600000Y-69000000D02*
X40200000Y-69000000D01*
X64000000Y-47000000D02*
X64000000Y-41000000D01*
X18400000Y-34000000D02*
X25000000Y-34000000D01*
X55400000Y-103000000D02*
X48800000Y-103000000D01*
X40200000Y-54000000D02*
X33600000Y-54000000D01*
X102000000Y-110000000D02*
X102000000Y-111000000D01*
X26000000Y-97000000D02*
X32600000Y-97000000D01*
X33600000Y-33000000D02*
X33600000Y-27000000D01*
X85800000Y-26000000D02*
X85800000Y-27000000D01*
X71600000Y-27000000D02*
X78200000Y-27000000D01*
X94400000Y-90000000D02*
X101000000Y-90000000D01*
X25000000Y-89000000D02*
X18400000Y-89000000D01*
X78200000Y-96000000D02*
X71600000Y-96000000D01*
X55400000Y-40000000D02*
X48800000Y-40000000D01*
X93400000Y-75000000D02*
X86800000Y-75000000D01*
X55400000Y-110000000D02*
X55400000Y-111000000D01*
X56400000Y-82000000D02*
X56400000Y-83000000D01*
X40200000Y-33000000D02*
X33600000Y-33000000D01*
X102000000Y-20000000D02*
X108600000Y-20000000D01*
X33600000Y-40000000D02*
X33600000Y-34000000D01*
X18400000Y-41000000D02*
X25000000Y-41000000D01*
X56400000Y-89000000D02*
X56400000Y-90000000D01*
X32600000Y-47000000D02*
X26000000Y-47000000D01*
X56400000Y-47000000D02*
X56400000Y-48000000D01*
X25000000Y-19000000D02*
X25000000Y-20000000D01*
X16400000Y-17000000D02*
X16400000Y-18000000D01*
X101000000Y-47000000D02*
X94400000Y-47000000D01*
X48800000Y-48000000D02*
X55400000Y-48000000D01*
X78200000Y-76000000D02*
X78200000Y-82000000D01*
X41200000Y-40000000D02*
X41200000Y-41000000D01*
X41200000Y-90000000D02*
X47800000Y-90000000D01*
X79200000Y-33000000D02*
X79200000Y-27000000D01*
X85800000Y-47000000D02*
X85800000Y-48000000D01*
X41200000Y-82000000D02*
X41200000Y-83000000D01*
X101000000Y-54000000D02*
X101000000Y-55000000D01*
X40200000Y-61000000D02*
X33600000Y-61000000D01*
X79200000Y-68000000D02*
X79200000Y-62000000D01*
X41200000Y-97000000D02*
X47800000Y-97000000D01*
X101000000Y-96000000D02*
X101000000Y-97000000D01*
X26000000Y-75000000D02*
X26000000Y-76000000D01*
X47800000Y-82000000D02*
X41200000Y-82000000D01*
X26000000Y-110000000D02*
X26000000Y-111000000D01*
X63000000Y-97000000D02*
X63000000Y-103000000D01*
X78200000Y-33000000D02*
X71600000Y-33000000D01*
X17400000Y-111000000D02*
X25000000Y-111000000D01*
X32600000Y-68000000D02*
X26000000Y-68000000D01*
X102000000Y-103000000D02*
X102000000Y-104000000D01*
X94400000Y-103000000D02*
X94400000Y-97000000D01*
X40200000Y-110000000D02*
X33600000Y-110000000D01*
X94400000Y-33000000D02*
X94400000Y-27000000D01*
X48800000Y-34000000D02*
X55400000Y-34000000D01*
X108600000Y-27000000D02*
X108600000Y-33000000D01*
X94400000Y-40000000D02*
X94400000Y-34000000D01*
X40200000Y-40000000D02*
X40200000Y-41000000D01*
X18400000Y-110000000D02*
X18400000Y-104000000D01*
X26000000Y-90000000D02*
X32600000Y-90000000D01*
X93400000Y-47000000D02*
X86800000Y-47000000D01*
X86800000Y-96000000D02*
X86800000Y-97000000D01*
X85800000Y-40000000D02*
X79200000Y-40000000D01*
X32600000Y-69000000D02*
X32600000Y-75000000D01*
X18400000Y-97000000D02*
X25000000Y-97000000D01*
X102000000Y-104000000D02*
X108600000Y-104000000D01*
X56400000Y-96000000D02*
X56400000Y-97000000D01*
X41200000Y-34000000D02*
X47800000Y-34000000D01*
X32600000Y-96000000D02*
X26000000Y-96000000D01*
X40200000Y-103000000D02*
X33600000Y-103000000D01*
X108600000Y-90000000D02*
X108600000Y-96000000D01*
X41200000Y-55000000D02*
X47800000Y-55000000D01*
X40200000Y-19000000D02*
X26000000Y-19000000D01*
X33600000Y-97000000D02*
X40200000Y-97000000D01*
X25000000Y-61000000D02*
X25000000Y-62000000D01*
X25000000Y-47000000D02*
X18400000Y-47000000D01*
X25000000Y-96000000D02*
X25000000Y-97000000D01*
X70600000Y-82000000D02*
X64000000Y-82000000D01*
X101000000Y-82000000D02*
X101000000Y-83000000D01*
X79200000Y-48000000D02*
X85800000Y-48000000D01*
X55400000Y-82000000D02*
X55400000Y-83000000D01*
X79200000Y-62000000D02*
X85800000Y-62000000D01*
X26000000Y-82000000D02*
X26000000Y-83000000D01*
X70600000Y-96000000D02*
X64000000Y-96000000D01*
X25000000Y-75000000D02*
X25000000Y-76000000D01*
X33600000Y-104000000D02*
X40200000Y-104000000D01*
X108600000Y-68000000D02*
X102000000Y-68000000D01*
X64000000Y-68000000D02*
X64000000Y-62000000D01*
X93400000Y-27000000D02*
X93400000Y-33000000D01*
X108600000Y-41000000D02*
X108600000Y-47000000D01*
X55400000Y-47000000D02*
X48800000Y-47000000D01*
X102000000Y-61000000D02*
X102000000Y-62000000D01*
X108600000Y-69000000D02*
X108600000Y-75000000D01*
X94400000Y-54000000D02*
X94400000Y-48000000D01*
X71600000Y-40000000D02*
X71600000Y-41000000D01*
X47800000Y-89000000D02*
X41200000Y-89000000D01*
X102000000Y-62000000D02*
X108600000Y-62000000D01*
X40200000Y-89000000D02*
X33600000Y-89000000D01*
X32600000Y-61000000D02*
X26000000Y-61000000D01*
X25000000Y-110000000D02*
X25000000Y-111000000D01*
X85800000Y-47000000D02*
X79200000Y-47000000D01*
X56400000Y-103000000D02*
X56400000Y-104000000D01*
X70600000Y-19000000D02*
X56400000Y-19000000D01*
X26000000Y-62000000D02*
X32600000Y-62000000D01*
X108600000Y-104000000D02*
X108600000Y-110000000D01*
X79200000Y-54000000D02*
X79200000Y-48000000D01*
X25000000Y-68000000D02*
X25000000Y-69000000D01*
X55400000Y-47000000D02*
X55400000Y-48000000D01*
X33600000Y-61000000D02*
X33600000Y-55000000D01*
X63000000Y-27000000D02*
X63000000Y-33000000D01*
X48800000Y-62000000D02*
X55400000Y-62000000D01*
X85800000Y-75000000D02*
X79200000Y-75000000D01*
X26000000Y-20000000D02*
X32600000Y-20000000D01*
X18400000Y-69000000D02*
X25000000Y-69000000D01*
X47800000Y-55000000D02*
X47800000Y-61000000D01*
X63000000Y-40000000D02*
X56400000Y-40000000D01*
X48800000Y-69000000D02*
X55400000Y-69000000D01*
X47800000Y-62000000D02*
X47800000Y-68000000D01*
X55400000Y-82000000D02*
X48800000Y-82000000D01*
X55400000Y-54000000D02*
X55400000Y-55000000D01*
X101000000Y-89000000D02*
X101000000Y-90000000D01*
X85800000Y-89000000D02*
X85800000Y-90000000D01*
X47800000Y-103000000D02*
X41200000Y-103000000D01*
X41200000Y-83000000D02*
X47800000Y-83000000D01*
X41200000Y-27000000D02*
X47800000Y-27000000D01*
X110600000Y-17000000D02*
X110600000Y-18000000D01*
X108600000Y-82000000D02*
X102000000Y-82000000D01*
X79200000Y-90000000D02*
X85800000Y-90000000D01*
X48800000Y-97000000D02*
X55400000Y-97000000D01*
X86800000Y-41000000D02*
X93400000Y-41000000D01*
X48800000Y-110000000D02*
X48800000Y-104000000D01*
X41200000Y-61000000D02*
X41200000Y-62000000D01*
X25000000Y-103000000D02*
X18400000Y-103000000D01*
X94400000Y-34000000D02*
X101000000Y-34000000D01*
X108600000Y-62000000D02*
X108600000Y-68000000D01*
X56400000Y-97000000D02*
X63000000Y-97000000D01*
X78200000Y-69000000D02*
X78200000Y-75000000D01*
X25000000Y-33000000D02*
X25000000Y-34000000D01*
X102000000Y-96000000D02*
X102000000Y-97000000D01*
X94400000Y-48000000D02*
X101000000Y-48000000D01*
X41200000Y-54000000D02*
X41200000Y-55000000D01*
X33600000Y-103000000D02*
X33600000Y-97000000D01*
X101000000Y-68000000D02*
X94400000Y-68000000D01*
X85800000Y-19000000D02*
X85800000Y-20000000D01*
X47800000Y-75000000D02*
X41200000Y-75000000D01*
X85800000Y-33000000D02*
X79200000Y-33000000D01*
X86800000Y-75000000D02*
X86800000Y-76000000D01*
X86800000Y-27000000D02*
X93400000Y-27000000D01*
X70600000Y-33000000D02*
X70600000Y-34000000D01*
X79200000Y-47000000D02*
X79200000Y-41000000D01*
X78200000Y-97000000D02*
X78200000Y-103000000D01*
X71600000Y-33000000D02*
X71600000Y-34000000D01*
X33600000Y-27000000D02*
X40200000Y-27000000D01*
X55400000Y-61000000D02*
X48800000Y-61000000D01*
X17400000Y-111000000D02*
X17400000Y-19000000D01*
X41200000Y-41000000D02*
X47800000Y-41000000D01*
X64000000Y-82000000D02*
X64000000Y-76000000D01*
X86800000Y-40000000D02*
X86800000Y-41000000D01*
X55400000Y-103000000D02*
X55400000Y-104000000D01*
X64000000Y-26000000D02*
X64000000Y-20000000D01*
X56400000Y-68000000D02*
X56400000Y-69000000D01*
X93400000Y-34000000D02*
X93400000Y-40000000D01*
X32600000Y-20000000D02*
X32600000Y-26000000D01*
X101000000Y-82000000D02*
X94400000Y-82000000D01*
X86800000Y-103000000D02*
X86800000Y-104000000D01*
X108600000Y-110000000D02*
X102000000Y-110000000D01*
X47800000Y-76000000D02*
X47800000Y-82000000D01*
X71600000Y-89000000D02*
X71600000Y-90000000D01*
X101000000Y-68000000D02*
X101000000Y-69000000D01*
X94400000Y-82000000D02*
X94400000Y-76000000D01*
X26000000Y-83000000D02*
X32600000Y-83000000D01*
X32600000Y-62000000D02*
X32600000Y-68000000D01*
X79200000Y-20000000D02*
X85800000Y-20000000D01*
X110600000Y-112000000D02*
X110600000Y-18000000D01*
X48800000Y-47000000D02*
X48800000Y-41000000D01*
X93400000Y-96000000D02*
X86800000Y-96000000D01*
X63000000Y-41000000D02*
X63000000Y-47000000D01*
X18400000Y-96000000D02*
X18400000Y-90000000D01*
X32600000Y-48000000D02*
X32600000Y-54000000D01*
X78200000Y-90000000D02*
X78200000Y-96000000D01*
X71600000Y-54000000D02*
X71600000Y-55000000D01*
X108600000Y-89000000D02*
X102000000Y-89000000D01*
X71600000Y-41000000D02*
X78200000Y-41000000D01*
X101000000Y-110000000D02*
X94400000Y-110000000D01*
X93400000Y-83000000D02*
X93400000Y-89000000D01*
X70600000Y-96000000D02*
X70600000Y-97000000D01*
X40200000Y-54000000D02*
X40200000Y-55000000D01*
X102000000Y-90000000D02*
X108600000Y-90000000D01*
X108600000Y-75000000D02*
X102000000Y-75000000D01*
X26000000Y-19000000D02*
X26000000Y-20000000D01*
X25000000Y-110000000D02*
X18400000Y-110000000D01*
X86800000Y-19000000D02*
X86800000Y-20000000D01*
X56400000Y-83000000D02*
X63000000Y-83000000D01*
X55400000Y-26000000D02*
X48800000Y-26000000D01*
X79200000Y-96000000D02*
X79200000Y-90000000D01*
X18400000Y-54000000D02*
X18400000Y-48000000D01*
X33600000Y-76000000D02*
X40200000Y-76000000D01*
X25000000Y-75000000D02*
X18400000Y-75000000D01*
X108600000Y-103000000D02*
X102000000Y-103000000D01*
X41200000Y-68000000D02*
X41200000Y-69000000D01*
X26000000Y-33000000D02*
X26000000Y-34000000D01*
X108600000Y-33000000D02*
X102000000Y-33000000D01*
X18400000Y-55000000D02*
X25000000Y-55000000D01*
X86800000Y-83000000D02*
X93400000Y-83000000D01*
X64000000Y-96000000D02*
X64000000Y-90000000D01*
X33600000Y-82000000D02*
X33600000Y-76000000D01*
X56400000Y-20000000D02*
X63000000Y-20000000D01*
X32600000Y-90000000D02*
X32600000Y-96000000D01*
X18400000Y-61000000D02*
X18400000Y-55000000D01*
X40200000Y-47000000D02*
X33600000Y-47000000D01*
X86800000Y-34000000D02*
X93400000Y-34000000D01*
X32600000Y-104000000D02*
X32600000Y-110000000D01*
X33600000Y-89000000D02*
X33600000Y-83000000D01*
X64000000Y-33000000D02*
X64000000Y-27000000D01*
X71600000Y-47000000D02*
X71600000Y-48000000D01*
X26000000Y-61000000D02*
X26000000Y-62000000D01*
X71600000Y-90000000D02*
X78200000Y-90000000D01*
X64000000Y-61000000D02*
X64000000Y-55000000D01*
X63000000Y-82000000D02*
X56400000Y-82000000D01*
X64000000Y-103000000D02*
X64000000Y-97000000D01*
X71600000Y-19000000D02*
X71600000Y-20000000D01*
X55400000Y-75000000D02*
X48800000Y-75000000D01*
X40200000Y-96000000D02*
X33600000Y-96000000D01*
X71600000Y-75000000D02*
X71600000Y-76000000D01*
X85800000Y-40000000D02*
X85800000Y-41000000D01*
X78200000Y-103000000D02*
X71600000Y-103000000D01*
X71600000Y-82000000D02*
X71600000Y-83000000D01*
X18400000Y-75000000D02*
X18400000Y-69000000D01*
X94400000Y-97000000D02*
X101000000Y-97000000D01*
X94400000Y-61000000D02*
X94400000Y-55000000D01*
X108600000Y-76000000D02*
X108600000Y-82000000D01*
X32600000Y-82000000D02*
X26000000Y-82000000D01*
X78200000Y-40000000D02*
X71600000Y-40000000D01*
X101000000Y-61000000D02*
X101000000Y-62000000D01*
X93400000Y-76000000D02*
X93400000Y-82000000D01*
X79200000Y-27000000D02*
X85800000Y-27000000D01*
X78200000Y-104000000D02*
X78200000Y-110000000D01*
X32600000Y-41000000D02*
X32600000Y-47000000D01*
X93400000Y-55000000D02*
X93400000Y-61000000D01*
X85800000Y-61000000D02*
X85800000Y-62000000D01*
X16400000Y-112000000D02*
X16400000Y-18000000D01*
X102000000Y-19000000D02*
X102000000Y-20000000D01*
X47800000Y-68000000D02*
X41200000Y-68000000D01*
X56400000Y-41000000D02*
X63000000Y-41000000D01*
X47800000Y-90000000D02*
X47800000Y-96000000D01*
X25000000Y-82000000D02*
X25000000Y-83000000D01*
X70600000Y-75000000D02*
X64000000Y-75000000D01*
X94400000Y-55000000D02*
X101000000Y-55000000D01*
X63000000Y-48000000D02*
X63000000Y-54000000D01*
X63000000Y-33000000D02*
X56400000Y-33000000D01*
X93400000Y-69000000D02*
X93400000Y-75000000D01*
X33600000Y-54000000D02*
X33600000Y-48000000D01*
X18400000Y-76000000D02*
X25000000Y-76000000D01*
X94400000Y-27000000D02*
X101000000Y-27000000D01*
X93400000Y-26000000D02*
X86800000Y-26000000D01*
X33600000Y-62000000D02*
X40200000Y-62000000D01*
X101000000Y-61000000D02*
X94400000Y-61000000D01*
X48800000Y-90000000D02*
X55400000Y-90000000D01*
X78200000Y-68000000D02*
X71600000Y-68000000D01*
X85800000Y-68000000D02*
X85800000Y-69000000D01*
X102000000Y-34000000D02*
X108600000Y-34000000D01*
X108600000Y-20000000D02*
X108600000Y-26000000D01*
X56400000Y-111000000D02*
X70600000Y-111000000D01*
X102000000Y-97000000D02*
X108600000Y-97000000D01*
X40200000Y-61000000D02*
X40200000Y-62000000D01*
X40200000Y-110000000D02*
X40200000Y-111000000D01*
X56400000Y-19000000D02*
X56400000Y-20000000D01*
X101000000Y-40000000D02*
X101000000Y-41000000D01*
X33600000Y-55000000D02*
X40200000Y-55000000D01*
X25000000Y-61000000D02*
X18400000Y-61000000D01*
X94400000Y-26000000D02*
X94400000Y-20000000D01*
X40200000Y-19000000D02*
X40200000Y-20000000D01*
X108600000Y-40000000D02*
X102000000Y-40000000D01*
X93400000Y-54000000D02*
X86800000Y-54000000D01*
X18400000Y-48000000D02*
X25000000Y-48000000D01*
X79200000Y-40000000D02*
X79200000Y-34000000D01*
X85800000Y-19000000D02*
X71600000Y-19000000D01*
X48800000Y-75000000D02*
X48800000Y-69000000D01*
X86800000Y-97000000D02*
X93400000Y-97000000D01*
X32600000Y-54000000D02*
X26000000Y-54000000D01*
X70600000Y-68000000D02*
X70600000Y-69000000D01*
X86800000Y-104000000D02*
X93400000Y-104000000D01*
X78200000Y-62000000D02*
X78200000Y-68000000D01*
X64000000Y-27000000D02*
X70600000Y-27000000D01*
X85800000Y-54000000D02*
X85800000Y-55000000D01*
X32600000Y-110000000D02*
X26000000Y-110000000D01*
X64000000Y-20000000D02*
X70600000Y-20000000D01*
X102000000Y-54000000D02*
X102000000Y-55000000D01*
X48800000Y-103000000D02*
X48800000Y-97000000D01*
X94400000Y-68000000D02*
X94400000Y-62000000D01*
X33600000Y-90000000D02*
X40200000Y-90000000D01*
X94400000Y-83000000D02*
X101000000Y-83000000D01*
X40200000Y-75000000D02*
X33600000Y-75000000D01*
X94400000Y-96000000D02*
X94400000Y-90000000D01*
X70600000Y-82000000D02*
X70600000Y-83000000D01*
X70600000Y-40000000D02*
X70600000Y-41000000D01*
X40200000Y-26000000D02*
X33600000Y-26000000D01*
X101000000Y-96000000D02*
X94400000Y-96000000D01*
X18400000Y-83000000D02*
X25000000Y-83000000D01*
X102000000Y-75000000D02*
X102000000Y-76000000D01*
X56400000Y-48000000D02*
X63000000Y-48000000D01*
X40200000Y-82000000D02*
X33600000Y-82000000D01*
X64000000Y-110000000D02*
X64000000Y-104000000D01*
X102000000Y-76000000D02*
X108600000Y-76000000D01*
X18400000Y-90000000D02*
X25000000Y-90000000D01*
X79200000Y-55000000D02*
X85800000Y-55000000D01*
X55400000Y-40000000D02*
X55400000Y-41000000D01*
X71600000Y-55000000D02*
X78200000Y-55000000D01*
X56400000Y-27000000D02*
X63000000Y-27000000D01*
X86800000Y-26000000D02*
X86800000Y-27000000D01*
X32600000Y-34000000D02*
X32600000Y-40000000D01*
X71600000Y-97000000D02*
X78200000Y-97000000D01*
X17400000Y-19000000D02*
X25000000Y-19000000D01*
X70600000Y-40000000D02*
X64000000Y-40000000D01*
X32600000Y-40000000D02*
X26000000Y-40000000D01*
X79200000Y-76000000D02*
X85800000Y-76000000D01*
X41200000Y-19000000D02*
X41200000Y-20000000D01*
X101000000Y-40000000D02*
X94400000Y-40000000D01*
X86800000Y-62000000D02*
X93400000Y-62000000D01*
X108600000Y-26000000D02*
X102000000Y-26000000D01*
X18400000Y-104000000D02*
X25000000Y-104000000D01*
X33600000Y-75000000D02*
X33600000Y-69000000D01*
X101000000Y-103000000D02*
X101000000Y-104000000D01*
X33600000Y-83000000D02*
X40200000Y-83000000D01*
X70600000Y-89000000D02*
X64000000Y-89000000D01*
X26000000Y-48000000D02*
X32600000Y-48000000D01*
X102000000Y-48000000D02*
X108600000Y-48000000D01*
X79200000Y-110000000D02*
X79200000Y-104000000D01*
X85800000Y-96000000D02*
X79200000Y-96000000D01*
X93400000Y-48000000D02*
X93400000Y-54000000D01*
X64000000Y-55000000D02*
X70600000Y-55000000D01*
X64000000Y-83000000D02*
X70600000Y-83000000D01*
X71600000Y-111000000D02*
X85800000Y-111000000D01*
X64000000Y-62000000D02*
X70600000Y-62000000D01*
X26000000Y-47000000D02*
X26000000Y-48000000D01*
X101000000Y-89000000D02*
X94400000Y-89000000D01*
X63000000Y-47000000D02*
X56400000Y-47000000D01*
X93400000Y-82000000D02*
X86800000Y-82000000D01*
X79200000Y-61000000D02*
X79200000Y-55000000D01*
X32600000Y-55000000D02*
X32600000Y-61000000D01*
X102000000Y-111000000D02*
X109600000Y-111000000D01*
X79200000Y-26000000D02*
X79200000Y-20000000D01*
X86800000Y-33000000D02*
X86800000Y-34000000D01*
X94400000Y-75000000D02*
X94400000Y-69000000D01*
X86800000Y-47000000D02*
X86800000Y-48000000D01*
X25000000Y-47000000D02*
X25000000Y-48000000D01*
X86800000Y-61000000D02*
X86800000Y-62000000D01*
X108600000Y-83000000D02*
X108600000Y-89000000D01*
X40200000Y-68000000D02*
X40200000Y-69000000D01*
X86800000Y-20000000D02*
X93400000Y-20000000D01*
X71600000Y-62000000D02*
X78200000Y-62000000D01*
X101000000Y-33000000D02*
X94400000Y-33000000D01*
X101000000Y-26000000D02*
X101000000Y-27000000D01*
X63000000Y-110000000D02*
X56400000Y-110000000D01*
X94400000Y-20000000D02*
X101000000Y-20000000D01*
X25000000Y-40000000D02*
X25000000Y-41000000D01*
X56400000Y-33000000D02*
X56400000Y-34000000D01*
X108600000Y-47000000D02*
X102000000Y-47000000D01*
X70600000Y-47000000D02*
X64000000Y-47000000D01*
X93400000Y-33000000D02*
X86800000Y-33000000D01*
X70600000Y-110000000D02*
X70600000Y-111000000D01*
X71600000Y-68000000D02*
X71600000Y-69000000D01*
X71600000Y-103000000D02*
X71600000Y-104000000D01*
X56400000Y-110000000D02*
X56400000Y-111000000D01*
X86800000Y-68000000D02*
X86800000Y-69000000D01*
X78200000Y-83000000D02*
X78200000Y-89000000D01*
X63000000Y-61000000D02*
X56400000Y-61000000D01*
X56400000Y-62000000D02*
X63000000Y-62000000D01*
X71600000Y-69000000D02*
X78200000Y-69000000D01*
X55400000Y-19000000D02*
X41200000Y-19000000D01*
X71600000Y-20000000D02*
X78200000Y-20000000D01*
X48800000Y-55000000D02*
X55400000Y-55000000D01*
X102000000Y-55000000D02*
X108600000Y-55000000D01*
X47800000Y-96000000D02*
X41200000Y-96000000D01*
X48800000Y-83000000D02*
X55400000Y-83000000D01*
X85800000Y-110000000D02*
X85800000Y-111000000D01*
X85800000Y-54000000D02*
X79200000Y-54000000D01*
X63000000Y-69000000D02*
X63000000Y-75000000D01*
X70600000Y-26000000D02*
X64000000Y-26000000D01*
X56400000Y-34000000D02*
X63000000Y-34000000D01*
X63000000Y-76000000D02*
X63000000Y-82000000D01*
X71600000Y-110000000D02*
X71600000Y-111000000D01*
X70600000Y-103000000D02*
X64000000Y-103000000D01*
X55400000Y-96000000D02*
X48800000Y-96000000D01*
X18400000Y-40000000D02*
X18400000Y-34000000D01*
X108600000Y-97000000D02*
X108600000Y-103000000D01*
X47800000Y-61000000D02*
X41200000Y-61000000D01*
X32600000Y-75000000D02*
X26000000Y-75000000D01*
X41200000Y-104000000D02*
X47800000Y-104000000D01*
X55400000Y-61000000D02*
X55400000Y-62000000D01*
X71600000Y-96000000D02*
X71600000Y-97000000D01*
X48800000Y-33000000D02*
X48800000Y-27000000D01*
X93400000Y-104000000D02*
X93400000Y-110000000D01*
X55400000Y-89000000D02*
X48800000Y-89000000D01*
X26000000Y-103000000D02*
X26000000Y-104000000D01*
X64000000Y-89000000D02*
X64000000Y-83000000D01*
X55400000Y-68000000D02*
X48800000Y-68000000D01*
X85800000Y-82000000D02*
X79200000Y-82000000D01*
X56400000Y-76000000D02*
X63000000Y-76000000D01*
X70600000Y-26000000D02*
X70600000Y-27000000D01*
X79200000Y-75000000D02*
X79200000Y-69000000D01*
X108600000Y-96000000D02*
X102000000Y-96000000D01*
X63000000Y-103000000D02*
X56400000Y-103000000D01*
X26000000Y-68000000D02*
X26000000Y-69000000D01*
X56400000Y-69000000D02*
X63000000Y-69000000D01*
X47800000Y-33000000D02*
X41200000Y-33000000D01*
X108600000Y-61000000D02*
X102000000Y-61000000D01*
X32600000Y-89000000D02*
X26000000Y-89000000D01*
X102000000Y-27000000D02*
X108600000Y-27000000D01*
X78200000Y-82000000D02*
X71600000Y-82000000D01*
X85800000Y-103000000D02*
X85800000Y-104000000D01*
X33600000Y-41000000D02*
X40200000Y-41000000D01*
X85800000Y-26000000D02*
X79200000Y-26000000D01*
X86800000Y-76000000D02*
X93400000Y-76000000D01*
X85800000Y-68000000D02*
X79200000Y-68000000D01*
X63000000Y-104000000D02*
X63000000Y-110000000D01*
X48800000Y-20000000D02*
X55400000Y-20000000D01*
X55400000Y-89000000D02*
X55400000Y-90000000D01*
X40200000Y-40000000D02*
X33600000Y-40000000D01*
X94400000Y-47000000D02*
X94400000Y-41000000D01*
X70600000Y-68000000D02*
X64000000Y-68000000D01*
X102000000Y-19000000D02*
X109600000Y-19000000D01*
X55400000Y-54000000D02*
X48800000Y-54000000D01*
X93400000Y-41000000D02*
X93400000Y-47000000D01*
X64000000Y-54000000D02*
X64000000Y-48000000D01*
X71600000Y-26000000D02*
X71600000Y-27000000D01*
X41200000Y-110000000D02*
X41200000Y-111000000D01*
X56400000Y-104000000D02*
X63000000Y-104000000D01*
X85800000Y-89000000D02*
X79200000Y-89000000D01*
X102000000Y-68000000D02*
X102000000Y-69000000D01*
X18400000Y-89000000D02*
X18400000Y-83000000D01*
X94400000Y-89000000D02*
X94400000Y-83000000D01*
X33600000Y-96000000D02*
X33600000Y-90000000D01*
X71600000Y-76000000D02*
X78200000Y-76000000D01*
X32600000Y-103000000D02*
X26000000Y-103000000D01*
X78200000Y-54000000D02*
X71600000Y-54000000D01*
X102000000Y-89000000D02*
X102000000Y-90000000D01*
X26000000Y-34000000D02*
X32600000Y-34000000D01*
X33600000Y-26000000D02*
X33600000Y-20000000D01*
X18400000Y-82000000D02*
X18400000Y-76000000D01*
X85800000Y-110000000D02*
X79200000Y-110000000D01*
X48800000Y-68000000D02*
X48800000Y-62000000D01*
X41200000Y-47000000D02*
X41200000Y-48000000D01*
X56400000Y-55000000D02*
X63000000Y-55000000D01*
X79200000Y-41000000D02*
X85800000Y-41000000D01*
X25000000Y-40000000D02*
X18400000Y-40000000D01*
X93400000Y-97000000D02*
X93400000Y-103000000D01*
X63000000Y-68000000D02*
X56400000Y-68000000D01*
X78200000Y-47000000D02*
X71600000Y-47000000D01*
X64000000Y-41000000D02*
X70600000Y-41000000D01*
X41200000Y-48000000D02*
X47800000Y-48000000D01*
X78200000Y-48000000D02*
X78200000Y-54000000D01*
X86800000Y-111000000D02*
X101000000Y-111000000D01*
X94400000Y-62000000D02*
X101000000Y-62000000D01*
X70600000Y-110000000D02*
X64000000Y-110000000D01*
X41200000Y-103000000D02*
X41200000Y-104000000D01*
X55400000Y-33000000D02*
X48800000Y-33000000D01*
X26000000Y-76000000D02*
X32600000Y-76000000D01*
X85800000Y-33000000D02*
X85800000Y-34000000D01*
X102000000Y-33000000D02*
X102000000Y-34000000D01*
X26000000Y-41000000D02*
X32600000Y-41000000D01*
X78200000Y-34000000D02*
X78200000Y-40000000D01*
X78200000Y-26000000D02*
X71600000Y-26000000D01*
X41200000Y-75000000D02*
X41200000Y-76000000D01*
X26000000Y-54000000D02*
X26000000Y-55000000D01*
X63000000Y-90000000D02*
X63000000Y-96000000D01*
X108600000Y-34000000D02*
X108600000Y-40000000D01*
X108600000Y-55000000D02*
X108600000Y-61000000D01*
X26000000Y-55000000D02*
X32600000Y-55000000D01*
X47800000Y-40000000D02*
X41200000Y-40000000D01*
X78200000Y-89000000D02*
X71600000Y-89000000D01*
X40200000Y-82000000D02*
X40200000Y-83000000D01*
X41200000Y-20000000D02*
X47800000Y-20000000D01*
X47800000Y-104000000D02*
X47800000Y-110000000D01*
X63000000Y-26000000D02*
X56400000Y-26000000D01*
X93400000Y-20000000D02*
X93400000Y-26000000D01*
X94400000Y-110000000D02*
X94400000Y-104000000D01*
X70600000Y-54000000D02*
X64000000Y-54000000D01*
X70600000Y-61000000D02*
X64000000Y-61000000D01*
X41200000Y-69000000D02*
X47800000Y-69000000D01*
X41200000Y-111000000D02*
X55400000Y-111000000D01*
X64000000Y-76000000D02*
X70600000Y-76000000D01*
X26000000Y-111000000D02*
X40200000Y-111000000D01*
X101000000Y-19000000D02*
X86800000Y-19000000D01*
X64000000Y-40000000D02*
X64000000Y-34000000D01*
M02*
