%TF.GenerationSoftware,KiCad,Pcbnew,7.0.7*%
%TF.CreationDate,2023-10-13T23:08:25+02:00*%
%TF.ProjectId,LITEXCNC-HUB75HAT,4c495445-5843-44e4-932d-485542373548,rev?*%
%TF.SameCoordinates,Original*%
%TF.FileFunction,Legend,Bot*%
%TF.FilePolarity,Positive*%
%FSLAX46Y46*%
G04 Gerber Fmt 4.6, Leading zero omitted, Abs format (unit mm)*
G04 Created by KiCad (PCBNEW 7.0.7) date 2023-10-13 23:08:25*
%MOMM*%
%LPD*%
G01*
G04 APERTURE LIST*
G04 Aperture macros list*
%AMRoundRect*
0 Rectangle with rounded corners*
0 $1 Rounding radius*
0 $2 $3 $4 $5 $6 $7 $8 $9 X,Y pos of 4 corners*
0 Add a 4 corners polygon primitive as box body*
4,1,4,$2,$3,$4,$5,$6,$7,$8,$9,$2,$3,0*
0 Add four circle primitives for the rounded corners*
1,1,$1+$1,$2,$3*
1,1,$1+$1,$4,$5*
1,1,$1+$1,$6,$7*
1,1,$1+$1,$8,$9*
0 Add four rect primitives between the rounded corners*
20,1,$1+$1,$2,$3,$4,$5,0*
20,1,$1+$1,$4,$5,$6,$7,0*
20,1,$1+$1,$6,$7,$8,$9,0*
20,1,$1+$1,$8,$9,$2,$3,0*%
%AMHorizOval*
0 Thick line with rounded ends*
0 $1 width*
0 $2 $3 position (X,Y) of the first rounded end (center of the circle)*
0 $4 $5 position (X,Y) of the second rounded end (center of the circle)*
0 Add line between two ends*
20,1,$1,$2,$3,$4,$5,0*
0 Add two circle primitives to create the rounded ends*
1,1,$1,$2,$3*
1,1,$1,$4,$5*%
%AMRotRect*
0 Rectangle, with rotation*
0 The origin of the aperture is its center*
0 $1 length*
0 $2 width*
0 $3 Rotation angle, in degrees counterclockwise*
0 Add horizontal line*
21,1,$1,$2,0,0,$3*%
G04 Aperture macros list end*
%ADD10C,0.150000*%
%ADD11C,0.120000*%
%ADD12O,2.000000X1.700000*%
%ADD13RoundRect,0.250000X0.750000X-0.600000X0.750000X0.600000X-0.750000X0.600000X-0.750000X-0.600000X0*%
%ADD14R,1.700000X1.700000*%
%ADD15O,1.700000X1.700000*%
%ADD16C,3.100000*%
%ADD17C,4.700000*%
%ADD18RoundRect,0.250000X-1.000000X-0.900000X1.000000X-0.900000X1.000000X0.900000X-1.000000X0.900000X0*%
%ADD19RoundRect,0.250000X-0.650000X0.412500X-0.650000X-0.412500X0.650000X-0.412500X0.650000X0.412500X0*%
%ADD20RoundRect,0.225000X0.375000X-0.225000X0.375000X0.225000X-0.375000X0.225000X-0.375000X-0.225000X0*%
%ADD21RotRect,1.700000X1.700000X115.000000*%
%ADD22HorizOval,1.700000X0.000000X0.000000X0.000000X0.000000X0*%
%ADD23RotRect,1.700000X1.700000X245.000000*%
%ADD24HorizOval,1.700000X0.000000X0.000000X0.000000X0.000000X0*%
%ADD25RoundRect,0.250000X0.625000X-0.400000X0.625000X0.400000X-0.625000X0.400000X-0.625000X-0.400000X0*%
%ADD26RoundRect,0.100000X-0.637500X-0.100000X0.637500X-0.100000X0.637500X0.100000X-0.637500X0.100000X0*%
%ADD27RoundRect,0.150000X0.587500X0.150000X-0.587500X0.150000X-0.587500X-0.150000X0.587500X-0.150000X0*%
%ADD28RoundRect,0.100000X-0.100000X0.637500X-0.100000X-0.637500X0.100000X-0.637500X0.100000X0.637500X0*%
%ADD29RoundRect,0.100000X0.100000X-0.637500X0.100000X0.637500X-0.100000X0.637500X-0.100000X-0.637500X0*%
%ADD30C,2.600000*%
%ADD31RoundRect,0.250001X-0.799999X-0.799999X0.799999X-0.799999X0.799999X0.799999X-0.799999X0.799999X0*%
%ADD32C,2.100000*%
%ADD33RoundRect,0.250000X0.650000X-0.412500X0.650000X0.412500X-0.650000X0.412500X-0.650000X-0.412500X0*%
G04 APERTURE END LIST*
D10*
X48955876Y78446195D02*
X49257746Y77798833D01*
X49257746Y77798833D02*
X49361277Y77689485D01*
X49361277Y77689485D02*
X49487842Y77643419D01*
X49487842Y77643419D02*
X49637439Y77660636D01*
X49637439Y77660636D02*
X49723754Y77700885D01*
X48515343Y77137394D02*
X48946919Y77338641D01*
X48946919Y77338641D02*
X48524300Y78244949D01*
X47655101Y76841340D02*
X47718383Y76818307D01*
X47718383Y76818307D02*
X47867981Y76835524D01*
X47867981Y76835524D02*
X47954296Y76875773D01*
X47954296Y76875773D02*
X48063643Y76979305D01*
X48063643Y76979305D02*
X48109709Y77105869D01*
X48109709Y77105869D02*
X48112617Y77212309D01*
X48112617Y77212309D02*
X48075276Y77405063D01*
X48075276Y77405063D02*
X48014902Y77534536D01*
X48014902Y77534536D02*
X47891246Y77687041D01*
X47891246Y77687041D02*
X47807839Y77753232D01*
X47807839Y77753232D02*
X47681275Y77799297D01*
X47681275Y77799297D02*
X47531677Y77782081D01*
X47531677Y77782081D02*
X47445362Y77741832D01*
X47445362Y77741832D02*
X47336014Y77638300D01*
X47336014Y77638300D02*
X47312982Y77575018D01*
X46625370Y77359463D02*
X46927240Y76712100D01*
X46927240Y76712100D02*
X47030771Y76602752D01*
X47030771Y76602752D02*
X47157336Y76556686D01*
X47157336Y76556686D02*
X47306933Y76573903D01*
X47306933Y76573903D02*
X47393248Y76614152D01*
X46184837Y76050661D02*
X46616412Y76251908D01*
X46616412Y76251908D02*
X46193794Y77158216D01*
X45324595Y75754607D02*
X45387877Y75731574D01*
X45387877Y75731574D02*
X45537474Y75748791D01*
X45537474Y75748791D02*
X45623789Y75789040D01*
X45623789Y75789040D02*
X45733137Y75892572D01*
X45733137Y75892572D02*
X45779203Y76019136D01*
X45779203Y76019136D02*
X45782111Y76125576D01*
X45782111Y76125576D02*
X45744770Y76318331D01*
X45744770Y76318331D02*
X45684396Y76447803D01*
X45684396Y76447803D02*
X45560740Y76600309D01*
X45560740Y76600309D02*
X45477333Y76666499D01*
X45477333Y76666499D02*
X45350768Y76712565D01*
X45350768Y76712565D02*
X45201171Y76695348D01*
X45201171Y76695348D02*
X45114856Y76655099D01*
X45114856Y76655099D02*
X45005508Y76551567D01*
X45005508Y76551567D02*
X44982475Y76488285D01*
X44294863Y76272730D02*
X44596734Y75625367D01*
X44596734Y75625367D02*
X44700265Y75516019D01*
X44700265Y75516019D02*
X44826830Y75469954D01*
X44826830Y75469954D02*
X44976427Y75487170D01*
X44976427Y75487170D02*
X45062742Y75527419D01*
X43854331Y74963928D02*
X44285906Y75165175D01*
X44285906Y75165175D02*
X43863288Y76071483D01*
X42994089Y74667874D02*
X43057371Y74644842D01*
X43057371Y74644842D02*
X43206968Y74662058D01*
X43206968Y74662058D02*
X43293283Y74702307D01*
X43293283Y74702307D02*
X43402631Y74805839D01*
X43402631Y74805839D02*
X43448697Y74932403D01*
X43448697Y74932403D02*
X43451605Y75038843D01*
X43451605Y75038843D02*
X43414264Y75231598D01*
X43414264Y75231598D02*
X43353890Y75361070D01*
X43353890Y75361070D02*
X43230234Y75513576D01*
X43230234Y75513576D02*
X43146827Y75579766D01*
X43146827Y75579766D02*
X43020262Y75625832D01*
X43020262Y75625832D02*
X42870665Y75608615D01*
X42870665Y75608615D02*
X42784350Y75568366D01*
X42784350Y75568366D02*
X42675002Y75464834D01*
X42675002Y75464834D02*
X42651969Y75401552D01*
X41964357Y75185997D02*
X42266227Y74538634D01*
X42266227Y74538634D02*
X42369759Y74429286D01*
X42369759Y74429286D02*
X42496323Y74383221D01*
X42496323Y74383221D02*
X42645921Y74400437D01*
X42645921Y74400437D02*
X42732236Y74440687D01*
X41523825Y73877195D02*
X41955400Y74078442D01*
X41955400Y74078442D02*
X41532782Y74984750D01*
X40663583Y73581141D02*
X40726865Y73558109D01*
X40726865Y73558109D02*
X40876462Y73575325D01*
X40876462Y73575325D02*
X40962777Y73615575D01*
X40962777Y73615575D02*
X41072125Y73719106D01*
X41072125Y73719106D02*
X41118191Y73845670D01*
X41118191Y73845670D02*
X41121099Y73952110D01*
X41121099Y73952110D02*
X41083758Y74144865D01*
X41083758Y74144865D02*
X41023384Y74274337D01*
X41023384Y74274337D02*
X40899727Y74426843D01*
X40899727Y74426843D02*
X40816321Y74493033D01*
X40816321Y74493033D02*
X40689756Y74539099D01*
X40689756Y74539099D02*
X40540159Y74521882D01*
X40540159Y74521882D02*
X40453844Y74481633D01*
X40453844Y74481633D02*
X40344496Y74378101D01*
X40344496Y74378101D02*
X40321463Y74314819D01*
X31128285Y55619180D02*
X31128285Y56619180D01*
X31128285Y56619180D02*
X30890190Y56619180D01*
X30890190Y56619180D02*
X30747333Y56571561D01*
X30747333Y56571561D02*
X30652095Y56476323D01*
X30652095Y56476323D02*
X30604476Y56381085D01*
X30604476Y56381085D02*
X30556857Y56190609D01*
X30556857Y56190609D02*
X30556857Y56047752D01*
X30556857Y56047752D02*
X30604476Y55857276D01*
X30604476Y55857276D02*
X30652095Y55762038D01*
X30652095Y55762038D02*
X30747333Y55666800D01*
X30747333Y55666800D02*
X30890190Y55619180D01*
X30890190Y55619180D02*
X31128285Y55619180D01*
X29604476Y55619180D02*
X30175904Y55619180D01*
X29890190Y55619180D02*
X29890190Y56619180D01*
X29890190Y56619180D02*
X29985428Y56476323D01*
X29985428Y56476323D02*
X30080666Y56381085D01*
X30080666Y56381085D02*
X30175904Y56333466D01*
X29223523Y56523942D02*
X29175904Y56571561D01*
X29175904Y56571561D02*
X29080666Y56619180D01*
X29080666Y56619180D02*
X28842571Y56619180D01*
X28842571Y56619180D02*
X28747333Y56571561D01*
X28747333Y56571561D02*
X28699714Y56523942D01*
X28699714Y56523942D02*
X28652095Y56428704D01*
X28652095Y56428704D02*
X28652095Y56333466D01*
X28652095Y56333466D02*
X28699714Y56190609D01*
X28699714Y56190609D02*
X29271142Y55619180D01*
X29271142Y55619180D02*
X28652095Y55619180D01*
X110837580Y10948857D02*
X110885200Y10996476D01*
X110885200Y10996476D02*
X110932819Y11139333D01*
X110932819Y11139333D02*
X110932819Y11234571D01*
X110932819Y11234571D02*
X110885200Y11377428D01*
X110885200Y11377428D02*
X110789961Y11472666D01*
X110789961Y11472666D02*
X110694723Y11520285D01*
X110694723Y11520285D02*
X110504247Y11567904D01*
X110504247Y11567904D02*
X110361390Y11567904D01*
X110361390Y11567904D02*
X110170914Y11520285D01*
X110170914Y11520285D02*
X110075676Y11472666D01*
X110075676Y11472666D02*
X109980438Y11377428D01*
X109980438Y11377428D02*
X109932819Y11234571D01*
X109932819Y11234571D02*
X109932819Y11139333D01*
X109932819Y11139333D02*
X109980438Y10996476D01*
X109980438Y10996476D02*
X110028057Y10948857D01*
X110932819Y9996476D02*
X110932819Y10567904D01*
X110932819Y10282190D02*
X109932819Y10282190D01*
X109932819Y10282190D02*
X110075676Y10377428D01*
X110075676Y10377428D02*
X110170914Y10472666D01*
X110170914Y10472666D02*
X110218533Y10567904D01*
X109932819Y9139333D02*
X109932819Y9329809D01*
X109932819Y9329809D02*
X109980438Y9425047D01*
X109980438Y9425047D02*
X110028057Y9472666D01*
X110028057Y9472666D02*
X110170914Y9567904D01*
X110170914Y9567904D02*
X110361390Y9615523D01*
X110361390Y9615523D02*
X110742342Y9615523D01*
X110742342Y9615523D02*
X110837580Y9567904D01*
X110837580Y9567904D02*
X110885200Y9520285D01*
X110885200Y9520285D02*
X110932819Y9425047D01*
X110932819Y9425047D02*
X110932819Y9234571D01*
X110932819Y9234571D02*
X110885200Y9139333D01*
X110885200Y9139333D02*
X110837580Y9091714D01*
X110837580Y9091714D02*
X110742342Y9044095D01*
X110742342Y9044095D02*
X110504247Y9044095D01*
X110504247Y9044095D02*
X110409009Y9091714D01*
X110409009Y9091714D02*
X110361390Y9139333D01*
X110361390Y9139333D02*
X110313771Y9234571D01*
X110313771Y9234571D02*
X110313771Y9425047D01*
X110313771Y9425047D02*
X110361390Y9520285D01*
X110361390Y9520285D02*
X110409009Y9567904D01*
X110409009Y9567904D02*
X110504247Y9615523D01*
X67824819Y54732094D02*
X66824819Y54732094D01*
X66824819Y54732094D02*
X66824819Y54493999D01*
X66824819Y54493999D02*
X66872438Y54351142D01*
X66872438Y54351142D02*
X66967676Y54255904D01*
X66967676Y54255904D02*
X67062914Y54208285D01*
X67062914Y54208285D02*
X67253390Y54160666D01*
X67253390Y54160666D02*
X67396247Y54160666D01*
X67396247Y54160666D02*
X67586723Y54208285D01*
X67586723Y54208285D02*
X67681961Y54255904D01*
X67681961Y54255904D02*
X67777200Y54351142D01*
X67777200Y54351142D02*
X67824819Y54493999D01*
X67824819Y54493999D02*
X67824819Y54732094D01*
X67158152Y53303523D02*
X67824819Y53303523D01*
X66777200Y53541618D02*
X67491485Y53779713D01*
X67491485Y53779713D02*
X67491485Y53160666D01*
X119981580Y63780857D02*
X120029200Y63828476D01*
X120029200Y63828476D02*
X120076819Y63971333D01*
X120076819Y63971333D02*
X120076819Y64066571D01*
X120076819Y64066571D02*
X120029200Y64209428D01*
X120029200Y64209428D02*
X119933961Y64304666D01*
X119933961Y64304666D02*
X119838723Y64352285D01*
X119838723Y64352285D02*
X119648247Y64399904D01*
X119648247Y64399904D02*
X119505390Y64399904D01*
X119505390Y64399904D02*
X119314914Y64352285D01*
X119314914Y64352285D02*
X119219676Y64304666D01*
X119219676Y64304666D02*
X119124438Y64209428D01*
X119124438Y64209428D02*
X119076819Y64066571D01*
X119076819Y64066571D02*
X119076819Y63971333D01*
X119076819Y63971333D02*
X119124438Y63828476D01*
X119124438Y63828476D02*
X119172057Y63780857D01*
X119172057Y63399904D02*
X119124438Y63352285D01*
X119124438Y63352285D02*
X119076819Y63257047D01*
X119076819Y63257047D02*
X119076819Y63018952D01*
X119076819Y63018952D02*
X119124438Y62923714D01*
X119124438Y62923714D02*
X119172057Y62876095D01*
X119172057Y62876095D02*
X119267295Y62828476D01*
X119267295Y62828476D02*
X119362533Y62828476D01*
X119362533Y62828476D02*
X119505390Y62876095D01*
X119505390Y62876095D02*
X120076819Y63447523D01*
X120076819Y63447523D02*
X120076819Y62828476D01*
X119076819Y62209428D02*
X119076819Y62114190D01*
X119076819Y62114190D02*
X119124438Y62018952D01*
X119124438Y62018952D02*
X119172057Y61971333D01*
X119172057Y61971333D02*
X119267295Y61923714D01*
X119267295Y61923714D02*
X119457771Y61876095D01*
X119457771Y61876095D02*
X119695866Y61876095D01*
X119695866Y61876095D02*
X119886342Y61923714D01*
X119886342Y61923714D02*
X119981580Y61971333D01*
X119981580Y61971333D02*
X120029200Y62018952D01*
X120029200Y62018952D02*
X120076819Y62114190D01*
X120076819Y62114190D02*
X120076819Y62209428D01*
X120076819Y62209428D02*
X120029200Y62304666D01*
X120029200Y62304666D02*
X119981580Y62352285D01*
X119981580Y62352285D02*
X119886342Y62399904D01*
X119886342Y62399904D02*
X119695866Y62447523D01*
X119695866Y62447523D02*
X119457771Y62447523D01*
X119457771Y62447523D02*
X119267295Y62399904D01*
X119267295Y62399904D02*
X119172057Y62352285D01*
X119172057Y62352285D02*
X119124438Y62304666D01*
X119124438Y62304666D02*
X119076819Y62209428D01*
X71453333Y53040180D02*
X71453333Y52325895D01*
X71453333Y52325895D02*
X71500952Y52183038D01*
X71500952Y52183038D02*
X71596190Y52087800D01*
X71596190Y52087800D02*
X71739047Y52040180D01*
X71739047Y52040180D02*
X71834285Y52040180D01*
X70834285Y52611609D02*
X70929523Y52659228D01*
X70929523Y52659228D02*
X70977142Y52706847D01*
X70977142Y52706847D02*
X71024761Y52802085D01*
X71024761Y52802085D02*
X71024761Y52849704D01*
X71024761Y52849704D02*
X70977142Y52944942D01*
X70977142Y52944942D02*
X70929523Y52992561D01*
X70929523Y52992561D02*
X70834285Y53040180D01*
X70834285Y53040180D02*
X70643809Y53040180D01*
X70643809Y53040180D02*
X70548571Y52992561D01*
X70548571Y52992561D02*
X70500952Y52944942D01*
X70500952Y52944942D02*
X70453333Y52849704D01*
X70453333Y52849704D02*
X70453333Y52802085D01*
X70453333Y52802085D02*
X70500952Y52706847D01*
X70500952Y52706847D02*
X70548571Y52659228D01*
X70548571Y52659228D02*
X70643809Y52611609D01*
X70643809Y52611609D02*
X70834285Y52611609D01*
X70834285Y52611609D02*
X70929523Y52563990D01*
X70929523Y52563990D02*
X70977142Y52516371D01*
X70977142Y52516371D02*
X71024761Y52421133D01*
X71024761Y52421133D02*
X71024761Y52230657D01*
X71024761Y52230657D02*
X70977142Y52135419D01*
X70977142Y52135419D02*
X70929523Y52087800D01*
X70929523Y52087800D02*
X70834285Y52040180D01*
X70834285Y52040180D02*
X70643809Y52040180D01*
X70643809Y52040180D02*
X70548571Y52087800D01*
X70548571Y52087800D02*
X70500952Y52135419D01*
X70500952Y52135419D02*
X70453333Y52230657D01*
X70453333Y52230657D02*
X70453333Y52421133D01*
X70453333Y52421133D02*
X70500952Y52516371D01*
X70500952Y52516371D02*
X70548571Y52563990D01*
X70548571Y52563990D02*
X70643809Y52611609D01*
X55752171Y84783941D02*
X55104808Y84482071D01*
X55104808Y84482071D02*
X54995460Y84378539D01*
X54995460Y84378539D02*
X54949395Y84251975D01*
X54949395Y84251975D02*
X54966611Y84102378D01*
X54966611Y84102378D02*
X55006861Y84016063D01*
X55067699Y85463061D02*
X54463494Y85181316D01*
X55513583Y85408271D02*
X54966844Y84890614D01*
X54966844Y84890614D02*
X54705223Y85451661D01*
X88440118Y17403896D02*
X89087481Y17102026D01*
X89087481Y17102026D02*
X89237078Y17084810D01*
X89237078Y17084810D02*
X89363642Y17130875D01*
X89363642Y17130875D02*
X89467174Y17240223D01*
X89467174Y17240223D02*
X89507423Y17326538D01*
X88923808Y16074970D02*
X89165304Y16592860D01*
X89044556Y16333915D02*
X88138248Y16756533D01*
X88138248Y16756533D02*
X88307970Y16782474D01*
X88307970Y16782474D02*
X88434534Y16828540D01*
X88434534Y16828540D02*
X88517941Y16894730D01*
X87942817Y16112079D02*
X87879535Y16089046D01*
X87879535Y16089046D02*
X87796128Y16022856D01*
X87796128Y16022856D02*
X87695505Y15807068D01*
X87695505Y15807068D02*
X87698413Y15700628D01*
X87698413Y15700628D02*
X87721446Y15637346D01*
X87721446Y15637346D02*
X87787636Y15553939D01*
X87787636Y15553939D02*
X87873951Y15513690D01*
X87873951Y15513690D02*
X88023548Y15496473D01*
X88023548Y15496473D02*
X88782935Y15772867D01*
X88782935Y15772867D02*
X88521314Y15211820D01*
X70364819Y54160666D02*
X69888628Y54493999D01*
X70364819Y54732094D02*
X69364819Y54732094D01*
X69364819Y54732094D02*
X69364819Y54351142D01*
X69364819Y54351142D02*
X69412438Y54255904D01*
X69412438Y54255904D02*
X69460057Y54208285D01*
X69460057Y54208285D02*
X69555295Y54160666D01*
X69555295Y54160666D02*
X69698152Y54160666D01*
X69698152Y54160666D02*
X69793390Y54208285D01*
X69793390Y54208285D02*
X69841009Y54255904D01*
X69841009Y54255904D02*
X69888628Y54351142D01*
X69888628Y54351142D02*
X69888628Y54732094D01*
X69793390Y53589237D02*
X69745771Y53684475D01*
X69745771Y53684475D02*
X69698152Y53732094D01*
X69698152Y53732094D02*
X69602914Y53779713D01*
X69602914Y53779713D02*
X69555295Y53779713D01*
X69555295Y53779713D02*
X69460057Y53732094D01*
X69460057Y53732094D02*
X69412438Y53684475D01*
X69412438Y53684475D02*
X69364819Y53589237D01*
X69364819Y53589237D02*
X69364819Y53398761D01*
X69364819Y53398761D02*
X69412438Y53303523D01*
X69412438Y53303523D02*
X69460057Y53255904D01*
X69460057Y53255904D02*
X69555295Y53208285D01*
X69555295Y53208285D02*
X69602914Y53208285D01*
X69602914Y53208285D02*
X69698152Y53255904D01*
X69698152Y53255904D02*
X69745771Y53303523D01*
X69745771Y53303523D02*
X69793390Y53398761D01*
X69793390Y53398761D02*
X69793390Y53589237D01*
X69793390Y53589237D02*
X69841009Y53684475D01*
X69841009Y53684475D02*
X69888628Y53732094D01*
X69888628Y53732094D02*
X69983866Y53779713D01*
X69983866Y53779713D02*
X70174342Y53779713D01*
X70174342Y53779713D02*
X70269580Y53732094D01*
X70269580Y53732094D02*
X70317200Y53684475D01*
X70317200Y53684475D02*
X70364819Y53589237D01*
X70364819Y53589237D02*
X70364819Y53398761D01*
X70364819Y53398761D02*
X70317200Y53303523D01*
X70317200Y53303523D02*
X70269580Y53255904D01*
X70269580Y53255904D02*
X70174342Y53208285D01*
X70174342Y53208285D02*
X69983866Y53208285D01*
X69983866Y53208285D02*
X69888628Y53255904D01*
X69888628Y53255904D02*
X69841009Y53303523D01*
X69841009Y53303523D02*
X69793390Y53398761D01*
X115745118Y17403896D02*
X116392481Y17102026D01*
X116392481Y17102026D02*
X116542078Y17084810D01*
X116542078Y17084810D02*
X116668642Y17130875D01*
X116668642Y17130875D02*
X116772174Y17240223D01*
X116772174Y17240223D02*
X116812423Y17326538D01*
X116228808Y16074970D02*
X116470304Y16592860D01*
X116349556Y16333915D02*
X115443248Y16756533D01*
X115443248Y16756533D02*
X115612970Y16782474D01*
X115612970Y16782474D02*
X115739534Y16828540D01*
X115739534Y16828540D02*
X115822941Y16894730D01*
X115826314Y15211820D02*
X116067810Y15729710D01*
X115947062Y15470765D02*
X115040754Y15893383D01*
X115040754Y15893383D02*
X115210476Y15919324D01*
X115210476Y15919324D02*
X115337041Y15965390D01*
X115337041Y15965390D02*
X115420447Y16031580D01*
X90044404Y68763180D02*
X90044404Y67953657D01*
X90044404Y67953657D02*
X89996785Y67858419D01*
X89996785Y67858419D02*
X89949166Y67810800D01*
X89949166Y67810800D02*
X89853928Y67763180D01*
X89853928Y67763180D02*
X89663452Y67763180D01*
X89663452Y67763180D02*
X89568214Y67810800D01*
X89568214Y67810800D02*
X89520595Y67858419D01*
X89520595Y67858419D02*
X89472976Y67953657D01*
X89472976Y67953657D02*
X89472976Y68763180D01*
X88520595Y68763180D02*
X88996785Y68763180D01*
X88996785Y68763180D02*
X89044404Y68286990D01*
X89044404Y68286990D02*
X88996785Y68334609D01*
X88996785Y68334609D02*
X88901547Y68382228D01*
X88901547Y68382228D02*
X88663452Y68382228D01*
X88663452Y68382228D02*
X88568214Y68334609D01*
X88568214Y68334609D02*
X88520595Y68286990D01*
X88520595Y68286990D02*
X88472976Y68191752D01*
X88472976Y68191752D02*
X88472976Y67953657D01*
X88472976Y67953657D02*
X88520595Y67858419D01*
X88520595Y67858419D02*
X88568214Y67810800D01*
X88568214Y67810800D02*
X88663452Y67763180D01*
X88663452Y67763180D02*
X88901547Y67763180D01*
X88901547Y67763180D02*
X88996785Y67810800D01*
X88996785Y67810800D02*
X89044404Y67858419D01*
X73346857Y24170419D02*
X73394476Y24122800D01*
X73394476Y24122800D02*
X73537333Y24075180D01*
X73537333Y24075180D02*
X73632571Y24075180D01*
X73632571Y24075180D02*
X73775428Y24122800D01*
X73775428Y24122800D02*
X73870666Y24218038D01*
X73870666Y24218038D02*
X73918285Y24313276D01*
X73918285Y24313276D02*
X73965904Y24503752D01*
X73965904Y24503752D02*
X73965904Y24646609D01*
X73965904Y24646609D02*
X73918285Y24837085D01*
X73918285Y24837085D02*
X73870666Y24932323D01*
X73870666Y24932323D02*
X73775428Y25027561D01*
X73775428Y25027561D02*
X73632571Y25075180D01*
X73632571Y25075180D02*
X73537333Y25075180D01*
X73537333Y25075180D02*
X73394476Y25027561D01*
X73394476Y25027561D02*
X73346857Y24979942D01*
X72394476Y24075180D02*
X72965904Y24075180D01*
X72680190Y24075180D02*
X72680190Y25075180D01*
X72680190Y25075180D02*
X72775428Y24932323D01*
X72775428Y24932323D02*
X72870666Y24837085D01*
X72870666Y24837085D02*
X72965904Y24789466D01*
X71489714Y25075180D02*
X71965904Y25075180D01*
X71965904Y25075180D02*
X72013523Y24598990D01*
X72013523Y24598990D02*
X71965904Y24646609D01*
X71965904Y24646609D02*
X71870666Y24694228D01*
X71870666Y24694228D02*
X71632571Y24694228D01*
X71632571Y24694228D02*
X71537333Y24646609D01*
X71537333Y24646609D02*
X71489714Y24598990D01*
X71489714Y24598990D02*
X71442095Y24503752D01*
X71442095Y24503752D02*
X71442095Y24265657D01*
X71442095Y24265657D02*
X71489714Y24170419D01*
X71489714Y24170419D02*
X71537333Y24122800D01*
X71537333Y24122800D02*
X71632571Y24075180D01*
X71632571Y24075180D02*
X71870666Y24075180D01*
X71870666Y24075180D02*
X71965904Y24122800D01*
X71965904Y24122800D02*
X72013523Y24170419D01*
X106011580Y63780857D02*
X106059200Y63828476D01*
X106059200Y63828476D02*
X106106819Y63971333D01*
X106106819Y63971333D02*
X106106819Y64066571D01*
X106106819Y64066571D02*
X106059200Y64209428D01*
X106059200Y64209428D02*
X105963961Y64304666D01*
X105963961Y64304666D02*
X105868723Y64352285D01*
X105868723Y64352285D02*
X105678247Y64399904D01*
X105678247Y64399904D02*
X105535390Y64399904D01*
X105535390Y64399904D02*
X105344914Y64352285D01*
X105344914Y64352285D02*
X105249676Y64304666D01*
X105249676Y64304666D02*
X105154438Y64209428D01*
X105154438Y64209428D02*
X105106819Y64066571D01*
X105106819Y64066571D02*
X105106819Y63971333D01*
X105106819Y63971333D02*
X105154438Y63828476D01*
X105154438Y63828476D02*
X105202057Y63780857D01*
X106106819Y62828476D02*
X106106819Y63399904D01*
X106106819Y63114190D02*
X105106819Y63114190D01*
X105106819Y63114190D02*
X105249676Y63209428D01*
X105249676Y63209428D02*
X105344914Y63304666D01*
X105344914Y63304666D02*
X105392533Y63399904D01*
X106106819Y62352285D02*
X106106819Y62161809D01*
X106106819Y62161809D02*
X106059200Y62066571D01*
X106059200Y62066571D02*
X106011580Y62018952D01*
X106011580Y62018952D02*
X105868723Y61923714D01*
X105868723Y61923714D02*
X105678247Y61876095D01*
X105678247Y61876095D02*
X105297295Y61876095D01*
X105297295Y61876095D02*
X105202057Y61923714D01*
X105202057Y61923714D02*
X105154438Y61971333D01*
X105154438Y61971333D02*
X105106819Y62066571D01*
X105106819Y62066571D02*
X105106819Y62257047D01*
X105106819Y62257047D02*
X105154438Y62352285D01*
X105154438Y62352285D02*
X105202057Y62399904D01*
X105202057Y62399904D02*
X105297295Y62447523D01*
X105297295Y62447523D02*
X105535390Y62447523D01*
X105535390Y62447523D02*
X105630628Y62399904D01*
X105630628Y62399904D02*
X105678247Y62352285D01*
X105678247Y62352285D02*
X105725866Y62257047D01*
X105725866Y62257047D02*
X105725866Y62066571D01*
X105725866Y62066571D02*
X105678247Y61971333D01*
X105678247Y61971333D02*
X105630628Y61923714D01*
X105630628Y61923714D02*
X105535390Y61876095D01*
X70298857Y24075180D02*
X70632190Y24551371D01*
X70870285Y24075180D02*
X70870285Y25075180D01*
X70870285Y25075180D02*
X70489333Y25075180D01*
X70489333Y25075180D02*
X70394095Y25027561D01*
X70394095Y25027561D02*
X70346476Y24979942D01*
X70346476Y24979942D02*
X70298857Y24884704D01*
X70298857Y24884704D02*
X70298857Y24741847D01*
X70298857Y24741847D02*
X70346476Y24646609D01*
X70346476Y24646609D02*
X70394095Y24598990D01*
X70394095Y24598990D02*
X70489333Y24551371D01*
X70489333Y24551371D02*
X70870285Y24551371D01*
X69346476Y24075180D02*
X69917904Y24075180D01*
X69632190Y24075180D02*
X69632190Y25075180D01*
X69632190Y25075180D02*
X69727428Y24932323D01*
X69727428Y24932323D02*
X69822666Y24837085D01*
X69822666Y24837085D02*
X69917904Y24789466D01*
X69013142Y25075180D02*
X68346476Y25075180D01*
X68346476Y25075180D02*
X68775047Y24075180D01*
X67822285Y24075180D02*
X67822285Y25075180D01*
X67822285Y25075180D02*
X67584190Y25075180D01*
X67584190Y25075180D02*
X67441333Y25027561D01*
X67441333Y25027561D02*
X67346095Y24932323D01*
X67346095Y24932323D02*
X67298476Y24837085D01*
X67298476Y24837085D02*
X67250857Y24646609D01*
X67250857Y24646609D02*
X67250857Y24503752D01*
X67250857Y24503752D02*
X67298476Y24313276D01*
X67298476Y24313276D02*
X67346095Y24218038D01*
X67346095Y24218038D02*
X67441333Y24122800D01*
X67441333Y24122800D02*
X67584190Y24075180D01*
X67584190Y24075180D02*
X67822285Y24075180D01*
X66298476Y24075180D02*
X66869904Y24075180D01*
X66584190Y24075180D02*
X66584190Y25075180D01*
X66584190Y25075180D02*
X66679428Y24932323D01*
X66679428Y24932323D02*
X66774666Y24837085D01*
X66774666Y24837085D02*
X66869904Y24789466D01*
X65679428Y25075180D02*
X65584190Y25075180D01*
X65584190Y25075180D02*
X65488952Y25027561D01*
X65488952Y25027561D02*
X65441333Y24979942D01*
X65441333Y24979942D02*
X65393714Y24884704D01*
X65393714Y24884704D02*
X65346095Y24694228D01*
X65346095Y24694228D02*
X65346095Y24456133D01*
X65346095Y24456133D02*
X65393714Y24265657D01*
X65393714Y24265657D02*
X65441333Y24170419D01*
X65441333Y24170419D02*
X65488952Y24122800D01*
X65488952Y24122800D02*
X65584190Y24075180D01*
X65584190Y24075180D02*
X65679428Y24075180D01*
X65679428Y24075180D02*
X65774666Y24122800D01*
X65774666Y24122800D02*
X65822285Y24170419D01*
X65822285Y24170419D02*
X65869904Y24265657D01*
X65869904Y24265657D02*
X65917523Y24456133D01*
X65917523Y24456133D02*
X65917523Y24694228D01*
X65917523Y24694228D02*
X65869904Y24884704D01*
X65869904Y24884704D02*
X65822285Y24979942D01*
X65822285Y24979942D02*
X65774666Y25027561D01*
X65774666Y25027561D02*
X65679428Y25075180D01*
X110362171Y84783941D02*
X109714808Y84482071D01*
X109714808Y84482071D02*
X109605460Y84378539D01*
X109605460Y84378539D02*
X109559395Y84251975D01*
X109559395Y84251975D02*
X109576611Y84102378D01*
X109576611Y84102378D02*
X109616861Y84016063D01*
X109979802Y85603934D02*
X110060301Y85431304D01*
X110060301Y85431304D02*
X110057393Y85324864D01*
X110057393Y85324864D02*
X110034360Y85261582D01*
X110034360Y85261582D02*
X109945137Y85114893D01*
X109945137Y85114893D02*
X109792631Y84991237D01*
X109792631Y84991237D02*
X109447371Y84830239D01*
X109447371Y84830239D02*
X109340931Y84833148D01*
X109340931Y84833148D02*
X109277649Y84856180D01*
X109277649Y84856180D02*
X109194242Y84922371D01*
X109194242Y84922371D02*
X109113744Y85095001D01*
X109113744Y85095001D02*
X109116652Y85201441D01*
X109116652Y85201441D02*
X109139685Y85264723D01*
X109139685Y85264723D02*
X109205875Y85348130D01*
X109205875Y85348130D02*
X109421663Y85448753D01*
X109421663Y85448753D02*
X109528102Y85445845D01*
X109528102Y85445845D02*
X109591384Y85422812D01*
X109591384Y85422812D02*
X109674791Y85356622D01*
X109674791Y85356622D02*
X109755290Y85183992D01*
X109755290Y85183992D02*
X109752382Y85077552D01*
X109752382Y85077552D02*
X109729349Y85014270D01*
X109729349Y85014270D02*
X109663159Y84930863D01*
X83062285Y41207180D02*
X83062285Y42207180D01*
X83062285Y42207180D02*
X82824190Y42207180D01*
X82824190Y42207180D02*
X82681333Y42159561D01*
X82681333Y42159561D02*
X82586095Y42064323D01*
X82586095Y42064323D02*
X82538476Y41969085D01*
X82538476Y41969085D02*
X82490857Y41778609D01*
X82490857Y41778609D02*
X82490857Y41635752D01*
X82490857Y41635752D02*
X82538476Y41445276D01*
X82538476Y41445276D02*
X82586095Y41350038D01*
X82586095Y41350038D02*
X82681333Y41254800D01*
X82681333Y41254800D02*
X82824190Y41207180D01*
X82824190Y41207180D02*
X83062285Y41207180D01*
X81538476Y41207180D02*
X82109904Y41207180D01*
X81824190Y41207180D02*
X81824190Y42207180D01*
X81824190Y42207180D02*
X81919428Y42064323D01*
X81919428Y42064323D02*
X82014666Y41969085D01*
X82014666Y41969085D02*
X82109904Y41921466D01*
X80586095Y41207180D02*
X81157523Y41207180D01*
X80871809Y41207180D02*
X80871809Y42207180D01*
X80871809Y42207180D02*
X80967047Y42064323D01*
X80967047Y42064323D02*
X81062285Y41969085D01*
X81062285Y41969085D02*
X81157523Y41921466D01*
X91499904Y21129180D02*
X91499904Y20319657D01*
X91499904Y20319657D02*
X91452285Y20224419D01*
X91452285Y20224419D02*
X91404666Y20176800D01*
X91404666Y20176800D02*
X91309428Y20129180D01*
X91309428Y20129180D02*
X91118952Y20129180D01*
X91118952Y20129180D02*
X91023714Y20176800D01*
X91023714Y20176800D02*
X90976095Y20224419D01*
X90976095Y20224419D02*
X90928476Y20319657D01*
X90928476Y20319657D02*
X90928476Y21129180D01*
X90023714Y21129180D02*
X90214190Y21129180D01*
X90214190Y21129180D02*
X90309428Y21081561D01*
X90309428Y21081561D02*
X90357047Y21033942D01*
X90357047Y21033942D02*
X90452285Y20891085D01*
X90452285Y20891085D02*
X90499904Y20700609D01*
X90499904Y20700609D02*
X90499904Y20319657D01*
X90499904Y20319657D02*
X90452285Y20224419D01*
X90452285Y20224419D02*
X90404666Y20176800D01*
X90404666Y20176800D02*
X90309428Y20129180D01*
X90309428Y20129180D02*
X90118952Y20129180D01*
X90118952Y20129180D02*
X90023714Y20176800D01*
X90023714Y20176800D02*
X89976095Y20224419D01*
X89976095Y20224419D02*
X89928476Y20319657D01*
X89928476Y20319657D02*
X89928476Y20557752D01*
X89928476Y20557752D02*
X89976095Y20652990D01*
X89976095Y20652990D02*
X90023714Y20700609D01*
X90023714Y20700609D02*
X90118952Y20748228D01*
X90118952Y20748228D02*
X90309428Y20748228D01*
X90309428Y20748228D02*
X90404666Y20700609D01*
X90404666Y20700609D02*
X90452285Y20652990D01*
X90452285Y20652990D02*
X90499904Y20557752D01*
X61135118Y17403896D02*
X61782481Y17102026D01*
X61782481Y17102026D02*
X61932078Y17084810D01*
X61932078Y17084810D02*
X62058642Y17130875D01*
X62058642Y17130875D02*
X62162174Y17240223D01*
X62162174Y17240223D02*
X62202423Y17326538D01*
X61618808Y16074970D02*
X61860304Y16592860D01*
X61739556Y16333915D02*
X60833248Y16756533D01*
X60833248Y16756533D02*
X61002970Y16782474D01*
X61002970Y16782474D02*
X61129534Y16828540D01*
X61129534Y16828540D02*
X61212941Y16894730D01*
X60330131Y15677596D02*
X60531378Y16109171D01*
X60531378Y16109171D02*
X60983077Y15951081D01*
X60983077Y15951081D02*
X60919795Y15928049D01*
X60919795Y15928049D02*
X60836388Y15861858D01*
X60836388Y15861858D02*
X60735765Y15646071D01*
X60735765Y15646071D02*
X60738673Y15539631D01*
X60738673Y15539631D02*
X60761706Y15476349D01*
X60761706Y15476349D02*
X60827896Y15392942D01*
X60827896Y15392942D02*
X61043684Y15292318D01*
X61043684Y15292318D02*
X61150124Y15295227D01*
X61150124Y15295227D02*
X61213406Y15318259D01*
X61213406Y15318259D02*
X61296813Y15384450D01*
X61296813Y15384450D02*
X61397436Y15600237D01*
X61397436Y15600237D02*
X61394528Y15706677D01*
X61394528Y15706677D02*
X61371495Y15769959D01*
X110295904Y12747180D02*
X110295904Y11937657D01*
X110295904Y11937657D02*
X110248285Y11842419D01*
X110248285Y11842419D02*
X110200666Y11794800D01*
X110200666Y11794800D02*
X110105428Y11747180D01*
X110105428Y11747180D02*
X109914952Y11747180D01*
X109914952Y11747180D02*
X109819714Y11794800D01*
X109819714Y11794800D02*
X109772095Y11842419D01*
X109772095Y11842419D02*
X109724476Y11937657D01*
X109724476Y11937657D02*
X109724476Y12747180D01*
X108819714Y12413847D02*
X108819714Y11747180D01*
X109057809Y12794800D02*
X109295904Y12080514D01*
X109295904Y12080514D02*
X108676857Y12080514D01*
X96431580Y57970666D02*
X96479200Y58018285D01*
X96479200Y58018285D02*
X96526819Y58161142D01*
X96526819Y58161142D02*
X96526819Y58256380D01*
X96526819Y58256380D02*
X96479200Y58399237D01*
X96479200Y58399237D02*
X96383961Y58494475D01*
X96383961Y58494475D02*
X96288723Y58542094D01*
X96288723Y58542094D02*
X96098247Y58589713D01*
X96098247Y58589713D02*
X95955390Y58589713D01*
X95955390Y58589713D02*
X95764914Y58542094D01*
X95764914Y58542094D02*
X95669676Y58494475D01*
X95669676Y58494475D02*
X95574438Y58399237D01*
X95574438Y58399237D02*
X95526819Y58256380D01*
X95526819Y58256380D02*
X95526819Y58161142D01*
X95526819Y58161142D02*
X95574438Y58018285D01*
X95574438Y58018285D02*
X95622057Y57970666D01*
X96526819Y57494475D02*
X96526819Y57303999D01*
X96526819Y57303999D02*
X96479200Y57208761D01*
X96479200Y57208761D02*
X96431580Y57161142D01*
X96431580Y57161142D02*
X96288723Y57065904D01*
X96288723Y57065904D02*
X96098247Y57018285D01*
X96098247Y57018285D02*
X95717295Y57018285D01*
X95717295Y57018285D02*
X95622057Y57065904D01*
X95622057Y57065904D02*
X95574438Y57113523D01*
X95574438Y57113523D02*
X95526819Y57208761D01*
X95526819Y57208761D02*
X95526819Y57399237D01*
X95526819Y57399237D02*
X95574438Y57494475D01*
X95574438Y57494475D02*
X95622057Y57542094D01*
X95622057Y57542094D02*
X95717295Y57589713D01*
X95717295Y57589713D02*
X95955390Y57589713D01*
X95955390Y57589713D02*
X96050628Y57542094D01*
X96050628Y57542094D02*
X96098247Y57494475D01*
X96098247Y57494475D02*
X96145866Y57399237D01*
X96145866Y57399237D02*
X96145866Y57208761D01*
X96145866Y57208761D02*
X96098247Y57113523D01*
X96098247Y57113523D02*
X96050628Y57065904D01*
X96050628Y57065904D02*
X95955390Y57018285D01*
X105621819Y70572404D02*
X106431342Y70572404D01*
X106431342Y70572404D02*
X106526580Y70524785D01*
X106526580Y70524785D02*
X106574200Y70477166D01*
X106574200Y70477166D02*
X106621819Y70381928D01*
X106621819Y70381928D02*
X106621819Y70191452D01*
X106621819Y70191452D02*
X106574200Y70096214D01*
X106574200Y70096214D02*
X106526580Y70048595D01*
X106526580Y70048595D02*
X106431342Y70000976D01*
X106431342Y70000976D02*
X105621819Y70000976D01*
X105621819Y69620023D02*
X105621819Y69000976D01*
X105621819Y69000976D02*
X106002771Y69334309D01*
X106002771Y69334309D02*
X106002771Y69191452D01*
X106002771Y69191452D02*
X106050390Y69096214D01*
X106050390Y69096214D02*
X106098009Y69048595D01*
X106098009Y69048595D02*
X106193247Y69000976D01*
X106193247Y69000976D02*
X106431342Y69000976D01*
X106431342Y69000976D02*
X106526580Y69048595D01*
X106526580Y69048595D02*
X106574200Y69096214D01*
X106574200Y69096214D02*
X106621819Y69191452D01*
X106621819Y69191452D02*
X106621819Y69477166D01*
X106621819Y69477166D02*
X106574200Y69572404D01*
X106574200Y69572404D02*
X106526580Y69620023D01*
X66881333Y35680180D02*
X66881333Y34965895D01*
X66881333Y34965895D02*
X66928952Y34823038D01*
X66928952Y34823038D02*
X67024190Y34727800D01*
X67024190Y34727800D02*
X67167047Y34680180D01*
X67167047Y34680180D02*
X67262285Y34680180D01*
X66500380Y35680180D02*
X65833714Y35680180D01*
X65833714Y35680180D02*
X66262285Y34680180D01*
X119673819Y70572404D02*
X120483342Y70572404D01*
X120483342Y70572404D02*
X120578580Y70524785D01*
X120578580Y70524785D02*
X120626200Y70477166D01*
X120626200Y70477166D02*
X120673819Y70381928D01*
X120673819Y70381928D02*
X120673819Y70191452D01*
X120673819Y70191452D02*
X120626200Y70096214D01*
X120626200Y70096214D02*
X120578580Y70048595D01*
X120578580Y70048595D02*
X120483342Y70000976D01*
X120483342Y70000976D02*
X119673819Y70000976D01*
X119769057Y69572404D02*
X119721438Y69524785D01*
X119721438Y69524785D02*
X119673819Y69429547D01*
X119673819Y69429547D02*
X119673819Y69191452D01*
X119673819Y69191452D02*
X119721438Y69096214D01*
X119721438Y69096214D02*
X119769057Y69048595D01*
X119769057Y69048595D02*
X119864295Y69000976D01*
X119864295Y69000976D02*
X119959533Y69000976D01*
X119959533Y69000976D02*
X120102390Y69048595D01*
X120102390Y69048595D02*
X120673819Y69620023D01*
X120673819Y69620023D02*
X120673819Y69000976D01*
X141890819Y27069904D02*
X142700342Y27069904D01*
X142700342Y27069904D02*
X142795580Y27022285D01*
X142795580Y27022285D02*
X142843200Y26974666D01*
X142843200Y26974666D02*
X142890819Y26879428D01*
X142890819Y26879428D02*
X142890819Y26688952D01*
X142890819Y26688952D02*
X142843200Y26593714D01*
X142843200Y26593714D02*
X142795580Y26546095D01*
X142795580Y26546095D02*
X142700342Y26498476D01*
X142700342Y26498476D02*
X141890819Y26498476D01*
X142890819Y25498476D02*
X142890819Y26069904D01*
X142890819Y25784190D02*
X141890819Y25784190D01*
X141890819Y25784190D02*
X142033676Y25879428D01*
X142033676Y25879428D02*
X142128914Y25974666D01*
X142128914Y25974666D02*
X142176533Y26069904D01*
X33984118Y17403896D02*
X34631481Y17102026D01*
X34631481Y17102026D02*
X34781078Y17084810D01*
X34781078Y17084810D02*
X34907642Y17130875D01*
X34907642Y17130875D02*
X35011174Y17240223D01*
X35011174Y17240223D02*
X35051423Y17326538D01*
X34467808Y16074970D02*
X34709304Y16592860D01*
X34588556Y16333915D02*
X33682248Y16756533D01*
X33682248Y16756533D02*
X33851970Y16782474D01*
X33851970Y16782474D02*
X33978534Y16828540D01*
X33978534Y16828540D02*
X34061941Y16894730D01*
X33199256Y15720753D02*
X33279754Y15893383D01*
X33279754Y15893383D02*
X33363161Y15959573D01*
X33363161Y15959573D02*
X33426443Y15982606D01*
X33426443Y15982606D02*
X33596165Y16008547D01*
X33596165Y16008547D02*
X33788920Y15971206D01*
X33788920Y15971206D02*
X34134180Y15810209D01*
X34134180Y15810209D02*
X34200370Y15726802D01*
X34200370Y15726802D02*
X34223403Y15663520D01*
X34223403Y15663520D02*
X34226311Y15557080D01*
X34226311Y15557080D02*
X34145813Y15384450D01*
X34145813Y15384450D02*
X34062406Y15318259D01*
X34062406Y15318259D02*
X33999124Y15295227D01*
X33999124Y15295227D02*
X33892684Y15292318D01*
X33892684Y15292318D02*
X33676896Y15392942D01*
X33676896Y15392942D02*
X33610706Y15476349D01*
X33610706Y15476349D02*
X33587673Y15539631D01*
X33587673Y15539631D02*
X33584765Y15646071D01*
X33584765Y15646071D02*
X33665264Y15818701D01*
X33665264Y15818701D02*
X33748671Y15884891D01*
X33748671Y15884891D02*
X33811953Y15907924D01*
X33811953Y15907924D02*
X33918393Y15910832D01*
X80983594Y55431180D02*
X80983594Y56431180D01*
X80983594Y56431180D02*
X80745499Y56431180D01*
X80745499Y56431180D02*
X80602642Y56383561D01*
X80602642Y56383561D02*
X80507404Y56288323D01*
X80507404Y56288323D02*
X80459785Y56193085D01*
X80459785Y56193085D02*
X80412166Y56002609D01*
X80412166Y56002609D02*
X80412166Y55859752D01*
X80412166Y55859752D02*
X80459785Y55669276D01*
X80459785Y55669276D02*
X80507404Y55574038D01*
X80507404Y55574038D02*
X80602642Y55478800D01*
X80602642Y55478800D02*
X80745499Y55431180D01*
X80745499Y55431180D02*
X80983594Y55431180D01*
X79507404Y56431180D02*
X79983594Y56431180D01*
X79983594Y56431180D02*
X80031213Y55954990D01*
X80031213Y55954990D02*
X79983594Y56002609D01*
X79983594Y56002609D02*
X79888356Y56050228D01*
X79888356Y56050228D02*
X79650261Y56050228D01*
X79650261Y56050228D02*
X79555023Y56002609D01*
X79555023Y56002609D02*
X79507404Y55954990D01*
X79507404Y55954990D02*
X79459785Y55859752D01*
X79459785Y55859752D02*
X79459785Y55621657D01*
X79459785Y55621657D02*
X79507404Y55526419D01*
X79507404Y55526419D02*
X79555023Y55478800D01*
X79555023Y55478800D02*
X79650261Y55431180D01*
X79650261Y55431180D02*
X79888356Y55431180D01*
X79888356Y55431180D02*
X79983594Y55478800D01*
X79983594Y55478800D02*
X80031213Y55526419D01*
X83057172Y84783942D02*
X82409809Y84482072D01*
X82409809Y84482072D02*
X82300461Y84378540D01*
X82300461Y84378540D02*
X82254396Y84251976D01*
X82254396Y84251976D02*
X82271612Y84102379D01*
X82271612Y84102379D02*
X82311862Y84016064D01*
X82654678Y85647093D02*
X82855925Y85215518D01*
X82855925Y85215518D02*
X82444475Y84971113D01*
X82444475Y84971113D02*
X82467508Y85034395D01*
X82467508Y85034395D02*
X82470416Y85140835D01*
X82470416Y85140835D02*
X82369792Y85356623D01*
X82369792Y85356623D02*
X82286385Y85422813D01*
X82286385Y85422813D02*
X82223103Y85445846D01*
X82223103Y85445846D02*
X82116664Y85448754D01*
X82116664Y85448754D02*
X81900876Y85348131D01*
X81900876Y85348131D02*
X81834686Y85264724D01*
X81834686Y85264724D02*
X81811653Y85201442D01*
X81811653Y85201442D02*
X81808745Y85095002D01*
X81808745Y85095002D02*
X81909368Y84879214D01*
X81909368Y84879214D02*
X81992775Y84813024D01*
X81992775Y84813024D02*
X82056057Y84789991D01*
X72828580Y54090357D02*
X72876200Y54137976D01*
X72876200Y54137976D02*
X72923819Y54280833D01*
X72923819Y54280833D02*
X72923819Y54376071D01*
X72923819Y54376071D02*
X72876200Y54518928D01*
X72876200Y54518928D02*
X72780961Y54614166D01*
X72780961Y54614166D02*
X72685723Y54661785D01*
X72685723Y54661785D02*
X72495247Y54709404D01*
X72495247Y54709404D02*
X72352390Y54709404D01*
X72352390Y54709404D02*
X72161914Y54661785D01*
X72161914Y54661785D02*
X72066676Y54614166D01*
X72066676Y54614166D02*
X71971438Y54518928D01*
X71971438Y54518928D02*
X71923819Y54376071D01*
X71923819Y54376071D02*
X71923819Y54280833D01*
X71923819Y54280833D02*
X71971438Y54137976D01*
X71971438Y54137976D02*
X72019057Y54090357D01*
X72923819Y53137976D02*
X72923819Y53709404D01*
X72923819Y53423690D02*
X71923819Y53423690D01*
X71923819Y53423690D02*
X72066676Y53518928D01*
X72066676Y53518928D02*
X72161914Y53614166D01*
X72161914Y53614166D02*
X72209533Y53709404D01*
X71923819Y52518928D02*
X71923819Y52423690D01*
X71923819Y52423690D02*
X71971438Y52328452D01*
X71971438Y52328452D02*
X72019057Y52280833D01*
X72019057Y52280833D02*
X72114295Y52233214D01*
X72114295Y52233214D02*
X72304771Y52185595D01*
X72304771Y52185595D02*
X72542866Y52185595D01*
X72542866Y52185595D02*
X72733342Y52233214D01*
X72733342Y52233214D02*
X72828580Y52280833D01*
X72828580Y52280833D02*
X72876200Y52328452D01*
X72876200Y52328452D02*
X72923819Y52423690D01*
X72923819Y52423690D02*
X72923819Y52518928D01*
X72923819Y52518928D02*
X72876200Y52614166D01*
X72876200Y52614166D02*
X72828580Y52661785D01*
X72828580Y52661785D02*
X72733342Y52709404D01*
X72733342Y52709404D02*
X72542866Y52757023D01*
X72542866Y52757023D02*
X72304771Y52757023D01*
X72304771Y52757023D02*
X72114295Y52709404D01*
X72114295Y52709404D02*
X72019057Y52661785D01*
X72019057Y52661785D02*
X71971438Y52614166D01*
X71971438Y52614166D02*
X71923819Y52518928D01*
X142731580Y34062857D02*
X142779200Y34110476D01*
X142779200Y34110476D02*
X142826819Y34253333D01*
X142826819Y34253333D02*
X142826819Y34348571D01*
X142826819Y34348571D02*
X142779200Y34491428D01*
X142779200Y34491428D02*
X142683961Y34586666D01*
X142683961Y34586666D02*
X142588723Y34634285D01*
X142588723Y34634285D02*
X142398247Y34681904D01*
X142398247Y34681904D02*
X142255390Y34681904D01*
X142255390Y34681904D02*
X142064914Y34634285D01*
X142064914Y34634285D02*
X141969676Y34586666D01*
X141969676Y34586666D02*
X141874438Y34491428D01*
X141874438Y34491428D02*
X141826819Y34348571D01*
X141826819Y34348571D02*
X141826819Y34253333D01*
X141826819Y34253333D02*
X141874438Y34110476D01*
X141874438Y34110476D02*
X141922057Y34062857D01*
X141922057Y33681904D02*
X141874438Y33634285D01*
X141874438Y33634285D02*
X141826819Y33539047D01*
X141826819Y33539047D02*
X141826819Y33300952D01*
X141826819Y33300952D02*
X141874438Y33205714D01*
X141874438Y33205714D02*
X141922057Y33158095D01*
X141922057Y33158095D02*
X142017295Y33110476D01*
X142017295Y33110476D02*
X142112533Y33110476D01*
X142112533Y33110476D02*
X142255390Y33158095D01*
X142255390Y33158095D02*
X142826819Y33729523D01*
X142826819Y33729523D02*
X142826819Y33110476D01*
X142826819Y32158095D02*
X142826819Y32729523D01*
X142826819Y32443809D02*
X141826819Y32443809D01*
X141826819Y32443809D02*
X141969676Y32539047D01*
X141969676Y32539047D02*
X142064914Y32634285D01*
X142064914Y32634285D02*
X142112533Y32729523D01*
X137667172Y84783942D02*
X137019809Y84482072D01*
X137019809Y84482072D02*
X136910461Y84378540D01*
X136910461Y84378540D02*
X136864396Y84251976D01*
X136864396Y84251976D02*
X136881612Y84102379D01*
X136881612Y84102379D02*
X136921862Y84016064D01*
X136539493Y84836057D02*
X136458994Y85008687D01*
X136458994Y85008687D02*
X136461902Y85115127D01*
X136461902Y85115127D02*
X136484935Y85178409D01*
X136484935Y85178409D02*
X136574158Y85325098D01*
X136574158Y85325098D02*
X136726664Y85448754D01*
X136726664Y85448754D02*
X137071924Y85609751D01*
X137071924Y85609751D02*
X137178363Y85606843D01*
X137178363Y85606843D02*
X137241646Y85583810D01*
X137241646Y85583810D02*
X137325052Y85517620D01*
X137325052Y85517620D02*
X137405551Y85344990D01*
X137405551Y85344990D02*
X137402643Y85238550D01*
X137402643Y85238550D02*
X137379610Y85175268D01*
X137379610Y85175268D02*
X137313420Y85091861D01*
X137313420Y85091861D02*
X137097632Y84991238D01*
X137097632Y84991238D02*
X136991193Y84994146D01*
X136991193Y84994146D02*
X136927910Y85017179D01*
X136927910Y85017179D02*
X136844503Y85083369D01*
X136844503Y85083369D02*
X136764005Y85255999D01*
X136764005Y85255999D02*
X136766913Y85362439D01*
X136766913Y85362439D02*
X136789946Y85425721D01*
X136789946Y85425721D02*
X136856136Y85509128D01*
D11*
%TO.C,D12*%
X26254000Y61224000D02*
X32064000Y61224000D01*
X26254000Y56924000D02*
X26254000Y61224000D01*
X26254000Y56924000D02*
X32064000Y56924000D01*
%TO.C,C16*%
X113238000Y11017252D02*
X113238000Y9594748D01*
X111418000Y11017252D02*
X111418000Y9594748D01*
%TO.C,D4*%
X66370000Y55064000D02*
X66370000Y59074000D01*
X68370000Y55064000D02*
X66370000Y55064000D01*
X68370000Y55064000D02*
X68370000Y59074000D01*
%TO.C,J14*%
X42330000Y29330000D02*
X42330000Y26670000D01*
X39730000Y29330000D02*
X42330000Y29330000D01*
X39730000Y29330000D02*
X39730000Y26670000D01*
X38460000Y29330000D02*
X37130000Y29330000D01*
X37130000Y29330000D02*
X37130000Y28000000D01*
X39730000Y26670000D02*
X42330000Y26670000D01*
%TO.C,C20*%
X122382000Y63849252D02*
X122382000Y62426748D01*
X120562000Y63849252D02*
X120562000Y62426748D01*
%TO.C,J8*%
X72450000Y41215000D02*
X69790000Y41215000D01*
X72450000Y48895000D02*
X72450000Y41215000D01*
X72450000Y48895000D02*
X69790000Y48895000D01*
X72450000Y50165000D02*
X72450000Y51495000D01*
X72450000Y51495000D02*
X71120000Y51495000D01*
X69790000Y48895000D02*
X69790000Y41215000D01*
%TO.C,J4*%
X36385991Y73252354D02*
X34188376Y77965154D01*
X54910922Y81890671D02*
X36385991Y73252354D01*
X54910922Y81890671D02*
X53812115Y84247071D01*
X51455714Y83148264D02*
X50356907Y85504664D01*
X53812115Y84247071D02*
X51455714Y83148264D01*
X53275389Y85398082D02*
X52713307Y86603472D01*
X50356907Y85504664D02*
X34188376Y77965154D01*
X52713307Y86603472D02*
X51507918Y86041389D01*
%TO.C,J13*%
X54670000Y31175000D02*
X54670000Y28515000D01*
X52070000Y31175000D02*
X54670000Y31175000D01*
X52070000Y31175000D02*
X52070000Y28515000D01*
X50800000Y31175000D02*
X49470000Y31175000D01*
X49470000Y31175000D02*
X49470000Y29845000D01*
X52070000Y28515000D02*
X54670000Y28515000D01*
%TO.C,J12*%
X109520922Y9549329D02*
X107323308Y4836529D01*
X90995991Y18187646D02*
X109520922Y9549329D01*
X90995991Y18187646D02*
X89897184Y15831246D01*
X92253584Y14732439D02*
X91154777Y12376038D01*
X89897184Y15831246D02*
X92253584Y14732439D01*
X89360459Y14680235D02*
X88798376Y13474846D01*
X91154777Y12376038D02*
X107323308Y4836529D01*
X88798376Y13474846D02*
X90003766Y12912764D01*
%TO.C,R8*%
X69000000Y56796936D02*
X69000000Y58251064D01*
X70820000Y56796936D02*
X70820000Y58251064D01*
%TO.C,J11*%
X136825922Y9549329D02*
X134628308Y4836529D01*
X118300991Y18187646D02*
X136825922Y9549329D01*
X118300991Y18187646D02*
X117202184Y15831246D01*
X119558584Y14732439D02*
X118459777Y12376038D01*
X117202184Y15831246D02*
X119558584Y14732439D01*
X116665459Y14680235D02*
X116103376Y13474846D01*
X118459777Y12376038D02*
X134628308Y4836529D01*
X116103376Y13474846D02*
X117308766Y12912764D01*
%TO.C,U5*%
X89282500Y67296000D02*
X87082500Y67296000D01*
X89282500Y67296000D02*
X91482500Y67296000D01*
X89282500Y60526000D02*
X85682500Y60526000D01*
X89282500Y60526000D02*
X91482500Y60526000D01*
%TO.C,C15*%
X73106000Y28377752D02*
X73106000Y26955248D01*
X71286000Y28377752D02*
X71286000Y26955248D01*
%TO.C,C19*%
X108412000Y63849252D02*
X108412000Y62426748D01*
X106592000Y63849252D02*
X106592000Y62426748D01*
%TO.C,R17*%
X68746000Y26951936D02*
X68746000Y28406064D01*
X70566000Y26951936D02*
X70566000Y28406064D01*
%TO.C,D10*%
X66116000Y25219000D02*
X66116000Y29229000D01*
X68116000Y25219000D02*
X66116000Y25219000D01*
X68116000Y25219000D02*
X68116000Y29229000D01*
%TO.C,J6*%
X90995991Y73252354D02*
X88798376Y77965154D01*
X109520922Y81890671D02*
X90995991Y73252354D01*
X109520922Y81890671D02*
X108422115Y84247071D01*
X106065714Y83148264D02*
X104966907Y85504664D01*
X108422115Y84247071D02*
X106065714Y83148264D01*
X107885389Y85398082D02*
X107323307Y86603472D01*
X104966907Y85504664D02*
X88798376Y77965154D01*
X107323307Y86603472D02*
X106117918Y86041389D01*
%TO.C,D11*%
X81848000Y37702000D02*
X82498000Y37702000D01*
X81848000Y37702000D02*
X81198000Y37702000D01*
X81848000Y40822000D02*
X83523000Y40822000D01*
X81848000Y40822000D02*
X81198000Y40822000D01*
%TO.C,U6*%
X90738000Y28169000D02*
X88538000Y28169000D01*
X90738000Y28169000D02*
X92938000Y28169000D01*
X90738000Y21399000D02*
X87138000Y21399000D01*
X90738000Y21399000D02*
X92938000Y21399000D01*
%TO.C,J15*%
X82215922Y9549329D02*
X80018308Y4836529D01*
X63690991Y18187646D02*
X82215922Y9549329D01*
X63690991Y18187646D02*
X62592184Y15831246D01*
X64948584Y14732439D02*
X63849777Y12376038D01*
X62592184Y15831246D02*
X64948584Y14732439D01*
X62055459Y14680235D02*
X61493376Y13474846D01*
X63849777Y12376038D02*
X80018308Y4836529D01*
X61493376Y13474846D02*
X62698766Y12912764D01*
%TO.C,U4*%
X109534000Y19787000D02*
X107334000Y19787000D01*
X109534000Y19787000D02*
X111734000Y19787000D01*
X109534000Y13017000D02*
X105934000Y13017000D01*
X109534000Y13017000D02*
X111734000Y13017000D01*
%TO.C,C9*%
X94950000Y58515252D02*
X94950000Y57092748D01*
X93130000Y58515252D02*
X93130000Y57092748D01*
%TO.C,U3*%
X113752000Y69810500D02*
X113752000Y72010500D01*
X113752000Y69810500D02*
X113752000Y67610500D01*
X106982000Y69810500D02*
X106982000Y73410500D01*
X106982000Y69810500D02*
X106982000Y67610500D01*
%TO.C,J7*%
X63186000Y50352000D02*
X65846000Y50352000D01*
X63186000Y42672000D02*
X63186000Y50352000D01*
X63186000Y42672000D02*
X65846000Y42672000D01*
X63186000Y41402000D02*
X63186000Y40072000D01*
X63186000Y40072000D02*
X64516000Y40072000D01*
X65846000Y42672000D02*
X65846000Y50352000D01*
%TO.C,U2*%
X127804000Y69810500D02*
X127804000Y72010500D01*
X127804000Y69810500D02*
X127804000Y67610500D01*
X121034000Y69810500D02*
X121034000Y73410500D01*
X121034000Y69810500D02*
X121034000Y67610500D01*
%TO.C,U1*%
X134851000Y26308000D02*
X134851000Y24108000D01*
X134851000Y26308000D02*
X134851000Y28508000D01*
X141621000Y26308000D02*
X141621000Y22708000D01*
X141621000Y26308000D02*
X141621000Y28508000D01*
%TO.C,J16*%
X54910922Y9549329D02*
X52713308Y4836529D01*
X36385991Y18187646D02*
X54910922Y9549329D01*
X36385991Y18187646D02*
X35287184Y15831246D01*
X37643584Y14732439D02*
X36544777Y12376038D01*
X35287184Y15831246D02*
X37643584Y14732439D01*
X34750459Y14680235D02*
X34188376Y13474846D01*
X36544777Y12376038D02*
X52713308Y4836529D01*
X34188376Y13474846D02*
X35393766Y12912764D01*
%TO.C,D5*%
X80245500Y51926000D02*
X80895500Y51926000D01*
X80245500Y51926000D02*
X79595500Y51926000D01*
X80245500Y55046000D02*
X81920500Y55046000D01*
X80245500Y55046000D02*
X79595500Y55046000D01*
%TO.C,J10*%
X26318000Y64373000D02*
X26318000Y74503000D01*
X28638000Y64373000D02*
X28638000Y74503000D01*
X30918000Y64373000D02*
X30918000Y74503000D01*
X33238000Y64373000D02*
X33238000Y74503000D01*
%TO.C,J5*%
X63690991Y73252354D02*
X61493376Y77965154D01*
X82215922Y81890671D02*
X63690991Y73252354D01*
X82215922Y81890671D02*
X81117115Y84247071D01*
X78760714Y83148264D02*
X77661907Y85504664D01*
X81117115Y84247071D02*
X78760714Y83148264D01*
X80580389Y85398082D02*
X80018307Y86603472D01*
X77661907Y85504664D02*
X61493376Y77965154D01*
X80018307Y86603472D02*
X78812918Y86041389D01*
%TO.C,C10*%
X73360000Y58222752D02*
X73360000Y56800248D01*
X71540000Y58222752D02*
X71540000Y56800248D01*
%TO.C,C21*%
X139612000Y32708748D02*
X139612000Y34131252D01*
X141432000Y32708748D02*
X141432000Y34131252D01*
%TO.C,J9*%
X118300991Y73252354D02*
X116103376Y77965154D01*
X136825922Y81890671D02*
X118300991Y73252354D01*
X136825922Y81890671D02*
X135727115Y84247071D01*
X133370714Y83148264D02*
X132271907Y85504664D01*
X135727115Y84247071D02*
X133370714Y83148264D01*
X135190389Y85398082D02*
X134628307Y86603472D01*
X132271907Y85504664D02*
X116103376Y77965154D01*
X134628307Y86603472D02*
X133422918Y86041389D01*
%TD*%
%LPC*%
D12*
%TO.C,RS489-1*%
X88943000Y38206000D03*
D13*
X88943000Y35706000D03*
%TD*%
D12*
%TO.C,RS489-5*%
X88960000Y58820000D03*
D13*
X88960000Y56320000D03*
%TD*%
D14*
%TO.C,J17*%
X76768000Y22244000D03*
D15*
X76768000Y19704000D03*
X74228000Y22244000D03*
X74228000Y19704000D03*
X71688000Y22244000D03*
X71688000Y19704000D03*
X69148000Y22244000D03*
X69148000Y19704000D03*
X66608000Y22244000D03*
X66608000Y19704000D03*
X64068000Y22244000D03*
X64068000Y19704000D03*
X61528000Y22244000D03*
X61528000Y19704000D03*
X58988000Y22244000D03*
X58988000Y19704000D03*
X56448000Y22244000D03*
X56448000Y19704000D03*
X53908000Y22244000D03*
X53908000Y19704000D03*
X51368000Y22244000D03*
X51368000Y19704000D03*
X48828000Y22244000D03*
X48828000Y19704000D03*
X46288000Y22244000D03*
X46288000Y19704000D03*
X43748000Y22244000D03*
X43748000Y19704000D03*
X41208000Y22244000D03*
X41208000Y19704000D03*
X38668000Y22244000D03*
X38668000Y19704000D03*
X36128000Y22244000D03*
X36128000Y19704000D03*
X33588000Y22244000D03*
X33588000Y19704000D03*
X31048000Y22244000D03*
X31048000Y19704000D03*
X28508000Y22244000D03*
X28508000Y19704000D03*
%TD*%
D14*
%TO.C,J2*%
X114270000Y63900000D03*
D15*
X116810000Y63900000D03*
X114270000Y61360000D03*
X116810000Y61360000D03*
X114270000Y58820000D03*
X116810000Y58820000D03*
X114270000Y56280000D03*
X116810000Y56280000D03*
X114270000Y53740000D03*
X116810000Y53740000D03*
X114270000Y51200000D03*
X116810000Y51200000D03*
X114270000Y48660000D03*
X116810000Y48660000D03*
X114270000Y46120000D03*
X116810000Y46120000D03*
X114270000Y43580000D03*
X116810000Y43580000D03*
X114270000Y41040000D03*
X116810000Y41040000D03*
X114270000Y38500000D03*
X116810000Y38500000D03*
X114270000Y35960000D03*
X116810000Y35960000D03*
X114270000Y33420000D03*
X116810000Y33420000D03*
%TD*%
D14*
%TO.C,JP6*%
X98866000Y25292000D03*
D15*
X101406000Y25292000D03*
X103946000Y25292000D03*
%TD*%
D14*
%TO.C,JP4*%
X126716000Y25292000D03*
D15*
X129256000Y25292000D03*
X131796000Y25292000D03*
%TD*%
D14*
%TO.C,JP1*%
X126716000Y29102000D03*
D15*
X129256000Y29102000D03*
X131796000Y29102000D03*
%TD*%
D14*
%TO.C,JP3*%
X98866000Y29102000D03*
D15*
X101406000Y29102000D03*
X103946000Y29102000D03*
%TD*%
D14*
%TO.C,JP5*%
X113090000Y25292000D03*
D15*
X115630000Y25292000D03*
X118170000Y25292000D03*
%TD*%
D16*
%TO.C,REF\u002A\u002A*%
X23560000Y70112000D03*
D17*
X23560000Y70112000D03*
%TD*%
D16*
%TO.C,REF\u002A\u002A*%
X81560000Y21112000D03*
D17*
X81560000Y21112000D03*
%TD*%
D16*
%TO.C,REF\u002A\u002A*%
X23560000Y21112000D03*
D17*
X23560000Y21112000D03*
%TD*%
D14*
%TO.C,JP2*%
X113090000Y29102000D03*
D15*
X115630000Y29102000D03*
X118170000Y29102000D03*
%TD*%
D14*
%TO.C,J3*%
X100300000Y63900000D03*
D15*
X102840000Y63900000D03*
X100300000Y61360000D03*
X102840000Y61360000D03*
X100300000Y58820000D03*
X102840000Y58820000D03*
X100300000Y56280000D03*
X102840000Y56280000D03*
X100300000Y53740000D03*
X102840000Y53740000D03*
X100300000Y51200000D03*
X102840000Y51200000D03*
X100300000Y48660000D03*
X102840000Y48660000D03*
X100300000Y46120000D03*
X102840000Y46120000D03*
X100300000Y43580000D03*
X102840000Y43580000D03*
X100300000Y41040000D03*
X102840000Y41040000D03*
X100300000Y38500000D03*
X102840000Y38500000D03*
X100300000Y35960000D03*
X102840000Y35960000D03*
X100300000Y33420000D03*
X102840000Y33420000D03*
%TD*%
D16*
%TO.C,REF\u002A\u002A*%
X81560000Y70112000D03*
D17*
X81560000Y70112000D03*
%TD*%
D15*
%TO.C,J1*%
X130616000Y33420000D03*
X128076000Y33420000D03*
X130616000Y35960000D03*
X128076000Y35960000D03*
X130616000Y38500000D03*
X128076000Y38500000D03*
X130616000Y41040000D03*
X128076000Y41040000D03*
X130616000Y43580000D03*
X128076000Y43580000D03*
X130616000Y46120000D03*
X128076000Y46120000D03*
X130616000Y48660000D03*
X128076000Y48660000D03*
X130616000Y51200000D03*
X128076000Y51200000D03*
X130616000Y53740000D03*
X128076000Y53740000D03*
X130616000Y56280000D03*
X128076000Y56280000D03*
X130616000Y58820000D03*
X128076000Y58820000D03*
X130616000Y61360000D03*
X128076000Y61360000D03*
X130616000Y63900000D03*
D14*
X128076000Y63900000D03*
%TD*%
D18*
%TO.C,D12*%
X27764000Y59074000D03*
X32064000Y59074000D03*
%TD*%
D19*
%TO.C,C16*%
X112328000Y11868500D03*
X112328000Y8743500D03*
%TD*%
D20*
%TO.C,D4*%
X67370000Y55774000D03*
X67370000Y59074000D03*
%TD*%
D14*
%TO.C,J14*%
X38460000Y28000000D03*
D15*
X41000000Y28000000D03*
%TD*%
D19*
%TO.C,C20*%
X121472000Y64700500D03*
X121472000Y61575500D03*
%TD*%
D14*
%TO.C,J8*%
X71120000Y50165000D03*
D15*
X71120000Y47625000D03*
X71120000Y45085000D03*
X71120000Y42545000D03*
%TD*%
D21*
%TO.C,J4*%
X52070000Y84836000D03*
D22*
X53143450Y82533978D03*
X49767978Y83762550D03*
X50841429Y81460528D03*
X47465956Y82689099D03*
X48539407Y80387077D03*
X45163935Y81615649D03*
X46237385Y79313627D03*
X42861913Y80542198D03*
X43935363Y78240177D03*
X40559891Y79468748D03*
X41633341Y77166726D03*
X38257869Y78395298D03*
X39331320Y76093276D03*
X35955848Y77321847D03*
X37029298Y75019826D03*
%TD*%
D14*
%TO.C,J13*%
X50800000Y29845000D03*
D15*
X53340000Y29845000D03*
%TD*%
D23*
%TO.C,J12*%
X90565848Y14118153D03*
D24*
X91639298Y16420175D03*
X92867870Y13044703D03*
X93941320Y15346724D03*
X95169892Y11971252D03*
X96243342Y14273274D03*
X97471913Y10897802D03*
X98545364Y13199824D03*
X99773935Y9824351D03*
X100847386Y12126373D03*
X102075957Y8750901D03*
X103149407Y11052923D03*
X104377979Y7677451D03*
X105451429Y9979472D03*
X106680000Y6604000D03*
X107753451Y8906022D03*
%TD*%
D25*
%TO.C,R8*%
X69910000Y55974000D03*
X69910000Y59074000D03*
%TD*%
D23*
%TO.C,J11*%
X117870848Y14118153D03*
D24*
X118944298Y16420175D03*
X120172870Y13044703D03*
X121246320Y15346724D03*
X122474892Y11971252D03*
X123548342Y14273274D03*
X124776913Y10897802D03*
X125850364Y13199824D03*
X127078935Y9824351D03*
X128152386Y12126373D03*
X129380957Y8750901D03*
X130454407Y11052923D03*
X131682979Y7677451D03*
X132756429Y9979472D03*
X133985000Y6604000D03*
X135058451Y8906022D03*
%TD*%
D26*
%TO.C,U5*%
X86420000Y60986000D03*
X86420000Y61636000D03*
X86420000Y62286000D03*
X86420000Y62936000D03*
X86420000Y63586000D03*
X86420000Y64236000D03*
X86420000Y64886000D03*
X86420000Y65536000D03*
X86420000Y66186000D03*
X86420000Y66836000D03*
X92145000Y66836000D03*
X92145000Y66186000D03*
X92145000Y65536000D03*
X92145000Y64886000D03*
X92145000Y64236000D03*
X92145000Y63586000D03*
X92145000Y62936000D03*
X92145000Y62286000D03*
X92145000Y61636000D03*
X92145000Y60986000D03*
%TD*%
D19*
%TO.C,C15*%
X72196000Y29229000D03*
X72196000Y26104000D03*
%TD*%
%TO.C,C19*%
X107502000Y64700500D03*
X107502000Y61575500D03*
%TD*%
D25*
%TO.C,R17*%
X69656000Y26129000D03*
X69656000Y29229000D03*
%TD*%
D20*
%TO.C,D10*%
X67116000Y25929000D03*
X67116000Y29229000D03*
%TD*%
D21*
%TO.C,J6*%
X106680000Y84836000D03*
D22*
X107753450Y82533978D03*
X104377978Y83762550D03*
X105451429Y81460528D03*
X102075956Y82689099D03*
X103149407Y80387077D03*
X99773935Y81615649D03*
X100847385Y79313627D03*
X97471913Y80542198D03*
X98545363Y78240177D03*
X95169891Y79468748D03*
X96243341Y77166726D03*
X92867869Y78395298D03*
X93941320Y76093276D03*
X90565848Y77321847D03*
X91639298Y75019826D03*
%TD*%
D27*
%TO.C,D11*%
X82785500Y40212000D03*
X82785500Y38312000D03*
X80910500Y39262000D03*
%TD*%
D26*
%TO.C,U6*%
X87875500Y21859000D03*
X87875500Y22509000D03*
X87875500Y23159000D03*
X87875500Y23809000D03*
X87875500Y24459000D03*
X87875500Y25109000D03*
X87875500Y25759000D03*
X87875500Y26409000D03*
X87875500Y27059000D03*
X87875500Y27709000D03*
X93600500Y27709000D03*
X93600500Y27059000D03*
X93600500Y26409000D03*
X93600500Y25759000D03*
X93600500Y25109000D03*
X93600500Y24459000D03*
X93600500Y23809000D03*
X93600500Y23159000D03*
X93600500Y22509000D03*
X93600500Y21859000D03*
%TD*%
D23*
%TO.C,J15*%
X63260848Y14118153D03*
D24*
X64334298Y16420175D03*
X65562870Y13044703D03*
X66636320Y15346724D03*
X67864892Y11971252D03*
X68938342Y14273274D03*
X70166913Y10897802D03*
X71240364Y13199824D03*
X72468935Y9824351D03*
X73542386Y12126373D03*
X74770957Y8750901D03*
X75844407Y11052923D03*
X77072979Y7677451D03*
X78146429Y9979472D03*
X79375000Y6604000D03*
X80448451Y8906022D03*
%TD*%
D26*
%TO.C,U4*%
X106671500Y13477000D03*
X106671500Y14127000D03*
X106671500Y14777000D03*
X106671500Y15427000D03*
X106671500Y16077000D03*
X106671500Y16727000D03*
X106671500Y17377000D03*
X106671500Y18027000D03*
X106671500Y18677000D03*
X106671500Y19327000D03*
X112396500Y19327000D03*
X112396500Y18677000D03*
X112396500Y18027000D03*
X112396500Y17377000D03*
X112396500Y16727000D03*
X112396500Y16077000D03*
X112396500Y15427000D03*
X112396500Y14777000D03*
X112396500Y14127000D03*
X112396500Y13477000D03*
%TD*%
D19*
%TO.C,C9*%
X94040000Y59366500D03*
X94040000Y56241500D03*
%TD*%
D28*
%TO.C,U3*%
X107442000Y72673000D03*
X108092000Y72673000D03*
X108742000Y72673000D03*
X109392000Y72673000D03*
X110042000Y72673000D03*
X110692000Y72673000D03*
X111342000Y72673000D03*
X111992000Y72673000D03*
X112642000Y72673000D03*
X113292000Y72673000D03*
X113292000Y66948000D03*
X112642000Y66948000D03*
X111992000Y66948000D03*
X111342000Y66948000D03*
X110692000Y66948000D03*
X110042000Y66948000D03*
X109392000Y66948000D03*
X108742000Y66948000D03*
X108092000Y66948000D03*
X107442000Y66948000D03*
%TD*%
D14*
%TO.C,J7*%
X64516000Y41402000D03*
D15*
X64516000Y43942000D03*
X64516000Y46482000D03*
X64516000Y49022000D03*
%TD*%
D28*
%TO.C,U2*%
X121494000Y72673000D03*
X122144000Y72673000D03*
X122794000Y72673000D03*
X123444000Y72673000D03*
X124094000Y72673000D03*
X124744000Y72673000D03*
X125394000Y72673000D03*
X126044000Y72673000D03*
X126694000Y72673000D03*
X127344000Y72673000D03*
X127344000Y66948000D03*
X126694000Y66948000D03*
X126044000Y66948000D03*
X125394000Y66948000D03*
X124744000Y66948000D03*
X124094000Y66948000D03*
X123444000Y66948000D03*
X122794000Y66948000D03*
X122144000Y66948000D03*
X121494000Y66948000D03*
%TD*%
D29*
%TO.C,U1*%
X141161000Y23445500D03*
X140511000Y23445500D03*
X139861000Y23445500D03*
X139211000Y23445500D03*
X138561000Y23445500D03*
X137911000Y23445500D03*
X137261000Y23445500D03*
X136611000Y23445500D03*
X135961000Y23445500D03*
X135311000Y23445500D03*
X135311000Y29170500D03*
X135961000Y29170500D03*
X136611000Y29170500D03*
X137261000Y29170500D03*
X137911000Y29170500D03*
X138561000Y29170500D03*
X139211000Y29170500D03*
X139861000Y29170500D03*
X140511000Y29170500D03*
X141161000Y29170500D03*
%TD*%
D23*
%TO.C,J16*%
X35955848Y14118153D03*
D24*
X37029298Y16420175D03*
X38257870Y13044703D03*
X39331320Y15346724D03*
X40559892Y11971252D03*
X41633342Y14273274D03*
X42861913Y10897802D03*
X43935364Y13199824D03*
X45163935Y9824351D03*
X46237386Y12126373D03*
X47465957Y8750901D03*
X48539407Y11052923D03*
X49767979Y7677451D03*
X50841429Y9979472D03*
X52070000Y6604000D03*
X53143451Y8906022D03*
%TD*%
D27*
%TO.C,D5*%
X81183000Y54436000D03*
X81183000Y52536000D03*
X79308000Y53486000D03*
%TD*%
D30*
%TO.C,J10*%
X27478000Y75663000D03*
X32078000Y75663000D03*
D31*
X27478000Y63063000D03*
D32*
X32078000Y63063000D03*
%TD*%
D21*
%TO.C,J5*%
X79375000Y84836000D03*
D22*
X80448450Y82533978D03*
X77072978Y83762550D03*
X78146429Y81460528D03*
X74770956Y82689099D03*
X75844407Y80387077D03*
X72468935Y81615649D03*
X73542385Y79313627D03*
X70166913Y80542198D03*
X71240363Y78240177D03*
X67864891Y79468748D03*
X68938341Y77166726D03*
X65562869Y78395298D03*
X66636320Y76093276D03*
X63260848Y77321847D03*
X64334298Y75019826D03*
%TD*%
D19*
%TO.C,C10*%
X72450000Y59074000D03*
X72450000Y55949000D03*
%TD*%
D33*
%TO.C,C21*%
X140522000Y31857500D03*
X140522000Y34982500D03*
%TD*%
D21*
%TO.C,J9*%
X133985000Y84836000D03*
D22*
X135058450Y82533978D03*
X131682978Y83762550D03*
X132756429Y81460528D03*
X129380956Y82689099D03*
X130454407Y80387077D03*
X127078935Y81615649D03*
X128152385Y79313627D03*
X124776913Y80542198D03*
X125850363Y78240177D03*
X122474891Y79468748D03*
X123548341Y77166726D03*
X120172869Y78395298D03*
X121246320Y76093276D03*
X117870848Y77321847D03*
X118944298Y75019826D03*
%TD*%
%LPD*%
M02*
