M48
; DRILL file {KiCad 7.0.7} date Fri Oct 13 23:08:25 2023
; FORMAT={-:-/ absolute / inch / decimal}
; #@! TF.CreationDate,2023-10-13T23:08:25+02:00
; #@! TF.GenerationSoftware,Kicad,Pcbnew,7.0.7
; #@! TF.FileFunction,Plated,1,2,PTH
FMAT,2
INCH
; #@! TA.AperFunction,Plated,PTH,ViaDrill
T1C0.0157
; #@! TA.AperFunction,Plated,PTH,ComponentDrill
T2C0.0394
; #@! TA.AperFunction,Plated,PTH,ComponentDrill
T3C0.0433
; #@! TA.AperFunction,Plated,PTH,ComponentDrill
T4C0.1063
%
G90
G05
T1
X0.9224Y1.8557
X0.9424Y1.0757
X1.0924Y0.5457
X1.1924Y1.0757
X1.3772Y2.3109
X1.3924Y1.8857
X1.4124Y2.7457
X1.4324Y1.7857
X1.4524Y1.9157
X1.4824Y1.8857
X1.6324Y2.5857
X1.9624Y2.3957
X1.9624Y0.5257
X2.0324Y3.1557
X2.0324Y0.5057
X2.0424Y2.6957
X2.1224Y0.4557
X2.2324Y2.2357
X2.2524Y1.7257
X2.2524Y1.5857
X2.2624Y2.0257
X2.2724Y1.8857
X2.3024Y1.4557
X2.3124Y2.6157
X2.3524Y0.9957
X2.4624Y2.4957
X2.4624Y1.3107
X2.5324Y1.0207
X2.5424Y2.1957
X2.6124Y2.6057
X2.6224Y1.4557
X2.9124Y2.3057
X2.9224Y2.1857
X2.9424Y2.6157
X2.9624Y1.5457
X3.0024Y2.3957
X3.0424Y2.3957
X3.1024Y3.1557
X3.1424Y0.9457
X3.1924Y2.1957
X3.1924Y2.0157
X3.2324Y1.6357
X3.2324Y1.4557
X3.3724Y1.1057
X3.3724Y1.0657
X3.3724Y1.0257
X3.3724Y0.9857
X3.3724Y0.9457
X3.3724Y0.9057
X3.5024Y2.5857
X3.5024Y2.4857
X3.5464Y2.6572
X3.5924Y1.0557
X3.5924Y0.8557
X3.6125Y2.6856
X3.6324Y0.8857
X4.1824Y3.1557
X4.1924Y2.7157
X4.1924Y2.6357
X4.2598Y1.3257
X4.2624Y0.9957
X4.2624Y0.8057
X4.2924Y0.8357
X4.7424Y2.7157
X4.7424Y2.6357
X4.7424Y1.1457
X4.7424Y0.9957
X4.8124Y0.6557
X4.8724Y1.4657
X4.9524Y1.6657
X5.2424Y3.1457
X5.2824Y1.1457
X5.2824Y0.9957
X5.5224Y0.9957
X5.5624Y0.9957
T2
X1.1224Y0.8757
X1.1224Y0.7757
X1.2224Y0.8757
X1.2224Y0.7757
X1.3224Y0.8757
X1.3224Y0.7757
X1.4156Y3.0442
X1.4156Y0.5558
X1.4224Y0.8757
X1.4224Y0.7757
X1.4578Y2.9535
X1.4578Y0.6465
X1.5062Y3.0864
X1.5062Y0.5136
X1.5142Y1.1024
X1.5224Y0.8757
X1.5224Y0.7757
X1.5485Y2.9958
X1.5485Y0.6042
X1.5968Y3.1287
X1.5968Y0.4713
X1.6142Y1.1024
X1.6224Y0.8757
X1.6224Y0.7757
X1.6391Y3.0381
X1.6391Y0.5619
X1.6875Y3.171
X1.6875Y0.429
X1.7224Y0.8757
X1.7224Y0.7757
X1.7297Y3.0803
X1.7297Y0.5197
X1.7781Y3.2132
X1.7781Y0.3868
X1.8204Y3.1226
X1.8204Y0.4774
X1.8224Y0.8757
X1.8224Y0.7757
X1.8687Y3.2555
X1.8687Y0.3445
X1.911Y3.1648
X1.911Y0.4352
X1.9224Y0.8757
X1.9224Y0.7757
X1.9594Y3.2977
X1.9594Y0.3023
X2.0Y1.175
X2.0016Y3.2071
X2.0016Y0.3929
X2.0224Y0.8757
X2.0224Y0.7757
X2.05Y3.34
X2.05Y0.26
X2.0923Y3.2494
X2.0923Y0.3506
X2.1Y1.175
X2.1224Y0.8757
X2.1224Y0.7757
X2.2224Y0.8757
X2.2224Y0.7757
X2.3224Y0.8757
X2.3224Y0.7757
X2.4224Y0.8757
X2.4224Y0.7757
X2.4906Y3.0442
X2.4906Y0.5558
X2.5224Y0.8757
X2.5224Y0.7757
X2.5328Y2.9535
X2.5328Y0.6465
X2.54Y1.93
X2.54Y1.83
X2.54Y1.73
X2.54Y1.63
X2.5812Y3.0864
X2.5812Y0.5136
X2.6224Y0.8757
X2.6224Y0.7757
X2.6235Y2.9958
X2.6235Y0.6042
X2.6718Y3.1287
X2.6718Y0.4713
X2.7141Y3.0381
X2.7141Y0.5619
X2.7224Y0.8757
X2.7224Y0.7757
X2.7625Y3.171
X2.7625Y0.429
X2.8Y1.975
X2.8Y1.875
X2.8Y1.775
X2.8Y1.675
X2.8047Y3.0803
X2.8047Y0.5197
X2.8224Y0.8757
X2.8224Y0.7757
X2.8531Y3.2132
X2.8531Y0.3868
X2.8954Y3.1226
X2.8954Y0.4774
X2.9224Y0.8757
X2.9224Y0.7757
X2.9437Y3.2555
X2.9437Y0.3445
X2.986Y3.1648
X2.986Y0.4352
X3.0224Y0.8757
X3.0224Y0.7757
X3.0344Y3.2977
X3.0344Y0.3023
X3.0766Y3.2071
X3.0766Y0.3929
X3.125Y3.34
X3.125Y0.26
X3.1673Y3.2494
X3.1673Y0.3506
X3.5017Y1.5042
X3.5017Y1.4057
X3.5024Y2.3157
X3.5024Y2.2173
X3.5656Y3.0442
X3.5656Y0.5558
X3.6078Y2.9535
X3.6078Y0.6465
X3.6562Y3.0864
X3.6562Y0.5136
X3.6985Y2.9958
X3.6985Y0.6042
X3.7468Y3.1287
X3.7468Y0.4713
X3.7891Y3.0381
X3.7891Y0.5619
X3.8375Y3.171
X3.8375Y0.429
X3.8797Y3.0803
X3.8797Y0.5197
X3.8924Y1.1457
X3.8924Y0.9957
X3.9281Y3.2132
X3.9281Y0.3868
X3.9488Y2.5157
X3.9488Y2.4157
X3.9488Y2.3157
X3.9488Y2.2157
X3.9488Y2.1157
X3.9488Y2.0157
X3.9488Y1.9157
X3.9488Y1.8157
X3.9488Y1.7157
X3.9488Y1.6157
X3.9488Y1.5157
X3.9488Y1.4157
X3.9488Y1.3157
X3.9704Y3.1226
X3.9704Y0.4774
X3.9924Y1.1457
X3.9924Y0.9957
X4.0187Y3.2555
X4.0187Y0.3445
X4.0488Y2.5157
X4.0488Y2.4157
X4.0488Y2.3157
X4.0488Y2.2157
X4.0488Y2.1157
X4.0488Y2.0157
X4.0488Y1.9157
X4.0488Y1.8157
X4.0488Y1.7157
X4.0488Y1.6157
X4.0488Y1.5157
X4.0488Y1.4157
X4.0488Y1.3157
X4.061Y3.1648
X4.061Y0.4352
X4.0924Y1.1457
X4.0924Y0.9957
X4.1094Y3.2977
X4.1094Y0.3023
X4.1516Y3.2071
X4.1516Y0.3929
X4.2Y3.34
X4.2Y0.26
X4.2423Y3.2494
X4.2423Y0.3506
X4.4524Y1.1457
X4.4524Y0.9957
X4.4988Y2.5157
X4.4988Y2.4157
X4.4988Y2.3157
X4.4988Y2.2157
X4.4988Y2.1157
X4.4988Y2.0157
X4.4988Y1.9157
X4.4988Y1.8157
X4.4988Y1.7157
X4.4988Y1.6157
X4.4988Y1.5157
X4.4988Y1.4157
X4.4988Y1.3157
X4.5524Y1.1457
X4.5524Y0.9957
X4.5988Y2.5157
X4.5988Y2.4157
X4.5988Y2.3157
X4.5988Y2.2157
X4.5988Y2.1157
X4.5988Y2.0157
X4.5988Y1.9157
X4.5988Y1.8157
X4.5988Y1.7157
X4.5988Y1.6157
X4.5988Y1.5157
X4.5988Y1.4157
X4.5988Y1.3157
X4.6406Y3.0442
X4.6406Y0.5558
X4.6524Y1.1457
X4.6524Y0.9957
X4.6828Y2.9535
X4.6828Y0.6465
X4.7312Y3.0864
X4.7312Y0.5136
X4.7735Y2.9958
X4.7735Y0.6042
X4.8218Y3.1287
X4.8218Y0.4713
X4.8641Y3.0381
X4.8641Y0.5619
X4.9125Y3.171
X4.9125Y0.429
X4.9547Y3.0803
X4.9547Y0.5197
X4.9888Y1.1457
X4.9888Y0.9957
X5.0031Y3.2132
X5.0031Y0.3868
X5.0424Y2.5157
X5.0424Y2.4157
X5.0424Y2.3157
X5.0424Y2.2157
X5.0424Y2.1157
X5.0424Y2.0157
X5.0424Y1.9157
X5.0424Y1.8157
X5.0424Y1.7157
X5.0424Y1.6157
X5.0424Y1.5157
X5.0424Y1.4157
X5.0424Y1.3157
X5.0454Y3.1226
X5.0454Y0.4774
X5.0888Y1.1457
X5.0888Y0.9957
X5.0937Y3.2555
X5.0937Y0.3445
X5.136Y3.1648
X5.136Y0.4352
X5.1424Y2.5157
X5.1424Y2.4157
X5.1424Y2.3157
X5.1424Y2.2157
X5.1424Y2.1157
X5.1424Y2.0157
X5.1424Y1.9157
X5.1424Y1.8157
X5.1424Y1.7157
X5.1424Y1.6157
X5.1424Y1.5157
X5.1424Y1.4157
X5.1424Y1.3157
X5.1844Y3.2977
X5.1844Y0.3023
X5.1888Y1.1457
X5.1888Y0.9957
X5.2266Y3.2071
X5.2266Y0.3929
X5.275Y3.34
X5.275Y0.26
X5.3173Y3.2494
X5.3173Y0.3506
T3
X1.0818Y2.4828
X1.2629Y2.4828
T4
X0.9276Y2.7603
X0.9276Y0.8312
X3.211Y2.7603
X3.211Y0.8312
T0
M30
