%TF.GenerationSoftware,KiCad,Pcbnew,7.0.7*%
%TF.CreationDate,2023-10-13T23:08:25+02:00*%
%TF.ProjectId,LITEXCNC-HUB75HAT,4c495445-5843-44e4-932d-485542373548,rev?*%
%TF.SameCoordinates,Original*%
%TF.FileFunction,Paste,Top*%
%TF.FilePolarity,Positive*%
%FSLAX46Y46*%
G04 Gerber Fmt 4.6, Leading zero omitted, Abs format (unit mm)*
G04 Created by KiCad (PCBNEW 7.0.7) date 2023-10-13 23:08:25*
%MOMM*%
%LPD*%
G01*
G04 APERTURE LIST*
G04 Aperture macros list*
%AMRoundRect*
0 Rectangle with rounded corners*
0 $1 Rounding radius*
0 $2 $3 $4 $5 $6 $7 $8 $9 X,Y pos of 4 corners*
0 Add a 4 corners polygon primitive as box body*
4,1,4,$2,$3,$4,$5,$6,$7,$8,$9,$2,$3,0*
0 Add four circle primitives for the rounded corners*
1,1,$1+$1,$2,$3*
1,1,$1+$1,$4,$5*
1,1,$1+$1,$6,$7*
1,1,$1+$1,$8,$9*
0 Add four rect primitives between the rounded corners*
20,1,$1+$1,$2,$3,$4,$5,0*
20,1,$1+$1,$4,$5,$6,$7,0*
20,1,$1+$1,$6,$7,$8,$9,0*
20,1,$1+$1,$8,$9,$2,$3,0*%
G04 Aperture macros list end*
%ADD10RoundRect,0.250001X0.462499X0.624999X-0.462499X0.624999X-0.462499X-0.624999X0.462499X-0.624999X0*%
%ADD11R,0.900000X0.900000*%
%ADD12RoundRect,0.250000X-0.400000X-1.450000X0.400000X-1.450000X0.400000X1.450000X-0.400000X1.450000X0*%
%ADD13RoundRect,0.250000X-0.625000X0.400000X-0.625000X-0.400000X0.625000X-0.400000X0.625000X0.400000X0*%
%ADD14RoundRect,0.250000X1.450000X-0.400000X1.450000X0.400000X-1.450000X0.400000X-1.450000X-0.400000X0*%
%ADD15RoundRect,0.250000X-0.400000X-0.625000X0.400000X-0.625000X0.400000X0.625000X-0.400000X0.625000X0*%
%ADD16RoundRect,0.250000X0.412500X0.650000X-0.412500X0.650000X-0.412500X-0.650000X0.412500X-0.650000X0*%
%ADD17RoundRect,0.250001X0.624999X-0.462499X0.624999X0.462499X-0.624999X0.462499X-0.624999X-0.462499X0*%
%ADD18RoundRect,0.250000X0.400000X0.625000X-0.400000X0.625000X-0.400000X-0.625000X0.400000X-0.625000X0*%
%ADD19RoundRect,0.250000X0.650000X-0.412500X0.650000X0.412500X-0.650000X0.412500X-0.650000X-0.412500X0*%
%ADD20RoundRect,0.250000X-0.650000X0.412500X-0.650000X-0.412500X0.650000X-0.412500X0.650000X0.412500X0*%
%ADD21RoundRect,0.250000X0.400000X1.450000X-0.400000X1.450000X-0.400000X-1.450000X0.400000X-1.450000X0*%
%ADD22RoundRect,0.150000X-0.825000X-0.150000X0.825000X-0.150000X0.825000X0.150000X-0.825000X0.150000X0*%
%ADD23RoundRect,0.100000X0.100000X-0.637500X0.100000X0.637500X-0.100000X0.637500X-0.100000X-0.637500X0*%
G04 APERTURE END LIST*
D10*
%TO.C,TX*%
X90447500Y65678000D03*
X87472500Y65678000D03*
%TD*%
D11*
%TO.C,RN9*%
X94064000Y59575000D03*
X94064000Y58235000D03*
X94064000Y56915000D03*
X94064000Y55575000D03*
X97064000Y55575000D03*
X97064000Y56915000D03*
X97064000Y58235000D03*
X97064000Y59575000D03*
%TD*%
D12*
%TO.C,F3*%
X79430000Y41548000D03*
X83880000Y41548000D03*
%TD*%
%TO.C,F1*%
X79369000Y55772000D03*
X83819000Y55772000D03*
%TD*%
D11*
%TO.C,RN11*%
X94064000Y39287000D03*
X94064000Y37947000D03*
X94064000Y36627000D03*
X94064000Y35287000D03*
X97064000Y35287000D03*
X97064000Y36627000D03*
X97064000Y37947000D03*
X97064000Y39287000D03*
%TD*%
D13*
%TO.C,R11*%
X77022000Y55036000D03*
X77022000Y51936000D03*
%TD*%
D14*
%TO.C,F7*%
X94802000Y27324000D03*
X94802000Y31774000D03*
%TD*%
D10*
%TO.C,TX*%
X90447500Y31388000D03*
X87472500Y31388000D03*
%TD*%
D11*
%TO.C,RN12*%
X94064000Y69678000D03*
X94064000Y68338000D03*
X94064000Y67018000D03*
X94064000Y65678000D03*
X97064000Y65678000D03*
X97064000Y67018000D03*
X97064000Y68338000D03*
X97064000Y69678000D03*
%TD*%
D15*
%TO.C,R6*%
X53628000Y66948000D03*
X56728000Y66948000D03*
%TD*%
D16*
%TO.C,C13*%
X64360500Y36976000D03*
X61235500Y36976000D03*
%TD*%
%TO.C,C14*%
X72196000Y36976000D03*
X69071000Y36976000D03*
%TD*%
D11*
%TO.C,RN3*%
X122122500Y39287000D03*
X122122500Y37947000D03*
X122122500Y36627000D03*
X122122500Y35287000D03*
X125122500Y35287000D03*
X125122500Y36627000D03*
X125122500Y37947000D03*
X125122500Y39287000D03*
%TD*%
%TO.C,RN5*%
X108198000Y59575000D03*
X108198000Y58235000D03*
X108198000Y56915000D03*
X108198000Y55575000D03*
X111198000Y55575000D03*
X111198000Y56915000D03*
X111198000Y58235000D03*
X111198000Y59575000D03*
%TD*%
D15*
%TO.C,R16*%
X53374000Y37103000D03*
X56474000Y37103000D03*
%TD*%
D17*
%TO.C,D1*%
X5140000Y11358500D03*
X5140000Y14333500D03*
%TD*%
D15*
%TO.C,R14*%
X81060000Y28848000D03*
X84160000Y28848000D03*
%TD*%
D10*
%TO.C,RX*%
X90447500Y63138000D03*
X87472500Y63138000D03*
%TD*%
D15*
%TO.C,R5*%
X88908000Y69742000D03*
X92008000Y69742000D03*
%TD*%
D18*
%TO.C,R19*%
X80096000Y33674000D03*
X76996000Y33674000D03*
%TD*%
D19*
%TO.C,C6*%
X106142000Y40747500D03*
X106142000Y43872500D03*
%TD*%
D20*
%TO.C,C8*%
X44510000Y30410500D03*
X44510000Y27285500D03*
%TD*%
D19*
%TO.C,C1*%
X134082000Y40493500D03*
X134082000Y43618500D03*
%TD*%
%TO.C,C3*%
X120112000Y33889500D03*
X120112000Y37014500D03*
%TD*%
D11*
%TO.C,RN10*%
X94064000Y49415000D03*
X94064000Y48075000D03*
X94064000Y46755000D03*
X94064000Y45415000D03*
X97064000Y45415000D03*
X97064000Y46755000D03*
X97064000Y48075000D03*
X97064000Y49415000D03*
%TD*%
%TO.C,RN8*%
X108198000Y69678000D03*
X108198000Y68338000D03*
X108198000Y67018000D03*
X108198000Y65678000D03*
X111198000Y65678000D03*
X111198000Y67018000D03*
X111198000Y68338000D03*
X111198000Y69678000D03*
%TD*%
D18*
%TO.C,R10*%
X80096000Y47898000D03*
X76996000Y47898000D03*
%TD*%
D20*
%TO.C,C7*%
X47304000Y30410500D03*
X47304000Y27285500D03*
%TD*%
D13*
%TO.C,R21*%
X77022000Y40812000D03*
X77022000Y37712000D03*
%TD*%
D15*
%TO.C,R18*%
X53374000Y34563000D03*
X56474000Y34563000D03*
%TD*%
D17*
%TO.C,D2*%
X8696000Y11358500D03*
X8696000Y14333500D03*
%TD*%
D21*
%TO.C,F4*%
X83880000Y36976000D03*
X79430000Y36976000D03*
%TD*%
D16*
%TO.C,C12*%
X72704000Y66948000D03*
X69579000Y66948000D03*
%TD*%
D22*
%TO.C,U9*%
X59626000Y64662000D03*
X59626000Y63392000D03*
X59626000Y62122000D03*
X59626000Y60852000D03*
X59626000Y59582000D03*
X59626000Y58312000D03*
X59626000Y57042000D03*
X64576000Y57042000D03*
X64576000Y58312000D03*
X64576000Y59582000D03*
X64576000Y60852000D03*
X64576000Y62122000D03*
X64576000Y63392000D03*
X64576000Y64662000D03*
%TD*%
D15*
%TO.C,R13*%
X81060000Y64662000D03*
X84160000Y64662000D03*
%TD*%
D21*
%TO.C,F2*%
X83819000Y51200000D03*
X79369000Y51200000D03*
%TD*%
D19*
%TO.C,C2*%
X134082000Y33381500D03*
X134082000Y36506500D03*
%TD*%
D22*
%TO.C,U11*%
X59372000Y34690000D03*
X59372000Y33420000D03*
X59372000Y32150000D03*
X59372000Y30880000D03*
X59372000Y29610000D03*
X59372000Y28340000D03*
X59372000Y27070000D03*
X64322000Y27070000D03*
X64322000Y28340000D03*
X64322000Y29610000D03*
X64322000Y30880000D03*
X64322000Y32150000D03*
X64322000Y33420000D03*
X64322000Y34690000D03*
%TD*%
D15*
%TO.C,R12*%
X81060000Y62122000D03*
X84160000Y62122000D03*
%TD*%
%TO.C,R7*%
X53628000Y64408000D03*
X56728000Y64408000D03*
%TD*%
D20*
%TO.C,C18*%
X33080000Y55810500D03*
X33080000Y52685500D03*
%TD*%
D13*
%TO.C,R2*%
X8696000Y22524000D03*
X8696000Y19424000D03*
%TD*%
D14*
%TO.C,F5*%
X122742000Y27385000D03*
X122742000Y31835000D03*
%TD*%
D11*
%TO.C,RN6*%
X108198000Y49415000D03*
X108198000Y48075000D03*
X108198000Y46755000D03*
X108198000Y45415000D03*
X111198000Y45415000D03*
X111198000Y46755000D03*
X111198000Y48075000D03*
X111198000Y49415000D03*
%TD*%
D19*
%TO.C,C17*%
X89722000Y21697500D03*
X89722000Y24822500D03*
%TD*%
D11*
%TO.C,RN7*%
X108198000Y39287000D03*
X108198000Y37947000D03*
X108198000Y36627000D03*
X108198000Y35287000D03*
X111198000Y35287000D03*
X111198000Y36627000D03*
X111198000Y37947000D03*
X111198000Y39287000D03*
%TD*%
%TO.C,RN4*%
X122144000Y69678000D03*
X122144000Y68338000D03*
X122144000Y67018000D03*
X122144000Y65678000D03*
X125144000Y65678000D03*
X125144000Y67018000D03*
X125144000Y68338000D03*
X125144000Y69678000D03*
%TD*%
D15*
%TO.C,R15*%
X81060000Y31388000D03*
X84160000Y31388000D03*
%TD*%
D14*
%TO.C,F6*%
X109026000Y27385000D03*
X109026000Y31835000D03*
%TD*%
D15*
%TO.C,R3*%
X116112000Y70250000D03*
X119212000Y70250000D03*
%TD*%
D11*
%TO.C,RN1*%
X122170500Y59575000D03*
X122170500Y58235000D03*
X122170500Y56915000D03*
X122170500Y55575000D03*
X125170500Y55575000D03*
X125170500Y56915000D03*
X125170500Y58235000D03*
X125170500Y59575000D03*
%TD*%
D13*
%TO.C,R1*%
X5140000Y22524000D03*
X5140000Y19424000D03*
%TD*%
D19*
%TO.C,C5*%
X106142000Y33889500D03*
X106142000Y37014500D03*
%TD*%
%TO.C,C4*%
X120112000Y40493500D03*
X120112000Y43618500D03*
%TD*%
D15*
%TO.C,R9*%
X76996000Y59074000D03*
X80096000Y59074000D03*
%TD*%
D10*
%TO.C,RX*%
X90447500Y28848000D03*
X87472500Y28848000D03*
%TD*%
D15*
%TO.C,R4*%
X101888000Y70250000D03*
X104988000Y70250000D03*
%TD*%
%TO.C,R20*%
X76996000Y44850000D03*
X80096000Y44850000D03*
%TD*%
D22*
%TO.C,U12*%
X67181000Y34690000D03*
X67181000Y33420000D03*
X67181000Y32150000D03*
X67181000Y30880000D03*
X72131000Y30880000D03*
X72131000Y32150000D03*
X72131000Y33420000D03*
X72131000Y34690000D03*
%TD*%
D23*
%TO.C,U8*%
X34981000Y50877500D03*
X35631000Y50877500D03*
X36281000Y50877500D03*
X36931000Y50877500D03*
X37581000Y50877500D03*
X38231000Y50877500D03*
X38881000Y50877500D03*
X39531000Y50877500D03*
X40181000Y50877500D03*
X40831000Y50877500D03*
X40831000Y56602500D03*
X40181000Y56602500D03*
X39531000Y56602500D03*
X38881000Y56602500D03*
X38231000Y56602500D03*
X37581000Y56602500D03*
X36931000Y56602500D03*
X36281000Y56602500D03*
X35631000Y56602500D03*
X34981000Y56602500D03*
%TD*%
D11*
%TO.C,RN2*%
X122146500Y49415000D03*
X122146500Y48075000D03*
X122146500Y46755000D03*
X122146500Y45415000D03*
X125146500Y45415000D03*
X125146500Y46755000D03*
X125146500Y48075000D03*
X125146500Y49415000D03*
%TD*%
D16*
%TO.C,C11*%
X64576000Y66948000D03*
X61451000Y66948000D03*
%TD*%
D22*
%TO.C,U10*%
X67754000Y64662000D03*
X67754000Y63392000D03*
X67754000Y62122000D03*
X67754000Y60852000D03*
X72704000Y60852000D03*
X72704000Y62122000D03*
X72704000Y63392000D03*
X72704000Y64662000D03*
%TD*%
M02*
