%TF.GenerationSoftware,KiCad,Pcbnew,7.0.7*%
%TF.CreationDate,2023-11-11T20:47:19+01:00*%
%TF.ProjectId,LITEXCNC-HUB75HAT,4c495445-5843-44e4-932d-485542373548,rev?*%
%TF.SameCoordinates,Original*%
%TF.FileFunction,Soldermask,Bot*%
%TF.FilePolarity,Negative*%
%FSLAX46Y46*%
G04 Gerber Fmt 4.6, Leading zero omitted, Abs format (unit mm)*
G04 Created by KiCad (PCBNEW 7.0.7) date 2023-11-11 20:47:19*
%MOMM*%
%LPD*%
G01*
G04 APERTURE LIST*
G04 Aperture macros list*
%AMRoundRect*
0 Rectangle with rounded corners*
0 $1 Rounding radius*
0 $2 $3 $4 $5 $6 $7 $8 $9 X,Y pos of 4 corners*
0 Add a 4 corners polygon primitive as box body*
4,1,4,$2,$3,$4,$5,$6,$7,$8,$9,$2,$3,0*
0 Add four circle primitives for the rounded corners*
1,1,$1+$1,$2,$3*
1,1,$1+$1,$4,$5*
1,1,$1+$1,$6,$7*
1,1,$1+$1,$8,$9*
0 Add four rect primitives between the rounded corners*
20,1,$1+$1,$2,$3,$4,$5,0*
20,1,$1+$1,$4,$5,$6,$7,0*
20,1,$1+$1,$6,$7,$8,$9,0*
20,1,$1+$1,$8,$9,$2,$3,0*%
%AMHorizOval*
0 Thick line with rounded ends*
0 $1 width*
0 $2 $3 position (X,Y) of the first rounded end (center of the circle)*
0 $4 $5 position (X,Y) of the second rounded end (center of the circle)*
0 Add line between two ends*
20,1,$1,$2,$3,$4,$5,0*
0 Add two circle primitives to create the rounded ends*
1,1,$1,$2,$3*
1,1,$1,$4,$5*%
%AMRotRect*
0 Rectangle, with rotation*
0 The origin of the aperture is its center*
0 $1 length*
0 $2 width*
0 $3 Rotation angle, in degrees counterclockwise*
0 Add horizontal line*
21,1,$1,$2,0,0,$3*%
G04 Aperture macros list end*
%ADD10R,1.700000X1.700000*%
%ADD11O,1.700000X1.700000*%
%ADD12RoundRect,0.250000X-0.600000X-0.600000X0.600000X-0.600000X0.600000X0.600000X-0.600000X0.600000X0*%
%ADD13C,1.700000*%
%ADD14RoundRect,0.250000X0.750000X-0.600000X0.750000X0.600000X-0.750000X0.600000X-0.750000X-0.600000X0*%
%ADD15O,2.000000X1.700000*%
%ADD16C,3.100000*%
%ADD17C,4.700000*%
%ADD18RoundRect,0.250000X-1.000000X-0.900000X1.000000X-0.900000X1.000000X0.900000X-1.000000X0.900000X0*%
%ADD19RoundRect,0.250000X-0.650000X0.412500X-0.650000X-0.412500X0.650000X-0.412500X0.650000X0.412500X0*%
%ADD20RoundRect,0.225000X0.375000X-0.225000X0.375000X0.225000X-0.375000X0.225000X-0.375000X-0.225000X0*%
%ADD21RotRect,1.700000X1.700000X115.000000*%
%ADD22HorizOval,1.700000X0.000000X0.000000X0.000000X0.000000X0*%
%ADD23RotRect,1.700000X1.700000X245.000000*%
%ADD24HorizOval,1.700000X0.000000X0.000000X0.000000X0.000000X0*%
%ADD25RoundRect,0.250000X-0.400000X-0.625000X0.400000X-0.625000X0.400000X0.625000X-0.400000X0.625000X0*%
%ADD26RoundRect,0.250000X-0.412500X-0.650000X0.412500X-0.650000X0.412500X0.650000X-0.412500X0.650000X0*%
%ADD27RoundRect,0.250000X0.625000X-0.400000X0.625000X0.400000X-0.625000X0.400000X-0.625000X-0.400000X0*%
%ADD28RoundRect,0.250000X0.650000X-0.412500X0.650000X0.412500X-0.650000X0.412500X-0.650000X-0.412500X0*%
%ADD29RoundRect,0.100000X-0.637500X-0.100000X0.637500X-0.100000X0.637500X0.100000X-0.637500X0.100000X0*%
%ADD30RoundRect,0.150000X0.587500X0.150000X-0.587500X0.150000X-0.587500X-0.150000X0.587500X-0.150000X0*%
%ADD31RoundRect,0.100000X-0.100000X0.637500X-0.100000X-0.637500X0.100000X-0.637500X0.100000X0.637500X0*%
%ADD32RoundRect,0.100000X0.100000X-0.637500X0.100000X0.637500X-0.100000X0.637500X-0.100000X-0.637500X0*%
%ADD33C,2.600000*%
%ADD34RoundRect,0.250001X-0.799999X-0.799999X0.799999X-0.799999X0.799999X0.799999X-0.799999X0.799999X0*%
%ADD35C,2.100000*%
G04 APERTURE END LIST*
D10*
%TO.C,J17*%
X76768000Y22244000D03*
D11*
X76768000Y19704000D03*
X74228000Y22244000D03*
X74228000Y19704000D03*
X71688000Y22244000D03*
X71688000Y19704000D03*
X69148000Y22244000D03*
X69148000Y19704000D03*
X66608000Y22244000D03*
X66608000Y19704000D03*
X64068000Y22244000D03*
X64068000Y19704000D03*
X61528000Y22244000D03*
X61528000Y19704000D03*
X58988000Y22244000D03*
X58988000Y19704000D03*
X56448000Y22244000D03*
X56448000Y19704000D03*
X53908000Y22244000D03*
X53908000Y19704000D03*
X51368000Y22244000D03*
X51368000Y19704000D03*
X48828000Y22244000D03*
X48828000Y19704000D03*
X46288000Y22244000D03*
X46288000Y19704000D03*
X43748000Y22244000D03*
X43748000Y19704000D03*
X41208000Y22244000D03*
X41208000Y19704000D03*
X38668000Y22244000D03*
X38668000Y19704000D03*
X36128000Y22244000D03*
X36128000Y19704000D03*
X33588000Y22244000D03*
X33588000Y19704000D03*
X31048000Y22244000D03*
X31048000Y19704000D03*
X28508000Y22244000D03*
X28508000Y19704000D03*
%TD*%
D12*
%TO.C,J2*%
X114270000Y63900000D03*
D13*
X116810000Y63900000D03*
X114270000Y61360000D03*
X116810000Y61360000D03*
X114270000Y58820000D03*
X116810000Y58820000D03*
X114270000Y56280000D03*
X116810000Y56280000D03*
X114270000Y53740000D03*
X116810000Y53740000D03*
X114270000Y51200000D03*
X116810000Y51200000D03*
X114270000Y48660000D03*
X116810000Y48660000D03*
X114270000Y46120000D03*
X116810000Y46120000D03*
X114270000Y43580000D03*
X116810000Y43580000D03*
X114270000Y41040000D03*
X116810000Y41040000D03*
X114270000Y38500000D03*
X116810000Y38500000D03*
X114270000Y35960000D03*
X116810000Y35960000D03*
X114270000Y33420000D03*
X116810000Y33420000D03*
%TD*%
D10*
%TO.C,JP6*%
X98866000Y22244000D03*
D11*
X101406000Y22244000D03*
X103946000Y22244000D03*
%TD*%
D10*
%TO.C,JP4*%
X126679000Y22244000D03*
D11*
X129219000Y22244000D03*
X131759000Y22244000D03*
%TD*%
D10*
%TO.C,JP1*%
X126716000Y25927000D03*
D11*
X129256000Y25927000D03*
X131796000Y25927000D03*
%TD*%
D14*
%TO.C,RS489-5*%
X88960000Y56320000D03*
D15*
X88960000Y58820000D03*
%TD*%
D10*
%TO.C,JP3*%
X98866000Y25901600D03*
D11*
X101406000Y25901600D03*
X103946000Y25901600D03*
%TD*%
D14*
%TO.C,RS489-1*%
X88943000Y35706000D03*
D15*
X88943000Y38206000D03*
%TD*%
D10*
%TO.C,JP5*%
X113090000Y22244000D03*
D11*
X115630000Y22244000D03*
X118170000Y22244000D03*
%TD*%
D16*
%TO.C,REF\u002A\u002A*%
X23560000Y70112000D03*
D17*
X23560000Y70112000D03*
%TD*%
D16*
%TO.C,REF\u002A\u002A*%
X81560000Y21112000D03*
D17*
X81560000Y21112000D03*
%TD*%
D16*
%TO.C,REF\u002A\u002A*%
X23560000Y21112000D03*
D17*
X23560000Y21112000D03*
%TD*%
D10*
%TO.C,JP2*%
X113105000Y25901600D03*
D11*
X115645000Y25901600D03*
X118185000Y25901600D03*
%TD*%
D12*
%TO.C,J3*%
X100464000Y63900000D03*
D13*
X103004000Y63900000D03*
X100464000Y61360000D03*
X103004000Y61360000D03*
X100464000Y58820000D03*
X103004000Y58820000D03*
X100464000Y56280000D03*
X103004000Y56280000D03*
X100464000Y53740000D03*
X103004000Y53740000D03*
X100464000Y51200000D03*
X103004000Y51200000D03*
X100464000Y48660000D03*
X103004000Y48660000D03*
X100464000Y46120000D03*
X103004000Y46120000D03*
X100464000Y43580000D03*
X103004000Y43580000D03*
X100464000Y41040000D03*
X103004000Y41040000D03*
X100464000Y38500000D03*
X103004000Y38500000D03*
X100464000Y35960000D03*
X103004000Y35960000D03*
X100464000Y33420000D03*
X103004000Y33420000D03*
%TD*%
D16*
%TO.C,REF\u002A\u002A*%
X81560000Y70112000D03*
D17*
X81560000Y70112000D03*
%TD*%
D12*
%TO.C,J1*%
X128076000Y63900000D03*
D13*
X130616000Y63900000D03*
X128076000Y61360000D03*
X130616000Y61360000D03*
X128076000Y58820000D03*
X130616000Y58820000D03*
X128076000Y56280000D03*
X130616000Y56280000D03*
X128076000Y53740000D03*
X130616000Y53740000D03*
X128076000Y51200000D03*
X130616000Y51200000D03*
X128076000Y48660000D03*
X130616000Y48660000D03*
X128076000Y46120000D03*
X130616000Y46120000D03*
X128076000Y43580000D03*
X130616000Y43580000D03*
X128076000Y41040000D03*
X130616000Y41040000D03*
X128076000Y38500000D03*
X130616000Y38500000D03*
X128076000Y35960000D03*
X130616000Y35960000D03*
X128076000Y33420000D03*
X130616000Y33420000D03*
%TD*%
D18*
%TO.C,D12*%
X27764000Y59074000D03*
X32064000Y59074000D03*
%TD*%
D19*
%TO.C,C16*%
X112328000Y11868500D03*
X112328000Y8743500D03*
%TD*%
D20*
%TO.C,D4*%
X67370000Y55774000D03*
X67370000Y59074000D03*
%TD*%
D10*
%TO.C,J14*%
X38460000Y28000000D03*
D11*
X41000000Y28000000D03*
%TD*%
D19*
%TO.C,C20*%
X121472000Y64700500D03*
X121472000Y61575500D03*
%TD*%
D10*
%TO.C,J8*%
X71120000Y50165000D03*
D11*
X71120000Y47625000D03*
X71120000Y45085000D03*
X71120000Y42545000D03*
%TD*%
D21*
%TO.C,J4*%
X52070000Y84836000D03*
D22*
X53143450Y82533978D03*
X49767978Y83762550D03*
X50841429Y81460528D03*
X47465956Y82689099D03*
X48539407Y80387077D03*
X45163935Y81615649D03*
X46237385Y79313627D03*
X42861913Y80542198D03*
X43935363Y78240177D03*
X40559891Y79468748D03*
X41633341Y77166726D03*
X38257869Y78395298D03*
X39331320Y76093276D03*
X35955848Y77321847D03*
X37029298Y75019826D03*
%TD*%
D10*
%TO.C,J13*%
X50800000Y29845000D03*
D11*
X53340000Y29845000D03*
%TD*%
D23*
%TO.C,J12*%
X90565848Y14118153D03*
D24*
X91639298Y16420175D03*
X92867870Y13044703D03*
X93941320Y15346724D03*
X95169892Y11971252D03*
X96243342Y14273274D03*
X97471913Y10897802D03*
X98545364Y13199824D03*
X99773935Y9824351D03*
X100847386Y12126373D03*
X102075957Y8750901D03*
X103149407Y11052923D03*
X104377979Y7677451D03*
X105451429Y9979472D03*
X106680000Y6604000D03*
X107753451Y8906022D03*
%TD*%
D25*
%TO.C,R5*%
X98433600Y66694000D03*
X101533600Y66694000D03*
%TD*%
D26*
%TO.C,C6*%
X101418300Y30829200D03*
X104543300Y30829200D03*
%TD*%
D27*
%TO.C,R8*%
X69910000Y55974000D03*
X69910000Y59074000D03*
%TD*%
D23*
%TO.C,J11*%
X117870848Y14118153D03*
D24*
X118944298Y16420175D03*
X120172870Y13044703D03*
X121246320Y15346724D03*
X122474892Y11971252D03*
X123548342Y14273274D03*
X124776913Y10897802D03*
X125850364Y13199824D03*
X127078935Y9824351D03*
X128152386Y12126373D03*
X129380957Y8750901D03*
X130454407Y11052923D03*
X131682979Y7677451D03*
X132756429Y9979472D03*
X133985000Y6604000D03*
X135058451Y8906022D03*
%TD*%
D28*
%TO.C,C1*%
X134045000Y41128500D03*
X134045000Y44253500D03*
%TD*%
D26*
%TO.C,C3*%
X115680800Y28441600D03*
X118805800Y28441600D03*
%TD*%
D29*
%TO.C,U5*%
X86420000Y60986000D03*
X86420000Y61636000D03*
X86420000Y62286000D03*
X86420000Y62936000D03*
X86420000Y63586000D03*
X86420000Y64236000D03*
X86420000Y64886000D03*
X86420000Y65536000D03*
X86420000Y66186000D03*
X86420000Y66836000D03*
X92145000Y66836000D03*
X92145000Y66186000D03*
X92145000Y65536000D03*
X92145000Y64886000D03*
X92145000Y64236000D03*
X92145000Y63586000D03*
X92145000Y62936000D03*
X92145000Y62286000D03*
X92145000Y61636000D03*
X92145000Y60986000D03*
%TD*%
D19*
%TO.C,C15*%
X72196000Y29229000D03*
X72196000Y26104000D03*
%TD*%
%TO.C,C19*%
X107502000Y64700500D03*
X107502000Y61575500D03*
%TD*%
D28*
%TO.C,C2*%
X134082000Y33381500D03*
X134082000Y36506500D03*
%TD*%
D27*
%TO.C,R17*%
X69656000Y26129000D03*
X69656000Y29229000D03*
%TD*%
D20*
%TO.C,D10*%
X67116000Y25929000D03*
X67116000Y29229000D03*
%TD*%
D21*
%TO.C,J6*%
X106680000Y84836000D03*
D22*
X107753450Y82533978D03*
X104377978Y83762550D03*
X105451429Y81460528D03*
X102075956Y82689099D03*
X103149407Y80387077D03*
X99773935Y81615649D03*
X100847385Y79313627D03*
X97471913Y80542198D03*
X98545363Y78240177D03*
X95169891Y79468748D03*
X96243341Y77166726D03*
X92867869Y78395298D03*
X93941320Y76093276D03*
X90565848Y77321847D03*
X91639298Y75019826D03*
%TD*%
D30*
%TO.C,D11*%
X82785500Y40212000D03*
X82785500Y38312000D03*
X80910500Y39262000D03*
%TD*%
D29*
%TO.C,U6*%
X87875500Y21859000D03*
X87875500Y22509000D03*
X87875500Y23159000D03*
X87875500Y23809000D03*
X87875500Y24459000D03*
X87875500Y25109000D03*
X87875500Y25759000D03*
X87875500Y26409000D03*
X87875500Y27059000D03*
X87875500Y27709000D03*
X93600500Y27709000D03*
X93600500Y27059000D03*
X93600500Y26409000D03*
X93600500Y25759000D03*
X93600500Y25109000D03*
X93600500Y24459000D03*
X93600500Y23809000D03*
X93600500Y23159000D03*
X93600500Y22509000D03*
X93600500Y21859000D03*
%TD*%
D23*
%TO.C,J15*%
X63260848Y14118153D03*
D24*
X64334298Y16420175D03*
X65562870Y13044703D03*
X66636320Y15346724D03*
X67864892Y11971252D03*
X68938342Y14273274D03*
X70166913Y10897802D03*
X71240364Y13199824D03*
X72468935Y9824351D03*
X73542386Y12126373D03*
X74770957Y8750901D03*
X75844407Y11052923D03*
X77072979Y7677451D03*
X78146429Y9979472D03*
X79375000Y6604000D03*
X80448451Y8906022D03*
%TD*%
D29*
%TO.C,U4*%
X106671500Y13477000D03*
X106671500Y14127000D03*
X106671500Y14777000D03*
X106671500Y15427000D03*
X106671500Y16077000D03*
X106671500Y16727000D03*
X106671500Y17377000D03*
X106671500Y18027000D03*
X106671500Y18677000D03*
X106671500Y19327000D03*
X112396500Y19327000D03*
X112396500Y18677000D03*
X112396500Y18027000D03*
X112396500Y17377000D03*
X112396500Y16727000D03*
X112396500Y16077000D03*
X112396500Y15427000D03*
X112396500Y14777000D03*
X112396500Y14127000D03*
X112396500Y13477000D03*
%TD*%
D19*
%TO.C,C9*%
X92135000Y59366500D03*
X92135000Y56241500D03*
%TD*%
D31*
%TO.C,U3*%
X107442000Y72673000D03*
X108092000Y72673000D03*
X108742000Y72673000D03*
X109392000Y72673000D03*
X110042000Y72673000D03*
X110692000Y72673000D03*
X111342000Y72673000D03*
X111992000Y72673000D03*
X112642000Y72673000D03*
X113292000Y72673000D03*
X113292000Y66948000D03*
X112642000Y66948000D03*
X111992000Y66948000D03*
X111342000Y66948000D03*
X110692000Y66948000D03*
X110042000Y66948000D03*
X109392000Y66948000D03*
X108742000Y66948000D03*
X108092000Y66948000D03*
X107442000Y66948000D03*
%TD*%
D10*
%TO.C,J7*%
X64516000Y41402000D03*
D11*
X64516000Y43942000D03*
X64516000Y46482000D03*
X64516000Y49022000D03*
%TD*%
D31*
%TO.C,U2*%
X121494000Y72673000D03*
X122144000Y72673000D03*
X122794000Y72673000D03*
X123444000Y72673000D03*
X124094000Y72673000D03*
X124744000Y72673000D03*
X125394000Y72673000D03*
X126044000Y72673000D03*
X126694000Y72673000D03*
X127344000Y72673000D03*
X127344000Y66948000D03*
X126694000Y66948000D03*
X126044000Y66948000D03*
X125394000Y66948000D03*
X124744000Y66948000D03*
X124094000Y66948000D03*
X123444000Y66948000D03*
X122794000Y66948000D03*
X122144000Y66948000D03*
X121494000Y66948000D03*
%TD*%
D32*
%TO.C,U1*%
X141161000Y23445500D03*
X140511000Y23445500D03*
X139861000Y23445500D03*
X139211000Y23445500D03*
X138561000Y23445500D03*
X137911000Y23445500D03*
X137261000Y23445500D03*
X136611000Y23445500D03*
X135961000Y23445500D03*
X135311000Y23445500D03*
X135311000Y29170500D03*
X135961000Y29170500D03*
X136611000Y29170500D03*
X137261000Y29170500D03*
X137911000Y29170500D03*
X138561000Y29170500D03*
X139211000Y29170500D03*
X139861000Y29170500D03*
X140511000Y29170500D03*
X141161000Y29170500D03*
%TD*%
D23*
%TO.C,J16*%
X35955848Y14118153D03*
D24*
X37029298Y16420175D03*
X38257870Y13044703D03*
X39331320Y15346724D03*
X40559892Y11971252D03*
X41633342Y14273274D03*
X42861913Y10897802D03*
X43935364Y13199824D03*
X45163935Y9824351D03*
X46237386Y12126373D03*
X47465957Y8750901D03*
X48539407Y11052923D03*
X49767979Y7677451D03*
X50841429Y9979472D03*
X52070000Y6604000D03*
X53143451Y8906022D03*
%TD*%
D25*
%TO.C,R3*%
X129167600Y67049600D03*
X132267600Y67049600D03*
%TD*%
D30*
%TO.C,D5*%
X81183000Y54436000D03*
X81183000Y52536000D03*
X79308000Y53486000D03*
%TD*%
D33*
%TO.C,J10*%
X27478000Y75663000D03*
X32078000Y75663000D03*
D34*
X27478000Y63063000D03*
D35*
X32078000Y63063000D03*
%TD*%
D26*
%TO.C,C5*%
X101418300Y28441600D03*
X104543300Y28441600D03*
%TD*%
D21*
%TO.C,J5*%
X79375000Y84836000D03*
D22*
X80448450Y82533978D03*
X77072978Y83762550D03*
X78146429Y81460528D03*
X74770956Y82689099D03*
X75844407Y80387077D03*
X72468935Y81615649D03*
X73542385Y79313627D03*
X70166913Y80542198D03*
X71240363Y78240177D03*
X67864891Y79468748D03*
X68938341Y77166726D03*
X65562869Y78395298D03*
X66636320Y76093276D03*
X63260848Y77321847D03*
X64334298Y75019826D03*
%TD*%
D26*
%TO.C,C4*%
X115693100Y30829200D03*
X118818100Y30829200D03*
%TD*%
D19*
%TO.C,C10*%
X72450000Y59074000D03*
X72450000Y55949000D03*
%TD*%
D28*
%TO.C,C21*%
X140522000Y31857500D03*
X140522000Y34982500D03*
%TD*%
D25*
%TO.C,R4*%
X115223600Y66998800D03*
X118323600Y66998800D03*
%TD*%
D21*
%TO.C,J9*%
X133985000Y84836000D03*
D22*
X135058450Y82533978D03*
X131682978Y83762550D03*
X132756429Y81460528D03*
X129380956Y82689099D03*
X130454407Y80387077D03*
X127078935Y81615649D03*
X128152385Y79313627D03*
X124776913Y80542198D03*
X125850363Y78240177D03*
X122474891Y79468748D03*
X123548341Y77166726D03*
X120172869Y78395298D03*
X121246320Y76093276D03*
X117870848Y77321847D03*
X118944298Y75019826D03*
%TD*%
M02*
