%TF.GenerationSoftware,KiCad,Pcbnew,7.0.7*%
%TF.CreationDate,2023-12-16T22:01:11+01:00*%
%TF.ProjectId,BOB4AXIS,424f4234-4158-4495-932e-6b696361645f,rev?*%
%TF.SameCoordinates,Original*%
%TF.FileFunction,Soldermask,Bot*%
%TF.FilePolarity,Negative*%
%FSLAX46Y46*%
G04 Gerber Fmt 4.6, Leading zero omitted, Abs format (unit mm)*
G04 Created by KiCad (PCBNEW 7.0.7) date 2023-12-16 22:01:11*
%MOMM*%
%LPD*%
G01*
G04 APERTURE LIST*
G04 Aperture macros list*
%AMRoundRect*
0 Rectangle with rounded corners*
0 $1 Rounding radius*
0 $2 $3 $4 $5 $6 $7 $8 $9 X,Y pos of 4 corners*
0 Add a 4 corners polygon primitive as box body*
4,1,4,$2,$3,$4,$5,$6,$7,$8,$9,$2,$3,0*
0 Add four circle primitives for the rounded corners*
1,1,$1+$1,$2,$3*
1,1,$1+$1,$4,$5*
1,1,$1+$1,$6,$7*
1,1,$1+$1,$8,$9*
0 Add four rect primitives between the rounded corners*
20,1,$1+$1,$2,$3,$4,$5,0*
20,1,$1+$1,$4,$5,$6,$7,0*
20,1,$1+$1,$6,$7,$8,$9,0*
20,1,$1+$1,$8,$9,$2,$3,0*%
G04 Aperture macros list end*
%ADD10RoundRect,0.250000X0.625000X-0.400000X0.625000X0.400000X-0.625000X0.400000X-0.625000X-0.400000X0*%
%ADD11C,2.200000*%
%ADD12R,2.200000X2.200000*%
%ADD13C,0.800000*%
%ADD14C,6.400000*%
%ADD15R,1.700000X1.700000*%
%ADD16O,1.700000X1.700000*%
%ADD17R,1.600000X1.600000*%
%ADD18O,1.600000X1.600000*%
%ADD19RoundRect,0.250000X0.600000X-0.600000X0.600000X0.600000X-0.600000X0.600000X-0.600000X-0.600000X0*%
%ADD20C,1.700000*%
%ADD21RoundRect,0.250000X0.400000X0.625000X-0.400000X0.625000X-0.400000X-0.625000X0.400000X-0.625000X0*%
%ADD22RoundRect,0.250000X0.650000X-0.412500X0.650000X0.412500X-0.650000X0.412500X-0.650000X-0.412500X0*%
%ADD23RoundRect,0.250000X-0.625000X0.400000X-0.625000X-0.400000X0.625000X-0.400000X0.625000X0.400000X0*%
%ADD24RoundRect,0.250000X-1.450000X0.400000X-1.450000X-0.400000X1.450000X-0.400000X1.450000X0.400000X0*%
%ADD25RoundRect,0.150000X-0.825000X-0.150000X0.825000X-0.150000X0.825000X0.150000X-0.825000X0.150000X0*%
%ADD26RoundRect,0.250000X-0.650000X0.412500X-0.650000X-0.412500X0.650000X-0.412500X0.650000X0.412500X0*%
G04 APERTURE END LIST*
D10*
%TO.C,R13*%
X38760400Y-7366000D03*
X38760400Y-4266000D03*
%TD*%
D11*
%TO.C,J5*%
X17652959Y-27715433D03*
D12*
X17652959Y-20095417D03*
D11*
X22732970Y-27715433D03*
X22732970Y-20095417D03*
X27812980Y-27715433D03*
X27812980Y-20095417D03*
X32892990Y-27701209D03*
X32892990Y-20095417D03*
X37973000Y-27715433D03*
X37973000Y-20095417D03*
X43053010Y-27715433D03*
X43053010Y-20095417D03*
X48133020Y-27725339D03*
X48133020Y-20105323D03*
X53213031Y-27720259D03*
X53213031Y-20100243D03*
%TD*%
D13*
%TO.C,H3*%
X92600000Y-5000000D03*
X93302944Y-3302944D03*
X93302944Y-6697056D03*
X95000000Y-2600000D03*
D14*
X95000000Y-5000000D03*
D13*
X95000000Y-7400000D03*
X96697056Y-3302944D03*
X96697056Y-6697056D03*
X97400000Y-5000000D03*
%TD*%
D15*
%TO.C,JP6*%
X12319000Y-38100000D03*
D16*
X12319000Y-40640000D03*
X12319000Y-43180000D03*
%TD*%
D11*
%TO.C,J8*%
X17652949Y-73914016D03*
D12*
X17652949Y-66294000D03*
D11*
X22732960Y-73914016D03*
X22732960Y-66294000D03*
X27812970Y-73914016D03*
X27812970Y-66294000D03*
X32892980Y-73899792D03*
X32892980Y-66294000D03*
X37972990Y-73914016D03*
X37972990Y-66294000D03*
X43053000Y-73914016D03*
X43053000Y-66294000D03*
X48133010Y-73923922D03*
X48133010Y-66303906D03*
X53213021Y-73918842D03*
X53213021Y-66298826D03*
%TD*%
D15*
%TO.C,JP3*%
X84734000Y-54117000D03*
D16*
X84734000Y-56657000D03*
X84734000Y-59197000D03*
%TD*%
D15*
%TO.C,JP8*%
X12319000Y-68834000D03*
D16*
X12319000Y-71374000D03*
X12319000Y-73914000D03*
%TD*%
D11*
%TO.C,J1*%
X67380985Y-27703013D03*
D12*
X67380985Y-20082997D03*
D11*
X72460995Y-27703013D03*
X72460995Y-20082997D03*
X77541005Y-27703013D03*
X77541005Y-20082997D03*
%TD*%
D17*
%TO.C,U3*%
X84709000Y-48006000D03*
D18*
X84709000Y-50546000D03*
X92329000Y-50546000D03*
X92329000Y-48006000D03*
%TD*%
D13*
%TO.C,H1*%
X2600000Y-5000000D03*
X3302944Y-3302944D03*
X3302944Y-6697056D03*
X5000000Y-2600000D03*
D14*
X5000000Y-5000000D03*
D13*
X5000000Y-7400000D03*
X6697056Y-3302944D03*
X6697056Y-6697056D03*
X7400000Y-5000000D03*
%TD*%
D17*
%TO.C,U1*%
X84709000Y-17018000D03*
D18*
X84709000Y-19558000D03*
X92329000Y-19558000D03*
X92329000Y-17018000D03*
%TD*%
D11*
%TO.C,J6*%
X17652928Y-43175190D03*
D12*
X17652928Y-35555174D03*
D11*
X22732939Y-43175190D03*
X22732939Y-35555174D03*
X27812949Y-43175190D03*
X27812949Y-35555174D03*
X32892959Y-43160966D03*
X32892959Y-35555174D03*
X37972969Y-43175190D03*
X37972969Y-35555174D03*
X43052979Y-43175190D03*
X43052979Y-35555174D03*
X48132989Y-43185096D03*
X48132989Y-35565080D03*
X53213000Y-43180016D03*
X53213000Y-35560000D03*
%TD*%
D19*
%TO.C,J9*%
X42291000Y-7366000D03*
D20*
X42291000Y-4826000D03*
X44831000Y-7366000D03*
X44831000Y-4826000D03*
X47371000Y-7366000D03*
X47371000Y-4826000D03*
X49911000Y-7366000D03*
X49911000Y-4826000D03*
X52451000Y-7366000D03*
X52451000Y-4826000D03*
X54991000Y-7366000D03*
X54991000Y-4826000D03*
X57531000Y-7366000D03*
X57531000Y-4826000D03*
X60071000Y-7366000D03*
X60071000Y-4826000D03*
X62611000Y-7366000D03*
X62611000Y-4826000D03*
X65151000Y-7366000D03*
X65151000Y-4826000D03*
X67691000Y-7366000D03*
X67691000Y-4826000D03*
X70231000Y-7366000D03*
X70231000Y-4826000D03*
X72771000Y-7366000D03*
X72771000Y-4826000D03*
%TD*%
D15*
%TO.C,JP2*%
X84709000Y-38608000D03*
D16*
X84709000Y-41148000D03*
X84709000Y-43688000D03*
%TD*%
D15*
%TO.C,JP7*%
X12319000Y-53594000D03*
D16*
X12319000Y-56134000D03*
X12319000Y-58674000D03*
%TD*%
%TO.C,JP4*%
X84709000Y-74422000D03*
X84709000Y-71882000D03*
D15*
X84709000Y-69342000D03*
%TD*%
D11*
%TO.C,J4*%
X67380985Y-73914016D03*
D12*
X67380985Y-66294000D03*
D11*
X72460995Y-73914016D03*
X72460995Y-66294000D03*
X77541005Y-73914016D03*
X77541005Y-66294000D03*
%TD*%
%TO.C,U7*%
X72517000Y-88646000D03*
X72517000Y-81025984D03*
X67436990Y-88646000D03*
D12*
X67436990Y-81025984D03*
%TD*%
D11*
%TO.C,J2*%
X67380985Y-43180016D03*
D12*
X67380985Y-35560000D03*
D11*
X72460995Y-43180016D03*
X72460995Y-35560000D03*
X77541005Y-43180016D03*
X77541005Y-35560000D03*
%TD*%
D17*
%TO.C,U4*%
X84709000Y-63246000D03*
D18*
X84709000Y-65786000D03*
X92329000Y-65786000D03*
X92329000Y-63246000D03*
%TD*%
D13*
%TO.C,H2*%
X2600000Y-88000000D03*
X3302944Y-86302944D03*
X3302944Y-89697056D03*
X5000000Y-85600000D03*
D14*
X5000000Y-88000000D03*
D13*
X5000000Y-90400000D03*
X6697056Y-86302944D03*
X6697056Y-89697056D03*
X7400000Y-88000000D03*
%TD*%
D15*
%TO.C,JP1*%
X84709000Y-23114000D03*
D16*
X84709000Y-25654000D03*
X84709000Y-28194000D03*
%TD*%
D13*
%TO.C,H4*%
X92600000Y-88000000D03*
X93302944Y-86302944D03*
X93302944Y-89697056D03*
X95000000Y-85600000D03*
D14*
X95000000Y-88000000D03*
D13*
X95000000Y-90400000D03*
X96697056Y-86302944D03*
X96697056Y-89697056D03*
X97400000Y-88000000D03*
%TD*%
D11*
%TO.C,J7*%
X17652939Y-58664110D03*
D12*
X17652939Y-51044094D03*
D11*
X22732950Y-58664110D03*
X22732950Y-51044094D03*
X27812960Y-58664110D03*
X27812960Y-51044094D03*
X32892970Y-58649886D03*
X32892970Y-51044094D03*
X37972980Y-58664110D03*
X37972980Y-51044094D03*
X43052990Y-58664110D03*
X43052990Y-51044094D03*
X48133000Y-58674016D03*
X48133000Y-51054000D03*
X53213011Y-58668936D03*
X53213011Y-51048920D03*
%TD*%
%TO.C,J3*%
X67436980Y-58674016D03*
D12*
X67436980Y-51054000D03*
D11*
X72516990Y-58674016D03*
X72516990Y-51054000D03*
X77597000Y-58674016D03*
X77597000Y-51054000D03*
%TD*%
D15*
%TO.C,JP5*%
X12319000Y-22606000D03*
D16*
X12319000Y-25146000D03*
X12319000Y-27686000D03*
%TD*%
D17*
%TO.C,U2*%
X84709000Y-32512000D03*
D18*
X84709000Y-35052000D03*
X92329000Y-35052000D03*
X92329000Y-32512000D03*
%TD*%
D21*
%TO.C,R10*%
X48133000Y-24130000D03*
X45033000Y-24130000D03*
%TD*%
D22*
%TO.C,C4*%
X36449000Y-91224500D03*
X36449000Y-88099500D03*
%TD*%
D23*
%TO.C,R1*%
X80899000Y-22580000D03*
X80899000Y-25680000D03*
%TD*%
%TO.C,R7*%
X80899000Y-68808000D03*
X80899000Y-71908000D03*
%TD*%
D24*
%TO.C,F1*%
X57023000Y-15494000D03*
X57023000Y-19944000D03*
%TD*%
D23*
%TO.C,R5*%
X80899000Y-53568000D03*
X80899000Y-56668000D03*
%TD*%
D21*
%TO.C,R12*%
X48133000Y-70231000D03*
X45033000Y-70231000D03*
%TD*%
D23*
%TO.C,R8*%
X92329000Y-57378000D03*
X92329000Y-60478000D03*
%TD*%
D25*
%TO.C,U6*%
X28448000Y-89916000D03*
X28448000Y-88646000D03*
X28448000Y-87376000D03*
X28448000Y-86106000D03*
X28448000Y-84836000D03*
X28448000Y-83566000D03*
X28448000Y-82296000D03*
X28448000Y-81026000D03*
X33398000Y-81026000D03*
X33398000Y-82296000D03*
X33398000Y-83566000D03*
X33398000Y-84836000D03*
X33398000Y-86106000D03*
X33398000Y-87376000D03*
X33398000Y-88646000D03*
X33398000Y-89916000D03*
%TD*%
D21*
%TO.C,R11*%
X48133000Y-54991000D03*
X45033000Y-54991000D03*
%TD*%
D23*
%TO.C,R4*%
X92329000Y-26670000D03*
X92329000Y-29770000D03*
%TD*%
D26*
%TO.C,C2*%
X9398000Y-76161500D03*
X9398000Y-79286500D03*
%TD*%
D23*
%TO.C,R2*%
X92329000Y-11150000D03*
X92329000Y-14250000D03*
%TD*%
%TO.C,R6*%
X92329000Y-42138000D03*
X92329000Y-45238000D03*
%TD*%
D22*
%TO.C,C1*%
X48514000Y-91059000D03*
X48514000Y-87934000D03*
%TD*%
D25*
%TO.C,U5*%
X16067000Y-89886300D03*
X16067000Y-88616300D03*
X16067000Y-87346300D03*
X16067000Y-86076300D03*
X16067000Y-84806300D03*
X16067000Y-83536300D03*
X16067000Y-82266300D03*
X16067000Y-80996300D03*
X21017000Y-80996300D03*
X21017000Y-82266300D03*
X21017000Y-83536300D03*
X21017000Y-84806300D03*
X21017000Y-86076300D03*
X21017000Y-87346300D03*
X21017000Y-88616300D03*
X21017000Y-89886300D03*
%TD*%
D21*
%TO.C,R9*%
X48133000Y-39624000D03*
X45033000Y-39624000D03*
%TD*%
D22*
%TO.C,C3*%
X24003000Y-91224500D03*
X24003000Y-88099500D03*
%TD*%
D23*
%TO.C,R3*%
X80899000Y-38074000D03*
X80899000Y-41174000D03*
%TD*%
D25*
%TO.C,U8*%
X4510000Y-74295000D03*
X4510000Y-73025000D03*
X4510000Y-71755000D03*
X4510000Y-70485000D03*
X4510000Y-69215000D03*
X4510000Y-67945000D03*
X4510000Y-66675000D03*
X9460000Y-66675000D03*
X9460000Y-67945000D03*
X9460000Y-69215000D03*
X9460000Y-70485000D03*
X9460000Y-71755000D03*
X9460000Y-73025000D03*
X9460000Y-74295000D03*
%TD*%
%TO.C,U9*%
X40832000Y-89916000D03*
X40832000Y-88646000D03*
X40832000Y-87376000D03*
X40832000Y-86106000D03*
X40832000Y-84836000D03*
X40832000Y-83566000D03*
X40832000Y-82296000D03*
X40832000Y-81026000D03*
X45782000Y-81026000D03*
X45782000Y-82296000D03*
X45782000Y-83566000D03*
X45782000Y-84836000D03*
X45782000Y-86106000D03*
X45782000Y-87376000D03*
X45782000Y-88646000D03*
X45782000Y-89916000D03*
%TD*%
M02*
