%TF.GenerationSoftware,KiCad,Pcbnew,7.0.7*%
%TF.CreationDate,2023-12-16T22:01:11+01:00*%
%TF.ProjectId,BOB4AXIS,424f4234-4158-4495-932e-6b696361645f,rev?*%
%TF.SameCoordinates,Original*%
%TF.FileFunction,Paste,Bot*%
%TF.FilePolarity,Positive*%
%FSLAX46Y46*%
G04 Gerber Fmt 4.6, Leading zero omitted, Abs format (unit mm)*
G04 Created by KiCad (PCBNEW 7.0.7) date 2023-12-16 22:01:11*
%MOMM*%
%LPD*%
G01*
G04 APERTURE LIST*
G04 Aperture macros list*
%AMRoundRect*
0 Rectangle with rounded corners*
0 $1 Rounding radius*
0 $2 $3 $4 $5 $6 $7 $8 $9 X,Y pos of 4 corners*
0 Add a 4 corners polygon primitive as box body*
4,1,4,$2,$3,$4,$5,$6,$7,$8,$9,$2,$3,0*
0 Add four circle primitives for the rounded corners*
1,1,$1+$1,$2,$3*
1,1,$1+$1,$4,$5*
1,1,$1+$1,$6,$7*
1,1,$1+$1,$8,$9*
0 Add four rect primitives between the rounded corners*
20,1,$1+$1,$2,$3,$4,$5,0*
20,1,$1+$1,$4,$5,$6,$7,0*
20,1,$1+$1,$6,$7,$8,$9,0*
20,1,$1+$1,$8,$9,$2,$3,0*%
G04 Aperture macros list end*
%ADD10RoundRect,0.250000X0.625000X-0.400000X0.625000X0.400000X-0.625000X0.400000X-0.625000X-0.400000X0*%
%ADD11RoundRect,0.250000X0.400000X0.625000X-0.400000X0.625000X-0.400000X-0.625000X0.400000X-0.625000X0*%
%ADD12RoundRect,0.250000X0.650000X-0.412500X0.650000X0.412500X-0.650000X0.412500X-0.650000X-0.412500X0*%
%ADD13RoundRect,0.250000X-0.625000X0.400000X-0.625000X-0.400000X0.625000X-0.400000X0.625000X0.400000X0*%
%ADD14RoundRect,0.250000X-1.450000X0.400000X-1.450000X-0.400000X1.450000X-0.400000X1.450000X0.400000X0*%
%ADD15RoundRect,0.150000X-0.825000X-0.150000X0.825000X-0.150000X0.825000X0.150000X-0.825000X0.150000X0*%
%ADD16RoundRect,0.250000X-0.650000X0.412500X-0.650000X-0.412500X0.650000X-0.412500X0.650000X0.412500X0*%
G04 APERTURE END LIST*
D10*
%TO.C,R13*%
X38760400Y-7366000D03*
X38760400Y-4266000D03*
%TD*%
D11*
%TO.C,R10*%
X48133000Y-24130000D03*
X45033000Y-24130000D03*
%TD*%
D12*
%TO.C,C4*%
X36449000Y-91224500D03*
X36449000Y-88099500D03*
%TD*%
D13*
%TO.C,R1*%
X80899000Y-22580000D03*
X80899000Y-25680000D03*
%TD*%
%TO.C,R7*%
X80899000Y-68808000D03*
X80899000Y-71908000D03*
%TD*%
D14*
%TO.C,F1*%
X57023000Y-15494000D03*
X57023000Y-19944000D03*
%TD*%
D13*
%TO.C,R5*%
X80899000Y-53568000D03*
X80899000Y-56668000D03*
%TD*%
D11*
%TO.C,R12*%
X48133000Y-70231000D03*
X45033000Y-70231000D03*
%TD*%
D13*
%TO.C,R8*%
X92329000Y-57378000D03*
X92329000Y-60478000D03*
%TD*%
D15*
%TO.C,U6*%
X28448000Y-89916000D03*
X28448000Y-88646000D03*
X28448000Y-87376000D03*
X28448000Y-86106000D03*
X28448000Y-84836000D03*
X28448000Y-83566000D03*
X28448000Y-82296000D03*
X28448000Y-81026000D03*
X33398000Y-81026000D03*
X33398000Y-82296000D03*
X33398000Y-83566000D03*
X33398000Y-84836000D03*
X33398000Y-86106000D03*
X33398000Y-87376000D03*
X33398000Y-88646000D03*
X33398000Y-89916000D03*
%TD*%
D11*
%TO.C,R11*%
X48133000Y-54991000D03*
X45033000Y-54991000D03*
%TD*%
D13*
%TO.C,R4*%
X92329000Y-26670000D03*
X92329000Y-29770000D03*
%TD*%
D16*
%TO.C,C2*%
X9398000Y-76161500D03*
X9398000Y-79286500D03*
%TD*%
D13*
%TO.C,R2*%
X92329000Y-11150000D03*
X92329000Y-14250000D03*
%TD*%
%TO.C,R6*%
X92329000Y-42138000D03*
X92329000Y-45238000D03*
%TD*%
D12*
%TO.C,C1*%
X48514000Y-91059000D03*
X48514000Y-87934000D03*
%TD*%
D15*
%TO.C,U5*%
X16067000Y-89886300D03*
X16067000Y-88616300D03*
X16067000Y-87346300D03*
X16067000Y-86076300D03*
X16067000Y-84806300D03*
X16067000Y-83536300D03*
X16067000Y-82266300D03*
X16067000Y-80996300D03*
X21017000Y-80996300D03*
X21017000Y-82266300D03*
X21017000Y-83536300D03*
X21017000Y-84806300D03*
X21017000Y-86076300D03*
X21017000Y-87346300D03*
X21017000Y-88616300D03*
X21017000Y-89886300D03*
%TD*%
D11*
%TO.C,R9*%
X48133000Y-39624000D03*
X45033000Y-39624000D03*
%TD*%
D12*
%TO.C,C3*%
X24003000Y-91224500D03*
X24003000Y-88099500D03*
%TD*%
D13*
%TO.C,R3*%
X80899000Y-38074000D03*
X80899000Y-41174000D03*
%TD*%
D15*
%TO.C,U8*%
X4510000Y-74295000D03*
X4510000Y-73025000D03*
X4510000Y-71755000D03*
X4510000Y-70485000D03*
X4510000Y-69215000D03*
X4510000Y-67945000D03*
X4510000Y-66675000D03*
X9460000Y-66675000D03*
X9460000Y-67945000D03*
X9460000Y-69215000D03*
X9460000Y-70485000D03*
X9460000Y-71755000D03*
X9460000Y-73025000D03*
X9460000Y-74295000D03*
%TD*%
%TO.C,U9*%
X40832000Y-89916000D03*
X40832000Y-88646000D03*
X40832000Y-87376000D03*
X40832000Y-86106000D03*
X40832000Y-84836000D03*
X40832000Y-83566000D03*
X40832000Y-82296000D03*
X40832000Y-81026000D03*
X45782000Y-81026000D03*
X45782000Y-82296000D03*
X45782000Y-83566000D03*
X45782000Y-84836000D03*
X45782000Y-86106000D03*
X45782000Y-87376000D03*
X45782000Y-88646000D03*
X45782000Y-89916000D03*
%TD*%
M02*
