M48
; DRILL file {KiCad 7.0.7} date Sat Dec 16 22:01:11 2023
; FORMAT={-:-/ absolute / inch / decimal}
; #@! TF.CreationDate,2023-12-16T22:01:11+01:00
; #@! TF.GenerationSoftware,Kicad,Pcbnew,7.0.7
; #@! TF.FileFunction,Plated,1,2,PTH
FMAT,2
INCH
; #@! TA.AperFunction,Plated,PTH,ViaDrill
T1C0.0157
; #@! TA.AperFunction,Plated,PTH,ComponentDrill
T2C0.0197
; #@! TA.AperFunction,Plated,PTH,ComponentDrill
T3C0.0315
; #@! TA.AperFunction,Plated,PTH,ComponentDrill
T4C0.0394
; #@! TA.AperFunction,Plated,PTH,ComponentDrill
T5C0.0591
; #@! TA.AperFunction,Plated,PTH,ComponentDrill
T6C0.1260
%
G90
G05
T1
X0.045Y-1.09
X0.045Y-1.7
X0.045Y-2.31
X0.0784Y-0.99
X0.105Y-1.6
X0.14Y-3.04
X0.21Y-2.56
X0.235Y-2.695
X0.235Y-2.825
X0.27Y-3.045
X0.315Y-2.625
X0.315Y-2.775
X0.345Y-2.555
X0.435Y-3.185
X0.475Y-2.51
X0.5461Y-3.3925
X0.6211Y-3.1075
X0.7161Y-3.1025
X0.7161Y-3.1475
X0.74Y-2.205
X0.75Y-2.78
X0.7561Y-3.1025
X0.7561Y-3.1475
X0.8Y-1.23
X0.8Y-1.87
X0.8Y-2.465
X0.845Y-2.78
X0.89Y-1.55
X0.91Y-3.005
X0.935Y-3.515
X1.03Y-1.855
X1.0361Y-3.3887
X1.055Y-1.23
X1.08Y-2.205
X1.08Y-2.77
X1.09Y-2.46
X1.1111Y-3.1037
X1.14Y-0.555
X1.2061Y-3.0987
X1.2061Y-3.1437
X1.2461Y-3.0987
X1.2461Y-3.1437
X1.3Y-2.165
X1.305Y-1.225
X1.305Y-1.845
X1.305Y-2.45
X1.31Y-1.545
X1.31Y-2.76
X1.325Y-3.11
X1.45Y-3.515
X1.48Y-2.215
X1.485Y-2.76
X1.525Y-0.35
X1.525Y-3.39
X1.54Y-2.99
X1.6Y-3.105
X1.69Y-2.76
X1.695Y-3.1
X1.695Y-3.145
X1.735Y-3.1
X1.735Y-3.145
X1.82Y-3.115
X2.95Y-2.145
X2.955Y-0.94
X2.955Y-1.545
X2.96Y-2.74
X3.085Y-0.37
T2
X0.1024Y-0.1969
X0.1024Y-3.4646
X0.13Y-0.13
X0.13Y-0.2637
X0.13Y-3.3978
X0.13Y-3.5314
X0.1969Y-0.1024
X0.1969Y-0.2913
X0.1969Y-3.3701
X0.1969Y-3.5591
X0.2637Y-0.13
X0.2637Y-0.2637
X0.2637Y-3.3978
X0.2637Y-3.5314
X0.2913Y-0.1969
X0.2913Y-3.4646
X3.6457Y-0.1969
X3.6457Y-3.4646
X3.6733Y-0.13
X3.6733Y-0.2637
X3.6733Y-3.3978
X3.6733Y-3.5314
X3.7402Y-0.1024
X3.7402Y-0.2913
X3.7402Y-3.3701
X3.7402Y-3.5591
X3.807Y-0.13
X3.807Y-0.2637
X3.807Y-3.3978
X3.807Y-3.5314
X3.8346Y-0.1969
X3.8346Y-3.4646
T3
X3.335Y-0.67
X3.335Y-0.77
X3.335Y-1.28
X3.335Y-1.38
X3.335Y-1.89
X3.335Y-1.99
X3.335Y-2.49
X3.335Y-2.59
X3.635Y-0.67
X3.635Y-0.77
X3.635Y-1.28
X3.635Y-1.38
X3.635Y-1.89
X3.635Y-1.99
X3.635Y-2.49
X3.635Y-2.59
T4
X0.485Y-0.89
X0.485Y-0.99
X0.485Y-1.09
X0.485Y-1.5
X0.485Y-1.6
X0.485Y-1.7
X0.485Y-2.11
X0.485Y-2.21
X0.485Y-2.31
X0.485Y-2.71
X0.485Y-2.81
X0.485Y-2.91
X1.665Y-0.19
X1.665Y-0.29
X1.765Y-0.19
X1.765Y-0.29
X1.865Y-0.19
X1.865Y-0.29
X1.965Y-0.19
X1.965Y-0.29
X2.065Y-0.19
X2.065Y-0.29
X2.165Y-0.19
X2.165Y-0.29
X2.265Y-0.19
X2.265Y-0.29
X2.365Y-0.19
X2.365Y-0.29
X2.465Y-0.19
X2.465Y-0.29
X2.565Y-0.19
X2.565Y-0.29
X2.665Y-0.19
X2.665Y-0.29
X2.765Y-0.19
X2.765Y-0.29
X2.865Y-0.19
X2.865Y-0.29
X3.335Y-0.91
X3.335Y-1.01
X3.335Y-1.11
X3.335Y-1.52
X3.335Y-1.62
X3.335Y-1.72
X3.335Y-2.73
X3.335Y-2.83
X3.335Y-2.93
X3.336Y-2.1306
X3.336Y-2.2306
X3.336Y-2.3306
T5
X0.695Y-1.3998
X0.695Y-1.6998
X0.695Y-2.0096
X0.695Y-2.3096
X0.695Y-2.61
X0.695Y-2.91
X0.695Y-0.7912
X0.695Y-1.0912
X0.895Y-1.3998
X0.895Y-1.6998
X0.895Y-2.0096
X0.895Y-2.3096
X0.895Y-2.61
X0.895Y-2.91
X0.895Y-0.7912
X0.895Y-1.0912
X1.095Y-1.3998
X1.095Y-1.6998
X1.095Y-2.0096
X1.095Y-2.3096
X1.095Y-2.61
X1.095Y-2.91
X1.095Y-0.7912
X1.095Y-1.0912
X1.295Y-1.3998
X1.295Y-1.6993
X1.295Y-2.0096
X1.295Y-2.3091
X1.295Y-2.61
X1.295Y-2.9094
X1.295Y-0.7912
X1.295Y-1.0906
X1.495Y-1.3998
X1.495Y-1.6998
X1.495Y-2.0096
X1.495Y-2.3096
X1.495Y-2.61
X1.495Y-2.91
X1.495Y-0.7912
X1.495Y-1.0912
X1.695Y-1.3998
X1.695Y-1.6998
X1.695Y-2.0096
X1.695Y-2.3096
X1.695Y-2.61
X1.695Y-2.91
X1.695Y-0.7912
X1.695Y-1.0912
X1.895Y-1.4002
X1.895Y-1.7002
X1.895Y-2.01
X1.895Y-2.31
X1.895Y-2.6104
X1.895Y-2.9104
X1.895Y-0.7915
X1.895Y-1.0915
X2.095Y-1.4
X2.095Y-1.7
X2.095Y-2.0098
X2.095Y-2.3098
X2.095Y-2.6102
X2.095Y-2.9102
X2.095Y-0.7913
X2.095Y-1.0913
X2.6528Y-0.7907
X2.6528Y-1.0907
X2.6528Y-1.4
X2.6528Y-1.7
X2.6528Y-2.61
X2.6528Y-2.91
X2.655Y-2.01
X2.655Y-2.31
X2.655Y-3.19
X2.655Y-3.49
X2.8528Y-0.7907
X2.8528Y-1.0907
X2.8528Y-1.4
X2.8528Y-1.7
X2.8528Y-2.61
X2.8528Y-2.91
X2.855Y-2.01
X2.855Y-2.31
X2.855Y-3.19
X2.855Y-3.49
X3.0528Y-0.7907
X3.0528Y-1.0907
X3.0528Y-1.4
X3.0528Y-1.7
X3.0528Y-2.61
X3.0528Y-2.91
X3.055Y-2.01
X3.055Y-2.31
T6
X0.1969Y-0.1969
X0.1969Y-3.4646
X3.7402Y-0.1969
X3.7402Y-3.4646
T0
M30
