%TF.GenerationSoftware,KiCad,Pcbnew,7.0.9*%
%TF.CreationDate,2024-01-13T22:18:07+01:00*%
%TF.ProjectId,HUB75HAT,48554237-3548-4415-942e-6b696361645f,rev?*%
%TF.SameCoordinates,Original*%
%TF.FileFunction,Legend,Bot*%
%TF.FilePolarity,Positive*%
%FSLAX46Y46*%
G04 Gerber Fmt 4.6, Leading zero omitted, Abs format (unit mm)*
G04 Created by KiCad (PCBNEW 7.0.9) date 2024-01-13 22:18:07*
%MOMM*%
%LPD*%
G01*
G04 APERTURE LIST*
G04 Aperture macros list*
%AMRoundRect*
0 Rectangle with rounded corners*
0 $1 Rounding radius*
0 $2 $3 $4 $5 $6 $7 $8 $9 X,Y pos of 4 corners*
0 Add a 4 corners polygon primitive as box body*
4,1,4,$2,$3,$4,$5,$6,$7,$8,$9,$2,$3,0*
0 Add four circle primitives for the rounded corners*
1,1,$1+$1,$2,$3*
1,1,$1+$1,$4,$5*
1,1,$1+$1,$6,$7*
1,1,$1+$1,$8,$9*
0 Add four rect primitives between the rounded corners*
20,1,$1+$1,$2,$3,$4,$5,0*
20,1,$1+$1,$4,$5,$6,$7,0*
20,1,$1+$1,$6,$7,$8,$9,0*
20,1,$1+$1,$8,$9,$2,$3,0*%
%AMHorizOval*
0 Thick line with rounded ends*
0 $1 width*
0 $2 $3 position (X,Y) of the first rounded end (center of the circle)*
0 $4 $5 position (X,Y) of the second rounded end (center of the circle)*
0 Add line between two ends*
20,1,$1,$2,$3,$4,$5,0*
0 Add two circle primitives to create the rounded ends*
1,1,$1,$2,$3*
1,1,$1,$4,$5*%
%AMRotRect*
0 Rectangle, with rotation*
0 The origin of the aperture is its center*
0 $1 length*
0 $2 width*
0 $3 Rotation angle, in degrees counterclockwise*
0 Add horizontal line*
21,1,$1,$2,0,0,$3*%
G04 Aperture macros list end*
%ADD10C,0.150000*%
%ADD11C,0.120000*%
%ADD12C,0.304000*%
%ADD13RoundRect,0.250000X-0.600000X0.600000X-0.600000X-0.600000X0.600000X-0.600000X0.600000X0.600000X0*%
%ADD14C,1.700000*%
%ADD15RoundRect,0.250000X-0.600000X-0.600000X0.600000X-0.600000X0.600000X0.600000X-0.600000X0.600000X0*%
%ADD16R,1.700000X1.700000*%
%ADD17O,1.700000X1.700000*%
%ADD18RoundRect,0.250000X-0.750000X0.600000X-0.750000X-0.600000X0.750000X-0.600000X0.750000X0.600000X0*%
%ADD19O,2.000000X1.700000*%
%ADD20C,3.100000*%
%ADD21C,4.700000*%
%ADD22R,1.000000X0.500000*%
%ADD23R,1.000000X0.400000*%
%ADD24RoundRect,0.250000X-0.400000X-1.450000X0.400000X-1.450000X0.400000X1.450000X-0.400000X1.450000X0*%
%ADD25R,0.500000X1.000000*%
%ADD26R,0.400000X1.000000*%
%ADD27RoundRect,0.250000X-0.650000X0.412500X-0.650000X-0.412500X0.650000X-0.412500X0.650000X0.412500X0*%
%ADD28RoundRect,0.225000X0.375000X-0.225000X0.375000X0.225000X-0.375000X0.225000X-0.375000X-0.225000X0*%
%ADD29RoundRect,0.250000X0.625000X-0.400000X0.625000X0.400000X-0.625000X0.400000X-0.625000X-0.400000X0*%
%ADD30RoundRect,0.150000X0.150000X-0.825000X0.150000X0.825000X-0.150000X0.825000X-0.150000X-0.825000X0*%
%ADD31RoundRect,0.250000X-0.400000X-0.625000X0.400000X-0.625000X0.400000X0.625000X-0.400000X0.625000X0*%
%ADD32RoundRect,0.250000X0.412500X0.650000X-0.412500X0.650000X-0.412500X-0.650000X0.412500X-0.650000X0*%
%ADD33RoundRect,0.250000X-0.412500X-0.650000X0.412500X-0.650000X0.412500X0.650000X-0.412500X0.650000X0*%
%ADD34RotRect,1.700000X1.700000X115.000000*%
%ADD35HorizOval,1.700000X0.000000X0.000000X0.000000X0.000000X0*%
%ADD36RoundRect,0.250000X-0.350000X-0.450000X0.350000X-0.450000X0.350000X0.450000X-0.350000X0.450000X0*%
%ADD37RotRect,1.700000X1.700000X245.000000*%
%ADD38HorizOval,1.700000X0.000000X0.000000X0.000000X0.000000X0*%
%ADD39RoundRect,0.250000X-0.625000X0.400000X-0.625000X-0.400000X0.625000X-0.400000X0.625000X0.400000X0*%
%ADD40RoundRect,0.237500X0.237500X-0.250000X0.237500X0.250000X-0.237500X0.250000X-0.237500X-0.250000X0*%
%ADD41RoundRect,0.250000X0.650000X-0.412500X0.650000X0.412500X-0.650000X0.412500X-0.650000X-0.412500X0*%
%ADD42RoundRect,0.100000X-0.637500X-0.100000X0.637500X-0.100000X0.637500X0.100000X-0.637500X0.100000X0*%
%ADD43RoundRect,0.250000X0.400000X0.625000X-0.400000X0.625000X-0.400000X-0.625000X0.400000X-0.625000X0*%
%ADD44RoundRect,0.250000X0.400000X1.450000X-0.400000X1.450000X-0.400000X-1.450000X0.400000X-1.450000X0*%
%ADD45RoundRect,0.237500X-0.237500X0.300000X-0.237500X-0.300000X0.237500X-0.300000X0.237500X0.300000X0*%
%ADD46RoundRect,0.150000X-0.150000X0.825000X-0.150000X-0.825000X0.150000X-0.825000X0.150000X0.825000X0*%
%ADD47RoundRect,0.150000X0.150000X-0.587500X0.150000X0.587500X-0.150000X0.587500X-0.150000X-0.587500X0*%
%ADD48RoundRect,0.100000X-0.100000X0.637500X-0.100000X-0.637500X0.100000X-0.637500X0.100000X0.637500X0*%
%ADD49RoundRect,0.100000X0.100000X-0.637500X0.100000X0.637500X-0.100000X0.637500X-0.100000X-0.637500X0*%
%ADD50RoundRect,0.250000X-0.450000X0.350000X-0.450000X-0.350000X0.450000X-0.350000X0.450000X0.350000X0*%
%ADD51RoundRect,0.150000X-0.587500X-0.150000X0.587500X-0.150000X0.587500X0.150000X-0.587500X0.150000X0*%
%ADD52C,2.600000*%
%ADD53RoundRect,0.250001X-0.799999X-0.799999X0.799999X-0.799999X0.799999X0.799999X-0.799999X0.799999X0*%
%ADD54C,2.100000*%
%ADD55RoundRect,0.150000X-0.825000X-0.150000X0.825000X-0.150000X0.825000X0.150000X-0.825000X0.150000X0*%
G04 APERTURE END LIST*
D10*
X48955876Y78446195D02*
X49257746Y77798833D01*
X49257746Y77798833D02*
X49361277Y77689485D01*
X49361277Y77689485D02*
X49487842Y77643419D01*
X49487842Y77643419D02*
X49637439Y77660636D01*
X49637439Y77660636D02*
X49723754Y77700885D01*
X48515343Y77137394D02*
X48946919Y77338641D01*
X48946919Y77338641D02*
X48524300Y78244949D01*
X47655101Y76841340D02*
X47718383Y76818307D01*
X47718383Y76818307D02*
X47867981Y76835524D01*
X47867981Y76835524D02*
X47954296Y76875773D01*
X47954296Y76875773D02*
X48063643Y76979305D01*
X48063643Y76979305D02*
X48109709Y77105869D01*
X48109709Y77105869D02*
X48112617Y77212309D01*
X48112617Y77212309D02*
X48075276Y77405063D01*
X48075276Y77405063D02*
X48014902Y77534536D01*
X48014902Y77534536D02*
X47891246Y77687041D01*
X47891246Y77687041D02*
X47807839Y77753232D01*
X47807839Y77753232D02*
X47681275Y77799297D01*
X47681275Y77799297D02*
X47531677Y77782081D01*
X47531677Y77782081D02*
X47445362Y77741832D01*
X47445362Y77741832D02*
X47336014Y77638300D01*
X47336014Y77638300D02*
X47312982Y77575018D01*
X46625370Y77359463D02*
X46927240Y76712100D01*
X46927240Y76712100D02*
X47030771Y76602752D01*
X47030771Y76602752D02*
X47157336Y76556686D01*
X47157336Y76556686D02*
X47306933Y76573903D01*
X47306933Y76573903D02*
X47393248Y76614152D01*
X46184837Y76050661D02*
X46616412Y76251908D01*
X46616412Y76251908D02*
X46193794Y77158216D01*
X45324595Y75754607D02*
X45387877Y75731574D01*
X45387877Y75731574D02*
X45537474Y75748791D01*
X45537474Y75748791D02*
X45623789Y75789040D01*
X45623789Y75789040D02*
X45733137Y75892572D01*
X45733137Y75892572D02*
X45779203Y76019136D01*
X45779203Y76019136D02*
X45782111Y76125576D01*
X45782111Y76125576D02*
X45744770Y76318331D01*
X45744770Y76318331D02*
X45684396Y76447803D01*
X45684396Y76447803D02*
X45560740Y76600309D01*
X45560740Y76600309D02*
X45477333Y76666499D01*
X45477333Y76666499D02*
X45350768Y76712565D01*
X45350768Y76712565D02*
X45201171Y76695348D01*
X45201171Y76695348D02*
X45114856Y76655099D01*
X45114856Y76655099D02*
X45005508Y76551567D01*
X45005508Y76551567D02*
X44982475Y76488285D01*
X44294863Y76272730D02*
X44596734Y75625367D01*
X44596734Y75625367D02*
X44700265Y75516019D01*
X44700265Y75516019D02*
X44826830Y75469954D01*
X44826830Y75469954D02*
X44976427Y75487170D01*
X44976427Y75487170D02*
X45062742Y75527419D01*
X43854331Y74963928D02*
X44285906Y75165175D01*
X44285906Y75165175D02*
X43863288Y76071483D01*
X42994089Y74667874D02*
X43057371Y74644842D01*
X43057371Y74644842D02*
X43206968Y74662058D01*
X43206968Y74662058D02*
X43293283Y74702307D01*
X43293283Y74702307D02*
X43402631Y74805839D01*
X43402631Y74805839D02*
X43448697Y74932403D01*
X43448697Y74932403D02*
X43451605Y75038843D01*
X43451605Y75038843D02*
X43414264Y75231598D01*
X43414264Y75231598D02*
X43353890Y75361070D01*
X43353890Y75361070D02*
X43230234Y75513576D01*
X43230234Y75513576D02*
X43146827Y75579766D01*
X43146827Y75579766D02*
X43020262Y75625832D01*
X43020262Y75625832D02*
X42870665Y75608615D01*
X42870665Y75608615D02*
X42784350Y75568366D01*
X42784350Y75568366D02*
X42675002Y75464834D01*
X42675002Y75464834D02*
X42651969Y75401552D01*
X41964357Y75185997D02*
X42266227Y74538634D01*
X42266227Y74538634D02*
X42369759Y74429286D01*
X42369759Y74429286D02*
X42496323Y74383221D01*
X42496323Y74383221D02*
X42645921Y74400437D01*
X42645921Y74400437D02*
X42732236Y74440687D01*
X41523825Y73877195D02*
X41955400Y74078442D01*
X41955400Y74078442D02*
X41532782Y74984750D01*
X40663583Y73581141D02*
X40726865Y73558109D01*
X40726865Y73558109D02*
X40876462Y73575325D01*
X40876462Y73575325D02*
X40962777Y73615575D01*
X40962777Y73615575D02*
X41072125Y73719106D01*
X41072125Y73719106D02*
X41118191Y73845670D01*
X41118191Y73845670D02*
X41121099Y73952110D01*
X41121099Y73952110D02*
X41083758Y74144865D01*
X41083758Y74144865D02*
X41023384Y74274337D01*
X41023384Y74274337D02*
X40899727Y74426843D01*
X40899727Y74426843D02*
X40816321Y74493033D01*
X40816321Y74493033D02*
X40689756Y74539099D01*
X40689756Y74539099D02*
X40540159Y74521882D01*
X40540159Y74521882D02*
X40453844Y74481633D01*
X40453844Y74481633D02*
X40344496Y74378101D01*
X40344496Y74378101D02*
X40321463Y74314819D01*
D11*
X59039376Y23337706D02*
X58429853Y23337706D01*
X58734614Y23032944D02*
X58734614Y23642468D01*
X46440976Y59533706D02*
X45831453Y59533706D01*
X46136214Y59228944D02*
X46136214Y59838468D01*
D10*
X97593619Y46200876D02*
X97117428Y46534209D01*
X97593619Y46772304D02*
X96593619Y46772304D01*
X96593619Y46772304D02*
X96593619Y46391352D01*
X96593619Y46391352D02*
X96641238Y46296114D01*
X96641238Y46296114D02*
X96688857Y46248495D01*
X96688857Y46248495D02*
X96784095Y46200876D01*
X96784095Y46200876D02*
X96926952Y46200876D01*
X96926952Y46200876D02*
X97022190Y46248495D01*
X97022190Y46248495D02*
X97069809Y46296114D01*
X97069809Y46296114D02*
X97117428Y46391352D01*
X97117428Y46391352D02*
X97117428Y46772304D01*
X97593619Y45772304D02*
X96593619Y45772304D01*
X96593619Y45772304D02*
X97593619Y45200876D01*
X97593619Y45200876D02*
X96593619Y45200876D01*
X97593619Y44677066D02*
X97593619Y44486590D01*
X97593619Y44486590D02*
X97546000Y44391352D01*
X97546000Y44391352D02*
X97498380Y44343733D01*
X97498380Y44343733D02*
X97355523Y44248495D01*
X97355523Y44248495D02*
X97165047Y44200876D01*
X97165047Y44200876D02*
X96784095Y44200876D01*
X96784095Y44200876D02*
X96688857Y44248495D01*
X96688857Y44248495D02*
X96641238Y44296114D01*
X96641238Y44296114D02*
X96593619Y44391352D01*
X96593619Y44391352D02*
X96593619Y44581828D01*
X96593619Y44581828D02*
X96641238Y44677066D01*
X96641238Y44677066D02*
X96688857Y44724685D01*
X96688857Y44724685D02*
X96784095Y44772304D01*
X96784095Y44772304D02*
X97022190Y44772304D01*
X97022190Y44772304D02*
X97117428Y44724685D01*
X97117428Y44724685D02*
X97165047Y44677066D01*
X97165047Y44677066D02*
X97212666Y44581828D01*
X97212666Y44581828D02*
X97212666Y44391352D01*
X97212666Y44391352D02*
X97165047Y44296114D01*
X97165047Y44296114D02*
X97117428Y44248495D01*
X97117428Y44248495D02*
X97022190Y44200876D01*
X80022333Y34885990D02*
X80355666Y34885990D01*
X80355666Y34362180D02*
X80355666Y35362180D01*
X80355666Y35362180D02*
X79879476Y35362180D01*
X79593761Y35362180D02*
X78974714Y35362180D01*
X78974714Y35362180D02*
X79308047Y34981228D01*
X79308047Y34981228D02*
X79165190Y34981228D01*
X79165190Y34981228D02*
X79069952Y34933609D01*
X79069952Y34933609D02*
X79022333Y34885990D01*
X79022333Y34885990D02*
X78974714Y34790752D01*
X78974714Y34790752D02*
X78974714Y34552657D01*
X78974714Y34552657D02*
X79022333Y34457419D01*
X79022333Y34457419D02*
X79069952Y34409800D01*
X79069952Y34409800D02*
X79165190Y34362180D01*
X79165190Y34362180D02*
X79450904Y34362180D01*
X79450904Y34362180D02*
X79546142Y34409800D01*
X79546142Y34409800D02*
X79593761Y34457419D01*
X135648819Y72007276D02*
X135172628Y72340609D01*
X135648819Y72578704D02*
X134648819Y72578704D01*
X134648819Y72578704D02*
X134648819Y72197752D01*
X134648819Y72197752D02*
X134696438Y72102514D01*
X134696438Y72102514D02*
X134744057Y72054895D01*
X134744057Y72054895D02*
X134839295Y72007276D01*
X134839295Y72007276D02*
X134982152Y72007276D01*
X134982152Y72007276D02*
X135077390Y72054895D01*
X135077390Y72054895D02*
X135125009Y72102514D01*
X135125009Y72102514D02*
X135172628Y72197752D01*
X135172628Y72197752D02*
X135172628Y72578704D01*
X135648819Y71578704D02*
X134648819Y71578704D01*
X134648819Y71578704D02*
X135648819Y71007276D01*
X135648819Y71007276D02*
X134648819Y71007276D01*
X134982152Y70102514D02*
X135648819Y70102514D01*
X134601200Y70340609D02*
X135315485Y70578704D01*
X135315485Y70578704D02*
X135315485Y69959657D01*
X110837580Y10948857D02*
X110885200Y10996476D01*
X110885200Y10996476D02*
X110932819Y11139333D01*
X110932819Y11139333D02*
X110932819Y11234571D01*
X110932819Y11234571D02*
X110885200Y11377428D01*
X110885200Y11377428D02*
X110789961Y11472666D01*
X110789961Y11472666D02*
X110694723Y11520285D01*
X110694723Y11520285D02*
X110504247Y11567904D01*
X110504247Y11567904D02*
X110361390Y11567904D01*
X110361390Y11567904D02*
X110170914Y11520285D01*
X110170914Y11520285D02*
X110075676Y11472666D01*
X110075676Y11472666D02*
X109980438Y11377428D01*
X109980438Y11377428D02*
X109932819Y11234571D01*
X109932819Y11234571D02*
X109932819Y11139333D01*
X109932819Y11139333D02*
X109980438Y10996476D01*
X109980438Y10996476D02*
X110028057Y10948857D01*
X110932819Y9996476D02*
X110932819Y10567904D01*
X110932819Y10282190D02*
X109932819Y10282190D01*
X109932819Y10282190D02*
X110075676Y10377428D01*
X110075676Y10377428D02*
X110170914Y10472666D01*
X110170914Y10472666D02*
X110218533Y10567904D01*
X109932819Y9139333D02*
X109932819Y9329809D01*
X109932819Y9329809D02*
X109980438Y9425047D01*
X109980438Y9425047D02*
X110028057Y9472666D01*
X110028057Y9472666D02*
X110170914Y9567904D01*
X110170914Y9567904D02*
X110361390Y9615523D01*
X110361390Y9615523D02*
X110742342Y9615523D01*
X110742342Y9615523D02*
X110837580Y9567904D01*
X110837580Y9567904D02*
X110885200Y9520285D01*
X110885200Y9520285D02*
X110932819Y9425047D01*
X110932819Y9425047D02*
X110932819Y9234571D01*
X110932819Y9234571D02*
X110885200Y9139333D01*
X110885200Y9139333D02*
X110837580Y9091714D01*
X110837580Y9091714D02*
X110742342Y9044095D01*
X110742342Y9044095D02*
X110504247Y9044095D01*
X110504247Y9044095D02*
X110409009Y9091714D01*
X110409009Y9091714D02*
X110361390Y9139333D01*
X110361390Y9139333D02*
X110313771Y9234571D01*
X110313771Y9234571D02*
X110313771Y9425047D01*
X110313771Y9425047D02*
X110361390Y9520285D01*
X110361390Y9520285D02*
X110409009Y9567904D01*
X110409009Y9567904D02*
X110504247Y9615523D01*
X48165219Y54782894D02*
X47165219Y54782894D01*
X47165219Y54782894D02*
X47165219Y54544799D01*
X47165219Y54544799D02*
X47212838Y54401942D01*
X47212838Y54401942D02*
X47308076Y54306704D01*
X47308076Y54306704D02*
X47403314Y54259085D01*
X47403314Y54259085D02*
X47593790Y54211466D01*
X47593790Y54211466D02*
X47736647Y54211466D01*
X47736647Y54211466D02*
X47927123Y54259085D01*
X47927123Y54259085D02*
X48022361Y54306704D01*
X48022361Y54306704D02*
X48117600Y54401942D01*
X48117600Y54401942D02*
X48165219Y54544799D01*
X48165219Y54544799D02*
X48165219Y54782894D01*
X47498552Y53354323D02*
X48165219Y53354323D01*
X47117600Y53592418D02*
X47831885Y53830513D01*
X47831885Y53830513D02*
X47831885Y53211466D01*
X82435333Y52665990D02*
X82768666Y52665990D01*
X82768666Y52142180D02*
X82768666Y53142180D01*
X82768666Y53142180D02*
X82292476Y53142180D01*
X81387714Y52142180D02*
X81959142Y52142180D01*
X81673428Y52142180D02*
X81673428Y53142180D01*
X81673428Y53142180D02*
X81768666Y52999323D01*
X81768666Y52999323D02*
X81863904Y52904085D01*
X81863904Y52904085D02*
X81959142Y52856466D01*
X97593619Y38447466D02*
X97117428Y38780799D01*
X97593619Y39018894D02*
X96593619Y39018894D01*
X96593619Y39018894D02*
X96593619Y38637942D01*
X96593619Y38637942D02*
X96641238Y38542704D01*
X96641238Y38542704D02*
X96688857Y38495085D01*
X96688857Y38495085D02*
X96784095Y38447466D01*
X96784095Y38447466D02*
X96926952Y38447466D01*
X96926952Y38447466D02*
X97022190Y38495085D01*
X97022190Y38495085D02*
X97069809Y38542704D01*
X97069809Y38542704D02*
X97117428Y38637942D01*
X97117428Y38637942D02*
X97117428Y39018894D01*
X97593619Y38018894D02*
X96593619Y38018894D01*
X96593619Y38018894D02*
X97593619Y37447466D01*
X97593619Y37447466D02*
X96593619Y37447466D01*
X97593619Y36447466D02*
X97593619Y37018894D01*
X97593619Y36733180D02*
X96593619Y36733180D01*
X96593619Y36733180D02*
X96736476Y36828418D01*
X96736476Y36828418D02*
X96831714Y36923656D01*
X96831714Y36923656D02*
X96879333Y37018894D01*
X97593619Y35495085D02*
X97593619Y36066513D01*
X97593619Y35780799D02*
X96593619Y35780799D01*
X96593619Y35780799D02*
X96736476Y35876037D01*
X96736476Y35876037D02*
X96831714Y35971275D01*
X96831714Y35971275D02*
X96879333Y36066513D01*
X65589619Y59056457D02*
X65113428Y59389790D01*
X65589619Y59627885D02*
X64589619Y59627885D01*
X64589619Y59627885D02*
X64589619Y59246933D01*
X64589619Y59246933D02*
X64637238Y59151695D01*
X64637238Y59151695D02*
X64684857Y59104076D01*
X64684857Y59104076D02*
X64780095Y59056457D01*
X64780095Y59056457D02*
X64922952Y59056457D01*
X64922952Y59056457D02*
X65018190Y59104076D01*
X65018190Y59104076D02*
X65065809Y59151695D01*
X65065809Y59151695D02*
X65113428Y59246933D01*
X65113428Y59246933D02*
X65113428Y59627885D01*
X65589619Y58104076D02*
X65589619Y58675504D01*
X65589619Y58389790D02*
X64589619Y58389790D01*
X64589619Y58389790D02*
X64732476Y58485028D01*
X64732476Y58485028D02*
X64827714Y58580266D01*
X64827714Y58580266D02*
X64875333Y58675504D01*
X65589619Y57151695D02*
X65589619Y57723123D01*
X65589619Y57437409D02*
X64589619Y57437409D01*
X64589619Y57437409D02*
X64732476Y57532647D01*
X64732476Y57532647D02*
X64827714Y57627885D01*
X64827714Y57627885D02*
X64875333Y57723123D01*
X119981580Y63780857D02*
X120029200Y63828476D01*
X120029200Y63828476D02*
X120076819Y63971333D01*
X120076819Y63971333D02*
X120076819Y64066571D01*
X120076819Y64066571D02*
X120029200Y64209428D01*
X120029200Y64209428D02*
X119933961Y64304666D01*
X119933961Y64304666D02*
X119838723Y64352285D01*
X119838723Y64352285D02*
X119648247Y64399904D01*
X119648247Y64399904D02*
X119505390Y64399904D01*
X119505390Y64399904D02*
X119314914Y64352285D01*
X119314914Y64352285D02*
X119219676Y64304666D01*
X119219676Y64304666D02*
X119124438Y64209428D01*
X119124438Y64209428D02*
X119076819Y64066571D01*
X119076819Y64066571D02*
X119076819Y63971333D01*
X119076819Y63971333D02*
X119124438Y63828476D01*
X119124438Y63828476D02*
X119172057Y63780857D01*
X119172057Y63399904D02*
X119124438Y63352285D01*
X119124438Y63352285D02*
X119076819Y63257047D01*
X119076819Y63257047D02*
X119076819Y63018952D01*
X119076819Y63018952D02*
X119124438Y62923714D01*
X119124438Y62923714D02*
X119172057Y62876095D01*
X119172057Y62876095D02*
X119267295Y62828476D01*
X119267295Y62828476D02*
X119362533Y62828476D01*
X119362533Y62828476D02*
X119505390Y62876095D01*
X119505390Y62876095D02*
X120076819Y63447523D01*
X120076819Y63447523D02*
X120076819Y62828476D01*
X119076819Y62209428D02*
X119076819Y62114190D01*
X119076819Y62114190D02*
X119124438Y62018952D01*
X119124438Y62018952D02*
X119172057Y61971333D01*
X119172057Y61971333D02*
X119267295Y61923714D01*
X119267295Y61923714D02*
X119457771Y61876095D01*
X119457771Y61876095D02*
X119695866Y61876095D01*
X119695866Y61876095D02*
X119886342Y61923714D01*
X119886342Y61923714D02*
X119981580Y61971333D01*
X119981580Y61971333D02*
X120029200Y62018952D01*
X120029200Y62018952D02*
X120076819Y62114190D01*
X120076819Y62114190D02*
X120076819Y62209428D01*
X120076819Y62209428D02*
X120029200Y62304666D01*
X120029200Y62304666D02*
X119981580Y62352285D01*
X119981580Y62352285D02*
X119886342Y62399904D01*
X119886342Y62399904D02*
X119695866Y62447523D01*
X119695866Y62447523D02*
X119457771Y62447523D01*
X119457771Y62447523D02*
X119267295Y62399904D01*
X119267295Y62399904D02*
X119172057Y62352285D01*
X119172057Y62352285D02*
X119124438Y62304666D01*
X119124438Y62304666D02*
X119076819Y62209428D01*
X19784019Y48609104D02*
X20593542Y48609104D01*
X20593542Y48609104D02*
X20688780Y48561485D01*
X20688780Y48561485D02*
X20736400Y48513866D01*
X20736400Y48513866D02*
X20784019Y48418628D01*
X20784019Y48418628D02*
X20784019Y48228152D01*
X20784019Y48228152D02*
X20736400Y48132914D01*
X20736400Y48132914D02*
X20688780Y48085295D01*
X20688780Y48085295D02*
X20593542Y48037676D01*
X20593542Y48037676D02*
X19784019Y48037676D01*
X19784019Y47656723D02*
X19784019Y46990057D01*
X19784019Y46990057D02*
X20784019Y47418628D01*
X71453333Y53040180D02*
X71453333Y52325895D01*
X71453333Y52325895D02*
X71500952Y52183038D01*
X71500952Y52183038D02*
X71596190Y52087800D01*
X71596190Y52087800D02*
X71739047Y52040180D01*
X71739047Y52040180D02*
X71834285Y52040180D01*
X70834285Y52611609D02*
X70929523Y52659228D01*
X70929523Y52659228D02*
X70977142Y52706847D01*
X70977142Y52706847D02*
X71024761Y52802085D01*
X71024761Y52802085D02*
X71024761Y52849704D01*
X71024761Y52849704D02*
X70977142Y52944942D01*
X70977142Y52944942D02*
X70929523Y52992561D01*
X70929523Y52992561D02*
X70834285Y53040180D01*
X70834285Y53040180D02*
X70643809Y53040180D01*
X70643809Y53040180D02*
X70548571Y52992561D01*
X70548571Y52992561D02*
X70500952Y52944942D01*
X70500952Y52944942D02*
X70453333Y52849704D01*
X70453333Y52849704D02*
X70453333Y52802085D01*
X70453333Y52802085D02*
X70500952Y52706847D01*
X70500952Y52706847D02*
X70548571Y52659228D01*
X70548571Y52659228D02*
X70643809Y52611609D01*
X70643809Y52611609D02*
X70834285Y52611609D01*
X70834285Y52611609D02*
X70929523Y52563990D01*
X70929523Y52563990D02*
X70977142Y52516371D01*
X70977142Y52516371D02*
X71024761Y52421133D01*
X71024761Y52421133D02*
X71024761Y52230657D01*
X71024761Y52230657D02*
X70977142Y52135419D01*
X70977142Y52135419D02*
X70929523Y52087800D01*
X70929523Y52087800D02*
X70834285Y52040180D01*
X70834285Y52040180D02*
X70643809Y52040180D01*
X70643809Y52040180D02*
X70548571Y52087800D01*
X70548571Y52087800D02*
X70500952Y52135419D01*
X70500952Y52135419D02*
X70453333Y52230657D01*
X70453333Y52230657D02*
X70453333Y52421133D01*
X70453333Y52421133D02*
X70500952Y52516371D01*
X70500952Y52516371D02*
X70548571Y52563990D01*
X70548571Y52563990D02*
X70643809Y52611609D01*
X102165619Y71518266D02*
X101689428Y71851599D01*
X102165619Y72089694D02*
X101165619Y72089694D01*
X101165619Y72089694D02*
X101165619Y71708742D01*
X101165619Y71708742D02*
X101213238Y71613504D01*
X101213238Y71613504D02*
X101260857Y71565885D01*
X101260857Y71565885D02*
X101356095Y71518266D01*
X101356095Y71518266D02*
X101498952Y71518266D01*
X101498952Y71518266D02*
X101594190Y71565885D01*
X101594190Y71565885D02*
X101641809Y71613504D01*
X101641809Y71613504D02*
X101689428Y71708742D01*
X101689428Y71708742D02*
X101689428Y72089694D01*
X102165619Y71089694D02*
X101165619Y71089694D01*
X101165619Y71089694D02*
X102165619Y70518266D01*
X102165619Y70518266D02*
X101165619Y70518266D01*
X102165619Y69518266D02*
X102165619Y70089694D01*
X102165619Y69803980D02*
X101165619Y69803980D01*
X101165619Y69803980D02*
X101308476Y69899218D01*
X101308476Y69899218D02*
X101403714Y69994456D01*
X101403714Y69994456D02*
X101451333Y70089694D01*
X101260857Y69137313D02*
X101213238Y69089694D01*
X101213238Y69089694D02*
X101165619Y68994456D01*
X101165619Y68994456D02*
X101165619Y68756361D01*
X101165619Y68756361D02*
X101213238Y68661123D01*
X101213238Y68661123D02*
X101260857Y68613504D01*
X101260857Y68613504D02*
X101356095Y68565885D01*
X101356095Y68565885D02*
X101451333Y68565885D01*
X101451333Y68565885D02*
X101594190Y68613504D01*
X101594190Y68613504D02*
X102165619Y69184932D01*
X102165619Y69184932D02*
X102165619Y68565885D01*
X42695466Y64257980D02*
X43028799Y64734171D01*
X43266894Y64257980D02*
X43266894Y65257980D01*
X43266894Y65257980D02*
X42885942Y65257980D01*
X42885942Y65257980D02*
X42790704Y65210361D01*
X42790704Y65210361D02*
X42743085Y65162742D01*
X42743085Y65162742D02*
X42695466Y65067504D01*
X42695466Y65067504D02*
X42695466Y64924647D01*
X42695466Y64924647D02*
X42743085Y64829409D01*
X42743085Y64829409D02*
X42790704Y64781790D01*
X42790704Y64781790D02*
X42885942Y64734171D01*
X42885942Y64734171D02*
X43266894Y64734171D01*
X41838323Y65257980D02*
X42028799Y65257980D01*
X42028799Y65257980D02*
X42124037Y65210361D01*
X42124037Y65210361D02*
X42171656Y65162742D01*
X42171656Y65162742D02*
X42266894Y65019885D01*
X42266894Y65019885D02*
X42314513Y64829409D01*
X42314513Y64829409D02*
X42314513Y64448457D01*
X42314513Y64448457D02*
X42266894Y64353219D01*
X42266894Y64353219D02*
X42219275Y64305600D01*
X42219275Y64305600D02*
X42124037Y64257980D01*
X42124037Y64257980D02*
X41933561Y64257980D01*
X41933561Y64257980D02*
X41838323Y64305600D01*
X41838323Y64305600D02*
X41790704Y64353219D01*
X41790704Y64353219D02*
X41743085Y64448457D01*
X41743085Y64448457D02*
X41743085Y64686552D01*
X41743085Y64686552D02*
X41790704Y64781790D01*
X41790704Y64781790D02*
X41838323Y64829409D01*
X41838323Y64829409D02*
X41933561Y64877028D01*
X41933561Y64877028D02*
X42124037Y64877028D01*
X42124037Y64877028D02*
X42219275Y64829409D01*
X42219275Y64829409D02*
X42266894Y64781790D01*
X42266894Y64781790D02*
X42314513Y64686552D01*
X56125657Y24983219D02*
X56173276Y24935600D01*
X56173276Y24935600D02*
X56316133Y24887980D01*
X56316133Y24887980D02*
X56411371Y24887980D01*
X56411371Y24887980D02*
X56554228Y24935600D01*
X56554228Y24935600D02*
X56649466Y25030838D01*
X56649466Y25030838D02*
X56697085Y25126076D01*
X56697085Y25126076D02*
X56744704Y25316552D01*
X56744704Y25316552D02*
X56744704Y25459409D01*
X56744704Y25459409D02*
X56697085Y25649885D01*
X56697085Y25649885D02*
X56649466Y25745123D01*
X56649466Y25745123D02*
X56554228Y25840361D01*
X56554228Y25840361D02*
X56411371Y25887980D01*
X56411371Y25887980D02*
X56316133Y25887980D01*
X56316133Y25887980D02*
X56173276Y25840361D01*
X56173276Y25840361D02*
X56125657Y25792742D01*
X55173276Y24887980D02*
X55744704Y24887980D01*
X55458990Y24887980D02*
X55458990Y25887980D01*
X55458990Y25887980D02*
X55554228Y25745123D01*
X55554228Y25745123D02*
X55649466Y25649885D01*
X55649466Y25649885D02*
X55744704Y25602266D01*
X54839942Y25887980D02*
X54220895Y25887980D01*
X54220895Y25887980D02*
X54554228Y25507028D01*
X54554228Y25507028D02*
X54411371Y25507028D01*
X54411371Y25507028D02*
X54316133Y25459409D01*
X54316133Y25459409D02*
X54268514Y25411790D01*
X54268514Y25411790D02*
X54220895Y25316552D01*
X54220895Y25316552D02*
X54220895Y25078457D01*
X54220895Y25078457D02*
X54268514Y24983219D01*
X54268514Y24983219D02*
X54316133Y24935600D01*
X54316133Y24935600D02*
X54411371Y24887980D01*
X54411371Y24887980D02*
X54697085Y24887980D01*
X54697085Y24887980D02*
X54792323Y24935600D01*
X54792323Y24935600D02*
X54839942Y24983219D01*
X77868057Y18582419D02*
X77915676Y18534800D01*
X77915676Y18534800D02*
X78058533Y18487180D01*
X78058533Y18487180D02*
X78153771Y18487180D01*
X78153771Y18487180D02*
X78296628Y18534800D01*
X78296628Y18534800D02*
X78391866Y18630038D01*
X78391866Y18630038D02*
X78439485Y18725276D01*
X78439485Y18725276D02*
X78487104Y18915752D01*
X78487104Y18915752D02*
X78487104Y19058609D01*
X78487104Y19058609D02*
X78439485Y19249085D01*
X78439485Y19249085D02*
X78391866Y19344323D01*
X78391866Y19344323D02*
X78296628Y19439561D01*
X78296628Y19439561D02*
X78153771Y19487180D01*
X78153771Y19487180D02*
X78058533Y19487180D01*
X78058533Y19487180D02*
X77915676Y19439561D01*
X77915676Y19439561D02*
X77868057Y19391942D01*
X76915676Y18487180D02*
X77487104Y18487180D01*
X77201390Y18487180D02*
X77201390Y19487180D01*
X77201390Y19487180D02*
X77296628Y19344323D01*
X77296628Y19344323D02*
X77391866Y19249085D01*
X77391866Y19249085D02*
X77487104Y19201466D01*
X76058533Y19153847D02*
X76058533Y18487180D01*
X76296628Y19534800D02*
X76534723Y18820514D01*
X76534723Y18820514D02*
X75915676Y18820514D01*
X55752171Y84783941D02*
X55104808Y84482071D01*
X55104808Y84482071D02*
X54995460Y84378539D01*
X54995460Y84378539D02*
X54949395Y84251975D01*
X54949395Y84251975D02*
X54966611Y84102378D01*
X54966611Y84102378D02*
X55006861Y84016063D01*
X55067699Y85463061D02*
X54463494Y85181316D01*
X55513583Y85408271D02*
X54966844Y84890614D01*
X54966844Y84890614D02*
X54705223Y85451661D01*
X111462019Y46200876D02*
X110985828Y46534209D01*
X111462019Y46772304D02*
X110462019Y46772304D01*
X110462019Y46772304D02*
X110462019Y46391352D01*
X110462019Y46391352D02*
X110509638Y46296114D01*
X110509638Y46296114D02*
X110557257Y46248495D01*
X110557257Y46248495D02*
X110652495Y46200876D01*
X110652495Y46200876D02*
X110795352Y46200876D01*
X110795352Y46200876D02*
X110890590Y46248495D01*
X110890590Y46248495D02*
X110938209Y46296114D01*
X110938209Y46296114D02*
X110985828Y46391352D01*
X110985828Y46391352D02*
X110985828Y46772304D01*
X111462019Y45772304D02*
X110462019Y45772304D01*
X110462019Y45772304D02*
X111462019Y45200876D01*
X111462019Y45200876D02*
X110462019Y45200876D01*
X110462019Y44248495D02*
X110462019Y44724685D01*
X110462019Y44724685D02*
X110938209Y44772304D01*
X110938209Y44772304D02*
X110890590Y44724685D01*
X110890590Y44724685D02*
X110842971Y44629447D01*
X110842971Y44629447D02*
X110842971Y44391352D01*
X110842971Y44391352D02*
X110890590Y44296114D01*
X110890590Y44296114D02*
X110938209Y44248495D01*
X110938209Y44248495D02*
X111033447Y44200876D01*
X111033447Y44200876D02*
X111271542Y44200876D01*
X111271542Y44200876D02*
X111366780Y44248495D01*
X111366780Y44248495D02*
X111414400Y44296114D01*
X111414400Y44296114D02*
X111462019Y44391352D01*
X111462019Y44391352D02*
X111462019Y44629447D01*
X111462019Y44629447D02*
X111414400Y44724685D01*
X111414400Y44724685D02*
X111366780Y44772304D01*
X55668457Y26767580D02*
X56001790Y27243771D01*
X56239885Y26767580D02*
X56239885Y27767580D01*
X56239885Y27767580D02*
X55858933Y27767580D01*
X55858933Y27767580D02*
X55763695Y27719961D01*
X55763695Y27719961D02*
X55716076Y27672342D01*
X55716076Y27672342D02*
X55668457Y27577104D01*
X55668457Y27577104D02*
X55668457Y27434247D01*
X55668457Y27434247D02*
X55716076Y27339009D01*
X55716076Y27339009D02*
X55763695Y27291390D01*
X55763695Y27291390D02*
X55858933Y27243771D01*
X55858933Y27243771D02*
X56239885Y27243771D01*
X54716076Y26767580D02*
X55287504Y26767580D01*
X55001790Y26767580D02*
X55001790Y27767580D01*
X55001790Y27767580D02*
X55097028Y27624723D01*
X55097028Y27624723D02*
X55192266Y27529485D01*
X55192266Y27529485D02*
X55287504Y27481866D01*
X53858933Y27767580D02*
X54049409Y27767580D01*
X54049409Y27767580D02*
X54144647Y27719961D01*
X54144647Y27719961D02*
X54192266Y27672342D01*
X54192266Y27672342D02*
X54287504Y27529485D01*
X54287504Y27529485D02*
X54335123Y27339009D01*
X54335123Y27339009D02*
X54335123Y26958057D01*
X54335123Y26958057D02*
X54287504Y26862819D01*
X54287504Y26862819D02*
X54239885Y26815200D01*
X54239885Y26815200D02*
X54144647Y26767580D01*
X54144647Y26767580D02*
X53954171Y26767580D01*
X53954171Y26767580D02*
X53858933Y26815200D01*
X53858933Y26815200D02*
X53811314Y26862819D01*
X53811314Y26862819D02*
X53763695Y26958057D01*
X53763695Y26958057D02*
X53763695Y27196152D01*
X53763695Y27196152D02*
X53811314Y27291390D01*
X53811314Y27291390D02*
X53858933Y27339009D01*
X53858933Y27339009D02*
X53954171Y27386628D01*
X53954171Y27386628D02*
X54144647Y27386628D01*
X54144647Y27386628D02*
X54239885Y27339009D01*
X54239885Y27339009D02*
X54287504Y27291390D01*
X54287504Y27291390D02*
X54335123Y27196152D01*
X77766457Y27885180D02*
X78099790Y28361371D01*
X78337885Y27885180D02*
X78337885Y28885180D01*
X78337885Y28885180D02*
X77956933Y28885180D01*
X77956933Y28885180D02*
X77861695Y28837561D01*
X77861695Y28837561D02*
X77814076Y28789942D01*
X77814076Y28789942D02*
X77766457Y28694704D01*
X77766457Y28694704D02*
X77766457Y28551847D01*
X77766457Y28551847D02*
X77814076Y28456609D01*
X77814076Y28456609D02*
X77861695Y28408990D01*
X77861695Y28408990D02*
X77956933Y28361371D01*
X77956933Y28361371D02*
X78337885Y28361371D01*
X76814076Y27885180D02*
X77385504Y27885180D01*
X77099790Y27885180D02*
X77099790Y28885180D01*
X77099790Y28885180D02*
X77195028Y28742323D01*
X77195028Y28742323D02*
X77290266Y28647085D01*
X77290266Y28647085D02*
X77385504Y28599466D01*
X75956933Y28551847D02*
X75956933Y27885180D01*
X76195028Y28932800D02*
X76433123Y28218514D01*
X76433123Y28218514D02*
X75814076Y28218514D01*
X88440118Y17403896D02*
X89087481Y17102026D01*
X89087481Y17102026D02*
X89237078Y17084810D01*
X89237078Y17084810D02*
X89363642Y17130875D01*
X89363642Y17130875D02*
X89467174Y17240223D01*
X89467174Y17240223D02*
X89507423Y17326538D01*
X88923808Y16074970D02*
X89165304Y16592860D01*
X89044556Y16333915D02*
X88138248Y16756533D01*
X88138248Y16756533D02*
X88307970Y16782474D01*
X88307970Y16782474D02*
X88434534Y16828540D01*
X88434534Y16828540D02*
X88517941Y16894730D01*
X87942817Y16112079D02*
X87879535Y16089046D01*
X87879535Y16089046D02*
X87796128Y16022856D01*
X87796128Y16022856D02*
X87695505Y15807068D01*
X87695505Y15807068D02*
X87698413Y15700628D01*
X87698413Y15700628D02*
X87721446Y15637346D01*
X87721446Y15637346D02*
X87787636Y15553939D01*
X87787636Y15553939D02*
X87873951Y15513690D01*
X87873951Y15513690D02*
X88023548Y15496473D01*
X88023548Y15496473D02*
X88782935Y15772867D01*
X88782935Y15772867D02*
X88521314Y15211820D01*
X99743866Y66239180D02*
X100077199Y66715371D01*
X100315294Y66239180D02*
X100315294Y67239180D01*
X100315294Y67239180D02*
X99934342Y67239180D01*
X99934342Y67239180D02*
X99839104Y67191561D01*
X99839104Y67191561D02*
X99791485Y67143942D01*
X99791485Y67143942D02*
X99743866Y67048704D01*
X99743866Y67048704D02*
X99743866Y66905847D01*
X99743866Y66905847D02*
X99791485Y66810609D01*
X99791485Y66810609D02*
X99839104Y66762990D01*
X99839104Y66762990D02*
X99934342Y66715371D01*
X99934342Y66715371D02*
X100315294Y66715371D01*
X98839104Y67239180D02*
X99315294Y67239180D01*
X99315294Y67239180D02*
X99362913Y66762990D01*
X99362913Y66762990D02*
X99315294Y66810609D01*
X99315294Y66810609D02*
X99220056Y66858228D01*
X99220056Y66858228D02*
X98981961Y66858228D01*
X98981961Y66858228D02*
X98886723Y66810609D01*
X98886723Y66810609D02*
X98839104Y66762990D01*
X98839104Y66762990D02*
X98791485Y66667752D01*
X98791485Y66667752D02*
X98791485Y66429657D01*
X98791485Y66429657D02*
X98839104Y66334419D01*
X98839104Y66334419D02*
X98886723Y66286800D01*
X98886723Y66286800D02*
X98981961Y66239180D01*
X98981961Y66239180D02*
X99220056Y66239180D01*
X99220056Y66239180D02*
X99315294Y66286800D01*
X99315294Y66286800D02*
X99362913Y66334419D01*
X78848419Y31065657D02*
X78372228Y31398990D01*
X78848419Y31637085D02*
X77848419Y31637085D01*
X77848419Y31637085D02*
X77848419Y31256133D01*
X77848419Y31256133D02*
X77896038Y31160895D01*
X77896038Y31160895D02*
X77943657Y31113276D01*
X77943657Y31113276D02*
X78038895Y31065657D01*
X78038895Y31065657D02*
X78181752Y31065657D01*
X78181752Y31065657D02*
X78276990Y31113276D01*
X78276990Y31113276D02*
X78324609Y31160895D01*
X78324609Y31160895D02*
X78372228Y31256133D01*
X78372228Y31256133D02*
X78372228Y31637085D01*
X78848419Y30113276D02*
X78848419Y30684704D01*
X78848419Y30398990D02*
X77848419Y30398990D01*
X77848419Y30398990D02*
X77991276Y30494228D01*
X77991276Y30494228D02*
X78086514Y30589466D01*
X78086514Y30589466D02*
X78134133Y30684704D01*
X78848419Y29637085D02*
X78848419Y29446609D01*
X78848419Y29446609D02*
X78800800Y29351371D01*
X78800800Y29351371D02*
X78753180Y29303752D01*
X78753180Y29303752D02*
X78610323Y29208514D01*
X78610323Y29208514D02*
X78419847Y29160895D01*
X78419847Y29160895D02*
X78038895Y29160895D01*
X78038895Y29160895D02*
X77943657Y29208514D01*
X77943657Y29208514D02*
X77896038Y29256133D01*
X77896038Y29256133D02*
X77848419Y29351371D01*
X77848419Y29351371D02*
X77848419Y29541847D01*
X77848419Y29541847D02*
X77896038Y29637085D01*
X77896038Y29637085D02*
X77943657Y29684704D01*
X77943657Y29684704D02*
X78038895Y29732323D01*
X78038895Y29732323D02*
X78276990Y29732323D01*
X78276990Y29732323D02*
X78372228Y29684704D01*
X78372228Y29684704D02*
X78419847Y29637085D01*
X78419847Y29637085D02*
X78467466Y29541847D01*
X78467466Y29541847D02*
X78467466Y29351371D01*
X78467466Y29351371D02*
X78419847Y29256133D01*
X78419847Y29256133D02*
X78372228Y29208514D01*
X78372228Y29208514D02*
X78276990Y29160895D01*
X99591466Y30469619D02*
X99639085Y30422000D01*
X99639085Y30422000D02*
X99781942Y30374380D01*
X99781942Y30374380D02*
X99877180Y30374380D01*
X99877180Y30374380D02*
X100020037Y30422000D01*
X100020037Y30422000D02*
X100115275Y30517238D01*
X100115275Y30517238D02*
X100162894Y30612476D01*
X100162894Y30612476D02*
X100210513Y30802952D01*
X100210513Y30802952D02*
X100210513Y30945809D01*
X100210513Y30945809D02*
X100162894Y31136285D01*
X100162894Y31136285D02*
X100115275Y31231523D01*
X100115275Y31231523D02*
X100020037Y31326761D01*
X100020037Y31326761D02*
X99877180Y31374380D01*
X99877180Y31374380D02*
X99781942Y31374380D01*
X99781942Y31374380D02*
X99639085Y31326761D01*
X99639085Y31326761D02*
X99591466Y31279142D01*
X98734323Y31374380D02*
X98924799Y31374380D01*
X98924799Y31374380D02*
X99020037Y31326761D01*
X99020037Y31326761D02*
X99067656Y31279142D01*
X99067656Y31279142D02*
X99162894Y31136285D01*
X99162894Y31136285D02*
X99210513Y30945809D01*
X99210513Y30945809D02*
X99210513Y30564857D01*
X99210513Y30564857D02*
X99162894Y30469619D01*
X99162894Y30469619D02*
X99115275Y30422000D01*
X99115275Y30422000D02*
X99020037Y30374380D01*
X99020037Y30374380D02*
X98829561Y30374380D01*
X98829561Y30374380D02*
X98734323Y30422000D01*
X98734323Y30422000D02*
X98686704Y30469619D01*
X98686704Y30469619D02*
X98639085Y30564857D01*
X98639085Y30564857D02*
X98639085Y30802952D01*
X98639085Y30802952D02*
X98686704Y30898190D01*
X98686704Y30898190D02*
X98734323Y30945809D01*
X98734323Y30945809D02*
X98829561Y30993428D01*
X98829561Y30993428D02*
X99020037Y30993428D01*
X99020037Y30993428D02*
X99115275Y30945809D01*
X99115275Y30945809D02*
X99162894Y30898190D01*
X99162894Y30898190D02*
X99210513Y30802952D01*
X31915580Y45473866D02*
X31963200Y45521485D01*
X31963200Y45521485D02*
X32010819Y45664342D01*
X32010819Y45664342D02*
X32010819Y45759580D01*
X32010819Y45759580D02*
X31963200Y45902437D01*
X31963200Y45902437D02*
X31867961Y45997675D01*
X31867961Y45997675D02*
X31772723Y46045294D01*
X31772723Y46045294D02*
X31582247Y46092913D01*
X31582247Y46092913D02*
X31439390Y46092913D01*
X31439390Y46092913D02*
X31248914Y46045294D01*
X31248914Y46045294D02*
X31153676Y45997675D01*
X31153676Y45997675D02*
X31058438Y45902437D01*
X31058438Y45902437D02*
X31010819Y45759580D01*
X31010819Y45759580D02*
X31010819Y45664342D01*
X31010819Y45664342D02*
X31058438Y45521485D01*
X31058438Y45521485D02*
X31106057Y45473866D01*
X31010819Y45140532D02*
X31010819Y44473866D01*
X31010819Y44473866D02*
X32010819Y44902437D01*
X50146419Y55684666D02*
X49670228Y56017999D01*
X50146419Y56256094D02*
X49146419Y56256094D01*
X49146419Y56256094D02*
X49146419Y55875142D01*
X49146419Y55875142D02*
X49194038Y55779904D01*
X49194038Y55779904D02*
X49241657Y55732285D01*
X49241657Y55732285D02*
X49336895Y55684666D01*
X49336895Y55684666D02*
X49479752Y55684666D01*
X49479752Y55684666D02*
X49574990Y55732285D01*
X49574990Y55732285D02*
X49622609Y55779904D01*
X49622609Y55779904D02*
X49670228Y55875142D01*
X49670228Y55875142D02*
X49670228Y56256094D01*
X49574990Y55113237D02*
X49527371Y55208475D01*
X49527371Y55208475D02*
X49479752Y55256094D01*
X49479752Y55256094D02*
X49384514Y55303713D01*
X49384514Y55303713D02*
X49336895Y55303713D01*
X49336895Y55303713D02*
X49241657Y55256094D01*
X49241657Y55256094D02*
X49194038Y55208475D01*
X49194038Y55208475D02*
X49146419Y55113237D01*
X49146419Y55113237D02*
X49146419Y54922761D01*
X49146419Y54922761D02*
X49194038Y54827523D01*
X49194038Y54827523D02*
X49241657Y54779904D01*
X49241657Y54779904D02*
X49336895Y54732285D01*
X49336895Y54732285D02*
X49384514Y54732285D01*
X49384514Y54732285D02*
X49479752Y54779904D01*
X49479752Y54779904D02*
X49527371Y54827523D01*
X49527371Y54827523D02*
X49574990Y54922761D01*
X49574990Y54922761D02*
X49574990Y55113237D01*
X49574990Y55113237D02*
X49622609Y55208475D01*
X49622609Y55208475D02*
X49670228Y55256094D01*
X49670228Y55256094D02*
X49765466Y55303713D01*
X49765466Y55303713D02*
X49955942Y55303713D01*
X49955942Y55303713D02*
X50051180Y55256094D01*
X50051180Y55256094D02*
X50098800Y55208475D01*
X50098800Y55208475D02*
X50146419Y55113237D01*
X50146419Y55113237D02*
X50146419Y54922761D01*
X50146419Y54922761D02*
X50098800Y54827523D01*
X50098800Y54827523D02*
X50051180Y54779904D01*
X50051180Y54779904D02*
X49955942Y54732285D01*
X49955942Y54732285D02*
X49765466Y54732285D01*
X49765466Y54732285D02*
X49670228Y54779904D01*
X49670228Y54779904D02*
X49622609Y54827523D01*
X49622609Y54827523D02*
X49574990Y54922761D01*
X115745118Y17403896D02*
X116392481Y17102026D01*
X116392481Y17102026D02*
X116542078Y17084810D01*
X116542078Y17084810D02*
X116668642Y17130875D01*
X116668642Y17130875D02*
X116772174Y17240223D01*
X116772174Y17240223D02*
X116812423Y17326538D01*
X116228808Y16074970D02*
X116470304Y16592860D01*
X116349556Y16333915D02*
X115443248Y16756533D01*
X115443248Y16756533D02*
X115612970Y16782474D01*
X115612970Y16782474D02*
X115739534Y16828540D01*
X115739534Y16828540D02*
X115822941Y16894730D01*
X115826314Y15211820D02*
X116067810Y15729710D01*
X115947062Y15470765D02*
X115040754Y15893383D01*
X115040754Y15893383D02*
X115210476Y15919324D01*
X115210476Y15919324D02*
X115337041Y15965390D01*
X115337041Y15965390D02*
X115420447Y16031580D01*
X134404580Y39301666D02*
X134452200Y39349285D01*
X134452200Y39349285D02*
X134499819Y39492142D01*
X134499819Y39492142D02*
X134499819Y39587380D01*
X134499819Y39587380D02*
X134452200Y39730237D01*
X134452200Y39730237D02*
X134356961Y39825475D01*
X134356961Y39825475D02*
X134261723Y39873094D01*
X134261723Y39873094D02*
X134071247Y39920713D01*
X134071247Y39920713D02*
X133928390Y39920713D01*
X133928390Y39920713D02*
X133737914Y39873094D01*
X133737914Y39873094D02*
X133642676Y39825475D01*
X133642676Y39825475D02*
X133547438Y39730237D01*
X133547438Y39730237D02*
X133499819Y39587380D01*
X133499819Y39587380D02*
X133499819Y39492142D01*
X133499819Y39492142D02*
X133547438Y39349285D01*
X133547438Y39349285D02*
X133595057Y39301666D01*
X134499819Y38349285D02*
X134499819Y38920713D01*
X134499819Y38634999D02*
X133499819Y38634999D01*
X133499819Y38634999D02*
X133642676Y38730237D01*
X133642676Y38730237D02*
X133737914Y38825475D01*
X133737914Y38825475D02*
X133785533Y38920713D01*
X113853966Y28082019D02*
X113901585Y28034400D01*
X113901585Y28034400D02*
X114044442Y27986780D01*
X114044442Y27986780D02*
X114139680Y27986780D01*
X114139680Y27986780D02*
X114282537Y28034400D01*
X114282537Y28034400D02*
X114377775Y28129638D01*
X114377775Y28129638D02*
X114425394Y28224876D01*
X114425394Y28224876D02*
X114473013Y28415352D01*
X114473013Y28415352D02*
X114473013Y28558209D01*
X114473013Y28558209D02*
X114425394Y28748685D01*
X114425394Y28748685D02*
X114377775Y28843923D01*
X114377775Y28843923D02*
X114282537Y28939161D01*
X114282537Y28939161D02*
X114139680Y28986780D01*
X114139680Y28986780D02*
X114044442Y28986780D01*
X114044442Y28986780D02*
X113901585Y28939161D01*
X113901585Y28939161D02*
X113853966Y28891542D01*
X113520632Y28986780D02*
X112901585Y28986780D01*
X112901585Y28986780D02*
X113234918Y28605828D01*
X113234918Y28605828D02*
X113092061Y28605828D01*
X113092061Y28605828D02*
X112996823Y28558209D01*
X112996823Y28558209D02*
X112949204Y28510590D01*
X112949204Y28510590D02*
X112901585Y28415352D01*
X112901585Y28415352D02*
X112901585Y28177257D01*
X112901585Y28177257D02*
X112949204Y28082019D01*
X112949204Y28082019D02*
X112996823Y28034400D01*
X112996823Y28034400D02*
X113092061Y27986780D01*
X113092061Y27986780D02*
X113377775Y27986780D01*
X113377775Y27986780D02*
X113473013Y28034400D01*
X113473013Y28034400D02*
X113520632Y28082019D01*
X90044404Y68763180D02*
X90044404Y67953657D01*
X90044404Y67953657D02*
X89996785Y67858419D01*
X89996785Y67858419D02*
X89949166Y67810800D01*
X89949166Y67810800D02*
X89853928Y67763180D01*
X89853928Y67763180D02*
X89663452Y67763180D01*
X89663452Y67763180D02*
X89568214Y67810800D01*
X89568214Y67810800D02*
X89520595Y67858419D01*
X89520595Y67858419D02*
X89472976Y67953657D01*
X89472976Y67953657D02*
X89472976Y68763180D01*
X88520595Y68763180D02*
X88996785Y68763180D01*
X88996785Y68763180D02*
X89044404Y68286990D01*
X89044404Y68286990D02*
X88996785Y68334609D01*
X88996785Y68334609D02*
X88901547Y68382228D01*
X88901547Y68382228D02*
X88663452Y68382228D01*
X88663452Y68382228D02*
X88568214Y68334609D01*
X88568214Y68334609D02*
X88520595Y68286990D01*
X88520595Y68286990D02*
X88472976Y68191752D01*
X88472976Y68191752D02*
X88472976Y67953657D01*
X88472976Y67953657D02*
X88520595Y67858419D01*
X88520595Y67858419D02*
X88568214Y67810800D01*
X88568214Y67810800D02*
X88663452Y67763180D01*
X88663452Y67763180D02*
X88901547Y67763180D01*
X88901547Y67763180D02*
X88996785Y67810800D01*
X88996785Y67810800D02*
X89044404Y67858419D01*
X97593619Y42562266D02*
X97117428Y42895599D01*
X97593619Y43133694D02*
X96593619Y43133694D01*
X96593619Y43133694D02*
X96593619Y42752742D01*
X96593619Y42752742D02*
X96641238Y42657504D01*
X96641238Y42657504D02*
X96688857Y42609885D01*
X96688857Y42609885D02*
X96784095Y42562266D01*
X96784095Y42562266D02*
X96926952Y42562266D01*
X96926952Y42562266D02*
X97022190Y42609885D01*
X97022190Y42609885D02*
X97069809Y42657504D01*
X97069809Y42657504D02*
X97117428Y42752742D01*
X97117428Y42752742D02*
X97117428Y43133694D01*
X97593619Y42133694D02*
X96593619Y42133694D01*
X96593619Y42133694D02*
X97593619Y41562266D01*
X97593619Y41562266D02*
X96593619Y41562266D01*
X97593619Y40562266D02*
X97593619Y41133694D01*
X97593619Y40847980D02*
X96593619Y40847980D01*
X96593619Y40847980D02*
X96736476Y40943218D01*
X96736476Y40943218D02*
X96831714Y41038456D01*
X96831714Y41038456D02*
X96879333Y41133694D01*
X96593619Y39943218D02*
X96593619Y39847980D01*
X96593619Y39847980D02*
X96641238Y39752742D01*
X96641238Y39752742D02*
X96688857Y39705123D01*
X96688857Y39705123D02*
X96784095Y39657504D01*
X96784095Y39657504D02*
X96974571Y39609885D01*
X96974571Y39609885D02*
X97212666Y39609885D01*
X97212666Y39609885D02*
X97403142Y39657504D01*
X97403142Y39657504D02*
X97498380Y39705123D01*
X97498380Y39705123D02*
X97546000Y39752742D01*
X97546000Y39752742D02*
X97593619Y39847980D01*
X97593619Y39847980D02*
X97593619Y39943218D01*
X97593619Y39943218D02*
X97546000Y40038456D01*
X97546000Y40038456D02*
X97498380Y40086075D01*
X97498380Y40086075D02*
X97403142Y40133694D01*
X97403142Y40133694D02*
X97212666Y40181313D01*
X97212666Y40181313D02*
X96974571Y40181313D01*
X96974571Y40181313D02*
X96784095Y40133694D01*
X96784095Y40133694D02*
X96688857Y40086075D01*
X96688857Y40086075D02*
X96641238Y40038456D01*
X96641238Y40038456D02*
X96593619Y39943218D01*
X115830819Y70991276D02*
X115354628Y71324609D01*
X115830819Y71562704D02*
X114830819Y71562704D01*
X114830819Y71562704D02*
X114830819Y71181752D01*
X114830819Y71181752D02*
X114878438Y71086514D01*
X114878438Y71086514D02*
X114926057Y71038895D01*
X114926057Y71038895D02*
X115021295Y70991276D01*
X115021295Y70991276D02*
X115164152Y70991276D01*
X115164152Y70991276D02*
X115259390Y71038895D01*
X115259390Y71038895D02*
X115307009Y71086514D01*
X115307009Y71086514D02*
X115354628Y71181752D01*
X115354628Y71181752D02*
X115354628Y71562704D01*
X115830819Y70562704D02*
X114830819Y70562704D01*
X114830819Y70562704D02*
X115830819Y69991276D01*
X115830819Y69991276D02*
X114830819Y69991276D01*
X115259390Y69372228D02*
X115211771Y69467466D01*
X115211771Y69467466D02*
X115164152Y69515085D01*
X115164152Y69515085D02*
X115068914Y69562704D01*
X115068914Y69562704D02*
X115021295Y69562704D01*
X115021295Y69562704D02*
X114926057Y69515085D01*
X114926057Y69515085D02*
X114878438Y69467466D01*
X114878438Y69467466D02*
X114830819Y69372228D01*
X114830819Y69372228D02*
X114830819Y69181752D01*
X114830819Y69181752D02*
X114878438Y69086514D01*
X114878438Y69086514D02*
X114926057Y69038895D01*
X114926057Y69038895D02*
X115021295Y68991276D01*
X115021295Y68991276D02*
X115068914Y68991276D01*
X115068914Y68991276D02*
X115164152Y69038895D01*
X115164152Y69038895D02*
X115211771Y69086514D01*
X115211771Y69086514D02*
X115259390Y69181752D01*
X115259390Y69181752D02*
X115259390Y69372228D01*
X115259390Y69372228D02*
X115307009Y69467466D01*
X115307009Y69467466D02*
X115354628Y69515085D01*
X115354628Y69515085D02*
X115449866Y69562704D01*
X115449866Y69562704D02*
X115640342Y69562704D01*
X115640342Y69562704D02*
X115735580Y69515085D01*
X115735580Y69515085D02*
X115783200Y69467466D01*
X115783200Y69467466D02*
X115830819Y69372228D01*
X115830819Y69372228D02*
X115830819Y69181752D01*
X115830819Y69181752D02*
X115783200Y69086514D01*
X115783200Y69086514D02*
X115735580Y69038895D01*
X115735580Y69038895D02*
X115640342Y68991276D01*
X115640342Y68991276D02*
X115449866Y68991276D01*
X115449866Y68991276D02*
X115354628Y69038895D01*
X115354628Y69038895D02*
X115307009Y69086514D01*
X115307009Y69086514D02*
X115259390Y69181752D01*
X71416457Y61311580D02*
X71749790Y61787771D01*
X71987885Y61311580D02*
X71987885Y62311580D01*
X71987885Y62311580D02*
X71606933Y62311580D01*
X71606933Y62311580D02*
X71511695Y62263961D01*
X71511695Y62263961D02*
X71464076Y62216342D01*
X71464076Y62216342D02*
X71416457Y62121104D01*
X71416457Y62121104D02*
X71416457Y61978247D01*
X71416457Y61978247D02*
X71464076Y61883009D01*
X71464076Y61883009D02*
X71511695Y61835390D01*
X71511695Y61835390D02*
X71606933Y61787771D01*
X71606933Y61787771D02*
X71987885Y61787771D01*
X70464076Y61311580D02*
X71035504Y61311580D01*
X70749790Y61311580D02*
X70749790Y62311580D01*
X70749790Y62311580D02*
X70845028Y62168723D01*
X70845028Y62168723D02*
X70940266Y62073485D01*
X70940266Y62073485D02*
X71035504Y62025866D01*
X69845028Y62311580D02*
X69749790Y62311580D01*
X69749790Y62311580D02*
X69654552Y62263961D01*
X69654552Y62263961D02*
X69606933Y62216342D01*
X69606933Y62216342D02*
X69559314Y62121104D01*
X69559314Y62121104D02*
X69511695Y61930628D01*
X69511695Y61930628D02*
X69511695Y61692533D01*
X69511695Y61692533D02*
X69559314Y61502057D01*
X69559314Y61502057D02*
X69606933Y61406819D01*
X69606933Y61406819D02*
X69654552Y61359200D01*
X69654552Y61359200D02*
X69749790Y61311580D01*
X69749790Y61311580D02*
X69845028Y61311580D01*
X69845028Y61311580D02*
X69940266Y61359200D01*
X69940266Y61359200D02*
X69987885Y61406819D01*
X69987885Y61406819D02*
X70035504Y61502057D01*
X70035504Y61502057D02*
X70083123Y61692533D01*
X70083123Y61692533D02*
X70083123Y61930628D01*
X70083123Y61930628D02*
X70035504Y62121104D01*
X70035504Y62121104D02*
X69987885Y62216342D01*
X69987885Y62216342D02*
X69940266Y62263961D01*
X69940266Y62263961D02*
X69845028Y62311580D01*
X82338457Y23770380D02*
X82671790Y24246571D01*
X82909885Y23770380D02*
X82909885Y24770380D01*
X82909885Y24770380D02*
X82528933Y24770380D01*
X82528933Y24770380D02*
X82433695Y24722761D01*
X82433695Y24722761D02*
X82386076Y24675142D01*
X82386076Y24675142D02*
X82338457Y24579904D01*
X82338457Y24579904D02*
X82338457Y24437047D01*
X82338457Y24437047D02*
X82386076Y24341809D01*
X82386076Y24341809D02*
X82433695Y24294190D01*
X82433695Y24294190D02*
X82528933Y24246571D01*
X82528933Y24246571D02*
X82909885Y24246571D01*
X81957504Y24675142D02*
X81909885Y24722761D01*
X81909885Y24722761D02*
X81814647Y24770380D01*
X81814647Y24770380D02*
X81576552Y24770380D01*
X81576552Y24770380D02*
X81481314Y24722761D01*
X81481314Y24722761D02*
X81433695Y24675142D01*
X81433695Y24675142D02*
X81386076Y24579904D01*
X81386076Y24579904D02*
X81386076Y24484666D01*
X81386076Y24484666D02*
X81433695Y24341809D01*
X81433695Y24341809D02*
X82005123Y23770380D01*
X82005123Y23770380D02*
X81386076Y23770380D01*
X80433695Y23770380D02*
X81005123Y23770380D01*
X80719409Y23770380D02*
X80719409Y24770380D01*
X80719409Y24770380D02*
X80814647Y24627523D01*
X80814647Y24627523D02*
X80909885Y24532285D01*
X80909885Y24532285D02*
X81005123Y24484666D01*
X55668457Y31796780D02*
X56001790Y32272971D01*
X56239885Y31796780D02*
X56239885Y32796780D01*
X56239885Y32796780D02*
X55858933Y32796780D01*
X55858933Y32796780D02*
X55763695Y32749161D01*
X55763695Y32749161D02*
X55716076Y32701542D01*
X55716076Y32701542D02*
X55668457Y32606304D01*
X55668457Y32606304D02*
X55668457Y32463447D01*
X55668457Y32463447D02*
X55716076Y32368209D01*
X55716076Y32368209D02*
X55763695Y32320590D01*
X55763695Y32320590D02*
X55858933Y32272971D01*
X55858933Y32272971D02*
X56239885Y32272971D01*
X54716076Y31796780D02*
X55287504Y31796780D01*
X55001790Y31796780D02*
X55001790Y32796780D01*
X55001790Y32796780D02*
X55097028Y32653923D01*
X55097028Y32653923D02*
X55192266Y32558685D01*
X55192266Y32558685D02*
X55287504Y32511066D01*
X54144647Y32368209D02*
X54239885Y32415828D01*
X54239885Y32415828D02*
X54287504Y32463447D01*
X54287504Y32463447D02*
X54335123Y32558685D01*
X54335123Y32558685D02*
X54335123Y32606304D01*
X54335123Y32606304D02*
X54287504Y32701542D01*
X54287504Y32701542D02*
X54239885Y32749161D01*
X54239885Y32749161D02*
X54144647Y32796780D01*
X54144647Y32796780D02*
X53954171Y32796780D01*
X53954171Y32796780D02*
X53858933Y32749161D01*
X53858933Y32749161D02*
X53811314Y32701542D01*
X53811314Y32701542D02*
X53763695Y32606304D01*
X53763695Y32606304D02*
X53763695Y32558685D01*
X53763695Y32558685D02*
X53811314Y32463447D01*
X53811314Y32463447D02*
X53858933Y32415828D01*
X53858933Y32415828D02*
X53954171Y32368209D01*
X53954171Y32368209D02*
X54144647Y32368209D01*
X54144647Y32368209D02*
X54239885Y32320590D01*
X54239885Y32320590D02*
X54287504Y32272971D01*
X54287504Y32272971D02*
X54335123Y32177733D01*
X54335123Y32177733D02*
X54335123Y31987257D01*
X54335123Y31987257D02*
X54287504Y31892019D01*
X54287504Y31892019D02*
X54239885Y31844400D01*
X54239885Y31844400D02*
X54144647Y31796780D01*
X54144647Y31796780D02*
X53954171Y31796780D01*
X53954171Y31796780D02*
X53858933Y31844400D01*
X53858933Y31844400D02*
X53811314Y31892019D01*
X53811314Y31892019D02*
X53763695Y31987257D01*
X53763695Y31987257D02*
X53763695Y32177733D01*
X53763695Y32177733D02*
X53811314Y32272971D01*
X53811314Y32272971D02*
X53858933Y32320590D01*
X53858933Y32320590D02*
X53954171Y32368209D01*
X79895333Y38949990D02*
X80228666Y38949990D01*
X80228666Y38426180D02*
X80228666Y39426180D01*
X80228666Y39426180D02*
X79752476Y39426180D01*
X78942952Y39092847D02*
X78942952Y38426180D01*
X79181047Y39473800D02*
X79419142Y38759514D01*
X79419142Y38759514D02*
X78800095Y38759514D01*
X65697580Y22632857D02*
X65745200Y22680476D01*
X65745200Y22680476D02*
X65792819Y22823333D01*
X65792819Y22823333D02*
X65792819Y22918571D01*
X65792819Y22918571D02*
X65745200Y23061428D01*
X65745200Y23061428D02*
X65649961Y23156666D01*
X65649961Y23156666D02*
X65554723Y23204285D01*
X65554723Y23204285D02*
X65364247Y23251904D01*
X65364247Y23251904D02*
X65221390Y23251904D01*
X65221390Y23251904D02*
X65030914Y23204285D01*
X65030914Y23204285D02*
X64935676Y23156666D01*
X64935676Y23156666D02*
X64840438Y23061428D01*
X64840438Y23061428D02*
X64792819Y22918571D01*
X64792819Y22918571D02*
X64792819Y22823333D01*
X64792819Y22823333D02*
X64840438Y22680476D01*
X64840438Y22680476D02*
X64888057Y22632857D01*
X65792819Y21680476D02*
X65792819Y22251904D01*
X65792819Y21966190D02*
X64792819Y21966190D01*
X64792819Y21966190D02*
X64935676Y22061428D01*
X64935676Y22061428D02*
X65030914Y22156666D01*
X65030914Y22156666D02*
X65078533Y22251904D01*
X64792819Y20775714D02*
X64792819Y21251904D01*
X64792819Y21251904D02*
X65269009Y21299523D01*
X65269009Y21299523D02*
X65221390Y21251904D01*
X65221390Y21251904D02*
X65173771Y21156666D01*
X65173771Y21156666D02*
X65173771Y20918571D01*
X65173771Y20918571D02*
X65221390Y20823333D01*
X65221390Y20823333D02*
X65269009Y20775714D01*
X65269009Y20775714D02*
X65364247Y20728095D01*
X65364247Y20728095D02*
X65602342Y20728095D01*
X65602342Y20728095D02*
X65697580Y20775714D01*
X65697580Y20775714D02*
X65745200Y20823333D01*
X65745200Y20823333D02*
X65792819Y20918571D01*
X65792819Y20918571D02*
X65792819Y21156666D01*
X65792819Y21156666D02*
X65745200Y21251904D01*
X65745200Y21251904D02*
X65697580Y21299523D01*
X66336457Y52415219D02*
X66384076Y52367600D01*
X66384076Y52367600D02*
X66526933Y52319980D01*
X66526933Y52319980D02*
X66622171Y52319980D01*
X66622171Y52319980D02*
X66765028Y52367600D01*
X66765028Y52367600D02*
X66860266Y52462838D01*
X66860266Y52462838D02*
X66907885Y52558076D01*
X66907885Y52558076D02*
X66955504Y52748552D01*
X66955504Y52748552D02*
X66955504Y52891409D01*
X66955504Y52891409D02*
X66907885Y53081885D01*
X66907885Y53081885D02*
X66860266Y53177123D01*
X66860266Y53177123D02*
X66765028Y53272361D01*
X66765028Y53272361D02*
X66622171Y53319980D01*
X66622171Y53319980D02*
X66526933Y53319980D01*
X66526933Y53319980D02*
X66384076Y53272361D01*
X66384076Y53272361D02*
X66336457Y53224742D01*
X65384076Y52319980D02*
X65955504Y52319980D01*
X65669790Y52319980D02*
X65669790Y53319980D01*
X65669790Y53319980D02*
X65765028Y53177123D01*
X65765028Y53177123D02*
X65860266Y53081885D01*
X65860266Y53081885D02*
X65955504Y53034266D01*
X65003123Y53224742D02*
X64955504Y53272361D01*
X64955504Y53272361D02*
X64860266Y53319980D01*
X64860266Y53319980D02*
X64622171Y53319980D01*
X64622171Y53319980D02*
X64526933Y53272361D01*
X64526933Y53272361D02*
X64479314Y53224742D01*
X64479314Y53224742D02*
X64431695Y53129504D01*
X64431695Y53129504D02*
X64431695Y53034266D01*
X64431695Y53034266D02*
X64479314Y52891409D01*
X64479314Y52891409D02*
X65050742Y52319980D01*
X65050742Y52319980D02*
X64431695Y52319980D01*
X54517504Y69017180D02*
X54517504Y68207657D01*
X54517504Y68207657D02*
X54469885Y68112419D01*
X54469885Y68112419D02*
X54422266Y68064800D01*
X54422266Y68064800D02*
X54327028Y68017180D01*
X54327028Y68017180D02*
X54136552Y68017180D01*
X54136552Y68017180D02*
X54041314Y68064800D01*
X54041314Y68064800D02*
X53993695Y68112419D01*
X53993695Y68112419D02*
X53946076Y68207657D01*
X53946076Y68207657D02*
X53946076Y69017180D01*
X53422266Y68017180D02*
X53231790Y68017180D01*
X53231790Y68017180D02*
X53136552Y68064800D01*
X53136552Y68064800D02*
X53088933Y68112419D01*
X53088933Y68112419D02*
X52993695Y68255276D01*
X52993695Y68255276D02*
X52946076Y68445752D01*
X52946076Y68445752D02*
X52946076Y68826704D01*
X52946076Y68826704D02*
X52993695Y68921942D01*
X52993695Y68921942D02*
X53041314Y68969561D01*
X53041314Y68969561D02*
X53136552Y69017180D01*
X53136552Y69017180D02*
X53327028Y69017180D01*
X53327028Y69017180D02*
X53422266Y68969561D01*
X53422266Y68969561D02*
X53469885Y68921942D01*
X53469885Y68921942D02*
X53517504Y68826704D01*
X53517504Y68826704D02*
X53517504Y68588609D01*
X53517504Y68588609D02*
X53469885Y68493371D01*
X53469885Y68493371D02*
X53422266Y68445752D01*
X53422266Y68445752D02*
X53327028Y68398133D01*
X53327028Y68398133D02*
X53136552Y68398133D01*
X53136552Y68398133D02*
X53041314Y68445752D01*
X53041314Y68445752D02*
X52993695Y68493371D01*
X52993695Y68493371D02*
X52946076Y68588609D01*
X106011580Y63780857D02*
X106059200Y63828476D01*
X106059200Y63828476D02*
X106106819Y63971333D01*
X106106819Y63971333D02*
X106106819Y64066571D01*
X106106819Y64066571D02*
X106059200Y64209428D01*
X106059200Y64209428D02*
X105963961Y64304666D01*
X105963961Y64304666D02*
X105868723Y64352285D01*
X105868723Y64352285D02*
X105678247Y64399904D01*
X105678247Y64399904D02*
X105535390Y64399904D01*
X105535390Y64399904D02*
X105344914Y64352285D01*
X105344914Y64352285D02*
X105249676Y64304666D01*
X105249676Y64304666D02*
X105154438Y64209428D01*
X105154438Y64209428D02*
X105106819Y64066571D01*
X105106819Y64066571D02*
X105106819Y63971333D01*
X105106819Y63971333D02*
X105154438Y63828476D01*
X105154438Y63828476D02*
X105202057Y63780857D01*
X106106819Y62828476D02*
X106106819Y63399904D01*
X106106819Y63114190D02*
X105106819Y63114190D01*
X105106819Y63114190D02*
X105249676Y63209428D01*
X105249676Y63209428D02*
X105344914Y63304666D01*
X105344914Y63304666D02*
X105392533Y63399904D01*
X106106819Y62352285D02*
X106106819Y62161809D01*
X106106819Y62161809D02*
X106059200Y62066571D01*
X106059200Y62066571D02*
X106011580Y62018952D01*
X106011580Y62018952D02*
X105868723Y61923714D01*
X105868723Y61923714D02*
X105678247Y61876095D01*
X105678247Y61876095D02*
X105297295Y61876095D01*
X105297295Y61876095D02*
X105202057Y61923714D01*
X105202057Y61923714D02*
X105154438Y61971333D01*
X105154438Y61971333D02*
X105106819Y62066571D01*
X105106819Y62066571D02*
X105106819Y62257047D01*
X105106819Y62257047D02*
X105154438Y62352285D01*
X105154438Y62352285D02*
X105202057Y62399904D01*
X105202057Y62399904D02*
X105297295Y62447523D01*
X105297295Y62447523D02*
X105535390Y62447523D01*
X105535390Y62447523D02*
X105630628Y62399904D01*
X105630628Y62399904D02*
X105678247Y62352285D01*
X105678247Y62352285D02*
X105725866Y62257047D01*
X105725866Y62257047D02*
X105725866Y62066571D01*
X105725866Y62066571D02*
X105678247Y61971333D01*
X105678247Y61971333D02*
X105630628Y61923714D01*
X105630628Y61923714D02*
X105535390Y61876095D01*
X65015657Y61717980D02*
X65348990Y62194171D01*
X65587085Y61717980D02*
X65587085Y62717980D01*
X65587085Y62717980D02*
X65206133Y62717980D01*
X65206133Y62717980D02*
X65110895Y62670361D01*
X65110895Y62670361D02*
X65063276Y62622742D01*
X65063276Y62622742D02*
X65015657Y62527504D01*
X65015657Y62527504D02*
X65015657Y62384647D01*
X65015657Y62384647D02*
X65063276Y62289409D01*
X65063276Y62289409D02*
X65110895Y62241790D01*
X65110895Y62241790D02*
X65206133Y62194171D01*
X65206133Y62194171D02*
X65587085Y62194171D01*
X64063276Y61717980D02*
X64634704Y61717980D01*
X64348990Y61717980D02*
X64348990Y62717980D01*
X64348990Y62717980D02*
X64444228Y62575123D01*
X64444228Y62575123D02*
X64539466Y62479885D01*
X64539466Y62479885D02*
X64634704Y62432266D01*
X63729942Y62717980D02*
X63110895Y62717980D01*
X63110895Y62717980D02*
X63444228Y62337028D01*
X63444228Y62337028D02*
X63301371Y62337028D01*
X63301371Y62337028D02*
X63206133Y62289409D01*
X63206133Y62289409D02*
X63158514Y62241790D01*
X63158514Y62241790D02*
X63110895Y62146552D01*
X63110895Y62146552D02*
X63110895Y61908457D01*
X63110895Y61908457D02*
X63158514Y61813219D01*
X63158514Y61813219D02*
X63206133Y61765600D01*
X63206133Y61765600D02*
X63301371Y61717980D01*
X63301371Y61717980D02*
X63587085Y61717980D01*
X63587085Y61717980D02*
X63682323Y61765600D01*
X63682323Y61765600D02*
X63729942Y61813219D01*
X82435333Y62190990D02*
X82768666Y62190990D01*
X82768666Y61667180D02*
X82768666Y62667180D01*
X82768666Y62667180D02*
X82292476Y62667180D01*
X81959142Y62571942D02*
X81911523Y62619561D01*
X81911523Y62619561D02*
X81816285Y62667180D01*
X81816285Y62667180D02*
X81578190Y62667180D01*
X81578190Y62667180D02*
X81482952Y62619561D01*
X81482952Y62619561D02*
X81435333Y62571942D01*
X81435333Y62571942D02*
X81387714Y62476704D01*
X81387714Y62476704D02*
X81387714Y62381466D01*
X81387714Y62381466D02*
X81435333Y62238609D01*
X81435333Y62238609D02*
X82006761Y61667180D01*
X82006761Y61667180D02*
X81387714Y61667180D01*
X134441580Y31554666D02*
X134489200Y31602285D01*
X134489200Y31602285D02*
X134536819Y31745142D01*
X134536819Y31745142D02*
X134536819Y31840380D01*
X134536819Y31840380D02*
X134489200Y31983237D01*
X134489200Y31983237D02*
X134393961Y32078475D01*
X134393961Y32078475D02*
X134298723Y32126094D01*
X134298723Y32126094D02*
X134108247Y32173713D01*
X134108247Y32173713D02*
X133965390Y32173713D01*
X133965390Y32173713D02*
X133774914Y32126094D01*
X133774914Y32126094D02*
X133679676Y32078475D01*
X133679676Y32078475D02*
X133584438Y31983237D01*
X133584438Y31983237D02*
X133536819Y31840380D01*
X133536819Y31840380D02*
X133536819Y31745142D01*
X133536819Y31745142D02*
X133584438Y31602285D01*
X133584438Y31602285D02*
X133632057Y31554666D01*
X133632057Y31173713D02*
X133584438Y31126094D01*
X133584438Y31126094D02*
X133536819Y31030856D01*
X133536819Y31030856D02*
X133536819Y30792761D01*
X133536819Y30792761D02*
X133584438Y30697523D01*
X133584438Y30697523D02*
X133632057Y30649904D01*
X133632057Y30649904D02*
X133727295Y30602285D01*
X133727295Y30602285D02*
X133822533Y30602285D01*
X133822533Y30602285D02*
X133965390Y30649904D01*
X133965390Y30649904D02*
X134536819Y31221332D01*
X134536819Y31221332D02*
X134536819Y30602285D01*
X73840494Y31069580D02*
X73840494Y30260057D01*
X73840494Y30260057D02*
X73792875Y30164819D01*
X73792875Y30164819D02*
X73745256Y30117200D01*
X73745256Y30117200D02*
X73650018Y30069580D01*
X73650018Y30069580D02*
X73459542Y30069580D01*
X73459542Y30069580D02*
X73364304Y30117200D01*
X73364304Y30117200D02*
X73316685Y30164819D01*
X73316685Y30164819D02*
X73269066Y30260057D01*
X73269066Y30260057D02*
X73269066Y31069580D01*
X72269066Y30069580D02*
X72840494Y30069580D01*
X72554780Y30069580D02*
X72554780Y31069580D01*
X72554780Y31069580D02*
X72650018Y30926723D01*
X72650018Y30926723D02*
X72745256Y30831485D01*
X72745256Y30831485D02*
X72840494Y30783866D01*
X71316685Y30069580D02*
X71888113Y30069580D01*
X71602399Y30069580D02*
X71602399Y31069580D01*
X71602399Y31069580D02*
X71697637Y30926723D01*
X71697637Y30926723D02*
X71792875Y30831485D01*
X71792875Y30831485D02*
X71888113Y30783866D01*
X62744819Y19534057D02*
X62268628Y19867390D01*
X62744819Y20105485D02*
X61744819Y20105485D01*
X61744819Y20105485D02*
X61744819Y19724533D01*
X61744819Y19724533D02*
X61792438Y19629295D01*
X61792438Y19629295D02*
X61840057Y19581676D01*
X61840057Y19581676D02*
X61935295Y19534057D01*
X61935295Y19534057D02*
X62078152Y19534057D01*
X62078152Y19534057D02*
X62173390Y19581676D01*
X62173390Y19581676D02*
X62221009Y19629295D01*
X62221009Y19629295D02*
X62268628Y19724533D01*
X62268628Y19724533D02*
X62268628Y20105485D01*
X62744819Y18581676D02*
X62744819Y19153104D01*
X62744819Y18867390D02*
X61744819Y18867390D01*
X61744819Y18867390D02*
X61887676Y18962628D01*
X61887676Y18962628D02*
X61982914Y19057866D01*
X61982914Y19057866D02*
X62030533Y19153104D01*
X61744819Y18248342D02*
X61744819Y17581676D01*
X61744819Y17581676D02*
X62744819Y18010247D01*
X125279619Y46200876D02*
X124803428Y46534209D01*
X125279619Y46772304D02*
X124279619Y46772304D01*
X124279619Y46772304D02*
X124279619Y46391352D01*
X124279619Y46391352D02*
X124327238Y46296114D01*
X124327238Y46296114D02*
X124374857Y46248495D01*
X124374857Y46248495D02*
X124470095Y46200876D01*
X124470095Y46200876D02*
X124612952Y46200876D01*
X124612952Y46200876D02*
X124708190Y46248495D01*
X124708190Y46248495D02*
X124755809Y46296114D01*
X124755809Y46296114D02*
X124803428Y46391352D01*
X124803428Y46391352D02*
X124803428Y46772304D01*
X125279619Y45772304D02*
X124279619Y45772304D01*
X124279619Y45772304D02*
X125279619Y45200876D01*
X125279619Y45200876D02*
X124279619Y45200876D01*
X125279619Y44200876D02*
X125279619Y44772304D01*
X125279619Y44486590D02*
X124279619Y44486590D01*
X124279619Y44486590D02*
X124422476Y44581828D01*
X124422476Y44581828D02*
X124517714Y44677066D01*
X124517714Y44677066D02*
X124565333Y44772304D01*
X61015085Y17774980D02*
X61015085Y18774980D01*
X61015085Y18774980D02*
X60776990Y18774980D01*
X60776990Y18774980D02*
X60634133Y18727361D01*
X60634133Y18727361D02*
X60538895Y18632123D01*
X60538895Y18632123D02*
X60491276Y18536885D01*
X60491276Y18536885D02*
X60443657Y18346409D01*
X60443657Y18346409D02*
X60443657Y18203552D01*
X60443657Y18203552D02*
X60491276Y18013076D01*
X60491276Y18013076D02*
X60538895Y17917838D01*
X60538895Y17917838D02*
X60634133Y17822600D01*
X60634133Y17822600D02*
X60776990Y17774980D01*
X60776990Y17774980D02*
X61015085Y17774980D01*
X59491276Y17774980D02*
X60062704Y17774980D01*
X59776990Y17774980D02*
X59776990Y18774980D01*
X59776990Y18774980D02*
X59872228Y18632123D01*
X59872228Y18632123D02*
X59967466Y18536885D01*
X59967466Y18536885D02*
X60062704Y18489266D01*
X58872228Y18774980D02*
X58776990Y18774980D01*
X58776990Y18774980D02*
X58681752Y18727361D01*
X58681752Y18727361D02*
X58634133Y18679742D01*
X58634133Y18679742D02*
X58586514Y18584504D01*
X58586514Y18584504D02*
X58538895Y18394028D01*
X58538895Y18394028D02*
X58538895Y18155933D01*
X58538895Y18155933D02*
X58586514Y17965457D01*
X58586514Y17965457D02*
X58634133Y17870219D01*
X58634133Y17870219D02*
X58681752Y17822600D01*
X58681752Y17822600D02*
X58776990Y17774980D01*
X58776990Y17774980D02*
X58872228Y17774980D01*
X58872228Y17774980D02*
X58967466Y17822600D01*
X58967466Y17822600D02*
X59015085Y17870219D01*
X59015085Y17870219D02*
X59062704Y17965457D01*
X59062704Y17965457D02*
X59110323Y18155933D01*
X59110323Y18155933D02*
X59110323Y18394028D01*
X59110323Y18394028D02*
X59062704Y18584504D01*
X59062704Y18584504D02*
X59015085Y18679742D01*
X59015085Y18679742D02*
X58967466Y18727361D01*
X58967466Y18727361D02*
X58872228Y18774980D01*
X110362171Y84783941D02*
X109714808Y84482071D01*
X109714808Y84482071D02*
X109605460Y84378539D01*
X109605460Y84378539D02*
X109559395Y84251975D01*
X109559395Y84251975D02*
X109576611Y84102378D01*
X109576611Y84102378D02*
X109616861Y84016063D01*
X109979802Y85603934D02*
X110060301Y85431304D01*
X110060301Y85431304D02*
X110057393Y85324864D01*
X110057393Y85324864D02*
X110034360Y85261582D01*
X110034360Y85261582D02*
X109945137Y85114893D01*
X109945137Y85114893D02*
X109792631Y84991237D01*
X109792631Y84991237D02*
X109447371Y84830239D01*
X109447371Y84830239D02*
X109340931Y84833148D01*
X109340931Y84833148D02*
X109277649Y84856180D01*
X109277649Y84856180D02*
X109194242Y84922371D01*
X109194242Y84922371D02*
X109113744Y85095001D01*
X109113744Y85095001D02*
X109116652Y85201441D01*
X109116652Y85201441D02*
X109139685Y85264723D01*
X109139685Y85264723D02*
X109205875Y85348130D01*
X109205875Y85348130D02*
X109421663Y85448753D01*
X109421663Y85448753D02*
X109528102Y85445845D01*
X109528102Y85445845D02*
X109591384Y85422812D01*
X109591384Y85422812D02*
X109674791Y85356622D01*
X109674791Y85356622D02*
X109755290Y85183992D01*
X109755290Y85183992D02*
X109752382Y85077552D01*
X109752382Y85077552D02*
X109729349Y85014270D01*
X109729349Y85014270D02*
X109663159Y84930863D01*
X86668819Y44207785D02*
X85668819Y44207785D01*
X85668819Y44207785D02*
X85668819Y43969690D01*
X85668819Y43969690D02*
X85716438Y43826833D01*
X85716438Y43826833D02*
X85811676Y43731595D01*
X85811676Y43731595D02*
X85906914Y43683976D01*
X85906914Y43683976D02*
X86097390Y43636357D01*
X86097390Y43636357D02*
X86240247Y43636357D01*
X86240247Y43636357D02*
X86430723Y43683976D01*
X86430723Y43683976D02*
X86525961Y43731595D01*
X86525961Y43731595D02*
X86621200Y43826833D01*
X86621200Y43826833D02*
X86668819Y43969690D01*
X86668819Y43969690D02*
X86668819Y44207785D01*
X86668819Y42683976D02*
X86668819Y43255404D01*
X86668819Y42969690D02*
X85668819Y42969690D01*
X85668819Y42969690D02*
X85811676Y43064928D01*
X85811676Y43064928D02*
X85906914Y43160166D01*
X85906914Y43160166D02*
X85954533Y43255404D01*
X86668819Y41731595D02*
X86668819Y42303023D01*
X86668819Y42017309D02*
X85668819Y42017309D01*
X85668819Y42017309D02*
X85811676Y42112547D01*
X85811676Y42112547D02*
X85906914Y42207785D01*
X85906914Y42207785D02*
X85954533Y42303023D01*
X89264704Y21773180D02*
X89264704Y20963657D01*
X89264704Y20963657D02*
X89217085Y20868419D01*
X89217085Y20868419D02*
X89169466Y20820800D01*
X89169466Y20820800D02*
X89074228Y20773180D01*
X89074228Y20773180D02*
X88883752Y20773180D01*
X88883752Y20773180D02*
X88788514Y20820800D01*
X88788514Y20820800D02*
X88740895Y20868419D01*
X88740895Y20868419D02*
X88693276Y20963657D01*
X88693276Y20963657D02*
X88693276Y21773180D01*
X87788514Y21773180D02*
X87978990Y21773180D01*
X87978990Y21773180D02*
X88074228Y21725561D01*
X88074228Y21725561D02*
X88121847Y21677942D01*
X88121847Y21677942D02*
X88217085Y21535085D01*
X88217085Y21535085D02*
X88264704Y21344609D01*
X88264704Y21344609D02*
X88264704Y20963657D01*
X88264704Y20963657D02*
X88217085Y20868419D01*
X88217085Y20868419D02*
X88169466Y20820800D01*
X88169466Y20820800D02*
X88074228Y20773180D01*
X88074228Y20773180D02*
X87883752Y20773180D01*
X87883752Y20773180D02*
X87788514Y20820800D01*
X87788514Y20820800D02*
X87740895Y20868419D01*
X87740895Y20868419D02*
X87693276Y20963657D01*
X87693276Y20963657D02*
X87693276Y21201752D01*
X87693276Y21201752D02*
X87740895Y21296990D01*
X87740895Y21296990D02*
X87788514Y21344609D01*
X87788514Y21344609D02*
X87883752Y21392228D01*
X87883752Y21392228D02*
X88074228Y21392228D01*
X88074228Y21392228D02*
X88169466Y21344609D01*
X88169466Y21344609D02*
X88217085Y21296990D01*
X88217085Y21296990D02*
X88264704Y21201752D01*
X61135118Y17403896D02*
X61782481Y17102026D01*
X61782481Y17102026D02*
X61932078Y17084810D01*
X61932078Y17084810D02*
X62058642Y17130875D01*
X62058642Y17130875D02*
X62162174Y17240223D01*
X62162174Y17240223D02*
X62202423Y17326538D01*
X61618808Y16074970D02*
X61860304Y16592860D01*
X61739556Y16333915D02*
X60833248Y16756533D01*
X60833248Y16756533D02*
X61002970Y16782474D01*
X61002970Y16782474D02*
X61129534Y16828540D01*
X61129534Y16828540D02*
X61212941Y16894730D01*
X60330131Y15677596D02*
X60531378Y16109171D01*
X60531378Y16109171D02*
X60983077Y15951081D01*
X60983077Y15951081D02*
X60919795Y15928049D01*
X60919795Y15928049D02*
X60836388Y15861858D01*
X60836388Y15861858D02*
X60735765Y15646071D01*
X60735765Y15646071D02*
X60738673Y15539631D01*
X60738673Y15539631D02*
X60761706Y15476349D01*
X60761706Y15476349D02*
X60827896Y15392942D01*
X60827896Y15392942D02*
X61043684Y15292318D01*
X61043684Y15292318D02*
X61150124Y15295227D01*
X61150124Y15295227D02*
X61213406Y15318259D01*
X61213406Y15318259D02*
X61296813Y15384450D01*
X61296813Y15384450D02*
X61397436Y15600237D01*
X61397436Y15600237D02*
X61394528Y15706677D01*
X61394528Y15706677D02*
X61371495Y15769959D01*
X110295904Y12747180D02*
X110295904Y11937657D01*
X110295904Y11937657D02*
X110248285Y11842419D01*
X110248285Y11842419D02*
X110200666Y11794800D01*
X110200666Y11794800D02*
X110105428Y11747180D01*
X110105428Y11747180D02*
X109914952Y11747180D01*
X109914952Y11747180D02*
X109819714Y11794800D01*
X109819714Y11794800D02*
X109772095Y11842419D01*
X109772095Y11842419D02*
X109724476Y11937657D01*
X109724476Y11937657D02*
X109724476Y12747180D01*
X108819714Y12413847D02*
X108819714Y11747180D01*
X109057809Y12794800D02*
X109295904Y12080514D01*
X109295904Y12080514D02*
X108676857Y12080514D01*
X65015657Y64105580D02*
X65348990Y64581771D01*
X65587085Y64105580D02*
X65587085Y65105580D01*
X65587085Y65105580D02*
X65206133Y65105580D01*
X65206133Y65105580D02*
X65110895Y65057961D01*
X65110895Y65057961D02*
X65063276Y65010342D01*
X65063276Y65010342D02*
X65015657Y64915104D01*
X65015657Y64915104D02*
X65015657Y64772247D01*
X65015657Y64772247D02*
X65063276Y64677009D01*
X65063276Y64677009D02*
X65110895Y64629390D01*
X65110895Y64629390D02*
X65206133Y64581771D01*
X65206133Y64581771D02*
X65587085Y64581771D01*
X64063276Y64105580D02*
X64634704Y64105580D01*
X64348990Y64105580D02*
X64348990Y65105580D01*
X64348990Y65105580D02*
X64444228Y64962723D01*
X64444228Y64962723D02*
X64539466Y64867485D01*
X64539466Y64867485D02*
X64634704Y64819866D01*
X63682323Y65010342D02*
X63634704Y65057961D01*
X63634704Y65057961D02*
X63539466Y65105580D01*
X63539466Y65105580D02*
X63301371Y65105580D01*
X63301371Y65105580D02*
X63206133Y65057961D01*
X63206133Y65057961D02*
X63158514Y65010342D01*
X63158514Y65010342D02*
X63110895Y64915104D01*
X63110895Y64915104D02*
X63110895Y64819866D01*
X63110895Y64819866D02*
X63158514Y64677009D01*
X63158514Y64677009D02*
X63729942Y64105580D01*
X63729942Y64105580D02*
X63110895Y64105580D01*
X42695466Y66594780D02*
X43028799Y67070971D01*
X43266894Y66594780D02*
X43266894Y67594780D01*
X43266894Y67594780D02*
X42885942Y67594780D01*
X42885942Y67594780D02*
X42790704Y67547161D01*
X42790704Y67547161D02*
X42743085Y67499542D01*
X42743085Y67499542D02*
X42695466Y67404304D01*
X42695466Y67404304D02*
X42695466Y67261447D01*
X42695466Y67261447D02*
X42743085Y67166209D01*
X42743085Y67166209D02*
X42790704Y67118590D01*
X42790704Y67118590D02*
X42885942Y67070971D01*
X42885942Y67070971D02*
X43266894Y67070971D01*
X42362132Y67594780D02*
X41695466Y67594780D01*
X41695466Y67594780D02*
X42124037Y66594780D01*
X94526580Y57970666D02*
X94574200Y58018285D01*
X94574200Y58018285D02*
X94621819Y58161142D01*
X94621819Y58161142D02*
X94621819Y58256380D01*
X94621819Y58256380D02*
X94574200Y58399237D01*
X94574200Y58399237D02*
X94478961Y58494475D01*
X94478961Y58494475D02*
X94383723Y58542094D01*
X94383723Y58542094D02*
X94193247Y58589713D01*
X94193247Y58589713D02*
X94050390Y58589713D01*
X94050390Y58589713D02*
X93859914Y58542094D01*
X93859914Y58542094D02*
X93764676Y58494475D01*
X93764676Y58494475D02*
X93669438Y58399237D01*
X93669438Y58399237D02*
X93621819Y58256380D01*
X93621819Y58256380D02*
X93621819Y58161142D01*
X93621819Y58161142D02*
X93669438Y58018285D01*
X93669438Y58018285D02*
X93717057Y57970666D01*
X94621819Y57494475D02*
X94621819Y57303999D01*
X94621819Y57303999D02*
X94574200Y57208761D01*
X94574200Y57208761D02*
X94526580Y57161142D01*
X94526580Y57161142D02*
X94383723Y57065904D01*
X94383723Y57065904D02*
X94193247Y57018285D01*
X94193247Y57018285D02*
X93812295Y57018285D01*
X93812295Y57018285D02*
X93717057Y57065904D01*
X93717057Y57065904D02*
X93669438Y57113523D01*
X93669438Y57113523D02*
X93621819Y57208761D01*
X93621819Y57208761D02*
X93621819Y57399237D01*
X93621819Y57399237D02*
X93669438Y57494475D01*
X93669438Y57494475D02*
X93717057Y57542094D01*
X93717057Y57542094D02*
X93812295Y57589713D01*
X93812295Y57589713D02*
X94050390Y57589713D01*
X94050390Y57589713D02*
X94145628Y57542094D01*
X94145628Y57542094D02*
X94193247Y57494475D01*
X94193247Y57494475D02*
X94240866Y57399237D01*
X94240866Y57399237D02*
X94240866Y57208761D01*
X94240866Y57208761D02*
X94193247Y57113523D01*
X94193247Y57113523D02*
X94145628Y57065904D01*
X94145628Y57065904D02*
X94050390Y57018285D01*
X111108704Y74960780D02*
X111108704Y74151257D01*
X111108704Y74151257D02*
X111061085Y74056019D01*
X111061085Y74056019D02*
X111013466Y74008400D01*
X111013466Y74008400D02*
X110918228Y73960780D01*
X110918228Y73960780D02*
X110727752Y73960780D01*
X110727752Y73960780D02*
X110632514Y74008400D01*
X110632514Y74008400D02*
X110584895Y74056019D01*
X110584895Y74056019D02*
X110537276Y74151257D01*
X110537276Y74151257D02*
X110537276Y74960780D01*
X110156323Y74960780D02*
X109537276Y74960780D01*
X109537276Y74960780D02*
X109870609Y74579828D01*
X109870609Y74579828D02*
X109727752Y74579828D01*
X109727752Y74579828D02*
X109632514Y74532209D01*
X109632514Y74532209D02*
X109584895Y74484590D01*
X109584895Y74484590D02*
X109537276Y74389352D01*
X109537276Y74389352D02*
X109537276Y74151257D01*
X109537276Y74151257D02*
X109584895Y74056019D01*
X109584895Y74056019D02*
X109632514Y74008400D01*
X109632514Y74008400D02*
X109727752Y73960780D01*
X109727752Y73960780D02*
X110013466Y73960780D01*
X110013466Y73960780D02*
X110108704Y74008400D01*
X110108704Y74008400D02*
X110156323Y74056019D01*
X64807733Y52049980D02*
X64807733Y51335695D01*
X64807733Y51335695D02*
X64855352Y51192838D01*
X64855352Y51192838D02*
X64950590Y51097600D01*
X64950590Y51097600D02*
X65093447Y51049980D01*
X65093447Y51049980D02*
X65188685Y51049980D01*
X64426780Y52049980D02*
X63760114Y52049980D01*
X63760114Y52049980D02*
X64188685Y51049980D01*
X128191219Y70503904D02*
X129000742Y70503904D01*
X129000742Y70503904D02*
X129095980Y70456285D01*
X129095980Y70456285D02*
X129143600Y70408666D01*
X129143600Y70408666D02*
X129191219Y70313428D01*
X129191219Y70313428D02*
X129191219Y70122952D01*
X129191219Y70122952D02*
X129143600Y70027714D01*
X129143600Y70027714D02*
X129095980Y69980095D01*
X129095980Y69980095D02*
X129000742Y69932476D01*
X129000742Y69932476D02*
X128191219Y69932476D01*
X128286457Y69503904D02*
X128238838Y69456285D01*
X128238838Y69456285D02*
X128191219Y69361047D01*
X128191219Y69361047D02*
X128191219Y69122952D01*
X128191219Y69122952D02*
X128238838Y69027714D01*
X128238838Y69027714D02*
X128286457Y68980095D01*
X128286457Y68980095D02*
X128381695Y68932476D01*
X128381695Y68932476D02*
X128476933Y68932476D01*
X128476933Y68932476D02*
X128619790Y68980095D01*
X128619790Y68980095D02*
X129191219Y69551523D01*
X129191219Y69551523D02*
X129191219Y68932476D01*
X42989980Y54738457D02*
X43037600Y54786076D01*
X43037600Y54786076D02*
X43085219Y54928933D01*
X43085219Y54928933D02*
X43085219Y55024171D01*
X43085219Y55024171D02*
X43037600Y55167028D01*
X43037600Y55167028D02*
X42942361Y55262266D01*
X42942361Y55262266D02*
X42847123Y55309885D01*
X42847123Y55309885D02*
X42656647Y55357504D01*
X42656647Y55357504D02*
X42513790Y55357504D01*
X42513790Y55357504D02*
X42323314Y55309885D01*
X42323314Y55309885D02*
X42228076Y55262266D01*
X42228076Y55262266D02*
X42132838Y55167028D01*
X42132838Y55167028D02*
X42085219Y55024171D01*
X42085219Y55024171D02*
X42085219Y54928933D01*
X42085219Y54928933D02*
X42132838Y54786076D01*
X42132838Y54786076D02*
X42180457Y54738457D01*
X43085219Y53786076D02*
X43085219Y54357504D01*
X43085219Y54071790D02*
X42085219Y54071790D01*
X42085219Y54071790D02*
X42228076Y54167028D01*
X42228076Y54167028D02*
X42323314Y54262266D01*
X42323314Y54262266D02*
X42370933Y54357504D01*
X42513790Y53214647D02*
X42466171Y53309885D01*
X42466171Y53309885D02*
X42418552Y53357504D01*
X42418552Y53357504D02*
X42323314Y53405123D01*
X42323314Y53405123D02*
X42275695Y53405123D01*
X42275695Y53405123D02*
X42180457Y53357504D01*
X42180457Y53357504D02*
X42132838Y53309885D01*
X42132838Y53309885D02*
X42085219Y53214647D01*
X42085219Y53214647D02*
X42085219Y53024171D01*
X42085219Y53024171D02*
X42132838Y52928933D01*
X42132838Y52928933D02*
X42180457Y52881314D01*
X42180457Y52881314D02*
X42275695Y52833695D01*
X42275695Y52833695D02*
X42323314Y52833695D01*
X42323314Y52833695D02*
X42418552Y52881314D01*
X42418552Y52881314D02*
X42466171Y52928933D01*
X42466171Y52928933D02*
X42513790Y53024171D01*
X42513790Y53024171D02*
X42513790Y53214647D01*
X42513790Y53214647D02*
X42561409Y53309885D01*
X42561409Y53309885D02*
X42609028Y53357504D01*
X42609028Y53357504D02*
X42704266Y53405123D01*
X42704266Y53405123D02*
X42894742Y53405123D01*
X42894742Y53405123D02*
X42989980Y53357504D01*
X42989980Y53357504D02*
X43037600Y53309885D01*
X43037600Y53309885D02*
X43085219Y53214647D01*
X43085219Y53214647D02*
X43085219Y53024171D01*
X43085219Y53024171D02*
X43037600Y52928933D01*
X43037600Y52928933D02*
X42989980Y52881314D01*
X42989980Y52881314D02*
X42894742Y52833695D01*
X42894742Y52833695D02*
X42704266Y52833695D01*
X42704266Y52833695D02*
X42609028Y52881314D01*
X42609028Y52881314D02*
X42561409Y52928933D01*
X42561409Y52928933D02*
X42513790Y53024171D01*
X141890819Y27069904D02*
X142700342Y27069904D01*
X142700342Y27069904D02*
X142795580Y27022285D01*
X142795580Y27022285D02*
X142843200Y26974666D01*
X142843200Y26974666D02*
X142890819Y26879428D01*
X142890819Y26879428D02*
X142890819Y26688952D01*
X142890819Y26688952D02*
X142843200Y26593714D01*
X142843200Y26593714D02*
X142795580Y26546095D01*
X142795580Y26546095D02*
X142700342Y26498476D01*
X142700342Y26498476D02*
X141890819Y26498476D01*
X142890819Y25498476D02*
X142890819Y26069904D01*
X142890819Y25784190D02*
X141890819Y25784190D01*
X141890819Y25784190D02*
X142033676Y25879428D01*
X142033676Y25879428D02*
X142128914Y25974666D01*
X142128914Y25974666D02*
X142176533Y26069904D01*
X25152819Y35771066D02*
X24676628Y36104399D01*
X25152819Y36342494D02*
X24152819Y36342494D01*
X24152819Y36342494D02*
X24152819Y35961542D01*
X24152819Y35961542D02*
X24200438Y35866304D01*
X24200438Y35866304D02*
X24248057Y35818685D01*
X24248057Y35818685D02*
X24343295Y35771066D01*
X24343295Y35771066D02*
X24486152Y35771066D01*
X24486152Y35771066D02*
X24581390Y35818685D01*
X24581390Y35818685D02*
X24629009Y35866304D01*
X24629009Y35866304D02*
X24676628Y35961542D01*
X24676628Y35961542D02*
X24676628Y36342494D01*
X24248057Y35390113D02*
X24200438Y35342494D01*
X24200438Y35342494D02*
X24152819Y35247256D01*
X24152819Y35247256D02*
X24152819Y35009161D01*
X24152819Y35009161D02*
X24200438Y34913923D01*
X24200438Y34913923D02*
X24248057Y34866304D01*
X24248057Y34866304D02*
X24343295Y34818685D01*
X24343295Y34818685D02*
X24438533Y34818685D01*
X24438533Y34818685D02*
X24581390Y34866304D01*
X24581390Y34866304D02*
X25152819Y35437732D01*
X25152819Y35437732D02*
X25152819Y34818685D01*
X111462019Y42086076D02*
X110985828Y42419409D01*
X111462019Y42657504D02*
X110462019Y42657504D01*
X110462019Y42657504D02*
X110462019Y42276552D01*
X110462019Y42276552D02*
X110509638Y42181314D01*
X110509638Y42181314D02*
X110557257Y42133695D01*
X110557257Y42133695D02*
X110652495Y42086076D01*
X110652495Y42086076D02*
X110795352Y42086076D01*
X110795352Y42086076D02*
X110890590Y42133695D01*
X110890590Y42133695D02*
X110938209Y42181314D01*
X110938209Y42181314D02*
X110985828Y42276552D01*
X110985828Y42276552D02*
X110985828Y42657504D01*
X111462019Y41657504D02*
X110462019Y41657504D01*
X110462019Y41657504D02*
X111462019Y41086076D01*
X111462019Y41086076D02*
X110462019Y41086076D01*
X110462019Y40181314D02*
X110462019Y40371790D01*
X110462019Y40371790D02*
X110509638Y40467028D01*
X110509638Y40467028D02*
X110557257Y40514647D01*
X110557257Y40514647D02*
X110700114Y40609885D01*
X110700114Y40609885D02*
X110890590Y40657504D01*
X110890590Y40657504D02*
X111271542Y40657504D01*
X111271542Y40657504D02*
X111366780Y40609885D01*
X111366780Y40609885D02*
X111414400Y40562266D01*
X111414400Y40562266D02*
X111462019Y40467028D01*
X111462019Y40467028D02*
X111462019Y40276552D01*
X111462019Y40276552D02*
X111414400Y40181314D01*
X111414400Y40181314D02*
X111366780Y40133695D01*
X111366780Y40133695D02*
X111271542Y40086076D01*
X111271542Y40086076D02*
X111033447Y40086076D01*
X111033447Y40086076D02*
X110938209Y40133695D01*
X110938209Y40133695D02*
X110890590Y40181314D01*
X110890590Y40181314D02*
X110842971Y40276552D01*
X110842971Y40276552D02*
X110842971Y40467028D01*
X110842971Y40467028D02*
X110890590Y40562266D01*
X110890590Y40562266D02*
X110938209Y40609885D01*
X110938209Y40609885D02*
X111033447Y40657504D01*
X125279619Y42086076D02*
X124803428Y42419409D01*
X125279619Y42657504D02*
X124279619Y42657504D01*
X124279619Y42657504D02*
X124279619Y42276552D01*
X124279619Y42276552D02*
X124327238Y42181314D01*
X124327238Y42181314D02*
X124374857Y42133695D01*
X124374857Y42133695D02*
X124470095Y42086076D01*
X124470095Y42086076D02*
X124612952Y42086076D01*
X124612952Y42086076D02*
X124708190Y42133695D01*
X124708190Y42133695D02*
X124755809Y42181314D01*
X124755809Y42181314D02*
X124803428Y42276552D01*
X124803428Y42276552D02*
X124803428Y42657504D01*
X125279619Y41657504D02*
X124279619Y41657504D01*
X124279619Y41657504D02*
X125279619Y41086076D01*
X125279619Y41086076D02*
X124279619Y41086076D01*
X124374857Y40657504D02*
X124327238Y40609885D01*
X124327238Y40609885D02*
X124279619Y40514647D01*
X124279619Y40514647D02*
X124279619Y40276552D01*
X124279619Y40276552D02*
X124327238Y40181314D01*
X124327238Y40181314D02*
X124374857Y40133695D01*
X124374857Y40133695D02*
X124470095Y40086076D01*
X124470095Y40086076D02*
X124565333Y40086076D01*
X124565333Y40086076D02*
X124708190Y40133695D01*
X124708190Y40133695D02*
X125279619Y40705123D01*
X125279619Y40705123D02*
X125279619Y40086076D01*
X92752457Y18430019D02*
X92800076Y18382400D01*
X92800076Y18382400D02*
X92942933Y18334780D01*
X92942933Y18334780D02*
X93038171Y18334780D01*
X93038171Y18334780D02*
X93181028Y18382400D01*
X93181028Y18382400D02*
X93276266Y18477638D01*
X93276266Y18477638D02*
X93323885Y18572876D01*
X93323885Y18572876D02*
X93371504Y18763352D01*
X93371504Y18763352D02*
X93371504Y18906209D01*
X93371504Y18906209D02*
X93323885Y19096685D01*
X93323885Y19096685D02*
X93276266Y19191923D01*
X93276266Y19191923D02*
X93181028Y19287161D01*
X93181028Y19287161D02*
X93038171Y19334780D01*
X93038171Y19334780D02*
X92942933Y19334780D01*
X92942933Y19334780D02*
X92800076Y19287161D01*
X92800076Y19287161D02*
X92752457Y19239542D01*
X91800076Y18334780D02*
X92371504Y18334780D01*
X92085790Y18334780D02*
X92085790Y19334780D01*
X92085790Y19334780D02*
X92181028Y19191923D01*
X92181028Y19191923D02*
X92276266Y19096685D01*
X92276266Y19096685D02*
X92371504Y19049066D01*
X91466742Y19334780D02*
X90800076Y19334780D01*
X90800076Y19334780D02*
X91228647Y18334780D01*
X111462019Y37971276D02*
X110985828Y38304609D01*
X111462019Y38542704D02*
X110462019Y38542704D01*
X110462019Y38542704D02*
X110462019Y38161752D01*
X110462019Y38161752D02*
X110509638Y38066514D01*
X110509638Y38066514D02*
X110557257Y38018895D01*
X110557257Y38018895D02*
X110652495Y37971276D01*
X110652495Y37971276D02*
X110795352Y37971276D01*
X110795352Y37971276D02*
X110890590Y38018895D01*
X110890590Y38018895D02*
X110938209Y38066514D01*
X110938209Y38066514D02*
X110985828Y38161752D01*
X110985828Y38161752D02*
X110985828Y38542704D01*
X111462019Y37542704D02*
X110462019Y37542704D01*
X110462019Y37542704D02*
X111462019Y36971276D01*
X111462019Y36971276D02*
X110462019Y36971276D01*
X110462019Y36590323D02*
X110462019Y35923657D01*
X110462019Y35923657D02*
X111462019Y36352228D01*
X33984118Y17403896D02*
X34631481Y17102026D01*
X34631481Y17102026D02*
X34781078Y17084810D01*
X34781078Y17084810D02*
X34907642Y17130875D01*
X34907642Y17130875D02*
X35011174Y17240223D01*
X35011174Y17240223D02*
X35051423Y17326538D01*
X34467808Y16074970D02*
X34709304Y16592860D01*
X34588556Y16333915D02*
X33682248Y16756533D01*
X33682248Y16756533D02*
X33851970Y16782474D01*
X33851970Y16782474D02*
X33978534Y16828540D01*
X33978534Y16828540D02*
X34061941Y16894730D01*
X33199256Y15720753D02*
X33279754Y15893383D01*
X33279754Y15893383D02*
X33363161Y15959573D01*
X33363161Y15959573D02*
X33426443Y15982606D01*
X33426443Y15982606D02*
X33596165Y16008547D01*
X33596165Y16008547D02*
X33788920Y15971206D01*
X33788920Y15971206D02*
X34134180Y15810209D01*
X34134180Y15810209D02*
X34200370Y15726802D01*
X34200370Y15726802D02*
X34223403Y15663520D01*
X34223403Y15663520D02*
X34226311Y15557080D01*
X34226311Y15557080D02*
X34145813Y15384450D01*
X34145813Y15384450D02*
X34062406Y15318259D01*
X34062406Y15318259D02*
X33999124Y15295227D01*
X33999124Y15295227D02*
X33892684Y15292318D01*
X33892684Y15292318D02*
X33676896Y15392942D01*
X33676896Y15392942D02*
X33610706Y15476349D01*
X33610706Y15476349D02*
X33587673Y15539631D01*
X33587673Y15539631D02*
X33584765Y15646071D01*
X33584765Y15646071D02*
X33665264Y15818701D01*
X33665264Y15818701D02*
X33748671Y15884891D01*
X33748671Y15884891D02*
X33811953Y15907924D01*
X33811953Y15907924D02*
X33918393Y15910832D01*
X77766457Y25548380D02*
X78099790Y26024571D01*
X78337885Y25548380D02*
X78337885Y26548380D01*
X78337885Y26548380D02*
X77956933Y26548380D01*
X77956933Y26548380D02*
X77861695Y26500761D01*
X77861695Y26500761D02*
X77814076Y26453142D01*
X77814076Y26453142D02*
X77766457Y26357904D01*
X77766457Y26357904D02*
X77766457Y26215047D01*
X77766457Y26215047D02*
X77814076Y26119809D01*
X77814076Y26119809D02*
X77861695Y26072190D01*
X77861695Y26072190D02*
X77956933Y26024571D01*
X77956933Y26024571D02*
X78337885Y26024571D01*
X76814076Y25548380D02*
X77385504Y25548380D01*
X77099790Y25548380D02*
X77099790Y26548380D01*
X77099790Y26548380D02*
X77195028Y26405523D01*
X77195028Y26405523D02*
X77290266Y26310285D01*
X77290266Y26310285D02*
X77385504Y26262666D01*
X75909314Y26548380D02*
X76385504Y26548380D01*
X76385504Y26548380D02*
X76433123Y26072190D01*
X76433123Y26072190D02*
X76385504Y26119809D01*
X76385504Y26119809D02*
X76290266Y26167428D01*
X76290266Y26167428D02*
X76052171Y26167428D01*
X76052171Y26167428D02*
X75956933Y26119809D01*
X75956933Y26119809D02*
X75909314Y26072190D01*
X75909314Y26072190D02*
X75861695Y25976952D01*
X75861695Y25976952D02*
X75861695Y25738857D01*
X75861695Y25738857D02*
X75909314Y25643619D01*
X75909314Y25643619D02*
X75956933Y25596000D01*
X75956933Y25596000D02*
X76052171Y25548380D01*
X76052171Y25548380D02*
X76290266Y25548380D01*
X76290266Y25548380D02*
X76385504Y25596000D01*
X76385504Y25596000D02*
X76433123Y25643619D01*
X130884266Y68372780D02*
X131217599Y68848971D01*
X131455694Y68372780D02*
X131455694Y69372780D01*
X131455694Y69372780D02*
X131074742Y69372780D01*
X131074742Y69372780D02*
X130979504Y69325161D01*
X130979504Y69325161D02*
X130931885Y69277542D01*
X130931885Y69277542D02*
X130884266Y69182304D01*
X130884266Y69182304D02*
X130884266Y69039447D01*
X130884266Y69039447D02*
X130931885Y68944209D01*
X130931885Y68944209D02*
X130979504Y68896590D01*
X130979504Y68896590D02*
X131074742Y68848971D01*
X131074742Y68848971D02*
X131455694Y68848971D01*
X130550932Y69372780D02*
X129931885Y69372780D01*
X129931885Y69372780D02*
X130265218Y68991828D01*
X130265218Y68991828D02*
X130122361Y68991828D01*
X130122361Y68991828D02*
X130027123Y68944209D01*
X130027123Y68944209D02*
X129979504Y68896590D01*
X129979504Y68896590D02*
X129931885Y68801352D01*
X129931885Y68801352D02*
X129931885Y68563257D01*
X129931885Y68563257D02*
X129979504Y68468019D01*
X129979504Y68468019D02*
X130027123Y68420400D01*
X130027123Y68420400D02*
X130122361Y68372780D01*
X130122361Y68372780D02*
X130408075Y68372780D01*
X130408075Y68372780D02*
X130503313Y68420400D01*
X130503313Y68420400D02*
X130550932Y68468019D01*
X125279619Y37971276D02*
X124803428Y38304609D01*
X125279619Y38542704D02*
X124279619Y38542704D01*
X124279619Y38542704D02*
X124279619Y38161752D01*
X124279619Y38161752D02*
X124327238Y38066514D01*
X124327238Y38066514D02*
X124374857Y38018895D01*
X124374857Y38018895D02*
X124470095Y37971276D01*
X124470095Y37971276D02*
X124612952Y37971276D01*
X124612952Y37971276D02*
X124708190Y38018895D01*
X124708190Y38018895D02*
X124755809Y38066514D01*
X124755809Y38066514D02*
X124803428Y38161752D01*
X124803428Y38161752D02*
X124803428Y38542704D01*
X125279619Y37542704D02*
X124279619Y37542704D01*
X124279619Y37542704D02*
X125279619Y36971276D01*
X125279619Y36971276D02*
X124279619Y36971276D01*
X124279619Y36590323D02*
X124279619Y35971276D01*
X124279619Y35971276D02*
X124660571Y36304609D01*
X124660571Y36304609D02*
X124660571Y36161752D01*
X124660571Y36161752D02*
X124708190Y36066514D01*
X124708190Y36066514D02*
X124755809Y36018895D01*
X124755809Y36018895D02*
X124851047Y35971276D01*
X124851047Y35971276D02*
X125089142Y35971276D01*
X125089142Y35971276D02*
X125184380Y36018895D01*
X125184380Y36018895D02*
X125232000Y36066514D01*
X125232000Y36066514D02*
X125279619Y36161752D01*
X125279619Y36161752D02*
X125279619Y36447466D01*
X125279619Y36447466D02*
X125232000Y36542704D01*
X125232000Y36542704D02*
X125184380Y36590323D01*
X19438819Y35771066D02*
X18962628Y36104399D01*
X19438819Y36342494D02*
X18438819Y36342494D01*
X18438819Y36342494D02*
X18438819Y35961542D01*
X18438819Y35961542D02*
X18486438Y35866304D01*
X18486438Y35866304D02*
X18534057Y35818685D01*
X18534057Y35818685D02*
X18629295Y35771066D01*
X18629295Y35771066D02*
X18772152Y35771066D01*
X18772152Y35771066D02*
X18867390Y35818685D01*
X18867390Y35818685D02*
X18915009Y35866304D01*
X18915009Y35866304D02*
X18962628Y35961542D01*
X18962628Y35961542D02*
X18962628Y36342494D01*
X19438819Y34818685D02*
X19438819Y35390113D01*
X19438819Y35104399D02*
X18438819Y35104399D01*
X18438819Y35104399D02*
X18581676Y35199637D01*
X18581676Y35199637D02*
X18676914Y35294875D01*
X18676914Y35294875D02*
X18724533Y35390113D01*
X77729294Y54756780D02*
X77729294Y55756780D01*
X77729294Y55756780D02*
X77491199Y55756780D01*
X77491199Y55756780D02*
X77348342Y55709161D01*
X77348342Y55709161D02*
X77253104Y55613923D01*
X77253104Y55613923D02*
X77205485Y55518685D01*
X77205485Y55518685D02*
X77157866Y55328209D01*
X77157866Y55328209D02*
X77157866Y55185352D01*
X77157866Y55185352D02*
X77205485Y54994876D01*
X77205485Y54994876D02*
X77253104Y54899638D01*
X77253104Y54899638D02*
X77348342Y54804400D01*
X77348342Y54804400D02*
X77491199Y54756780D01*
X77491199Y54756780D02*
X77729294Y54756780D01*
X76253104Y55756780D02*
X76729294Y55756780D01*
X76729294Y55756780D02*
X76776913Y55280590D01*
X76776913Y55280590D02*
X76729294Y55328209D01*
X76729294Y55328209D02*
X76634056Y55375828D01*
X76634056Y55375828D02*
X76395961Y55375828D01*
X76395961Y55375828D02*
X76300723Y55328209D01*
X76300723Y55328209D02*
X76253104Y55280590D01*
X76253104Y55280590D02*
X76205485Y55185352D01*
X76205485Y55185352D02*
X76205485Y54947257D01*
X76205485Y54947257D02*
X76253104Y54852019D01*
X76253104Y54852019D02*
X76300723Y54804400D01*
X76300723Y54804400D02*
X76395961Y54756780D01*
X76395961Y54756780D02*
X76634056Y54756780D01*
X76634056Y54756780D02*
X76729294Y54804400D01*
X76729294Y54804400D02*
X76776913Y54852019D01*
X99591466Y28082019D02*
X99639085Y28034400D01*
X99639085Y28034400D02*
X99781942Y27986780D01*
X99781942Y27986780D02*
X99877180Y27986780D01*
X99877180Y27986780D02*
X100020037Y28034400D01*
X100020037Y28034400D02*
X100115275Y28129638D01*
X100115275Y28129638D02*
X100162894Y28224876D01*
X100162894Y28224876D02*
X100210513Y28415352D01*
X100210513Y28415352D02*
X100210513Y28558209D01*
X100210513Y28558209D02*
X100162894Y28748685D01*
X100162894Y28748685D02*
X100115275Y28843923D01*
X100115275Y28843923D02*
X100020037Y28939161D01*
X100020037Y28939161D02*
X99877180Y28986780D01*
X99877180Y28986780D02*
X99781942Y28986780D01*
X99781942Y28986780D02*
X99639085Y28939161D01*
X99639085Y28939161D02*
X99591466Y28891542D01*
X98686704Y28986780D02*
X99162894Y28986780D01*
X99162894Y28986780D02*
X99210513Y28510590D01*
X99210513Y28510590D02*
X99162894Y28558209D01*
X99162894Y28558209D02*
X99067656Y28605828D01*
X99067656Y28605828D02*
X98829561Y28605828D01*
X98829561Y28605828D02*
X98734323Y28558209D01*
X98734323Y28558209D02*
X98686704Y28510590D01*
X98686704Y28510590D02*
X98639085Y28415352D01*
X98639085Y28415352D02*
X98639085Y28177257D01*
X98639085Y28177257D02*
X98686704Y28082019D01*
X98686704Y28082019D02*
X98734323Y28034400D01*
X98734323Y28034400D02*
X98829561Y27986780D01*
X98829561Y27986780D02*
X99067656Y27986780D01*
X99067656Y27986780D02*
X99162894Y28034400D01*
X99162894Y28034400D02*
X99210513Y28082019D01*
X83057172Y84783942D02*
X82409809Y84482072D01*
X82409809Y84482072D02*
X82300461Y84378540D01*
X82300461Y84378540D02*
X82254396Y84251976D01*
X82254396Y84251976D02*
X82271612Y84102379D01*
X82271612Y84102379D02*
X82311862Y84016064D01*
X82654678Y85647093D02*
X82855925Y85215518D01*
X82855925Y85215518D02*
X82444475Y84971113D01*
X82444475Y84971113D02*
X82467508Y85034395D01*
X82467508Y85034395D02*
X82470416Y85140835D01*
X82470416Y85140835D02*
X82369792Y85356623D01*
X82369792Y85356623D02*
X82286385Y85422813D01*
X82286385Y85422813D02*
X82223103Y85445846D01*
X82223103Y85445846D02*
X82116664Y85448754D01*
X82116664Y85448754D02*
X81900876Y85348131D01*
X81900876Y85348131D02*
X81834686Y85264724D01*
X81834686Y85264724D02*
X81811653Y85201442D01*
X81811653Y85201442D02*
X81808745Y85095002D01*
X81808745Y85095002D02*
X81909368Y84879214D01*
X81909368Y84879214D02*
X81992775Y84813024D01*
X81992775Y84813024D02*
X82056057Y84789991D01*
X113904766Y30469619D02*
X113952385Y30422000D01*
X113952385Y30422000D02*
X114095242Y30374380D01*
X114095242Y30374380D02*
X114190480Y30374380D01*
X114190480Y30374380D02*
X114333337Y30422000D01*
X114333337Y30422000D02*
X114428575Y30517238D01*
X114428575Y30517238D02*
X114476194Y30612476D01*
X114476194Y30612476D02*
X114523813Y30802952D01*
X114523813Y30802952D02*
X114523813Y30945809D01*
X114523813Y30945809D02*
X114476194Y31136285D01*
X114476194Y31136285D02*
X114428575Y31231523D01*
X114428575Y31231523D02*
X114333337Y31326761D01*
X114333337Y31326761D02*
X114190480Y31374380D01*
X114190480Y31374380D02*
X114095242Y31374380D01*
X114095242Y31374380D02*
X113952385Y31326761D01*
X113952385Y31326761D02*
X113904766Y31279142D01*
X113047623Y31041047D02*
X113047623Y30374380D01*
X113285718Y31422000D02*
X113523813Y30707714D01*
X113523813Y30707714D02*
X112904766Y30707714D01*
X51575180Y55755557D02*
X51622800Y55803176D01*
X51622800Y55803176D02*
X51670419Y55946033D01*
X51670419Y55946033D02*
X51670419Y56041271D01*
X51670419Y56041271D02*
X51622800Y56184128D01*
X51622800Y56184128D02*
X51527561Y56279366D01*
X51527561Y56279366D02*
X51432323Y56326985D01*
X51432323Y56326985D02*
X51241847Y56374604D01*
X51241847Y56374604D02*
X51098990Y56374604D01*
X51098990Y56374604D02*
X50908514Y56326985D01*
X50908514Y56326985D02*
X50813276Y56279366D01*
X50813276Y56279366D02*
X50718038Y56184128D01*
X50718038Y56184128D02*
X50670419Y56041271D01*
X50670419Y56041271D02*
X50670419Y55946033D01*
X50670419Y55946033D02*
X50718038Y55803176D01*
X50718038Y55803176D02*
X50765657Y55755557D01*
X51670419Y54803176D02*
X51670419Y55374604D01*
X51670419Y55088890D02*
X50670419Y55088890D01*
X50670419Y55088890D02*
X50813276Y55184128D01*
X50813276Y55184128D02*
X50908514Y55279366D01*
X50908514Y55279366D02*
X50956133Y55374604D01*
X50670419Y54184128D02*
X50670419Y54088890D01*
X50670419Y54088890D02*
X50718038Y53993652D01*
X50718038Y53993652D02*
X50765657Y53946033D01*
X50765657Y53946033D02*
X50860895Y53898414D01*
X50860895Y53898414D02*
X51051371Y53850795D01*
X51051371Y53850795D02*
X51289466Y53850795D01*
X51289466Y53850795D02*
X51479942Y53898414D01*
X51479942Y53898414D02*
X51575180Y53946033D01*
X51575180Y53946033D02*
X51622800Y53993652D01*
X51622800Y53993652D02*
X51670419Y54088890D01*
X51670419Y54088890D02*
X51670419Y54184128D01*
X51670419Y54184128D02*
X51622800Y54279366D01*
X51622800Y54279366D02*
X51575180Y54326985D01*
X51575180Y54326985D02*
X51479942Y54374604D01*
X51479942Y54374604D02*
X51289466Y54422223D01*
X51289466Y54422223D02*
X51051371Y54422223D01*
X51051371Y54422223D02*
X50860895Y54374604D01*
X50860895Y54374604D02*
X50765657Y54326985D01*
X50765657Y54326985D02*
X50718038Y54279366D01*
X50718038Y54279366D02*
X50670419Y54184128D01*
X142731580Y34062857D02*
X142779200Y34110476D01*
X142779200Y34110476D02*
X142826819Y34253333D01*
X142826819Y34253333D02*
X142826819Y34348571D01*
X142826819Y34348571D02*
X142779200Y34491428D01*
X142779200Y34491428D02*
X142683961Y34586666D01*
X142683961Y34586666D02*
X142588723Y34634285D01*
X142588723Y34634285D02*
X142398247Y34681904D01*
X142398247Y34681904D02*
X142255390Y34681904D01*
X142255390Y34681904D02*
X142064914Y34634285D01*
X142064914Y34634285D02*
X141969676Y34586666D01*
X141969676Y34586666D02*
X141874438Y34491428D01*
X141874438Y34491428D02*
X141826819Y34348571D01*
X141826819Y34348571D02*
X141826819Y34253333D01*
X141826819Y34253333D02*
X141874438Y34110476D01*
X141874438Y34110476D02*
X141922057Y34062857D01*
X141922057Y33681904D02*
X141874438Y33634285D01*
X141874438Y33634285D02*
X141826819Y33539047D01*
X141826819Y33539047D02*
X141826819Y33300952D01*
X141826819Y33300952D02*
X141874438Y33205714D01*
X141874438Y33205714D02*
X141922057Y33158095D01*
X141922057Y33158095D02*
X142017295Y33110476D01*
X142017295Y33110476D02*
X142112533Y33110476D01*
X142112533Y33110476D02*
X142255390Y33158095D01*
X142255390Y33158095D02*
X142826819Y33729523D01*
X142826819Y33729523D02*
X142826819Y33110476D01*
X142826819Y32158095D02*
X142826819Y32729523D01*
X142826819Y32443809D02*
X141826819Y32443809D01*
X141826819Y32443809D02*
X141969676Y32539047D01*
X141969676Y32539047D02*
X142064914Y32634285D01*
X142064914Y32634285D02*
X142112533Y32729523D01*
X70940266Y54656780D02*
X71273599Y55132971D01*
X71511694Y54656780D02*
X71511694Y55656780D01*
X71511694Y55656780D02*
X71130742Y55656780D01*
X71130742Y55656780D02*
X71035504Y55609161D01*
X71035504Y55609161D02*
X70987885Y55561542D01*
X70987885Y55561542D02*
X70940266Y55466304D01*
X70940266Y55466304D02*
X70940266Y55323447D01*
X70940266Y55323447D02*
X70987885Y55228209D01*
X70987885Y55228209D02*
X71035504Y55180590D01*
X71035504Y55180590D02*
X71130742Y55132971D01*
X71130742Y55132971D02*
X71511694Y55132971D01*
X70464075Y54656780D02*
X70273599Y54656780D01*
X70273599Y54656780D02*
X70178361Y54704400D01*
X70178361Y54704400D02*
X70130742Y54752019D01*
X70130742Y54752019D02*
X70035504Y54894876D01*
X70035504Y54894876D02*
X69987885Y55085352D01*
X69987885Y55085352D02*
X69987885Y55466304D01*
X69987885Y55466304D02*
X70035504Y55561542D01*
X70035504Y55561542D02*
X70083123Y55609161D01*
X70083123Y55609161D02*
X70178361Y55656780D01*
X70178361Y55656780D02*
X70368837Y55656780D01*
X70368837Y55656780D02*
X70464075Y55609161D01*
X70464075Y55609161D02*
X70511694Y55561542D01*
X70511694Y55561542D02*
X70559313Y55466304D01*
X70559313Y55466304D02*
X70559313Y55228209D01*
X70559313Y55228209D02*
X70511694Y55132971D01*
X70511694Y55132971D02*
X70464075Y55085352D01*
X70464075Y55085352D02*
X70368837Y55037733D01*
X70368837Y55037733D02*
X70178361Y55037733D01*
X70178361Y55037733D02*
X70083123Y55085352D01*
X70083123Y55085352D02*
X70035504Y55132971D01*
X70035504Y55132971D02*
X69987885Y55228209D01*
X120504419Y66860666D02*
X120028228Y67193999D01*
X120504419Y67432094D02*
X119504419Y67432094D01*
X119504419Y67432094D02*
X119504419Y67051142D01*
X119504419Y67051142D02*
X119552038Y66955904D01*
X119552038Y66955904D02*
X119599657Y66908285D01*
X119599657Y66908285D02*
X119694895Y66860666D01*
X119694895Y66860666D02*
X119837752Y66860666D01*
X119837752Y66860666D02*
X119932990Y66908285D01*
X119932990Y66908285D02*
X119980609Y66955904D01*
X119980609Y66955904D02*
X120028228Y67051142D01*
X120028228Y67051142D02*
X120028228Y67432094D01*
X119837752Y66003523D02*
X120504419Y66003523D01*
X119456800Y66241618D02*
X120171085Y66479713D01*
X120171085Y66479713D02*
X120171085Y65860666D01*
X85554019Y30506857D02*
X85077828Y30840190D01*
X85554019Y31078285D02*
X84554019Y31078285D01*
X84554019Y31078285D02*
X84554019Y30697333D01*
X84554019Y30697333D02*
X84601638Y30602095D01*
X84601638Y30602095D02*
X84649257Y30554476D01*
X84649257Y30554476D02*
X84744495Y30506857D01*
X84744495Y30506857D02*
X84887352Y30506857D01*
X84887352Y30506857D02*
X84982590Y30554476D01*
X84982590Y30554476D02*
X85030209Y30602095D01*
X85030209Y30602095D02*
X85077828Y30697333D01*
X85077828Y30697333D02*
X85077828Y31078285D01*
X84649257Y30125904D02*
X84601638Y30078285D01*
X84601638Y30078285D02*
X84554019Y29983047D01*
X84554019Y29983047D02*
X84554019Y29744952D01*
X84554019Y29744952D02*
X84601638Y29649714D01*
X84601638Y29649714D02*
X84649257Y29602095D01*
X84649257Y29602095D02*
X84744495Y29554476D01*
X84744495Y29554476D02*
X84839733Y29554476D01*
X84839733Y29554476D02*
X84982590Y29602095D01*
X84982590Y29602095D02*
X85554019Y30173523D01*
X85554019Y30173523D02*
X85554019Y29554476D01*
X84554019Y28935428D02*
X84554019Y28840190D01*
X84554019Y28840190D02*
X84601638Y28744952D01*
X84601638Y28744952D02*
X84649257Y28697333D01*
X84649257Y28697333D02*
X84744495Y28649714D01*
X84744495Y28649714D02*
X84934971Y28602095D01*
X84934971Y28602095D02*
X85173066Y28602095D01*
X85173066Y28602095D02*
X85363542Y28649714D01*
X85363542Y28649714D02*
X85458780Y28697333D01*
X85458780Y28697333D02*
X85506400Y28744952D01*
X85506400Y28744952D02*
X85554019Y28840190D01*
X85554019Y28840190D02*
X85554019Y28935428D01*
X85554019Y28935428D02*
X85506400Y29030666D01*
X85506400Y29030666D02*
X85458780Y29078285D01*
X85458780Y29078285D02*
X85363542Y29125904D01*
X85363542Y29125904D02*
X85173066Y29173523D01*
X85173066Y29173523D02*
X84934971Y29173523D01*
X84934971Y29173523D02*
X84744495Y29125904D01*
X84744495Y29125904D02*
X84649257Y29078285D01*
X84649257Y29078285D02*
X84601638Y29030666D01*
X84601638Y29030666D02*
X84554019Y28935428D01*
X73165894Y18217180D02*
X73165894Y17407657D01*
X73165894Y17407657D02*
X73118275Y17312419D01*
X73118275Y17312419D02*
X73070656Y17264800D01*
X73070656Y17264800D02*
X72975418Y17217180D01*
X72975418Y17217180D02*
X72784942Y17217180D01*
X72784942Y17217180D02*
X72689704Y17264800D01*
X72689704Y17264800D02*
X72642085Y17312419D01*
X72642085Y17312419D02*
X72594466Y17407657D01*
X72594466Y17407657D02*
X72594466Y18217180D01*
X71594466Y17217180D02*
X72165894Y17217180D01*
X71880180Y17217180D02*
X71880180Y18217180D01*
X71880180Y18217180D02*
X71975418Y18074323D01*
X71975418Y18074323D02*
X72070656Y17979085D01*
X72070656Y17979085D02*
X72165894Y17931466D01*
X71213513Y18121942D02*
X71165894Y18169561D01*
X71165894Y18169561D02*
X71070656Y18217180D01*
X71070656Y18217180D02*
X70832561Y18217180D01*
X70832561Y18217180D02*
X70737323Y18169561D01*
X70737323Y18169561D02*
X70689704Y18121942D01*
X70689704Y18121942D02*
X70642085Y18026704D01*
X70642085Y18026704D02*
X70642085Y17931466D01*
X70642085Y17931466D02*
X70689704Y17788609D01*
X70689704Y17788609D02*
X71261132Y17217180D01*
X71261132Y17217180D02*
X70642085Y17217180D01*
X137667172Y84783942D02*
X137019809Y84482072D01*
X137019809Y84482072D02*
X136910461Y84378540D01*
X136910461Y84378540D02*
X136864396Y84251976D01*
X136864396Y84251976D02*
X136881612Y84102379D01*
X136881612Y84102379D02*
X136921862Y84016064D01*
X136539493Y84836057D02*
X136458994Y85008687D01*
X136458994Y85008687D02*
X136461902Y85115127D01*
X136461902Y85115127D02*
X136484935Y85178409D01*
X136484935Y85178409D02*
X136574158Y85325098D01*
X136574158Y85325098D02*
X136726664Y85448754D01*
X136726664Y85448754D02*
X137071924Y85609751D01*
X137071924Y85609751D02*
X137178363Y85606843D01*
X137178363Y85606843D02*
X137241646Y85583810D01*
X137241646Y85583810D02*
X137325052Y85517620D01*
X137325052Y85517620D02*
X137405551Y85344990D01*
X137405551Y85344990D02*
X137402643Y85238550D01*
X137402643Y85238550D02*
X137379610Y85175268D01*
X137379610Y85175268D02*
X137313420Y85091861D01*
X137313420Y85091861D02*
X137097632Y84991238D01*
X137097632Y84991238D02*
X136991193Y84994146D01*
X136991193Y84994146D02*
X136927910Y85017179D01*
X136927910Y85017179D02*
X136844503Y85083369D01*
X136844503Y85083369D02*
X136764005Y85255999D01*
X136764005Y85255999D02*
X136766913Y85362439D01*
X136766913Y85362439D02*
X136789946Y85425721D01*
X136789946Y85425721D02*
X136856136Y85509128D01*
X33042819Y54501904D02*
X33852342Y54501904D01*
X33852342Y54501904D02*
X33947580Y54454285D01*
X33947580Y54454285D02*
X33995200Y54406666D01*
X33995200Y54406666D02*
X34042819Y54311428D01*
X34042819Y54311428D02*
X34042819Y54120952D01*
X34042819Y54120952D02*
X33995200Y54025714D01*
X33995200Y54025714D02*
X33947580Y53978095D01*
X33947580Y53978095D02*
X33852342Y53930476D01*
X33852342Y53930476D02*
X33042819Y53930476D01*
X33471390Y53311428D02*
X33423771Y53406666D01*
X33423771Y53406666D02*
X33376152Y53454285D01*
X33376152Y53454285D02*
X33280914Y53501904D01*
X33280914Y53501904D02*
X33233295Y53501904D01*
X33233295Y53501904D02*
X33138057Y53454285D01*
X33138057Y53454285D02*
X33090438Y53406666D01*
X33090438Y53406666D02*
X33042819Y53311428D01*
X33042819Y53311428D02*
X33042819Y53120952D01*
X33042819Y53120952D02*
X33090438Y53025714D01*
X33090438Y53025714D02*
X33138057Y52978095D01*
X33138057Y52978095D02*
X33233295Y52930476D01*
X33233295Y52930476D02*
X33280914Y52930476D01*
X33280914Y52930476D02*
X33376152Y52978095D01*
X33376152Y52978095D02*
X33423771Y53025714D01*
X33423771Y53025714D02*
X33471390Y53120952D01*
X33471390Y53120952D02*
X33471390Y53311428D01*
X33471390Y53311428D02*
X33519009Y53406666D01*
X33519009Y53406666D02*
X33566628Y53454285D01*
X33566628Y53454285D02*
X33661866Y53501904D01*
X33661866Y53501904D02*
X33852342Y53501904D01*
X33852342Y53501904D02*
X33947580Y53454285D01*
X33947580Y53454285D02*
X33995200Y53406666D01*
X33995200Y53406666D02*
X34042819Y53311428D01*
X34042819Y53311428D02*
X34042819Y53120952D01*
X34042819Y53120952D02*
X33995200Y53025714D01*
X33995200Y53025714D02*
X33947580Y52978095D01*
X33947580Y52978095D02*
X33852342Y52930476D01*
X33852342Y52930476D02*
X33661866Y52930476D01*
X33661866Y52930476D02*
X33566628Y52978095D01*
X33566628Y52978095D02*
X33519009Y53025714D01*
X33519009Y53025714D02*
X33471390Y53120952D01*
X43324057Y61203619D02*
X43371676Y61156000D01*
X43371676Y61156000D02*
X43514533Y61108380D01*
X43514533Y61108380D02*
X43609771Y61108380D01*
X43609771Y61108380D02*
X43752628Y61156000D01*
X43752628Y61156000D02*
X43847866Y61251238D01*
X43847866Y61251238D02*
X43895485Y61346476D01*
X43895485Y61346476D02*
X43943104Y61536952D01*
X43943104Y61536952D02*
X43943104Y61679809D01*
X43943104Y61679809D02*
X43895485Y61870285D01*
X43895485Y61870285D02*
X43847866Y61965523D01*
X43847866Y61965523D02*
X43752628Y62060761D01*
X43752628Y62060761D02*
X43609771Y62108380D01*
X43609771Y62108380D02*
X43514533Y62108380D01*
X43514533Y62108380D02*
X43371676Y62060761D01*
X43371676Y62060761D02*
X43324057Y62013142D01*
X42371676Y61108380D02*
X42943104Y61108380D01*
X42657390Y61108380D02*
X42657390Y62108380D01*
X42657390Y62108380D02*
X42752628Y61965523D01*
X42752628Y61965523D02*
X42847866Y61870285D01*
X42847866Y61870285D02*
X42943104Y61822666D01*
X41419295Y61108380D02*
X41990723Y61108380D01*
X41705009Y61108380D02*
X41705009Y62108380D01*
X41705009Y62108380D02*
X41800247Y61965523D01*
X41800247Y61965523D02*
X41895485Y61870285D01*
X41895485Y61870285D02*
X41990723Y61822666D01*
X60480094Y54386780D02*
X60480094Y53577257D01*
X60480094Y53577257D02*
X60432475Y53482019D01*
X60432475Y53482019D02*
X60384856Y53434400D01*
X60384856Y53434400D02*
X60289618Y53386780D01*
X60289618Y53386780D02*
X60099142Y53386780D01*
X60099142Y53386780D02*
X60003904Y53434400D01*
X60003904Y53434400D02*
X59956285Y53482019D01*
X59956285Y53482019D02*
X59908666Y53577257D01*
X59908666Y53577257D02*
X59908666Y54386780D01*
X58908666Y53386780D02*
X59480094Y53386780D01*
X59194380Y53386780D02*
X59194380Y54386780D01*
X59194380Y54386780D02*
X59289618Y54243923D01*
X59289618Y54243923D02*
X59384856Y54148685D01*
X59384856Y54148685D02*
X59480094Y54101066D01*
X58289618Y54386780D02*
X58194380Y54386780D01*
X58194380Y54386780D02*
X58099142Y54339161D01*
X58099142Y54339161D02*
X58051523Y54291542D01*
X58051523Y54291542D02*
X58003904Y54196304D01*
X58003904Y54196304D02*
X57956285Y54005828D01*
X57956285Y54005828D02*
X57956285Y53767733D01*
X57956285Y53767733D02*
X58003904Y53577257D01*
X58003904Y53577257D02*
X58051523Y53482019D01*
X58051523Y53482019D02*
X58099142Y53434400D01*
X58099142Y53434400D02*
X58194380Y53386780D01*
X58194380Y53386780D02*
X58289618Y53386780D01*
X58289618Y53386780D02*
X58384856Y53434400D01*
X58384856Y53434400D02*
X58432475Y53482019D01*
X58432475Y53482019D02*
X58480094Y53577257D01*
X58480094Y53577257D02*
X58527713Y53767733D01*
X58527713Y53767733D02*
X58527713Y54005828D01*
X58527713Y54005828D02*
X58480094Y54196304D01*
X58480094Y54196304D02*
X58432475Y54291542D01*
X58432475Y54291542D02*
X58384856Y54339161D01*
X58384856Y54339161D02*
X58289618Y54386780D01*
D11*
%TO.C,RN9*%
X94377000Y43830400D02*
X95377000Y43830400D01*
X94377000Y47190400D02*
X95377000Y47190400D01*
%TO.C,F3*%
X82239748Y36527000D02*
X85012252Y36527000D01*
X82239748Y33107000D02*
X85012252Y33107000D01*
%TO.C,RN4*%
X130714000Y71816800D02*
X130714000Y70816800D01*
X134074000Y71816800D02*
X134074000Y70816800D01*
%TO.C,C16*%
X113238000Y11017252D02*
X113238000Y9594748D01*
X111418000Y11017252D02*
X111418000Y9594748D01*
%TO.C,D4*%
X46710400Y55114800D02*
X46710400Y59124800D01*
X48710400Y55114800D02*
X46710400Y55114800D01*
X48710400Y55114800D02*
X48710400Y59124800D01*
%TO.C,F1*%
X80715748Y57086400D02*
X83488252Y57086400D01*
X80715748Y53666400D02*
X83488252Y53666400D01*
%TO.C,RN11*%
X94377000Y35600800D02*
X95377000Y35600800D01*
X94377000Y38960800D02*
X95377000Y38960800D01*
%TO.C,J14*%
X42330000Y29330000D02*
X42330000Y26670000D01*
X39730000Y29330000D02*
X42330000Y29330000D01*
X39730000Y29330000D02*
X39730000Y26670000D01*
X38460000Y29330000D02*
X37130000Y29330000D01*
X37130000Y29330000D02*
X37130000Y28000000D01*
X39730000Y26670000D02*
X42330000Y26670000D01*
%TO.C,R11*%
X66002800Y57686536D02*
X66002800Y59140664D01*
X67822800Y57686536D02*
X67822800Y59140664D01*
%TO.C,C20*%
X122382000Y63849252D02*
X122382000Y62426748D01*
X120562000Y63849252D02*
X120562000Y62426748D01*
%TO.C,U7*%
X21177400Y47861400D02*
X21177400Y45911400D01*
X21177400Y47861400D02*
X21177400Y49811400D01*
X30047400Y47861400D02*
X30047400Y44411400D01*
X30047400Y47861400D02*
X30047400Y49811400D01*
D12*
X29549000Y43975200D02*
G75*
G03*
X29549000Y43975200I-152000J0D01*
G01*
D11*
%TO.C,J8*%
X72450000Y41215000D02*
X69790000Y41215000D01*
X72450000Y48895000D02*
X72450000Y41215000D01*
X72450000Y48895000D02*
X69790000Y48895000D01*
X72450000Y50165000D02*
X72450000Y51495000D01*
X72450000Y51495000D02*
X71120000Y51495000D01*
X69790000Y48895000D02*
X69790000Y41215000D01*
%TO.C,RN12*%
X102480800Y70851600D02*
X102480800Y69851600D01*
X105840800Y70851600D02*
X105840800Y69851600D01*
%TO.C,R6*%
X45357736Y65622800D02*
X46811864Y65622800D01*
X45357736Y63802800D02*
X46811864Y63802800D01*
%TO.C,C13*%
X60105652Y24432800D02*
X58683148Y24432800D01*
X60105652Y26252800D02*
X58683148Y26252800D01*
%TO.C,C14*%
X75294748Y18023200D02*
X76717252Y18023200D01*
X75294748Y16203200D02*
X76717252Y16203200D01*
%TO.C,J4*%
X36385991Y73252354D02*
X34188376Y77965154D01*
X54910922Y81890671D02*
X36385991Y73252354D01*
X54910922Y81890671D02*
X53812115Y84247071D01*
X51455714Y83148264D02*
X50356907Y85504664D01*
X53812115Y84247071D02*
X51455714Y83148264D01*
X53275389Y85398082D02*
X52713307Y86603472D01*
X50356907Y85504664D02*
X34188376Y77965154D01*
X52713307Y86603472D02*
X51507918Y86041389D01*
%TO.C,J13*%
X54670000Y31175000D02*
X54670000Y28515000D01*
X52070000Y31175000D02*
X54670000Y31175000D01*
X52070000Y31175000D02*
X52070000Y28515000D01*
X50800000Y31175000D02*
X49470000Y31175000D01*
X49470000Y31175000D02*
X49470000Y29845000D01*
X52070000Y28515000D02*
X54670000Y28515000D01*
%TO.C,RN5*%
X108183000Y43830400D02*
X109183000Y43830400D01*
X108183000Y47190400D02*
X109183000Y47190400D01*
%TO.C,R16*%
X58057736Y29402400D02*
X59511864Y29402400D01*
X58057736Y27582400D02*
X59511864Y27582400D01*
%TO.C,R14*%
X73543736Y29075000D02*
X73997864Y29075000D01*
X73543736Y27605000D02*
X73997864Y27605000D01*
%TO.C,J12*%
X109520922Y9549329D02*
X107323308Y4836529D01*
X90995991Y18187646D02*
X109520922Y9549329D01*
X90995991Y18187646D02*
X89897184Y15831246D01*
X92253584Y14732439D02*
X91154777Y12376038D01*
X89897184Y15831246D02*
X92253584Y14732439D01*
X89360459Y14680235D02*
X88798376Y13474846D01*
X91154777Y12376038D02*
X107323308Y4836529D01*
X88798376Y13474846D02*
X90003766Y12912764D01*
%TO.C,R5*%
X102240536Y67604000D02*
X103694664Y67604000D01*
X102240536Y65784000D02*
X103694664Y65784000D01*
%TO.C,R19*%
X81081600Y30591064D02*
X81081600Y29136936D01*
X79261600Y30591064D02*
X79261600Y29136936D01*
%TO.C,C6*%
X102269548Y31739200D02*
X103692052Y31739200D01*
X102269548Y29919200D02*
X103692052Y29919200D01*
%TO.C,C7*%
X32415200Y49511352D02*
X32415200Y48088848D01*
X30595200Y49511352D02*
X30595200Y48088848D01*
%TO.C,R8*%
X49169100Y57953776D02*
X49169100Y58463224D01*
X50214100Y57953776D02*
X50214100Y58463224D01*
%TO.C,J11*%
X136825922Y9549329D02*
X134628308Y4836529D01*
X118300991Y18187646D02*
X136825922Y9549329D01*
X118300991Y18187646D02*
X117202184Y15831246D01*
X119558584Y14732439D02*
X118459777Y12376038D01*
X117202184Y15831246D02*
X119558584Y14732439D01*
X116665459Y14680235D02*
X116103376Y13474846D01*
X118459777Y12376038D02*
X134628308Y4836529D01*
X116103376Y13474846D02*
X117308766Y12912764D01*
%TO.C,C1*%
X133135000Y41979748D02*
X133135000Y43402252D01*
X134955000Y41979748D02*
X134955000Y43402252D01*
%TO.C,C3*%
X116532048Y29351600D02*
X117954552Y29351600D01*
X116532048Y27531600D02*
X117954552Y27531600D01*
%TO.C,U5*%
X89282500Y67296000D02*
X87082500Y67296000D01*
X89282500Y67296000D02*
X91482500Y67296000D01*
X89282500Y60526000D02*
X85682500Y60526000D01*
X89282500Y60526000D02*
X91482500Y60526000D01*
D12*
X85446700Y60986000D02*
G75*
G03*
X85446700Y60986000I-152000J0D01*
G01*
D11*
%TO.C,RN10*%
X94377000Y39715600D02*
X95377000Y39715600D01*
X94377000Y43075600D02*
X95377000Y43075600D01*
%TO.C,RN8*%
X116286800Y70851600D02*
X116286800Y69851600D01*
X119646800Y70851600D02*
X119646800Y69851600D01*
%TO.C,R10*%
X71500664Y59027600D02*
X70046536Y59027600D01*
X71500664Y60847600D02*
X70046536Y60847600D01*
%TO.C,R21*%
X82422664Y25093200D02*
X80968536Y25093200D01*
X82422664Y26913200D02*
X80968536Y26913200D01*
%TO.C,R18*%
X58057736Y31739200D02*
X59511864Y31739200D01*
X58057736Y29919200D02*
X59511864Y29919200D01*
%TO.C,F4*%
X85012252Y37298000D02*
X82239748Y37298000D01*
X85012252Y40718000D02*
X82239748Y40718000D01*
%TO.C,C15*%
X64374800Y22137367D02*
X64374800Y21844833D01*
X63354800Y22137367D02*
X63354800Y21844833D01*
%TO.C,C12*%
X64982348Y55666000D02*
X66404852Y55666000D01*
X64982348Y53846000D02*
X66404852Y53846000D01*
%TO.C,U9*%
X58190600Y64052400D02*
X58190600Y66002400D01*
X58190600Y64052400D02*
X58190600Y62102400D01*
X49320600Y64052400D02*
X49320600Y67502400D01*
X49320600Y64052400D02*
X49320600Y62102400D01*
D12*
X50123000Y67938600D02*
G75*
G03*
X50123000Y67938600I-152000J0D01*
G01*
D11*
%TO.C,C19*%
X108412000Y63849252D02*
X108412000Y62426748D01*
X106592000Y63849252D02*
X106592000Y62426748D01*
%TO.C,R13*%
X60843736Y62958600D02*
X61297864Y62958600D01*
X60843736Y61488600D02*
X61297864Y61488600D01*
%TO.C,F2*%
X83488252Y57745000D02*
X80715748Y57745000D01*
X83488252Y61165000D02*
X80715748Y61165000D01*
%TO.C,C2*%
X133172000Y34232748D02*
X133172000Y35655252D01*
X134992000Y34232748D02*
X134992000Y35655252D01*
%TO.C,U11*%
X70890600Y27832000D02*
X70890600Y29782000D01*
X70890600Y27832000D02*
X70890600Y25882000D01*
X62020600Y27832000D02*
X62020600Y31282000D01*
X62020600Y27832000D02*
X62020600Y25882000D01*
D12*
X62823000Y31718200D02*
G75*
G03*
X62823000Y31718200I-152000J0D01*
G01*
D11*
%TO.C,R17*%
X61767500Y21737176D02*
X61767500Y22246624D01*
X62812500Y21737176D02*
X62812500Y22246624D01*
%TO.C,RN1*%
X121988000Y43830400D02*
X122988000Y43830400D01*
X121988000Y47190400D02*
X122988000Y47190400D01*
%TO.C,D10*%
X59308800Y18918800D02*
X59308800Y22928800D01*
X61308800Y18918800D02*
X59308800Y18918800D01*
X61308800Y18918800D02*
X61308800Y22928800D01*
%TO.C,J6*%
X90995991Y73252354D02*
X88798376Y77965154D01*
X109520922Y81890671D02*
X90995991Y73252354D01*
X109520922Y81890671D02*
X108422115Y84247071D01*
X106065714Y83148264D02*
X104966907Y85504664D01*
X108422115Y84247071D02*
X106065714Y83148264D01*
X107885389Y85398082D02*
X107323307Y86603472D01*
X104966907Y85504664D02*
X88798376Y77965154D01*
X107323307Y86603472D02*
X106117918Y86041389D01*
%TO.C,D11*%
X82254000Y42993500D02*
X82254000Y42343500D01*
X82254000Y42993500D02*
X82254000Y43643500D01*
X85374000Y42993500D02*
X85374000Y41318500D01*
X85374000Y42993500D02*
X85374000Y43643500D01*
%TO.C,U6*%
X90755700Y28869200D02*
X88555700Y28869200D01*
X90755700Y28869200D02*
X92955700Y28869200D01*
X90755700Y22099200D02*
X87155700Y22099200D01*
X90755700Y22099200D02*
X92955700Y22099200D01*
D12*
X86919900Y22559200D02*
G75*
G03*
X86919900Y22559200I-152000J0D01*
G01*
D11*
%TO.C,J15*%
X82215922Y9549329D02*
X80018308Y4836529D01*
X63690991Y18187646D02*
X82215922Y9549329D01*
X63690991Y18187646D02*
X62592184Y15831246D01*
X64948584Y14732439D02*
X63849777Y12376038D01*
X62592184Y15831246D02*
X64948584Y14732439D01*
X62055459Y14680235D02*
X61493376Y13474846D01*
X63849777Y12376038D02*
X80018308Y4836529D01*
X61493376Y13474846D02*
X62698766Y12912764D01*
%TO.C,U4*%
X109534000Y19787000D02*
X107334000Y19787000D01*
X109534000Y19787000D02*
X111734000Y19787000D01*
X109534000Y13017000D02*
X105934000Y13017000D01*
X109534000Y13017000D02*
X111734000Y13017000D01*
D12*
X105698200Y13477000D02*
G75*
G03*
X105698200Y13477000I-152000J0D01*
G01*
D11*
%TO.C,R12*%
X60843736Y65295400D02*
X61297864Y65295400D01*
X60843736Y63825400D02*
X61297864Y63825400D01*
%TO.C,R7*%
X45357736Y67959600D02*
X46811864Y67959600D01*
X45357736Y66139600D02*
X46811864Y66139600D01*
%TO.C,C9*%
X93045000Y58515252D02*
X93045000Y57092748D01*
X91225000Y58515252D02*
X91225000Y57092748D01*
%TO.C,U3*%
X113752000Y69810500D02*
X113752000Y72010500D01*
X113752000Y69810500D02*
X113752000Y67610500D01*
X106982000Y69810500D02*
X106982000Y73410500D01*
X106982000Y69810500D02*
X106982000Y67610500D01*
D12*
X107594000Y73798300D02*
G75*
G03*
X107594000Y73798300I-152000J0D01*
G01*
D11*
%TO.C,J7*%
X63186000Y50352000D02*
X65846000Y50352000D01*
X63186000Y42672000D02*
X63186000Y50352000D01*
X63186000Y42672000D02*
X65846000Y42672000D01*
X63186000Y41402000D02*
X63186000Y40072000D01*
X63186000Y40072000D02*
X64516000Y40072000D01*
X65846000Y42672000D02*
X65846000Y50352000D01*
%TO.C,U2*%
X127804000Y69810500D02*
X127804000Y72010500D01*
X127804000Y69810500D02*
X127804000Y67610500D01*
X121034000Y69810500D02*
X121034000Y73410500D01*
X121034000Y69810500D02*
X121034000Y67610500D01*
D12*
X121646000Y73798300D02*
G75*
G03*
X121646000Y73798300I-152000J0D01*
G01*
D11*
%TO.C,C18*%
X41720400Y57397548D02*
X41720400Y58820052D01*
X43540400Y57397548D02*
X43540400Y58820052D01*
%TO.C,U1*%
X134851000Y26308000D02*
X134851000Y24108000D01*
X134851000Y26308000D02*
X134851000Y28508000D01*
X141621000Y26308000D02*
X141621000Y22708000D01*
X141621000Y26308000D02*
X141621000Y28508000D01*
D12*
X141313000Y22320200D02*
G75*
G03*
X141313000Y22320200I-152000J0D01*
G01*
D11*
%TO.C,R2*%
X23756600Y35831464D02*
X23756600Y35377336D01*
X22286600Y35831464D02*
X22286600Y35377336D01*
%TO.C,RN6*%
X108183000Y39715600D02*
X109183000Y39715600D01*
X108183000Y43075600D02*
X109183000Y43075600D01*
%TO.C,RN2*%
X121988000Y39715600D02*
X122988000Y39715600D01*
X121988000Y43075600D02*
X122988000Y43075600D01*
%TO.C,C17*%
X92820852Y19860800D02*
X91398348Y19860800D01*
X92820852Y21680800D02*
X91398348Y21680800D01*
%TO.C,RN7*%
X108183000Y35600800D02*
X109183000Y35600800D01*
X108183000Y38960800D02*
X109183000Y38960800D01*
%TO.C,J16*%
X54910922Y9549329D02*
X52713308Y4836529D01*
X36385991Y18187646D02*
X54910922Y9549329D01*
X36385991Y18187646D02*
X35287184Y15831246D01*
X37643584Y14732439D02*
X36544777Y12376038D01*
X35287184Y15831246D02*
X37643584Y14732439D01*
X34750459Y14680235D02*
X34188376Y13474846D01*
X36544777Y12376038D02*
X52713308Y4836529D01*
X34188376Y13474846D02*
X35393766Y12912764D01*
%TO.C,R15*%
X73543736Y26738200D02*
X73997864Y26738200D01*
X73543736Y25268200D02*
X73997864Y25268200D01*
%TO.C,R3*%
X129990536Y67959600D02*
X131444664Y67959600D01*
X129990536Y66139600D02*
X131444664Y66139600D01*
%TO.C,RN3*%
X121988000Y35600800D02*
X122988000Y35600800D01*
X121988000Y38960800D02*
X122988000Y38960800D01*
%TO.C,R1*%
X21369000Y35831464D02*
X21369000Y35377336D01*
X19899000Y35831464D02*
X19899000Y35377336D01*
%TO.C,D5*%
X76991200Y59171600D02*
X76341200Y59171600D01*
X76991200Y59171600D02*
X77641200Y59171600D01*
X76991200Y56051600D02*
X75316200Y56051600D01*
X76991200Y56051600D02*
X77641200Y56051600D01*
%TO.C,J10*%
X26318000Y64373000D02*
X26318000Y74503000D01*
X28638000Y64373000D02*
X28638000Y74503000D01*
X30918000Y64373000D02*
X30918000Y74503000D01*
X33238000Y64373000D02*
X33238000Y74503000D01*
%TO.C,C5*%
X102269548Y29351600D02*
X103692052Y29351600D01*
X102269548Y27531600D02*
X103692052Y27531600D01*
%TO.C,J5*%
X63690991Y73252354D02*
X61493376Y77965154D01*
X82215922Y81890671D02*
X63690991Y73252354D01*
X82215922Y81890671D02*
X81117115Y84247071D01*
X78760714Y83148264D02*
X77661907Y85504664D01*
X81117115Y84247071D02*
X78760714Y83148264D01*
X80580389Y85398082D02*
X80018307Y86603472D01*
X77661907Y85504664D02*
X61493376Y77965154D01*
X80018307Y86603472D02*
X78812918Y86041389D01*
%TO.C,C4*%
X116544348Y31739200D02*
X117966852Y31739200D01*
X116544348Y29919200D02*
X117966852Y29919200D01*
%TO.C,C10*%
X51725600Y58408567D02*
X51725600Y58116033D01*
X50705600Y58408567D02*
X50705600Y58116033D01*
%TO.C,C21*%
X139612000Y32708748D02*
X139612000Y34131252D01*
X141432000Y32708748D02*
X141432000Y34131252D01*
%TO.C,R9*%
X70046536Y57799600D02*
X71500664Y57799600D01*
X70046536Y55979600D02*
X71500664Y55979600D01*
%TO.C,R4*%
X116046536Y67604000D02*
X117500664Y67604000D01*
X116046536Y65784000D02*
X117500664Y65784000D01*
%TO.C,R20*%
X82309600Y29136936D02*
X82309600Y30591064D01*
X84129600Y29136936D02*
X84129600Y30591064D01*
%TO.C,U12*%
X71927800Y23711800D02*
X69977800Y23711800D01*
X71927800Y23711800D02*
X73877800Y23711800D01*
X71927800Y18591800D02*
X68477800Y18591800D01*
X71927800Y18591800D02*
X73877800Y18591800D01*
D12*
X68244400Y19272200D02*
G75*
G03*
X68244400Y19272200I-152000J0D01*
G01*
D11*
%TO.C,J9*%
X118300991Y73252354D02*
X116103376Y77965154D01*
X136825922Y81890671D02*
X118300991Y73252354D01*
X136825922Y81890671D02*
X135727115Y84247071D01*
X133370714Y83148264D02*
X132271907Y85504664D01*
X135727115Y84247071D02*
X133370714Y83148264D01*
X135190389Y85398082D02*
X134628307Y86603472D01*
X132271907Y85504664D02*
X116103376Y77965154D01*
X134628307Y86603472D02*
X133422918Y86041389D01*
%TO.C,U8*%
X34521000Y53740000D02*
X34521000Y51540000D01*
X34521000Y53740000D02*
X34521000Y55940000D01*
X41291000Y53740000D02*
X41291000Y50140000D01*
X41291000Y53740000D02*
X41291000Y55940000D01*
D12*
X40983000Y49752200D02*
G75*
G03*
X40983000Y49752200I-152000J0D01*
G01*
D11*
%TO.C,C11*%
X47405652Y60653200D02*
X45983148Y60653200D01*
X47405652Y62473200D02*
X45983148Y62473200D01*
%TO.C,U10*%
X59227800Y59932200D02*
X57277800Y59932200D01*
X59227800Y59932200D02*
X61177800Y59932200D01*
X59227800Y54812200D02*
X55777800Y54812200D01*
X59227800Y54812200D02*
X61177800Y54812200D01*
D12*
X55544400Y55492600D02*
G75*
G03*
X55544400Y55492600I-152000J0D01*
G01*
%TD*%
%LPC*%
D13*
%TO.C,J17*%
X76768000Y36772800D03*
D14*
X76768000Y34232800D03*
X74228000Y36772800D03*
X74228000Y34232800D03*
X71688000Y36772800D03*
X71688000Y34232800D03*
X69148000Y36772800D03*
X69148000Y34232800D03*
X66608000Y36772800D03*
X66608000Y34232800D03*
X64068000Y36772800D03*
X64068000Y34232800D03*
X61528000Y36772800D03*
X61528000Y34232800D03*
X58988000Y36772800D03*
X58988000Y34232800D03*
X56448000Y36772800D03*
X56448000Y34232800D03*
X53908000Y36772800D03*
X53908000Y34232800D03*
X51368000Y36772800D03*
X51368000Y34232800D03*
X48828000Y36772800D03*
X48828000Y34232800D03*
X46288000Y36772800D03*
X46288000Y34232800D03*
X43748000Y36772800D03*
X43748000Y34232800D03*
X41208000Y36772800D03*
X41208000Y34232800D03*
X38668000Y36772800D03*
X38668000Y34232800D03*
X36128000Y36772800D03*
X36128000Y34232800D03*
X33588000Y36772800D03*
X33588000Y34232800D03*
X31048000Y36772800D03*
X31048000Y34232800D03*
X28508000Y36772800D03*
X28508000Y34232800D03*
%TD*%
D15*
%TO.C,J2*%
X114270000Y63900000D03*
D14*
X116810000Y63900000D03*
X114270000Y61360000D03*
X116810000Y61360000D03*
X114270000Y58820000D03*
X116810000Y58820000D03*
X114270000Y56280000D03*
X116810000Y56280000D03*
X114270000Y53740000D03*
X116810000Y53740000D03*
X114270000Y51200000D03*
X116810000Y51200000D03*
X114270000Y48660000D03*
X116810000Y48660000D03*
X114270000Y46120000D03*
X116810000Y46120000D03*
X114270000Y43580000D03*
X116810000Y43580000D03*
X114270000Y41040000D03*
X116810000Y41040000D03*
X114270000Y38500000D03*
X116810000Y38500000D03*
X114270000Y35960000D03*
X116810000Y35960000D03*
X114270000Y33420000D03*
X116810000Y33420000D03*
%TD*%
D16*
%TO.C,JP6*%
X98866000Y22244000D03*
D17*
X101406000Y22244000D03*
X103946000Y22244000D03*
%TD*%
D16*
%TO.C,JP4*%
X126679000Y22244000D03*
D17*
X129219000Y22244000D03*
X131759000Y22244000D03*
%TD*%
D16*
%TO.C,JP1*%
X126716000Y25927000D03*
D17*
X129256000Y25927000D03*
X131796000Y25927000D03*
%TD*%
D18*
%TO.C,RS485-5*%
X89315600Y58881600D03*
D19*
X89315600Y56381600D03*
%TD*%
D16*
%TO.C,JP3*%
X98866000Y25901600D03*
D17*
X101406000Y25901600D03*
X103946000Y25901600D03*
%TD*%
D18*
%TO.C,RS485-1*%
X89366400Y38155200D03*
D19*
X89366400Y35655200D03*
%TD*%
D16*
%TO.C,JP5*%
X113090000Y22244000D03*
D17*
X115630000Y22244000D03*
X118170000Y22244000D03*
%TD*%
D20*
%TO.C,REF\u002A\u002A*%
X23560000Y70112000D03*
D21*
X23560000Y70112000D03*
%TD*%
D20*
%TO.C,REF\u002A\u002A*%
X81560000Y21112000D03*
D21*
X81560000Y21112000D03*
%TD*%
D20*
%TO.C,REF\u002A\u002A*%
X23560000Y21112000D03*
D21*
X23560000Y21112000D03*
%TD*%
D16*
%TO.C,JP2*%
X113105000Y25901600D03*
D17*
X115645000Y25901600D03*
X118185000Y25901600D03*
%TD*%
D15*
%TO.C,J3*%
X100464000Y63900000D03*
D14*
X103004000Y63900000D03*
X100464000Y61360000D03*
X103004000Y61360000D03*
X100464000Y58820000D03*
X103004000Y58820000D03*
X100464000Y56280000D03*
X103004000Y56280000D03*
X100464000Y53740000D03*
X103004000Y53740000D03*
X100464000Y51200000D03*
X103004000Y51200000D03*
X100464000Y48660000D03*
X103004000Y48660000D03*
X100464000Y46120000D03*
X103004000Y46120000D03*
X100464000Y43580000D03*
X103004000Y43580000D03*
X100464000Y41040000D03*
X103004000Y41040000D03*
X100464000Y38500000D03*
X103004000Y38500000D03*
X100464000Y35960000D03*
X103004000Y35960000D03*
X100464000Y33420000D03*
X103004000Y33420000D03*
%TD*%
D20*
%TO.C,REF\u002A\u002A*%
X81560000Y70112000D03*
D21*
X81560000Y70112000D03*
%TD*%
D15*
%TO.C,J1*%
X128076000Y63900000D03*
D14*
X130616000Y63900000D03*
X128076000Y61360000D03*
X130616000Y61360000D03*
X128076000Y58820000D03*
X130616000Y58820000D03*
X128076000Y56280000D03*
X130616000Y56280000D03*
X128076000Y53740000D03*
X130616000Y53740000D03*
X128076000Y51200000D03*
X130616000Y51200000D03*
X128076000Y48660000D03*
X130616000Y48660000D03*
X128076000Y46120000D03*
X130616000Y46120000D03*
X128076000Y43580000D03*
X130616000Y43580000D03*
X128076000Y41040000D03*
X130616000Y41040000D03*
X128076000Y38500000D03*
X130616000Y38500000D03*
X128076000Y35960000D03*
X130616000Y35960000D03*
X128076000Y33420000D03*
X130616000Y33420000D03*
%TD*%
D22*
%TO.C,RN9*%
X95877000Y46710400D03*
D23*
X95877000Y45910400D03*
X95877000Y45110400D03*
D22*
X95877000Y44310400D03*
X93877000Y44310400D03*
D23*
X93877000Y45110400D03*
X93877000Y45910400D03*
D22*
X93877000Y46710400D03*
%TD*%
D24*
%TO.C,F3*%
X81401000Y34817000D03*
X85851000Y34817000D03*
%TD*%
D25*
%TO.C,RN4*%
X133594000Y70316800D03*
D26*
X132794000Y70316800D03*
X131994000Y70316800D03*
D25*
X131194000Y70316800D03*
X131194000Y72316800D03*
D26*
X131994000Y72316800D03*
X132794000Y72316800D03*
D25*
X133594000Y72316800D03*
%TD*%
D27*
%TO.C,C16*%
X112328000Y11868500D03*
X112328000Y8743500D03*
%TD*%
D28*
%TO.C,D4*%
X47710400Y55824800D03*
X47710400Y59124800D03*
%TD*%
D24*
%TO.C,F1*%
X79877000Y55376400D03*
X84327000Y55376400D03*
%TD*%
D22*
%TO.C,RN11*%
X95877000Y38480800D03*
D23*
X95877000Y37680800D03*
X95877000Y36880800D03*
D22*
X95877000Y36080800D03*
X93877000Y36080800D03*
D23*
X93877000Y36880800D03*
X93877000Y37680800D03*
D22*
X93877000Y38480800D03*
%TD*%
D16*
%TO.C,J14*%
X38460000Y28000000D03*
D17*
X41000000Y28000000D03*
%TD*%
D29*
%TO.C,R11*%
X66912800Y56863600D03*
X66912800Y59963600D03*
%TD*%
D27*
%TO.C,C20*%
X121472000Y64700500D03*
X121472000Y61575500D03*
%TD*%
D30*
%TO.C,U7*%
X29422400Y45386400D03*
X28152400Y45386400D03*
X26882400Y45386400D03*
X25612400Y45386400D03*
X24342400Y45386400D03*
X23072400Y45386400D03*
X21802400Y45386400D03*
X21802400Y50336400D03*
X23072400Y50336400D03*
X24342400Y50336400D03*
X25612400Y50336400D03*
X26882400Y50336400D03*
X28152400Y50336400D03*
X29422400Y50336400D03*
%TD*%
D16*
%TO.C,J8*%
X71120000Y50165000D03*
D17*
X71120000Y47625000D03*
X71120000Y45085000D03*
X71120000Y42545000D03*
%TD*%
D25*
%TO.C,RN12*%
X105360800Y69351600D03*
D26*
X104560800Y69351600D03*
X103760800Y69351600D03*
D25*
X102960800Y69351600D03*
X102960800Y71351600D03*
D26*
X103760800Y71351600D03*
X104560800Y71351600D03*
D25*
X105360800Y71351600D03*
%TD*%
D31*
%TO.C,R6*%
X44534800Y64712800D03*
X47634800Y64712800D03*
%TD*%
D32*
%TO.C,C13*%
X60956900Y25342800D03*
X57831900Y25342800D03*
%TD*%
D33*
%TO.C,C14*%
X74443500Y17113200D03*
X77568500Y17113200D03*
%TD*%
D34*
%TO.C,J4*%
X52070000Y84836000D03*
D35*
X53143450Y82533978D03*
X49767978Y83762550D03*
X50841429Y81460528D03*
X47465956Y82689099D03*
X48539407Y80387077D03*
X45163935Y81615649D03*
X46237385Y79313627D03*
X42861913Y80542198D03*
X43935363Y78240177D03*
X40559891Y79468748D03*
X41633341Y77166726D03*
X38257869Y78395298D03*
X39331320Y76093276D03*
X35955848Y77321847D03*
X37029298Y75019826D03*
%TD*%
D16*
%TO.C,J13*%
X50800000Y29845000D03*
D17*
X53340000Y29845000D03*
%TD*%
D22*
%TO.C,RN5*%
X109683000Y46710400D03*
D23*
X109683000Y45910400D03*
X109683000Y45110400D03*
D22*
X109683000Y44310400D03*
X107683000Y44310400D03*
D23*
X107683000Y45110400D03*
X107683000Y45910400D03*
D22*
X107683000Y46710400D03*
%TD*%
D31*
%TO.C,R16*%
X57234800Y28492400D03*
X60334800Y28492400D03*
%TD*%
D36*
%TO.C,R14*%
X72770800Y28340000D03*
X74770800Y28340000D03*
%TD*%
D37*
%TO.C,J12*%
X90565848Y14118153D03*
D38*
X91639298Y16420175D03*
X92867870Y13044703D03*
X93941320Y15346724D03*
X95169892Y11971252D03*
X96243342Y14273274D03*
X97471913Y10897802D03*
X98545364Y13199824D03*
X99773935Y9824351D03*
X100847386Y12126373D03*
X102075957Y8750901D03*
X103149407Y11052923D03*
X104377979Y7677451D03*
X105451429Y9979472D03*
X106680000Y6604000D03*
X107753451Y8906022D03*
%TD*%
D31*
%TO.C,R5*%
X101417600Y66694000D03*
X104517600Y66694000D03*
%TD*%
D39*
%TO.C,R19*%
X80171600Y31414000D03*
X80171600Y28314000D03*
%TD*%
D33*
%TO.C,C6*%
X101418300Y30829200D03*
X104543300Y30829200D03*
%TD*%
D27*
%TO.C,C7*%
X31505200Y50362600D03*
X31505200Y47237600D03*
%TD*%
D40*
%TO.C,R8*%
X49691600Y57296000D03*
X49691600Y59121000D03*
%TD*%
D37*
%TO.C,J11*%
X117870848Y14118153D03*
D38*
X118944298Y16420175D03*
X120172870Y13044703D03*
X121246320Y15346724D03*
X122474892Y11971252D03*
X123548342Y14273274D03*
X124776913Y10897802D03*
X125850364Y13199824D03*
X127078935Y9824351D03*
X128152386Y12126373D03*
X129380957Y8750901D03*
X130454407Y11052923D03*
X131682979Y7677451D03*
X132756429Y9979472D03*
X133985000Y6604000D03*
X135058451Y8906022D03*
%TD*%
D41*
%TO.C,C1*%
X134045000Y41128500D03*
X134045000Y44253500D03*
%TD*%
D33*
%TO.C,C3*%
X115680800Y28441600D03*
X118805800Y28441600D03*
%TD*%
D42*
%TO.C,U5*%
X86420000Y60986000D03*
X86420000Y61636000D03*
X86420000Y62286000D03*
X86420000Y62936000D03*
X86420000Y63586000D03*
X86420000Y64236000D03*
X86420000Y64886000D03*
X86420000Y65536000D03*
X86420000Y66186000D03*
X86420000Y66836000D03*
X92145000Y66836000D03*
X92145000Y66186000D03*
X92145000Y65536000D03*
X92145000Y64886000D03*
X92145000Y64236000D03*
X92145000Y63586000D03*
X92145000Y62936000D03*
X92145000Y62286000D03*
X92145000Y61636000D03*
X92145000Y60986000D03*
%TD*%
D22*
%TO.C,RN10*%
X95877000Y42595600D03*
D23*
X95877000Y41795600D03*
X95877000Y40995600D03*
D22*
X95877000Y40195600D03*
X93877000Y40195600D03*
D23*
X93877000Y40995600D03*
X93877000Y41795600D03*
D22*
X93877000Y42595600D03*
%TD*%
D25*
%TO.C,RN8*%
X119166800Y69351600D03*
D26*
X118366800Y69351600D03*
X117566800Y69351600D03*
D25*
X116766800Y69351600D03*
X116766800Y71351600D03*
D26*
X117566800Y71351600D03*
X118366800Y71351600D03*
D25*
X119166800Y71351600D03*
%TD*%
D43*
%TO.C,R10*%
X72323600Y59937600D03*
X69223600Y59937600D03*
%TD*%
%TO.C,R21*%
X83245600Y26003200D03*
X80145600Y26003200D03*
%TD*%
D31*
%TO.C,R18*%
X57234800Y30829200D03*
X60334800Y30829200D03*
%TD*%
D44*
%TO.C,F4*%
X85851000Y39008000D03*
X81401000Y39008000D03*
%TD*%
D45*
%TO.C,C15*%
X63864800Y22853600D03*
X63864800Y21128600D03*
%TD*%
D33*
%TO.C,C12*%
X64131100Y54756000D03*
X67256100Y54756000D03*
%TD*%
D46*
%TO.C,U9*%
X49945600Y66527400D03*
X51215600Y66527400D03*
X52485600Y66527400D03*
X53755600Y66527400D03*
X55025600Y66527400D03*
X56295600Y66527400D03*
X57565600Y66527400D03*
X57565600Y61577400D03*
X56295600Y61577400D03*
X55025600Y61577400D03*
X53755600Y61577400D03*
X52485600Y61577400D03*
X51215600Y61577400D03*
X49945600Y61577400D03*
%TD*%
D27*
%TO.C,C19*%
X107502000Y64700500D03*
X107502000Y61575500D03*
%TD*%
D36*
%TO.C,R13*%
X60070800Y62223600D03*
X62070800Y62223600D03*
%TD*%
D44*
%TO.C,F2*%
X84327000Y59455000D03*
X79877000Y59455000D03*
%TD*%
D41*
%TO.C,C2*%
X134082000Y33381500D03*
X134082000Y36506500D03*
%TD*%
D46*
%TO.C,U11*%
X62645600Y30307000D03*
X63915600Y30307000D03*
X65185600Y30307000D03*
X66455600Y30307000D03*
X67725600Y30307000D03*
X68995600Y30307000D03*
X70265600Y30307000D03*
X70265600Y25357000D03*
X68995600Y25357000D03*
X67725600Y25357000D03*
X66455600Y25357000D03*
X65185600Y25357000D03*
X63915600Y25357000D03*
X62645600Y25357000D03*
%TD*%
D40*
%TO.C,R17*%
X62290000Y21079400D03*
X62290000Y22904400D03*
%TD*%
D22*
%TO.C,RN1*%
X123488000Y46710400D03*
D23*
X123488000Y45910400D03*
X123488000Y45110400D03*
D22*
X123488000Y44310400D03*
X121488000Y44310400D03*
D23*
X121488000Y45110400D03*
X121488000Y45910400D03*
D22*
X121488000Y46710400D03*
%TD*%
D28*
%TO.C,D10*%
X60308800Y19628800D03*
X60308800Y22928800D03*
%TD*%
D34*
%TO.C,J6*%
X106680000Y84836000D03*
D35*
X107753450Y82533978D03*
X104377978Y83762550D03*
X105451429Y81460528D03*
X102075956Y82689099D03*
X103149407Y80387077D03*
X99773935Y81615649D03*
X100847385Y79313627D03*
X97471913Y80542198D03*
X98545363Y78240177D03*
X95169891Y79468748D03*
X96243341Y77166726D03*
X92867869Y78395298D03*
X93941320Y76093276D03*
X90565848Y77321847D03*
X91639298Y75019826D03*
%TD*%
D47*
%TO.C,D11*%
X84764000Y42056000D03*
X82864000Y42056000D03*
X83814000Y43931000D03*
%TD*%
D42*
%TO.C,U6*%
X87893200Y22559200D03*
X87893200Y23209200D03*
X87893200Y23859200D03*
X87893200Y24509200D03*
X87893200Y25159200D03*
X87893200Y25809200D03*
X87893200Y26459200D03*
X87893200Y27109200D03*
X87893200Y27759200D03*
X87893200Y28409200D03*
X93618200Y28409200D03*
X93618200Y27759200D03*
X93618200Y27109200D03*
X93618200Y26459200D03*
X93618200Y25809200D03*
X93618200Y25159200D03*
X93618200Y24509200D03*
X93618200Y23859200D03*
X93618200Y23209200D03*
X93618200Y22559200D03*
%TD*%
D37*
%TO.C,J15*%
X63260848Y14118153D03*
D38*
X64334298Y16420175D03*
X65562870Y13044703D03*
X66636320Y15346724D03*
X67864892Y11971252D03*
X68938342Y14273274D03*
X70166913Y10897802D03*
X71240364Y13199824D03*
X72468935Y9824351D03*
X73542386Y12126373D03*
X74770957Y8750901D03*
X75844407Y11052923D03*
X77072979Y7677451D03*
X78146429Y9979472D03*
X79375000Y6604000D03*
X80448451Y8906022D03*
%TD*%
D42*
%TO.C,U4*%
X106671500Y13477000D03*
X106671500Y14127000D03*
X106671500Y14777000D03*
X106671500Y15427000D03*
X106671500Y16077000D03*
X106671500Y16727000D03*
X106671500Y17377000D03*
X106671500Y18027000D03*
X106671500Y18677000D03*
X106671500Y19327000D03*
X112396500Y19327000D03*
X112396500Y18677000D03*
X112396500Y18027000D03*
X112396500Y17377000D03*
X112396500Y16727000D03*
X112396500Y16077000D03*
X112396500Y15427000D03*
X112396500Y14777000D03*
X112396500Y14127000D03*
X112396500Y13477000D03*
%TD*%
D36*
%TO.C,R12*%
X60070800Y64560400D03*
X62070800Y64560400D03*
%TD*%
D31*
%TO.C,R7*%
X44534800Y67049600D03*
X47634800Y67049600D03*
%TD*%
D27*
%TO.C,C9*%
X92135000Y59366500D03*
X92135000Y56241500D03*
%TD*%
D48*
%TO.C,U3*%
X107442000Y72673000D03*
X108092000Y72673000D03*
X108742000Y72673000D03*
X109392000Y72673000D03*
X110042000Y72673000D03*
X110692000Y72673000D03*
X111342000Y72673000D03*
X111992000Y72673000D03*
X112642000Y72673000D03*
X113292000Y72673000D03*
X113292000Y66948000D03*
X112642000Y66948000D03*
X111992000Y66948000D03*
X111342000Y66948000D03*
X110692000Y66948000D03*
X110042000Y66948000D03*
X109392000Y66948000D03*
X108742000Y66948000D03*
X108092000Y66948000D03*
X107442000Y66948000D03*
%TD*%
D16*
%TO.C,J7*%
X64516000Y41402000D03*
D17*
X64516000Y43942000D03*
X64516000Y46482000D03*
X64516000Y49022000D03*
%TD*%
D48*
%TO.C,U2*%
X121494000Y72673000D03*
X122144000Y72673000D03*
X122794000Y72673000D03*
X123444000Y72673000D03*
X124094000Y72673000D03*
X124744000Y72673000D03*
X125394000Y72673000D03*
X126044000Y72673000D03*
X126694000Y72673000D03*
X127344000Y72673000D03*
X127344000Y66948000D03*
X126694000Y66948000D03*
X126044000Y66948000D03*
X125394000Y66948000D03*
X124744000Y66948000D03*
X124094000Y66948000D03*
X123444000Y66948000D03*
X122794000Y66948000D03*
X122144000Y66948000D03*
X121494000Y66948000D03*
%TD*%
D41*
%TO.C,C18*%
X42630400Y56546300D03*
X42630400Y59671300D03*
%TD*%
D49*
%TO.C,U1*%
X141161000Y23445500D03*
X140511000Y23445500D03*
X139861000Y23445500D03*
X139211000Y23445500D03*
X138561000Y23445500D03*
X137911000Y23445500D03*
X137261000Y23445500D03*
X136611000Y23445500D03*
X135961000Y23445500D03*
X135311000Y23445500D03*
X135311000Y29170500D03*
X135961000Y29170500D03*
X136611000Y29170500D03*
X137261000Y29170500D03*
X137911000Y29170500D03*
X138561000Y29170500D03*
X139211000Y29170500D03*
X139861000Y29170500D03*
X140511000Y29170500D03*
X141161000Y29170500D03*
%TD*%
D50*
%TO.C,R2*%
X23021600Y36604400D03*
X23021600Y34604400D03*
%TD*%
D22*
%TO.C,RN6*%
X109683000Y42595600D03*
D23*
X109683000Y41795600D03*
X109683000Y40995600D03*
D22*
X109683000Y40195600D03*
X107683000Y40195600D03*
D23*
X107683000Y40995600D03*
X107683000Y41795600D03*
D22*
X107683000Y42595600D03*
%TD*%
%TO.C,RN2*%
X123488000Y42595600D03*
D23*
X123488000Y41795600D03*
X123488000Y40995600D03*
D22*
X123488000Y40195600D03*
X121488000Y40195600D03*
D23*
X121488000Y40995600D03*
X121488000Y41795600D03*
D22*
X121488000Y42595600D03*
%TD*%
D32*
%TO.C,C17*%
X93672100Y20770800D03*
X90547100Y20770800D03*
%TD*%
D22*
%TO.C,RN7*%
X109683000Y38480800D03*
D23*
X109683000Y37680800D03*
X109683000Y36880800D03*
D22*
X109683000Y36080800D03*
X107683000Y36080800D03*
D23*
X107683000Y36880800D03*
X107683000Y37680800D03*
D22*
X107683000Y38480800D03*
%TD*%
D37*
%TO.C,J16*%
X35955848Y14118153D03*
D38*
X37029298Y16420175D03*
X38257870Y13044703D03*
X39331320Y15346724D03*
X40559892Y11971252D03*
X41633342Y14273274D03*
X42861913Y10897802D03*
X43935364Y13199824D03*
X45163935Y9824351D03*
X46237386Y12126373D03*
X47465957Y8750901D03*
X48539407Y11052923D03*
X49767979Y7677451D03*
X50841429Y9979472D03*
X52070000Y6604000D03*
X53143451Y8906022D03*
%TD*%
D36*
%TO.C,R15*%
X72770800Y26003200D03*
X74770800Y26003200D03*
%TD*%
D31*
%TO.C,R3*%
X129167600Y67049600D03*
X132267600Y67049600D03*
%TD*%
D22*
%TO.C,RN3*%
X123488000Y38480800D03*
D23*
X123488000Y37680800D03*
X123488000Y36880800D03*
D22*
X123488000Y36080800D03*
X121488000Y36080800D03*
D23*
X121488000Y36880800D03*
X121488000Y37680800D03*
D22*
X121488000Y38480800D03*
%TD*%
D50*
%TO.C,R1*%
X20634000Y36604400D03*
X20634000Y34604400D03*
%TD*%
D51*
%TO.C,D5*%
X76053700Y56661600D03*
X76053700Y58561600D03*
X77928700Y57611600D03*
%TD*%
D52*
%TO.C,J10*%
X27478000Y75663000D03*
X32078000Y75663000D03*
D53*
X27478000Y63063000D03*
D54*
X32078000Y63063000D03*
%TD*%
D33*
%TO.C,C5*%
X101418300Y28441600D03*
X104543300Y28441600D03*
%TD*%
D34*
%TO.C,J5*%
X79375000Y84836000D03*
D35*
X80448450Y82533978D03*
X77072978Y83762550D03*
X78146429Y81460528D03*
X74770956Y82689099D03*
X75844407Y80387077D03*
X72468935Y81615649D03*
X73542385Y79313627D03*
X70166913Y80542198D03*
X71240363Y78240177D03*
X67864891Y79468748D03*
X68938341Y77166726D03*
X65562869Y78395298D03*
X66636320Y76093276D03*
X63260848Y77321847D03*
X64334298Y75019826D03*
%TD*%
D33*
%TO.C,C4*%
X115693100Y30829200D03*
X118818100Y30829200D03*
%TD*%
D45*
%TO.C,C10*%
X51215600Y59124800D03*
X51215600Y57399800D03*
%TD*%
D41*
%TO.C,C21*%
X140522000Y31857500D03*
X140522000Y34982500D03*
%TD*%
D31*
%TO.C,R9*%
X69223600Y56889600D03*
X72323600Y56889600D03*
%TD*%
%TO.C,R4*%
X115223600Y66694000D03*
X118323600Y66694000D03*
%TD*%
D29*
%TO.C,R20*%
X83219600Y28314000D03*
X83219600Y31414000D03*
%TD*%
D55*
%TO.C,U12*%
X69452800Y19246800D03*
X69452800Y20516800D03*
X69452800Y21786800D03*
X69452800Y23056800D03*
X74402800Y23056800D03*
X74402800Y21786800D03*
X74402800Y20516800D03*
X74402800Y19246800D03*
%TD*%
D34*
%TO.C,J9*%
X133985000Y84836000D03*
D35*
X135058450Y82533978D03*
X131682978Y83762550D03*
X132756429Y81460528D03*
X129380956Y82689099D03*
X130454407Y80387077D03*
X127078935Y81615649D03*
X128152385Y79313627D03*
X124776913Y80542198D03*
X125850363Y78240177D03*
X122474891Y79468748D03*
X123548341Y77166726D03*
X120172869Y78395298D03*
X121246320Y76093276D03*
X117870848Y77321847D03*
X118944298Y75019826D03*
%TD*%
D49*
%TO.C,U8*%
X40831000Y50877500D03*
X40181000Y50877500D03*
X39531000Y50877500D03*
X38881000Y50877500D03*
X38231000Y50877500D03*
X37581000Y50877500D03*
X36931000Y50877500D03*
X36281000Y50877500D03*
X35631000Y50877500D03*
X34981000Y50877500D03*
X34981000Y56602500D03*
X35631000Y56602500D03*
X36281000Y56602500D03*
X36931000Y56602500D03*
X37581000Y56602500D03*
X38231000Y56602500D03*
X38881000Y56602500D03*
X39531000Y56602500D03*
X40181000Y56602500D03*
X40831000Y56602500D03*
%TD*%
D32*
%TO.C,C11*%
X48256900Y61563200D03*
X45131900Y61563200D03*
%TD*%
D55*
%TO.C,U10*%
X56752800Y55467200D03*
X56752800Y56737200D03*
X56752800Y58007200D03*
X56752800Y59277200D03*
X61702800Y59277200D03*
X61702800Y58007200D03*
X61702800Y56737200D03*
X61702800Y55467200D03*
%TD*%
%LPD*%
M02*
