%TF.GenerationSoftware,KiCad,Pcbnew,7.0.9*%
%TF.CreationDate,2024-01-13T22:18:07+01:00*%
%TF.ProjectId,HUB75HAT,48554237-3548-4415-942e-6b696361645f,rev?*%
%TF.SameCoordinates,Original*%
%TF.FileFunction,Soldermask,Top*%
%TF.FilePolarity,Negative*%
%FSLAX46Y46*%
G04 Gerber Fmt 4.6, Leading zero omitted, Abs format (unit mm)*
G04 Created by KiCad (PCBNEW 7.0.9) date 2024-01-13 22:18:07*
%MOMM*%
%LPD*%
G01*
G04 APERTURE LIST*
G04 Aperture macros list*
%AMRoundRect*
0 Rectangle with rounded corners*
0 $1 Rounding radius*
0 $2 $3 $4 $5 $6 $7 $8 $9 X,Y pos of 4 corners*
0 Add a 4 corners polygon primitive as box body*
4,1,4,$2,$3,$4,$5,$6,$7,$8,$9,$2,$3,0*
0 Add four circle primitives for the rounded corners*
1,1,$1+$1,$2,$3*
1,1,$1+$1,$4,$5*
1,1,$1+$1,$6,$7*
1,1,$1+$1,$8,$9*
0 Add four rect primitives between the rounded corners*
20,1,$1+$1,$2,$3,$4,$5,0*
20,1,$1+$1,$4,$5,$6,$7,0*
20,1,$1+$1,$6,$7,$8,$9,0*
20,1,$1+$1,$8,$9,$2,$3,0*%
%AMHorizOval*
0 Thick line with rounded ends*
0 $1 width*
0 $2 $3 position (X,Y) of the first rounded end (center of the circle)*
0 $4 $5 position (X,Y) of the second rounded end (center of the circle)*
0 Add line between two ends*
20,1,$1,$2,$3,$4,$5,0*
0 Add two circle primitives to create the rounded ends*
1,1,$1,$2,$3*
1,1,$1,$4,$5*%
%AMRotRect*
0 Rectangle, with rotation*
0 The origin of the aperture is its center*
0 $1 length*
0 $2 width*
0 $3 Rotation angle, in degrees counterclockwise*
0 Add horizontal line*
21,1,$1,$2,0,0,$3*%
%AMFreePoly0*
4,1,6,1.000000,0.000000,0.500000,-0.750000,-0.500000,-0.750000,-0.500000,0.750000,0.500000,0.750000,1.000000,0.000000,1.000000,0.000000,$1*%
G04 Aperture macros list end*
%ADD10RoundRect,0.250000X-0.600000X0.600000X-0.600000X-0.600000X0.600000X-0.600000X0.600000X0.600000X0*%
%ADD11C,1.700000*%
%ADD12RoundRect,0.250000X-0.600000X-0.600000X0.600000X-0.600000X0.600000X0.600000X-0.600000X0.600000X0*%
%ADD13RoundRect,0.250000X1.450000X-0.400000X1.450000X0.400000X-1.450000X0.400000X-1.450000X-0.400000X0*%
%ADD14RoundRect,0.250001X0.462499X0.624999X-0.462499X0.624999X-0.462499X-0.624999X0.462499X-0.624999X0*%
%ADD15R,1.700000X1.700000*%
%ADD16O,1.700000X1.700000*%
%ADD17RoundRect,0.250001X0.624999X-0.462499X0.624999X0.462499X-0.624999X0.462499X-0.624999X-0.462499X0*%
%ADD18RoundRect,0.250000X-0.750000X0.600000X-0.750000X-0.600000X0.750000X-0.600000X0.750000X0.600000X0*%
%ADD19O,2.000000X1.700000*%
%ADD20R,1.500000X1.500000*%
%ADD21FreePoly0,180.000000*%
%ADD22FreePoly0,0.000000*%
%ADD23C,3.100000*%
%ADD24C,4.700000*%
%ADD25RotRect,1.700000X1.700000X115.000000*%
%ADD26HorizOval,1.700000X0.000000X0.000000X0.000000X0.000000X0*%
%ADD27RotRect,1.700000X1.700000X245.000000*%
%ADD28HorizOval,1.700000X0.000000X0.000000X0.000000X0.000000X0*%
%ADD29C,2.600000*%
%ADD30RoundRect,0.250001X-0.799999X-0.799999X0.799999X-0.799999X0.799999X0.799999X-0.799999X0.799999X0*%
%ADD31C,2.100000*%
G04 APERTURE END LIST*
D10*
%TO.C,J17*%
X76768000Y36772800D03*
D11*
X76768000Y34232800D03*
X74228000Y36772800D03*
X74228000Y34232800D03*
X71688000Y36772800D03*
X71688000Y34232800D03*
X69148000Y36772800D03*
X69148000Y34232800D03*
X66608000Y36772800D03*
X66608000Y34232800D03*
X64068000Y36772800D03*
X64068000Y34232800D03*
X61528000Y36772800D03*
X61528000Y34232800D03*
X58988000Y36772800D03*
X58988000Y34232800D03*
X56448000Y36772800D03*
X56448000Y34232800D03*
X53908000Y36772800D03*
X53908000Y34232800D03*
X51368000Y36772800D03*
X51368000Y34232800D03*
X48828000Y36772800D03*
X48828000Y34232800D03*
X46288000Y36772800D03*
X46288000Y34232800D03*
X43748000Y36772800D03*
X43748000Y34232800D03*
X41208000Y36772800D03*
X41208000Y34232800D03*
X38668000Y36772800D03*
X38668000Y34232800D03*
X36128000Y36772800D03*
X36128000Y34232800D03*
X33588000Y36772800D03*
X33588000Y34232800D03*
X31048000Y36772800D03*
X31048000Y34232800D03*
X28508000Y36772800D03*
X28508000Y34232800D03*
%TD*%
D12*
%TO.C,J2*%
X114270000Y63900000D03*
D11*
X116810000Y63900000D03*
X114270000Y61360000D03*
X116810000Y61360000D03*
X114270000Y58820000D03*
X116810000Y58820000D03*
X114270000Y56280000D03*
X116810000Y56280000D03*
X114270000Y53740000D03*
X116810000Y53740000D03*
X114270000Y51200000D03*
X116810000Y51200000D03*
X114270000Y48660000D03*
X116810000Y48660000D03*
X114270000Y46120000D03*
X116810000Y46120000D03*
X114270000Y43580000D03*
X116810000Y43580000D03*
X114270000Y41040000D03*
X116810000Y41040000D03*
X114270000Y38500000D03*
X116810000Y38500000D03*
X114270000Y35960000D03*
X116810000Y35960000D03*
X114270000Y33420000D03*
X116810000Y33420000D03*
%TD*%
D13*
%TO.C,F7*%
X94446400Y22345600D03*
X94446400Y26795600D03*
%TD*%
D14*
%TO.C,D9*%
X90447500Y28848000D03*
X87472500Y28848000D03*
%TD*%
D15*
%TO.C,JP6*%
X98866000Y22244000D03*
D16*
X101406000Y22244000D03*
X103946000Y22244000D03*
%TD*%
D17*
%TO.C,D1*%
X5140000Y11358500D03*
X5140000Y14333500D03*
%TD*%
D14*
%TO.C,D6*%
X90447500Y65678000D03*
X87472500Y65678000D03*
%TD*%
D15*
%TO.C,JP4*%
X126679000Y22244000D03*
D16*
X129219000Y22244000D03*
X131759000Y22244000D03*
%TD*%
D15*
%TO.C,JP1*%
X126716000Y25927000D03*
D16*
X129256000Y25927000D03*
X131796000Y25927000D03*
%TD*%
D18*
%TO.C,RS485-5*%
X89315600Y58881600D03*
D19*
X89315600Y56381600D03*
%TD*%
D17*
%TO.C,D2*%
X8696000Y11358500D03*
X8696000Y14333500D03*
%TD*%
D15*
%TO.C,JP3*%
X98866000Y25901600D03*
D16*
X101406000Y25901600D03*
X103946000Y25901600D03*
%TD*%
D20*
%TO.C,JP7*%
X48758000Y15894000D03*
X46358000Y15894000D03*
D21*
X49558000Y15894000D03*
D22*
X45558000Y15894000D03*
%TD*%
D14*
%TO.C,D7*%
X90447500Y63138000D03*
X87472500Y63138000D03*
%TD*%
D18*
%TO.C,RS485-1*%
X89366400Y38155200D03*
D19*
X89366400Y35655200D03*
%TD*%
D15*
%TO.C,JP5*%
X113090000Y22244000D03*
D16*
X115630000Y22244000D03*
X118170000Y22244000D03*
%TD*%
D23*
%TO.C,REF\u002A\u002A*%
X23560000Y70112000D03*
D24*
X23560000Y70112000D03*
%TD*%
D23*
%TO.C,REF\u002A\u002A*%
X81560000Y21112000D03*
D24*
X81560000Y21112000D03*
%TD*%
D13*
%TO.C,F5*%
X122234000Y22345600D03*
X122234000Y26795600D03*
%TD*%
D23*
%TO.C,REF\u002A\u002A*%
X23560000Y21112000D03*
D24*
X23560000Y21112000D03*
%TD*%
D15*
%TO.C,JP2*%
X113105000Y25901600D03*
D16*
X115645000Y25901600D03*
X118185000Y25901600D03*
%TD*%
D13*
%TO.C,F6*%
X108416400Y22345600D03*
X108416400Y26795600D03*
%TD*%
D12*
%TO.C,J3*%
X100464000Y63900000D03*
D11*
X103004000Y63900000D03*
X100464000Y61360000D03*
X103004000Y61360000D03*
X100464000Y58820000D03*
X103004000Y58820000D03*
X100464000Y56280000D03*
X103004000Y56280000D03*
X100464000Y53740000D03*
X103004000Y53740000D03*
X100464000Y51200000D03*
X103004000Y51200000D03*
X100464000Y48660000D03*
X103004000Y48660000D03*
X100464000Y46120000D03*
X103004000Y46120000D03*
X100464000Y43580000D03*
X103004000Y43580000D03*
X100464000Y41040000D03*
X103004000Y41040000D03*
X100464000Y38500000D03*
X103004000Y38500000D03*
X100464000Y35960000D03*
X103004000Y35960000D03*
X100464000Y33420000D03*
X103004000Y33420000D03*
%TD*%
D23*
%TO.C,REF\u002A\u002A*%
X81560000Y70112000D03*
D24*
X81560000Y70112000D03*
%TD*%
D12*
%TO.C,J1*%
X128076000Y63900000D03*
D11*
X130616000Y63900000D03*
X128076000Y61360000D03*
X130616000Y61360000D03*
X128076000Y58820000D03*
X130616000Y58820000D03*
X128076000Y56280000D03*
X130616000Y56280000D03*
X128076000Y53740000D03*
X130616000Y53740000D03*
X128076000Y51200000D03*
X130616000Y51200000D03*
X128076000Y48660000D03*
X130616000Y48660000D03*
X128076000Y46120000D03*
X130616000Y46120000D03*
X128076000Y43580000D03*
X130616000Y43580000D03*
X128076000Y41040000D03*
X130616000Y41040000D03*
X128076000Y38500000D03*
X130616000Y38500000D03*
X128076000Y35960000D03*
X130616000Y35960000D03*
X128076000Y33420000D03*
X130616000Y33420000D03*
%TD*%
D14*
%TO.C,D8*%
X90447500Y31286400D03*
X87472500Y31286400D03*
%TD*%
D15*
%TO.C,J14*%
X38460000Y28000000D03*
D16*
X41000000Y28000000D03*
%TD*%
D15*
%TO.C,J8*%
X71120000Y50165000D03*
D16*
X71120000Y47625000D03*
X71120000Y45085000D03*
X71120000Y42545000D03*
%TD*%
D25*
%TO.C,J4*%
X52070000Y84836000D03*
D26*
X53143450Y82533978D03*
X49767978Y83762550D03*
X50841429Y81460528D03*
X47465956Y82689099D03*
X48539407Y80387077D03*
X45163935Y81615649D03*
X46237385Y79313627D03*
X42861913Y80542198D03*
X43935363Y78240177D03*
X40559891Y79468748D03*
X41633341Y77166726D03*
X38257869Y78395298D03*
X39331320Y76093276D03*
X35955848Y77321847D03*
X37029298Y75019826D03*
%TD*%
D15*
%TO.C,J13*%
X50800000Y29845000D03*
D16*
X53340000Y29845000D03*
%TD*%
D27*
%TO.C,J12*%
X90565848Y14118153D03*
D28*
X91639298Y16420175D03*
X92867870Y13044703D03*
X93941320Y15346724D03*
X95169892Y11971252D03*
X96243342Y14273274D03*
X97471913Y10897802D03*
X98545364Y13199824D03*
X99773935Y9824351D03*
X100847386Y12126373D03*
X102075957Y8750901D03*
X103149407Y11052923D03*
X104377979Y7677451D03*
X105451429Y9979472D03*
X106680000Y6604000D03*
X107753451Y8906022D03*
%TD*%
D27*
%TO.C,J11*%
X117870848Y14118153D03*
D28*
X118944298Y16420175D03*
X120172870Y13044703D03*
X121246320Y15346724D03*
X122474892Y11971252D03*
X123548342Y14273274D03*
X124776913Y10897802D03*
X125850364Y13199824D03*
X127078935Y9824351D03*
X128152386Y12126373D03*
X129380957Y8750901D03*
X130454407Y11052923D03*
X131682979Y7677451D03*
X132756429Y9979472D03*
X133985000Y6604000D03*
X135058451Y8906022D03*
%TD*%
D25*
%TO.C,J6*%
X106680000Y84836000D03*
D26*
X107753450Y82533978D03*
X104377978Y83762550D03*
X105451429Y81460528D03*
X102075956Y82689099D03*
X103149407Y80387077D03*
X99773935Y81615649D03*
X100847385Y79313627D03*
X97471913Y80542198D03*
X98545363Y78240177D03*
X95169891Y79468748D03*
X96243341Y77166726D03*
X92867869Y78395298D03*
X93941320Y76093276D03*
X90565848Y77321847D03*
X91639298Y75019826D03*
%TD*%
D27*
%TO.C,J15*%
X63260848Y14118153D03*
D28*
X64334298Y16420175D03*
X65562870Y13044703D03*
X66636320Y15346724D03*
X67864892Y11971252D03*
X68938342Y14273274D03*
X70166913Y10897802D03*
X71240364Y13199824D03*
X72468935Y9824351D03*
X73542386Y12126373D03*
X74770957Y8750901D03*
X75844407Y11052923D03*
X77072979Y7677451D03*
X78146429Y9979472D03*
X79375000Y6604000D03*
X80448451Y8906022D03*
%TD*%
D15*
%TO.C,J7*%
X64516000Y41402000D03*
D16*
X64516000Y43942000D03*
X64516000Y46482000D03*
X64516000Y49022000D03*
%TD*%
D27*
%TO.C,J16*%
X35955848Y14118153D03*
D28*
X37029298Y16420175D03*
X38257870Y13044703D03*
X39331320Y15346724D03*
X40559892Y11971252D03*
X41633342Y14273274D03*
X42861913Y10897802D03*
X43935364Y13199824D03*
X45163935Y9824351D03*
X46237386Y12126373D03*
X47465957Y8750901D03*
X48539407Y11052923D03*
X49767979Y7677451D03*
X50841429Y9979472D03*
X52070000Y6604000D03*
X53143451Y8906022D03*
%TD*%
D29*
%TO.C,J10*%
X27478000Y75663000D03*
X32078000Y75663000D03*
D30*
X27478000Y63063000D03*
D31*
X32078000Y63063000D03*
%TD*%
D25*
%TO.C,J5*%
X79375000Y84836000D03*
D26*
X80448450Y82533978D03*
X77072978Y83762550D03*
X78146429Y81460528D03*
X74770956Y82689099D03*
X75844407Y80387077D03*
X72468935Y81615649D03*
X73542385Y79313627D03*
X70166913Y80542198D03*
X71240363Y78240177D03*
X67864891Y79468748D03*
X68938341Y77166726D03*
X65562869Y78395298D03*
X66636320Y76093276D03*
X63260848Y77321847D03*
X64334298Y75019826D03*
%TD*%
D25*
%TO.C,J9*%
X133985000Y84836000D03*
D26*
X135058450Y82533978D03*
X131682978Y83762550D03*
X132756429Y81460528D03*
X129380956Y82689099D03*
X130454407Y80387077D03*
X127078935Y81615649D03*
X128152385Y79313627D03*
X124776913Y80542198D03*
X125850363Y78240177D03*
X122474891Y79468748D03*
X123548341Y77166726D03*
X120172869Y78395298D03*
X121246320Y76093276D03*
X117870848Y77321847D03*
X118944298Y75019826D03*
%TD*%
M02*
