%TF.GenerationSoftware,KiCad,Pcbnew,7.0.7*%
%TF.CreationDate,2023-11-19T22:39:33+01:00*%
%TF.ProjectId,LITEXCNC-HUB75HAT,4c495445-5843-44e4-932d-485542373548,rev?*%
%TF.SameCoordinates,Original*%
%TF.FileFunction,Soldermask,Bot*%
%TF.FilePolarity,Negative*%
%FSLAX46Y46*%
G04 Gerber Fmt 4.6, Leading zero omitted, Abs format (unit mm)*
G04 Created by KiCad (PCBNEW 7.0.7) date 2023-11-19 22:39:33*
%MOMM*%
%LPD*%
G01*
G04 APERTURE LIST*
G04 Aperture macros list*
%AMRoundRect*
0 Rectangle with rounded corners*
0 $1 Rounding radius*
0 $2 $3 $4 $5 $6 $7 $8 $9 X,Y pos of 4 corners*
0 Add a 4 corners polygon primitive as box body*
4,1,4,$2,$3,$4,$5,$6,$7,$8,$9,$2,$3,0*
0 Add four circle primitives for the rounded corners*
1,1,$1+$1,$2,$3*
1,1,$1+$1,$4,$5*
1,1,$1+$1,$6,$7*
1,1,$1+$1,$8,$9*
0 Add four rect primitives between the rounded corners*
20,1,$1+$1,$2,$3,$4,$5,0*
20,1,$1+$1,$4,$5,$6,$7,0*
20,1,$1+$1,$6,$7,$8,$9,0*
20,1,$1+$1,$8,$9,$2,$3,0*%
%AMHorizOval*
0 Thick line with rounded ends*
0 $1 width*
0 $2 $3 position (X,Y) of the first rounded end (center of the circle)*
0 $4 $5 position (X,Y) of the second rounded end (center of the circle)*
0 Add line between two ends*
20,1,$1,$2,$3,$4,$5,0*
0 Add two circle primitives to create the rounded ends*
1,1,$1,$2,$3*
1,1,$1,$4,$5*%
%AMRotRect*
0 Rectangle, with rotation*
0 The origin of the aperture is its center*
0 $1 length*
0 $2 width*
0 $3 Rotation angle, in degrees counterclockwise*
0 Add horizontal line*
21,1,$1,$2,0,0,$3*%
G04 Aperture macros list end*
%ADD10R,1.700000X1.700000*%
%ADD11O,1.700000X1.700000*%
%ADD12RoundRect,0.250000X-0.600000X-0.600000X0.600000X-0.600000X0.600000X0.600000X-0.600000X0.600000X0*%
%ADD13C,1.700000*%
%ADD14RoundRect,0.250000X-0.750000X0.600000X-0.750000X-0.600000X0.750000X-0.600000X0.750000X0.600000X0*%
%ADD15O,2.000000X1.700000*%
%ADD16C,3.100000*%
%ADD17C,4.700000*%
%ADD18RoundRect,0.250000X-1.000000X-0.900000X1.000000X-0.900000X1.000000X0.900000X-1.000000X0.900000X0*%
%ADD19R,1.000000X0.500000*%
%ADD20R,1.000000X0.400000*%
%ADD21R,0.500000X1.000000*%
%ADD22R,0.400000X1.000000*%
%ADD23RoundRect,0.250000X-0.650000X0.412500X-0.650000X-0.412500X0.650000X-0.412500X0.650000X0.412500X0*%
%ADD24RoundRect,0.225000X0.375000X-0.225000X0.375000X0.225000X-0.375000X0.225000X-0.375000X-0.225000X0*%
%ADD25RoundRect,0.250000X0.625000X-0.400000X0.625000X0.400000X-0.625000X0.400000X-0.625000X-0.400000X0*%
%ADD26RoundRect,0.150000X0.150000X-0.825000X0.150000X0.825000X-0.150000X0.825000X-0.150000X-0.825000X0*%
%ADD27RoundRect,0.250000X-0.400000X-0.625000X0.400000X-0.625000X0.400000X0.625000X-0.400000X0.625000X0*%
%ADD28RoundRect,0.250000X0.412500X0.650000X-0.412500X0.650000X-0.412500X-0.650000X0.412500X-0.650000X0*%
%ADD29RoundRect,0.250000X-0.412500X-0.650000X0.412500X-0.650000X0.412500X0.650000X-0.412500X0.650000X0*%
%ADD30RotRect,1.700000X1.700000X115.000000*%
%ADD31HorizOval,1.700000X0.000000X0.000000X0.000000X0.000000X0*%
%ADD32RoundRect,0.250000X-0.350000X-0.450000X0.350000X-0.450000X0.350000X0.450000X-0.350000X0.450000X0*%
%ADD33RotRect,1.700000X1.700000X245.000000*%
%ADD34HorizOval,1.700000X0.000000X0.000000X0.000000X0.000000X0*%
%ADD35RoundRect,0.250000X-0.625000X0.400000X-0.625000X-0.400000X0.625000X-0.400000X0.625000X0.400000X0*%
%ADD36RoundRect,0.237500X0.237500X-0.250000X0.237500X0.250000X-0.237500X0.250000X-0.237500X-0.250000X0*%
%ADD37RoundRect,0.250000X0.650000X-0.412500X0.650000X0.412500X-0.650000X0.412500X-0.650000X-0.412500X0*%
%ADD38RoundRect,0.100000X-0.637500X-0.100000X0.637500X-0.100000X0.637500X0.100000X-0.637500X0.100000X0*%
%ADD39RoundRect,0.250000X0.400000X0.625000X-0.400000X0.625000X-0.400000X-0.625000X0.400000X-0.625000X0*%
%ADD40RoundRect,0.237500X-0.237500X0.300000X-0.237500X-0.300000X0.237500X-0.300000X0.237500X0.300000X0*%
%ADD41RoundRect,0.150000X-0.150000X0.825000X-0.150000X-0.825000X0.150000X-0.825000X0.150000X0.825000X0*%
%ADD42RoundRect,0.150000X0.150000X-0.587500X0.150000X0.587500X-0.150000X0.587500X-0.150000X-0.587500X0*%
%ADD43RoundRect,0.100000X-0.100000X0.637500X-0.100000X-0.637500X0.100000X-0.637500X0.100000X0.637500X0*%
%ADD44RoundRect,0.100000X0.100000X-0.637500X0.100000X0.637500X-0.100000X0.637500X-0.100000X-0.637500X0*%
%ADD45RoundRect,0.250000X-0.450000X0.350000X-0.450000X-0.350000X0.450000X-0.350000X0.450000X0.350000X0*%
%ADD46RoundRect,0.150000X-0.587500X-0.150000X0.587500X-0.150000X0.587500X0.150000X-0.587500X0.150000X0*%
%ADD47C,2.600000*%
%ADD48RoundRect,0.250001X-0.799999X-0.799999X0.799999X-0.799999X0.799999X0.799999X-0.799999X0.799999X0*%
%ADD49C,2.100000*%
%ADD50RoundRect,0.150000X-0.825000X-0.150000X0.825000X-0.150000X0.825000X0.150000X-0.825000X0.150000X0*%
G04 APERTURE END LIST*
D10*
%TO.C,J17*%
X76768000Y36772800D03*
D11*
X76768000Y34232800D03*
X74228000Y36772800D03*
X74228000Y34232800D03*
X71688000Y36772800D03*
X71688000Y34232800D03*
X69148000Y36772800D03*
X69148000Y34232800D03*
X66608000Y36772800D03*
X66608000Y34232800D03*
X64068000Y36772800D03*
X64068000Y34232800D03*
X61528000Y36772800D03*
X61528000Y34232800D03*
X58988000Y36772800D03*
X58988000Y34232800D03*
X56448000Y36772800D03*
X56448000Y34232800D03*
X53908000Y36772800D03*
X53908000Y34232800D03*
X51368000Y36772800D03*
X51368000Y34232800D03*
X48828000Y36772800D03*
X48828000Y34232800D03*
X46288000Y36772800D03*
X46288000Y34232800D03*
X43748000Y36772800D03*
X43748000Y34232800D03*
X41208000Y36772800D03*
X41208000Y34232800D03*
X38668000Y36772800D03*
X38668000Y34232800D03*
X36128000Y36772800D03*
X36128000Y34232800D03*
X33588000Y36772800D03*
X33588000Y34232800D03*
X31048000Y36772800D03*
X31048000Y34232800D03*
X28508000Y36772800D03*
X28508000Y34232800D03*
%TD*%
D12*
%TO.C,IO2*%
X114270000Y63900000D03*
D13*
X116810000Y63900000D03*
X114270000Y61360000D03*
X116810000Y61360000D03*
X114270000Y58820000D03*
X116810000Y58820000D03*
X114270000Y56280000D03*
X116810000Y56280000D03*
X114270000Y53740000D03*
X116810000Y53740000D03*
X114270000Y51200000D03*
X116810000Y51200000D03*
X114270000Y48660000D03*
X116810000Y48660000D03*
X114270000Y46120000D03*
X116810000Y46120000D03*
X114270000Y43580000D03*
X116810000Y43580000D03*
X114270000Y41040000D03*
X116810000Y41040000D03*
X114270000Y38500000D03*
X116810000Y38500000D03*
X114270000Y35960000D03*
X116810000Y35960000D03*
X114270000Y33420000D03*
X116810000Y33420000D03*
%TD*%
D10*
%TO.C,JP6*%
X98866000Y22244000D03*
D11*
X101406000Y22244000D03*
X103946000Y22244000D03*
%TD*%
D10*
%TO.C,JP4*%
X126679000Y22244000D03*
D11*
X129219000Y22244000D03*
X131759000Y22244000D03*
%TD*%
D10*
%TO.C,JP1*%
X126716000Y25927000D03*
D11*
X129256000Y25927000D03*
X131796000Y25927000D03*
%TD*%
D14*
%TO.C,RS485-5*%
X89315600Y58881600D03*
D15*
X89315600Y56381600D03*
%TD*%
D10*
%TO.C,JP3*%
X98866000Y25901600D03*
D11*
X101406000Y25901600D03*
X103946000Y25901600D03*
%TD*%
D14*
%TO.C,RS485-1*%
X89366400Y38155200D03*
D15*
X89366400Y35655200D03*
%TD*%
D10*
%TO.C,JP5*%
X113090000Y22244000D03*
D11*
X115630000Y22244000D03*
X118170000Y22244000D03*
%TD*%
D16*
%TO.C,REF\u002A\u002A*%
X23560000Y70112000D03*
D17*
X23560000Y70112000D03*
%TD*%
D16*
%TO.C,REF\u002A\u002A*%
X81560000Y21112000D03*
D17*
X81560000Y21112000D03*
%TD*%
D16*
%TO.C,REF\u002A\u002A*%
X23560000Y21112000D03*
D17*
X23560000Y21112000D03*
%TD*%
D10*
%TO.C,JP2*%
X113105000Y25901600D03*
D11*
X115645000Y25901600D03*
X118185000Y25901600D03*
%TD*%
D12*
%TO.C,IO3*%
X100464000Y63900000D03*
D13*
X103004000Y63900000D03*
X100464000Y61360000D03*
X103004000Y61360000D03*
X100464000Y58820000D03*
X103004000Y58820000D03*
X100464000Y56280000D03*
X103004000Y56280000D03*
X100464000Y53740000D03*
X103004000Y53740000D03*
X100464000Y51200000D03*
X103004000Y51200000D03*
X100464000Y48660000D03*
X103004000Y48660000D03*
X100464000Y46120000D03*
X103004000Y46120000D03*
X100464000Y43580000D03*
X103004000Y43580000D03*
X100464000Y41040000D03*
X103004000Y41040000D03*
X100464000Y38500000D03*
X103004000Y38500000D03*
X100464000Y35960000D03*
X103004000Y35960000D03*
X100464000Y33420000D03*
X103004000Y33420000D03*
%TD*%
D16*
%TO.C,REF\u002A\u002A*%
X81560000Y70112000D03*
D17*
X81560000Y70112000D03*
%TD*%
D12*
%TO.C,IO1*%
X128076000Y63900000D03*
D13*
X130616000Y63900000D03*
X128076000Y61360000D03*
X130616000Y61360000D03*
X128076000Y58820000D03*
X130616000Y58820000D03*
X128076000Y56280000D03*
X130616000Y56280000D03*
X128076000Y53740000D03*
X130616000Y53740000D03*
X128076000Y51200000D03*
X130616000Y51200000D03*
X128076000Y48660000D03*
X130616000Y48660000D03*
X128076000Y46120000D03*
X130616000Y46120000D03*
X128076000Y43580000D03*
X130616000Y43580000D03*
X128076000Y41040000D03*
X130616000Y41040000D03*
X128076000Y38500000D03*
X130616000Y38500000D03*
X128076000Y35960000D03*
X130616000Y35960000D03*
X128076000Y33420000D03*
X130616000Y33420000D03*
%TD*%
D18*
%TO.C,D12*%
X27764000Y59074000D03*
X32064000Y59074000D03*
%TD*%
D19*
%TO.C,RN9*%
X95877000Y46710400D03*
D20*
X95877000Y45910400D03*
X95877000Y45110400D03*
D19*
X95877000Y44310400D03*
X93877000Y44310400D03*
D20*
X93877000Y45110400D03*
X93877000Y45910400D03*
D19*
X93877000Y46710400D03*
%TD*%
D21*
%TO.C,RN4*%
X133594000Y70316800D03*
D22*
X132794000Y70316800D03*
X131994000Y70316800D03*
D21*
X131194000Y70316800D03*
X131194000Y72316800D03*
D22*
X131994000Y72316800D03*
X132794000Y72316800D03*
D21*
X133594000Y72316800D03*
%TD*%
D23*
%TO.C,C16*%
X112328000Y11868500D03*
X112328000Y8743500D03*
%TD*%
D24*
%TO.C,D4*%
X47710400Y55824800D03*
X47710400Y59124800D03*
%TD*%
D19*
%TO.C,RN11*%
X95877000Y38480800D03*
D20*
X95877000Y37680800D03*
X95877000Y36880800D03*
D19*
X95877000Y36080800D03*
X93877000Y36080800D03*
D20*
X93877000Y36880800D03*
X93877000Y37680800D03*
D19*
X93877000Y38480800D03*
%TD*%
D10*
%TO.C,J14*%
X38460000Y28000000D03*
D11*
X41000000Y28000000D03*
%TD*%
D25*
%TO.C,R11*%
X66912800Y56863600D03*
X66912800Y59963600D03*
%TD*%
D23*
%TO.C,C20*%
X121472000Y64700500D03*
X121472000Y61575500D03*
%TD*%
D26*
%TO.C,U7*%
X29422400Y45386400D03*
X28152400Y45386400D03*
X26882400Y45386400D03*
X25612400Y45386400D03*
X24342400Y45386400D03*
X23072400Y45386400D03*
X21802400Y45386400D03*
X21802400Y50336400D03*
X23072400Y50336400D03*
X24342400Y50336400D03*
X25612400Y50336400D03*
X26882400Y50336400D03*
X28152400Y50336400D03*
X29422400Y50336400D03*
%TD*%
D10*
%TO.C,J8*%
X71120000Y50165000D03*
D11*
X71120000Y47625000D03*
X71120000Y45085000D03*
X71120000Y42545000D03*
%TD*%
D21*
%TO.C,RN12*%
X105360800Y69351600D03*
D22*
X104560800Y69351600D03*
X103760800Y69351600D03*
D21*
X102960800Y69351600D03*
X102960800Y71351600D03*
D22*
X103760800Y71351600D03*
X104560800Y71351600D03*
D21*
X105360800Y71351600D03*
%TD*%
D27*
%TO.C,R6*%
X44534800Y64712800D03*
X47634800Y64712800D03*
%TD*%
D28*
%TO.C,C13*%
X60956900Y25342800D03*
X57831900Y25342800D03*
%TD*%
D29*
%TO.C,C14*%
X74443500Y17113200D03*
X77568500Y17113200D03*
%TD*%
D30*
%TO.C,J4*%
X52070000Y84836000D03*
D31*
X53143450Y82533978D03*
X49767978Y83762550D03*
X50841429Y81460528D03*
X47465956Y82689099D03*
X48539407Y80387077D03*
X45163935Y81615649D03*
X46237385Y79313627D03*
X42861913Y80542198D03*
X43935363Y78240177D03*
X40559891Y79468748D03*
X41633341Y77166726D03*
X38257869Y78395298D03*
X39331320Y76093276D03*
X35955848Y77321847D03*
X37029298Y75019826D03*
%TD*%
D10*
%TO.C,J13*%
X50800000Y29845000D03*
D11*
X53340000Y29845000D03*
%TD*%
D19*
%TO.C,RN5*%
X109683000Y46710400D03*
D20*
X109683000Y45910400D03*
X109683000Y45110400D03*
D19*
X109683000Y44310400D03*
X107683000Y44310400D03*
D20*
X107683000Y45110400D03*
X107683000Y45910400D03*
D19*
X107683000Y46710400D03*
%TD*%
D27*
%TO.C,R16*%
X57234800Y28492400D03*
X60334800Y28492400D03*
%TD*%
D32*
%TO.C,R14*%
X72770800Y28340000D03*
X74770800Y28340000D03*
%TD*%
D33*
%TO.C,J12*%
X90565848Y14118153D03*
D34*
X91639298Y16420175D03*
X92867870Y13044703D03*
X93941320Y15346724D03*
X95169892Y11971252D03*
X96243342Y14273274D03*
X97471913Y10897802D03*
X98545364Y13199824D03*
X99773935Y9824351D03*
X100847386Y12126373D03*
X102075957Y8750901D03*
X103149407Y11052923D03*
X104377979Y7677451D03*
X105451429Y9979472D03*
X106680000Y6604000D03*
X107753451Y8906022D03*
%TD*%
D27*
%TO.C,R5*%
X101417600Y66694000D03*
X104517600Y66694000D03*
%TD*%
D35*
%TO.C,R19*%
X80171600Y31414000D03*
X80171600Y28314000D03*
%TD*%
D29*
%TO.C,C6*%
X101418300Y30829200D03*
X104543300Y30829200D03*
%TD*%
D23*
%TO.C,C7*%
X31505200Y50362600D03*
X31505200Y47237600D03*
%TD*%
D36*
%TO.C,R8*%
X49691600Y57296000D03*
X49691600Y59121000D03*
%TD*%
D33*
%TO.C,J11*%
X117870848Y14118153D03*
D34*
X118944298Y16420175D03*
X120172870Y13044703D03*
X121246320Y15346724D03*
X122474892Y11971252D03*
X123548342Y14273274D03*
X124776913Y10897802D03*
X125850364Y13199824D03*
X127078935Y9824351D03*
X128152386Y12126373D03*
X129380957Y8750901D03*
X130454407Y11052923D03*
X131682979Y7677451D03*
X132756429Y9979472D03*
X133985000Y6604000D03*
X135058451Y8906022D03*
%TD*%
D37*
%TO.C,C1*%
X134045000Y41128500D03*
X134045000Y44253500D03*
%TD*%
D29*
%TO.C,C3*%
X115680800Y28441600D03*
X118805800Y28441600D03*
%TD*%
D38*
%TO.C,U5*%
X86420000Y60986000D03*
X86420000Y61636000D03*
X86420000Y62286000D03*
X86420000Y62936000D03*
X86420000Y63586000D03*
X86420000Y64236000D03*
X86420000Y64886000D03*
X86420000Y65536000D03*
X86420000Y66186000D03*
X86420000Y66836000D03*
X92145000Y66836000D03*
X92145000Y66186000D03*
X92145000Y65536000D03*
X92145000Y64886000D03*
X92145000Y64236000D03*
X92145000Y63586000D03*
X92145000Y62936000D03*
X92145000Y62286000D03*
X92145000Y61636000D03*
X92145000Y60986000D03*
%TD*%
D19*
%TO.C,RN10*%
X95877000Y42595600D03*
D20*
X95877000Y41795600D03*
X95877000Y40995600D03*
D19*
X95877000Y40195600D03*
X93877000Y40195600D03*
D20*
X93877000Y40995600D03*
X93877000Y41795600D03*
D19*
X93877000Y42595600D03*
%TD*%
D21*
%TO.C,RN8*%
X119166800Y69351600D03*
D22*
X118366800Y69351600D03*
X117566800Y69351600D03*
D21*
X116766800Y69351600D03*
X116766800Y71351600D03*
D22*
X117566800Y71351600D03*
X118366800Y71351600D03*
D21*
X119166800Y71351600D03*
%TD*%
D39*
%TO.C,R10*%
X72323600Y59937600D03*
X69223600Y59937600D03*
%TD*%
%TO.C,R21*%
X83245600Y26003200D03*
X80145600Y26003200D03*
%TD*%
D27*
%TO.C,R18*%
X57234800Y30829200D03*
X60334800Y30829200D03*
%TD*%
D40*
%TO.C,C15*%
X63864800Y22853600D03*
X63864800Y21128600D03*
%TD*%
D29*
%TO.C,C12*%
X64131100Y54756000D03*
X67256100Y54756000D03*
%TD*%
D41*
%TO.C,U9*%
X49945600Y66527400D03*
X51215600Y66527400D03*
X52485600Y66527400D03*
X53755600Y66527400D03*
X55025600Y66527400D03*
X56295600Y66527400D03*
X57565600Y66527400D03*
X57565600Y61577400D03*
X56295600Y61577400D03*
X55025600Y61577400D03*
X53755600Y61577400D03*
X52485600Y61577400D03*
X51215600Y61577400D03*
X49945600Y61577400D03*
%TD*%
D23*
%TO.C,C19*%
X107502000Y64700500D03*
X107502000Y61575500D03*
%TD*%
D32*
%TO.C,R13*%
X60070800Y62223600D03*
X62070800Y62223600D03*
%TD*%
D37*
%TO.C,C2*%
X134082000Y33381500D03*
X134082000Y36506500D03*
%TD*%
D41*
%TO.C,U11*%
X62645600Y30307000D03*
X63915600Y30307000D03*
X65185600Y30307000D03*
X66455600Y30307000D03*
X67725600Y30307000D03*
X68995600Y30307000D03*
X70265600Y30307000D03*
X70265600Y25357000D03*
X68995600Y25357000D03*
X67725600Y25357000D03*
X66455600Y25357000D03*
X65185600Y25357000D03*
X63915600Y25357000D03*
X62645600Y25357000D03*
%TD*%
D36*
%TO.C,R17*%
X62290000Y21079400D03*
X62290000Y22904400D03*
%TD*%
D19*
%TO.C,RN1*%
X123488000Y46710400D03*
D20*
X123488000Y45910400D03*
X123488000Y45110400D03*
D19*
X123488000Y44310400D03*
X121488000Y44310400D03*
D20*
X121488000Y45110400D03*
X121488000Y45910400D03*
D19*
X121488000Y46710400D03*
%TD*%
D24*
%TO.C,D10*%
X60308800Y19628800D03*
X60308800Y22928800D03*
%TD*%
D30*
%TO.C,J6*%
X106680000Y84836000D03*
D31*
X107753450Y82533978D03*
X104377978Y83762550D03*
X105451429Y81460528D03*
X102075956Y82689099D03*
X103149407Y80387077D03*
X99773935Y81615649D03*
X100847385Y79313627D03*
X97471913Y80542198D03*
X98545363Y78240177D03*
X95169891Y79468748D03*
X96243341Y77166726D03*
X92867869Y78395298D03*
X93941320Y76093276D03*
X90565848Y77321847D03*
X91639298Y75019826D03*
%TD*%
D42*
%TO.C,D11*%
X82630400Y34209700D03*
X80730400Y34209700D03*
X81680400Y36084700D03*
%TD*%
D38*
%TO.C,U6*%
X87893200Y22559200D03*
X87893200Y23209200D03*
X87893200Y23859200D03*
X87893200Y24509200D03*
X87893200Y25159200D03*
X87893200Y25809200D03*
X87893200Y26459200D03*
X87893200Y27109200D03*
X87893200Y27759200D03*
X87893200Y28409200D03*
X93618200Y28409200D03*
X93618200Y27759200D03*
X93618200Y27109200D03*
X93618200Y26459200D03*
X93618200Y25809200D03*
X93618200Y25159200D03*
X93618200Y24509200D03*
X93618200Y23859200D03*
X93618200Y23209200D03*
X93618200Y22559200D03*
%TD*%
D33*
%TO.C,J15*%
X63260848Y14118153D03*
D34*
X64334298Y16420175D03*
X65562870Y13044703D03*
X66636320Y15346724D03*
X67864892Y11971252D03*
X68938342Y14273274D03*
X70166913Y10897802D03*
X71240364Y13199824D03*
X72468935Y9824351D03*
X73542386Y12126373D03*
X74770957Y8750901D03*
X75844407Y11052923D03*
X77072979Y7677451D03*
X78146429Y9979472D03*
X79375000Y6604000D03*
X80448451Y8906022D03*
%TD*%
D38*
%TO.C,U4*%
X106671500Y13477000D03*
X106671500Y14127000D03*
X106671500Y14777000D03*
X106671500Y15427000D03*
X106671500Y16077000D03*
X106671500Y16727000D03*
X106671500Y17377000D03*
X106671500Y18027000D03*
X106671500Y18677000D03*
X106671500Y19327000D03*
X112396500Y19327000D03*
X112396500Y18677000D03*
X112396500Y18027000D03*
X112396500Y17377000D03*
X112396500Y16727000D03*
X112396500Y16077000D03*
X112396500Y15427000D03*
X112396500Y14777000D03*
X112396500Y14127000D03*
X112396500Y13477000D03*
%TD*%
D32*
%TO.C,R12*%
X60070800Y64560400D03*
X62070800Y64560400D03*
%TD*%
D27*
%TO.C,R7*%
X44534800Y67049600D03*
X47634800Y67049600D03*
%TD*%
D23*
%TO.C,C9*%
X92135000Y59366500D03*
X92135000Y56241500D03*
%TD*%
D43*
%TO.C,U3*%
X107442000Y72673000D03*
X108092000Y72673000D03*
X108742000Y72673000D03*
X109392000Y72673000D03*
X110042000Y72673000D03*
X110692000Y72673000D03*
X111342000Y72673000D03*
X111992000Y72673000D03*
X112642000Y72673000D03*
X113292000Y72673000D03*
X113292000Y66948000D03*
X112642000Y66948000D03*
X111992000Y66948000D03*
X111342000Y66948000D03*
X110692000Y66948000D03*
X110042000Y66948000D03*
X109392000Y66948000D03*
X108742000Y66948000D03*
X108092000Y66948000D03*
X107442000Y66948000D03*
%TD*%
D10*
%TO.C,J7*%
X64516000Y41402000D03*
D11*
X64516000Y43942000D03*
X64516000Y46482000D03*
X64516000Y49022000D03*
%TD*%
D43*
%TO.C,U2*%
X121494000Y72673000D03*
X122144000Y72673000D03*
X122794000Y72673000D03*
X123444000Y72673000D03*
X124094000Y72673000D03*
X124744000Y72673000D03*
X125394000Y72673000D03*
X126044000Y72673000D03*
X126694000Y72673000D03*
X127344000Y72673000D03*
X127344000Y66948000D03*
X126694000Y66948000D03*
X126044000Y66948000D03*
X125394000Y66948000D03*
X124744000Y66948000D03*
X124094000Y66948000D03*
X123444000Y66948000D03*
X122794000Y66948000D03*
X122144000Y66948000D03*
X121494000Y66948000D03*
%TD*%
D37*
%TO.C,C18*%
X42630400Y56546300D03*
X42630400Y59671300D03*
%TD*%
D44*
%TO.C,U1*%
X141161000Y23445500D03*
X140511000Y23445500D03*
X139861000Y23445500D03*
X139211000Y23445500D03*
X138561000Y23445500D03*
X137911000Y23445500D03*
X137261000Y23445500D03*
X136611000Y23445500D03*
X135961000Y23445500D03*
X135311000Y23445500D03*
X135311000Y29170500D03*
X135961000Y29170500D03*
X136611000Y29170500D03*
X137261000Y29170500D03*
X137911000Y29170500D03*
X138561000Y29170500D03*
X139211000Y29170500D03*
X139861000Y29170500D03*
X140511000Y29170500D03*
X141161000Y29170500D03*
%TD*%
D45*
%TO.C,R2*%
X23021600Y36604400D03*
X23021600Y34604400D03*
%TD*%
D19*
%TO.C,RN6*%
X109683000Y42595600D03*
D20*
X109683000Y41795600D03*
X109683000Y40995600D03*
D19*
X109683000Y40195600D03*
X107683000Y40195600D03*
D20*
X107683000Y40995600D03*
X107683000Y41795600D03*
D19*
X107683000Y42595600D03*
%TD*%
%TO.C,RN2*%
X123488000Y42595600D03*
D20*
X123488000Y41795600D03*
X123488000Y40995600D03*
D19*
X123488000Y40195600D03*
X121488000Y40195600D03*
D20*
X121488000Y40995600D03*
X121488000Y41795600D03*
D19*
X121488000Y42595600D03*
%TD*%
D28*
%TO.C,C17*%
X93672100Y20770800D03*
X90547100Y20770800D03*
%TD*%
D19*
%TO.C,RN7*%
X109683000Y38480800D03*
D20*
X109683000Y37680800D03*
X109683000Y36880800D03*
D19*
X109683000Y36080800D03*
X107683000Y36080800D03*
D20*
X107683000Y36880800D03*
X107683000Y37680800D03*
D19*
X107683000Y38480800D03*
%TD*%
D33*
%TO.C,J16*%
X35955848Y14118153D03*
D34*
X37029298Y16420175D03*
X38257870Y13044703D03*
X39331320Y15346724D03*
X40559892Y11971252D03*
X41633342Y14273274D03*
X42861913Y10897802D03*
X43935364Y13199824D03*
X45163935Y9824351D03*
X46237386Y12126373D03*
X47465957Y8750901D03*
X48539407Y11052923D03*
X49767979Y7677451D03*
X50841429Y9979472D03*
X52070000Y6604000D03*
X53143451Y8906022D03*
%TD*%
D32*
%TO.C,R15*%
X72770800Y26003200D03*
X74770800Y26003200D03*
%TD*%
D27*
%TO.C,R3*%
X129167600Y67049600D03*
X132267600Y67049600D03*
%TD*%
D19*
%TO.C,RN3*%
X123488000Y38480800D03*
D20*
X123488000Y37680800D03*
X123488000Y36880800D03*
D19*
X123488000Y36080800D03*
X121488000Y36080800D03*
D20*
X121488000Y36880800D03*
X121488000Y37680800D03*
D19*
X121488000Y38480800D03*
%TD*%
D45*
%TO.C,R1*%
X20634000Y36604400D03*
X20634000Y34604400D03*
%TD*%
D46*
%TO.C,D5*%
X78499800Y56661600D03*
X78499800Y58561600D03*
X80374800Y57611600D03*
%TD*%
D47*
%TO.C,J10*%
X27478000Y75663000D03*
X32078000Y75663000D03*
D48*
X27478000Y63063000D03*
D49*
X32078000Y63063000D03*
%TD*%
D29*
%TO.C,C5*%
X101418300Y28441600D03*
X104543300Y28441600D03*
%TD*%
D30*
%TO.C,J5*%
X79375000Y84836000D03*
D31*
X80448450Y82533978D03*
X77072978Y83762550D03*
X78146429Y81460528D03*
X74770956Y82689099D03*
X75844407Y80387077D03*
X72468935Y81615649D03*
X73542385Y79313627D03*
X70166913Y80542198D03*
X71240363Y78240177D03*
X67864891Y79468748D03*
X68938341Y77166726D03*
X65562869Y78395298D03*
X66636320Y76093276D03*
X63260848Y77321847D03*
X64334298Y75019826D03*
%TD*%
D29*
%TO.C,C4*%
X115693100Y30829200D03*
X118818100Y30829200D03*
%TD*%
D40*
%TO.C,C10*%
X51215600Y59124800D03*
X51215600Y57399800D03*
%TD*%
D37*
%TO.C,C21*%
X140522000Y31857500D03*
X140522000Y34982500D03*
%TD*%
D27*
%TO.C,R9*%
X69223600Y56889600D03*
X72323600Y56889600D03*
%TD*%
%TO.C,R4*%
X115223600Y66694000D03*
X118323600Y66694000D03*
%TD*%
D25*
%TO.C,R20*%
X83219600Y28314000D03*
X83219600Y31414000D03*
%TD*%
D50*
%TO.C,U12*%
X69452800Y19246800D03*
X69452800Y20516800D03*
X69452800Y21786800D03*
X69452800Y23056800D03*
X74402800Y23056800D03*
X74402800Y21786800D03*
X74402800Y20516800D03*
X74402800Y19246800D03*
%TD*%
D30*
%TO.C,J9*%
X133985000Y84836000D03*
D31*
X135058450Y82533978D03*
X131682978Y83762550D03*
X132756429Y81460528D03*
X129380956Y82689099D03*
X130454407Y80387077D03*
X127078935Y81615649D03*
X128152385Y79313627D03*
X124776913Y80542198D03*
X125850363Y78240177D03*
X122474891Y79468748D03*
X123548341Y77166726D03*
X120172869Y78395298D03*
X121246320Y76093276D03*
X117870848Y77321847D03*
X118944298Y75019826D03*
%TD*%
D44*
%TO.C,U8*%
X40831000Y50877500D03*
X40181000Y50877500D03*
X39531000Y50877500D03*
X38881000Y50877500D03*
X38231000Y50877500D03*
X37581000Y50877500D03*
X36931000Y50877500D03*
X36281000Y50877500D03*
X35631000Y50877500D03*
X34981000Y50877500D03*
X34981000Y56602500D03*
X35631000Y56602500D03*
X36281000Y56602500D03*
X36931000Y56602500D03*
X37581000Y56602500D03*
X38231000Y56602500D03*
X38881000Y56602500D03*
X39531000Y56602500D03*
X40181000Y56602500D03*
X40831000Y56602500D03*
%TD*%
D28*
%TO.C,C11*%
X48256900Y61563200D03*
X45131900Y61563200D03*
%TD*%
D50*
%TO.C,U10*%
X56752800Y55467200D03*
X56752800Y56737200D03*
X56752800Y58007200D03*
X56752800Y59277200D03*
X61702800Y59277200D03*
X61702800Y58007200D03*
X61702800Y56737200D03*
X61702800Y55467200D03*
%TD*%
M02*
