M48
; DRILL file {KiCad 7.0.7} date Wed Nov 22 16:36:34 2023
; FORMAT={-:-/ absolute / inch / decimal}
; #@! TF.CreationDate,2023-11-22T16:36:34+01:00
; #@! TF.GenerationSoftware,Kicad,Pcbnew,7.0.7
; #@! TF.FileFunction,Plated,1,2,PTH
FMAT,2
INCH
; #@! TA.AperFunction,Plated,PTH,ViaDrill
T1C0.0157
; #@! TA.AperFunction,Plated,PTH,ComponentDrill
T2C0.0197
; #@! TA.AperFunction,Plated,PTH,ComponentDrill
T3C0.0256
; #@! TA.AperFunction,Plated,PTH,ComponentDrill
T4C0.0394
; #@! TA.AperFunction,Plated,PTH,ComponentDrill
T5C0.0591
; #@! TA.AperFunction,Plated,PTH,ComponentDrill
T6C0.1260
%
G90
G05
T1
X0.29Y-1.26
X0.29Y-1.88
X0.3Y-2.465
X0.355Y-1.46
X0.36Y-2.075
X0.36Y-2.675
X0.425Y-0.85
X0.46Y-2.675
X0.465Y-1.46
X0.465Y-2.075
X0.545Y-2.075
X0.55Y-1.46
X0.55Y-2.675
X0.555Y-0.86
X0.615Y-2.99
X0.635Y-3.11
X0.65Y-1.805
X0.65Y-3.02
X0.66Y-1.325
X0.66Y-1.56
X0.67Y-1.935
X0.67Y-2.49
X0.67Y-2.535
X0.675Y-2.165
X0.685Y-2.765
X0.7Y-1.295
X0.7Y-2.395
X0.7Y-3.39
X0.705Y-1.905
X0.85Y-3.05
X0.855Y-1.935
X0.855Y-2.49
X0.855Y-2.535
X0.86Y-0.685
X0.86Y-1.325
X0.89Y-1.905
X0.895Y-0.715
X0.895Y-1.295
X0.9Y-1.855
X0.9013Y-3.2402
X0.91Y-2.765
X0.92Y-2.165
X0.93Y-2.42
X0.94Y-1.555
X0.94Y-3.335
X0.965Y-0.89
X0.98Y-0.715
X1.0Y-0.57
X1.05Y-1.85
X1.055Y-3.035
X1.06Y-1.325
X1.065Y-1.555
X1.07Y-2.535
X1.08Y-2.165
X1.085Y-3.065
X1.09Y-2.765
X1.095Y-2.45
X1.1Y-1.935
X1.125Y-3.125
X1.1874Y-3.39
X1.255Y-1.935
X1.255Y-2.535
X1.26Y-1.325
X1.26Y-2.98
X1.275Y-0.715
X1.31Y-1.85
X1.31Y-2.765
X1.325Y-1.56
X1.325Y-2.16
X1.33Y-2.425
X1.36Y-1.225
X1.3874Y-3.245
X1.4Y-0.94
X1.42Y-0.575
X1.445Y-3.12
X1.45Y-1.56
X1.46Y-1.83
X1.48Y-2.16
X1.49Y-2.76
X1.495Y-2.44
X1.53Y-1.56
X1.53Y-3.03
X1.585Y-3.04
X1.6126Y-3.125
X1.675Y-3.39
X1.71Y-2.76
X1.7457Y-3.0393
X1.815Y-3.08
X1.875Y-3.245
X2.1795Y-0.3945
X2.208Y-0.442
X2.2355Y-0.494
X2.264Y-0.544
T2
X0.1024Y-0.1969
X0.1024Y-3.4646
X0.13Y-0.13
X0.13Y-0.2637
X0.13Y-3.3978
X0.13Y-3.5314
X0.1969Y-0.1024
X0.1969Y-0.2913
X0.1969Y-3.3701
X0.1969Y-3.5591
X0.2637Y-0.13
X0.2637Y-0.2637
X0.2637Y-3.3978
X0.2637Y-3.5314
X0.2913Y-0.1969
X0.2913Y-3.4646
X2.2677Y-0.1969
X2.2677Y-3.4646
X2.2954Y-0.13
X2.2954Y-0.2637
X2.2954Y-3.3978
X2.2954Y-3.5314
X2.3622Y-0.1024
X2.3622Y-0.2913
X2.3622Y-3.3701
X2.3622Y-3.5591
X2.429Y-0.13
X2.429Y-0.2637
X2.429Y-3.3978
X2.429Y-3.5314
X2.4567Y-0.1969
X2.4567Y-3.4646
T3
X0.1844Y-0.3937
X0.1844Y-0.4437
X0.1844Y-0.4937
X0.1844Y-0.5437
X0.2344Y-0.3937
X0.2344Y-0.4437
X0.2344Y-0.4937
X0.2344Y-0.5437
X2.324Y-0.3937
X2.324Y-0.4437
X2.324Y-0.4937
X2.324Y-0.5437
X2.374Y-0.3937
X2.374Y-0.4437
X2.374Y-0.4937
X2.374Y-0.5437
T4
X0.31Y-1.6
X0.31Y-1.7
X0.31Y-2.2102
X0.31Y-2.3102
X0.31Y-2.8102
X0.31Y-2.9102
X0.3102Y-0.99
X0.3102Y-1.09
X0.41Y-1.6
X0.41Y-1.7
X0.41Y-2.21
X0.41Y-2.31
X0.41Y-2.81
X0.41Y-2.91
X0.4102Y-0.9898
X0.4102Y-1.0898
X0.51Y-1.6
X0.51Y-1.7
X0.51Y-2.21
X0.51Y-2.31
X0.51Y-2.81
X0.51Y-2.91
X0.5102Y-0.9898
X0.5102Y-1.0898
X0.665Y-0.185
X0.665Y-0.285
X0.765Y-0.185
X0.765Y-0.285
X0.865Y-0.185
X0.865Y-0.285
X0.965Y-0.185
X0.965Y-0.285
X1.065Y-0.185
X1.065Y-0.285
X1.165Y-0.185
X1.165Y-0.285
X1.265Y-0.185
X1.265Y-0.285
X1.365Y-0.185
X1.365Y-0.285
X1.465Y-0.185
X1.465Y-0.285
X1.565Y-0.185
X1.565Y-0.285
X1.665Y-0.185
X1.665Y-0.285
X1.765Y-0.185
X1.765Y-0.285
X1.865Y-0.185
X1.865Y-0.285
T5
X0.695Y-0.79
X0.695Y-1.09
X0.695Y-1.4
X0.695Y-1.7
X0.695Y-2.01
X0.695Y-2.31
X0.695Y-2.61
X0.695Y-2.91
X0.895Y-0.79
X0.895Y-1.09
X0.895Y-1.4
X0.895Y-1.7
X0.895Y-2.01
X0.895Y-2.31
X0.895Y-2.61
X0.895Y-2.91
X1.095Y-0.79
X1.095Y-1.09
X1.095Y-1.4
X1.095Y-1.7
X1.095Y-2.01
X1.095Y-2.31
X1.095Y-2.61
X1.095Y-2.91
X1.295Y-0.79
X1.295Y-1.0894
X1.295Y-1.4
X1.295Y-1.6994
X1.295Y-2.01
X1.295Y-2.3094
X1.295Y-2.61
X1.295Y-2.9094
X1.495Y-0.79
X1.495Y-1.09
X1.495Y-1.4
X1.495Y-1.7
X1.495Y-2.01
X1.495Y-2.31
X1.495Y-2.61
X1.495Y-2.91
X1.695Y-0.79
X1.695Y-1.09
X1.695Y-1.4
X1.695Y-1.7
X1.695Y-2.01
X1.695Y-2.31
X1.695Y-2.61
X1.695Y-2.91
X1.895Y-0.7904
X1.895Y-1.0904
X1.895Y-1.4004
X1.895Y-1.7004
X1.895Y-2.0104
X1.895Y-2.3104
X1.895Y-2.6104
X1.895Y-2.9104
X2.095Y-0.7902
X2.095Y-1.0902
X2.095Y-1.4002
X2.095Y-1.7002
X2.095Y-2.0102
X2.095Y-2.3102
X2.095Y-2.6102
X2.095Y-2.9102
T6
X0.1969Y-0.1969
X0.1969Y-3.4646
X2.3622Y-0.1969
X2.3622Y-3.4646
T0
M30
