%TF.GenerationSoftware,KiCad,Pcbnew,7.0.7*%
%TF.CreationDate,2023-11-22T16:36:34+01:00*%
%TF.ProjectId,BOB4ENCODER,424f4234-454e-4434-9f44-45522e6b6963,rev?*%
%TF.SameCoordinates,Original*%
%TF.FileFunction,Soldermask,Bot*%
%TF.FilePolarity,Negative*%
%FSLAX46Y46*%
G04 Gerber Fmt 4.6, Leading zero omitted, Abs format (unit mm)*
G04 Created by KiCad (PCBNEW 7.0.7) date 2023-11-22 16:36:34*
%MOMM*%
%LPD*%
G01*
G04 APERTURE LIST*
G04 Aperture macros list*
%AMRoundRect*
0 Rectangle with rounded corners*
0 $1 Rounding radius*
0 $2 $3 $4 $5 $6 $7 $8 $9 X,Y pos of 4 corners*
0 Add a 4 corners polygon primitive as box body*
4,1,4,$2,$3,$4,$5,$6,$7,$8,$9,$2,$3,0*
0 Add four circle primitives for the rounded corners*
1,1,$1+$1,$2,$3*
1,1,$1+$1,$4,$5*
1,1,$1+$1,$6,$7*
1,1,$1+$1,$8,$9*
0 Add four rect primitives between the rounded corners*
20,1,$1+$1,$2,$3,$4,$5,0*
20,1,$1+$1,$4,$5,$6,$7,0*
20,1,$1+$1,$6,$7,$8,$9,0*
20,1,$1+$1,$8,$9,$2,$3,0*%
G04 Aperture macros list end*
%ADD10C,2.200000*%
%ADD11R,2.200000X2.200000*%
%ADD12R,1.700000X1.700000*%
%ADD13O,1.700000X1.700000*%
%ADD14R,1.000000X1.000000*%
%ADD15O,1.000000X1.000000*%
%ADD16C,0.800000*%
%ADD17C,6.400000*%
%ADD18RoundRect,0.250000X0.600000X-0.600000X0.600000X0.600000X-0.600000X0.600000X-0.600000X-0.600000X0*%
%ADD19C,1.700000*%
%ADD20RoundRect,0.150000X-0.825000X-0.150000X0.825000X-0.150000X0.825000X0.150000X-0.825000X0.150000X0*%
%ADD21RoundRect,0.250000X0.650000X-0.412500X0.650000X0.412500X-0.650000X0.412500X-0.650000X-0.412500X0*%
%ADD22RoundRect,0.225000X-0.225000X-0.375000X0.225000X-0.375000X0.225000X0.375000X-0.225000X0.375000X0*%
%ADD23RoundRect,0.250000X-0.625000X0.400000X-0.625000X-0.400000X0.625000X-0.400000X0.625000X0.400000X0*%
%ADD24RoundRect,0.250000X-1.450000X0.400000X-1.450000X-0.400000X1.450000X-0.400000X1.450000X0.400000X0*%
G04 APERTURE END LIST*
D10*
%TO.C,J5*%
X17653000Y-73914000D03*
D11*
X17653000Y-66293984D03*
D10*
X22733011Y-73914000D03*
X22733011Y-66293984D03*
X27813021Y-73914000D03*
X27813021Y-66293984D03*
X32893031Y-73899776D03*
X32893031Y-66293984D03*
X37973041Y-73914000D03*
X37973041Y-66293984D03*
X43053051Y-73914000D03*
X43053051Y-66293984D03*
X48133061Y-73923906D03*
X48133061Y-66303890D03*
X53213072Y-73918826D03*
X53213072Y-66298810D03*
%TD*%
D12*
%TO.C,JP2*%
X10419000Y-25141000D03*
D13*
X10419000Y-27681000D03*
%TD*%
D12*
%TO.C,JP7*%
X7874000Y-40640000D03*
D13*
X7874000Y-43180000D03*
%TD*%
D12*
%TO.C,JP1*%
X7879000Y-25146000D03*
D13*
X7879000Y-27686000D03*
%TD*%
D10*
%TO.C,J3*%
X17653000Y-58674000D03*
D11*
X17653000Y-51053984D03*
D10*
X22733011Y-58674000D03*
X22733011Y-51053984D03*
X27813021Y-58674000D03*
X27813021Y-51053984D03*
X32893031Y-58659776D03*
X32893031Y-51053984D03*
X37973041Y-58674000D03*
X37973041Y-51053984D03*
X43053051Y-58674000D03*
X43053051Y-51053984D03*
X48133061Y-58683906D03*
X48133061Y-51063890D03*
X53213072Y-58678826D03*
X53213072Y-51058810D03*
%TD*%
D14*
%TO.C,J7*%
X5952800Y-10000000D03*
D15*
X4682800Y-10000000D03*
X5952800Y-11270000D03*
X4682800Y-11270000D03*
X5952800Y-12540000D03*
X4682800Y-12540000D03*
X5952800Y-13810000D03*
X4682800Y-13810000D03*
%TD*%
D12*
%TO.C,JP9*%
X12954000Y-40640000D03*
D13*
X12954000Y-43180000D03*
%TD*%
D12*
%TO.C,JP11*%
X10414000Y-71374000D03*
D13*
X10414000Y-73914000D03*
%TD*%
D12*
%TO.C,JP12*%
X12954000Y-71374000D03*
D13*
X12954000Y-73914000D03*
%TD*%
D14*
%TO.C,J6*%
X59029600Y-13810000D03*
D15*
X60299600Y-13810000D03*
X59029600Y-12540000D03*
X60299600Y-12540000D03*
X59029600Y-11270000D03*
X60299600Y-11270000D03*
X59029600Y-10000000D03*
X60299600Y-10000000D03*
%TD*%
D12*
%TO.C,JP3*%
X12959000Y-25141000D03*
D13*
X12959000Y-27681000D03*
%TD*%
D16*
%TO.C,H3*%
X57600000Y-88000000D03*
X58302944Y-86302944D03*
X58302944Y-89697056D03*
X60000000Y-85600000D03*
D17*
X60000000Y-88000000D03*
D16*
X60000000Y-90400000D03*
X61697056Y-86302944D03*
X61697056Y-89697056D03*
X62400000Y-88000000D03*
%TD*%
%TO.C,H1*%
X2600000Y-5000000D03*
X3302944Y-3302944D03*
X3302944Y-6697056D03*
X5000000Y-2600000D03*
D17*
X5000000Y-5000000D03*
D16*
X5000000Y-7400000D03*
X6697056Y-3302944D03*
X6697056Y-6697056D03*
X7400000Y-5000000D03*
%TD*%
D12*
%TO.C,JP10*%
X7874000Y-71379000D03*
D13*
X7874000Y-73919000D03*
%TD*%
D16*
%TO.C,H4*%
X57600000Y-5000000D03*
X58302944Y-3302944D03*
X58302944Y-6697056D03*
X60000000Y-2600000D03*
D17*
X60000000Y-5000000D03*
D16*
X60000000Y-7400000D03*
X61697056Y-3302944D03*
X61697056Y-6697056D03*
X62400000Y-5000000D03*
%TD*%
D10*
%TO.C,J2*%
X17653000Y-27686000D03*
D11*
X17653000Y-20065984D03*
D10*
X22733011Y-27686000D03*
X22733011Y-20065984D03*
X27813021Y-27686000D03*
X27813021Y-20065984D03*
X32893031Y-27671776D03*
X32893031Y-20065984D03*
X37973041Y-27686000D03*
X37973041Y-20065984D03*
X43053051Y-27686000D03*
X43053051Y-20065984D03*
X48133061Y-27695906D03*
X48133061Y-20075890D03*
X53213072Y-27690826D03*
X53213072Y-20070810D03*
%TD*%
%TO.C,J4*%
X17653000Y-43180000D03*
D11*
X17653000Y-35559984D03*
D10*
X22733011Y-43180000D03*
X22733011Y-35559984D03*
X27813021Y-43180000D03*
X27813021Y-35559984D03*
X32893031Y-43165776D03*
X32893031Y-35559984D03*
X37973041Y-43180000D03*
X37973041Y-35559984D03*
X43053051Y-43180000D03*
X43053051Y-35559984D03*
X48133061Y-43189906D03*
X48133061Y-35569890D03*
X53213072Y-43184826D03*
X53213072Y-35564810D03*
%TD*%
D16*
%TO.C,H2*%
X2600000Y-88000000D03*
X3302944Y-86302944D03*
X3302944Y-89697056D03*
X5000000Y-85600000D03*
D17*
X5000000Y-88000000D03*
D16*
X5000000Y-90400000D03*
X6697056Y-86302944D03*
X6697056Y-89697056D03*
X7400000Y-88000000D03*
%TD*%
D12*
%TO.C,JP4*%
X7874000Y-56139000D03*
D13*
X7874000Y-58679000D03*
%TD*%
D12*
%TO.C,JP5*%
X10414000Y-56134000D03*
D13*
X10414000Y-58674000D03*
%TD*%
D18*
%TO.C,J1*%
X16891000Y-7239000D03*
D19*
X16891000Y-4699000D03*
X19431000Y-7239000D03*
X19431000Y-4699000D03*
X21971000Y-7239000D03*
X21971000Y-4699000D03*
X24511000Y-7239000D03*
X24511000Y-4699000D03*
X27051000Y-7239000D03*
X27051000Y-4699000D03*
X29591000Y-7239000D03*
X29591000Y-4699000D03*
X32131000Y-7239000D03*
X32131000Y-4699000D03*
X34671000Y-7239000D03*
X34671000Y-4699000D03*
X37211000Y-7239000D03*
X37211000Y-4699000D03*
X39751000Y-7239000D03*
X39751000Y-4699000D03*
X42291000Y-7239000D03*
X42291000Y-4699000D03*
X44831000Y-7239000D03*
X44831000Y-4699000D03*
X47371000Y-7239000D03*
X47371000Y-4699000D03*
%TD*%
D12*
%TO.C,JP8*%
X10414000Y-40640000D03*
D13*
X10414000Y-43180000D03*
%TD*%
D12*
%TO.C,JP6*%
X12954000Y-56134000D03*
D13*
X12954000Y-58674000D03*
%TD*%
D20*
%TO.C,U2*%
X28448000Y-89886300D03*
X28448000Y-88616300D03*
X28448000Y-87346300D03*
X28448000Y-86076300D03*
X28448000Y-84806300D03*
X28448000Y-83536300D03*
X28448000Y-82266300D03*
X28448000Y-80996300D03*
X33398000Y-80996300D03*
X33398000Y-82266300D03*
X33398000Y-83536300D03*
X33398000Y-84806300D03*
X33398000Y-86076300D03*
X33398000Y-87346300D03*
X33398000Y-88616300D03*
X33398000Y-89886300D03*
%TD*%
%TO.C,U3*%
X40832000Y-89886300D03*
X40832000Y-88616300D03*
X40832000Y-87346300D03*
X40832000Y-86076300D03*
X40832000Y-84806300D03*
X40832000Y-83536300D03*
X40832000Y-82266300D03*
X40832000Y-80996300D03*
X45782000Y-80996300D03*
X45782000Y-82266300D03*
X45782000Y-83536300D03*
X45782000Y-84806300D03*
X45782000Y-86076300D03*
X45782000Y-87346300D03*
X45782000Y-88616300D03*
X45782000Y-89886300D03*
%TD*%
D21*
%TO.C,C3*%
X48895000Y-91097500D03*
X48895000Y-87972500D03*
%TD*%
D20*
%TO.C,U1*%
X16067000Y-89886300D03*
X16067000Y-88616300D03*
X16067000Y-87346300D03*
X16067000Y-86076300D03*
X16067000Y-84806300D03*
X16067000Y-83536300D03*
X16067000Y-82266300D03*
X16067000Y-80996300D03*
X21017000Y-80996300D03*
X21017000Y-82266300D03*
X21017000Y-83536300D03*
X21017000Y-84806300D03*
X21017000Y-86076300D03*
X21017000Y-87346300D03*
X21017000Y-88616300D03*
X21017000Y-89886300D03*
%TD*%
D22*
%TO.C,D1*%
X5461000Y-22733000D03*
X8761000Y-22733000D03*
%TD*%
D23*
%TO.C,R1*%
X5461000Y-17373000D03*
X5461000Y-20473000D03*
%TD*%
D24*
%TO.C,F1*%
X49123600Y-12303800D03*
X49123600Y-16753800D03*
%TD*%
D21*
%TO.C,C2*%
X36449000Y-91097500D03*
X36449000Y-87972500D03*
%TD*%
%TO.C,C1*%
X24130000Y-91097500D03*
X24130000Y-87972500D03*
%TD*%
M02*
